<?xml version="1.0" encoding="utf-8" ?>
<svg baseProfile="tiny" height="704" version="1.2" width="1248" xmlns="http://www.w3.org/2000/svg" xmlns:ev="http://www.w3.org/2001/xml-events" xmlns:xlink="http://www.w3.org/1999/xlink"><defs /><polyline fill="none" points="552,626 551,627 527,627 526,628 507,628 506,629 495,629 494,630 486,630 485,631 479,631 478,632 473,632 472,633 467,633 466,634 463,634 462,635 459,635 458,636 455,636 454,637 453,637 452,638 450,638 449,639 449,642 451,644 453,644 454,645 456,645 457,646 460,646 461,647 465,647 466,648 472,648 473,649 479,649 480,650 487,650 488,651 495,651 496,652 509,652 510,653 521,653 522,654 542,654 543,655 576,655 577,656 591,656 592,655 626,655 627,654 645,654 646,653 660,653 661,652 671,652 672,651 680,651 681,650 688,650 689,649 695,649 696,648 701,648 702,647 706,647 707,646 710,646 711,645 713,645 714,644 716,644 717,643 717,641 718,640 717,639 716,639 715,638 714,638 713,637 711,637 710,636 707,636 706,635 702,635 701,634 697,634 696,633 690,633 689,632 683,632 682,631 676,631 675,630 669,630 675,630 676,631 682,631 683,632 689,632 690,633 696,633 697,634 701,634 702,635 706,635 707,636 710,636 711,637 713,637 715,639 716,639 717,640 717,642 715,644 714,644 713,645 711,645 710,646 707,646 706,647 702,647 701,648 696,648 695,649 689,649 688,650 681,650 680,651 672,651 671,652 661,652 660,653 646,653 645,654 627,654 626,655 592,655 591,656 577,656 576,655 543,655 542,654 522,654 521,653 510,653 509,652 496,652 495,651 488,651 487,650 480,650 479,649 473,649 472,648 466,648 465,647 461,647 460,646 457,646 456,645 454,645 453,644 452,644 449,641 449,640 451,638 452,638 453,637 454,637 455,636 458,636 459,635 462,635 463,634 466,634 467,633 472,633 473,632 478,632 479,631 485,631 486,630 494,630 495,629 506,629 507,628 526,628 527,627 551,627 552,626 569,626" stroke="black" stroke-width="1" /><polyline fill="none" points="641,612 642,611 649,611 652,614 652,615 655,618 655,619 657,621 657,622 658,623 658,624 659,625 659,627 660,628 660,630 659,631 651,631 650,632 639,632 638,633 626,633 624,631 624,629 625,628 625,626 624,625 624,622 631,615 632,615 634,613 636,613 637,612" stroke="black" stroke-width="1" /><polyline fill="none" points="634,599 633,600 630,600 629,601 625,601 624,602 620,602 619,603 616,603 615,604 614,603 613,604 609,604 608,605 605,605 604,606 601,606 600,607 599,607 595,611 595,612 594,613 594,614 592,616 592,617 591,618 591,619 590,620 590,622 589,623 589,625 588,626 588,628 587,629 587,630 586,631 592,631 593,632 605,632 606,633 622,633 606,633 605,632 593,632 592,631 588,631 587,630 587,629 588,628 588,626 589,625 589,623 590,622 590,621 591,620 591,619 592,618 592,617 594,615 594,614 595,613 595,612 600,607 601,607 602,606 604,606 605,605 608,605 609,604 613,604 614,603 615,604 616,604 617,605 617,606 618,607 618,609 620,611 620,612 621,613 621,614 622,615 622,616 623,617 623,619 623,617 622,616 622,614 621,613 621,612 620,611 620,610 618,608 618,606 616,604 617,603 619,603 620,602 624,602 625,601 629,601 630,600 634,600 635,599 636,599 637,600 638,600 639,601 640,601 642,603 643,603 645,605 646,605 649,608 649,610 648,611 642,611 641,612 637,612 636,613 634,613 633,614 632,614 631,615 630,615 625,620 625,621 624,622 624,625 625,626 625,628 624,629 624,632 625,633 638,633 639,632 650,632 651,631 660,631 660,628 659,627 659,625 658,624 658,622 657,621 657,620 655,618 655,617 652,614 652,613 649,610 649,607 647,605 646,605 644,603 643,603 641,601 640,601 639,600 637,600 636,599" stroke="black" stroke-width="1" /><polyline fill="none" points="589,561 588,562 583,562 582,563 580,563 579,564 576,564 575,565 574,565 573,566 572,566 571,567 570,567 569,568 568,568 564,572 564,573 562,575 562,576 561,577 561,578 560,579 560,581 559,582 559,583 557,585 557,586 556,587 556,588 555,589 555,591 553,593 553,594 552,595 552,596 553,595 553,594 555,592 555,589 557,587 557,586 559,584 559,582 560,581 560,580 561,579 561,577 564,574 564,573 569,568 570,568 571,567 572,567 573,566 574,566 575,565 576,565 577,566 577,567 578,568 579,568 583,572 583,573 587,577 587,578 588,579 588,580 589,581 589,582 591,584 591,586 592,587 592,593 591,594 592,595 591,596 592,597 597,597 598,596 606,596 607,595 612,595 613,594 620,594 621,593 628,593 628,592 629,591 628,590 628,588 627,587 627,586 624,583 624,582 622,580 622,579 616,573 615,574 609,574 608,575 606,575 605,576 603,576 602,577 600,577 599,578 598,578 597,579 596,579 594,581 593,581 593,582 594,581 595,581 597,579 598,579 600,577 602,577 603,576 605,576 606,575 608,575 609,574 616,574 622,580 622,581 624,583 624,584 627,587 627,588 628,589 628,590 629,591 627,593 621,593 620,594 613,594 612,595 607,595 606,596 598,596 597,597 593,597 592,596 592,595 591,594 592,593 592,587 591,586 591,584 590,583 590,582 589,581 589,580 588,579 588,578 587,577 587,576 583,572 583,571 580,568 579,568 576,565 577,564 579,564 580,563 582,563 583,562 588,562 589,561 595,561 596,562 601,562 602,563 604,563 605,564 606,564 607,565 608,565 609,566 610,566 612,568 613,568 616,571 617,571 614,568 613,568 611,566 610,566 609,565 608,565 607,564 605,564 604,563 602,563 601,562 596,562 595,561" stroke="black" stroke-width="1" /><polyline fill="none" points="607,551 607,553 606,554 606,560 607,561 609,561 610,562 611,562 613,564 614,564 617,567 618,567 621,570 623,570 624,571 626,571 627,570 627,568 628,567 628,562 629,561 629,556 629,561 628,562 628,567 627,568 627,570 626,571 624,571 623,570 622,570 619,567 618,567 615,564 614,564 613,563 612,563 611,562 610,562 609,561 608,561 606,559 606,554 607,553 607,552 608,551 610,551 611,552 614,552 615,553 622,553 623,554 630,554 623,554 622,553 615,553 614,552 611,552 610,551" stroke="black" stroke-width="1" /><polyline fill="none" points="594,548 595,547 602,547 604,549 604,551 603,552 603,555 602,556 602,557 601,558 595,558 593,556 593,554 594,553" stroke="black" stroke-width="1" /><polyline fill="none" points="594,547 594,553 593,554 593,557 594,557 595,558 602,558 602,556 603,555 603,552 604,551 604,548 603,547" stroke="black" stroke-width="1" /><polyline fill="none" points="631,544 631,548 630,549 630,550 629,551 623,551 622,550 616,550 615,549 611,549 610,548 609,548 608,547 606,547 608,547 609,548 610,548 611,549 615,549 616,550 622,550 623,551 630,551 630,549 631,548 631,545 632,544 633,544" stroke="black" stroke-width="1" /><polyline fill="none" points="575,543 574,544 573,544 572,545 571,545 570,546 569,546 568,547 567,547 567,548 568,549 568,550 568,549 567,548 568,547 569,547 570,546 571,546 572,545 573,545 575,543 576,543" stroke="black" stroke-width="1" /><polyline fill="none" points="588,540 587,541 587,543 590,546 590,553 587,556 586,556 585,557 582,557 581,558 575,558 574,559 570,559 569,558 569,553 569,558 570,559 574,559 575,558 581,558 582,557 585,557 586,556 588,556 590,554 590,546 589,545 589,544 587,542 589,540 591,542 591,543 592,544 593,544 591,542 591,541 590,540" stroke="black" stroke-width="1" /><polyline fill="none" points="554,536 554,537 556,537 559,540 560,540 563,543 564,543 566,545 567,544 568,544 569,543 570,543 572,541 576,541 571,541 569,543 568,543 566,545 564,543 563,543 558,538 557,538 556,537 555,537" stroke="black" stroke-width="1" /><polyline fill="none" points="664,508 668,508 671,511 671,514 668,517 667,517 666,518 665,517 664,517 661,514 661,511" stroke="black" stroke-width="1" /><polyline fill="none" points="663,508 662,509 662,510 661,511 661,515 663,517 665,517 666,518 667,517 669,517 670,516 670,515 671,514 671,510 669,508" stroke="black" stroke-width="1" /><polyline fill="none" points="447,502 446,503 445,503 445,504 443,506 443,508 442,509 442,516 443,517 443,519 445,521 445,522 446,523 447,523 449,525 451,525 452,526 460,526 461,525 462,525 463,524 464,524 466,522 467,522 469,520 469,519 470,518 470,517 471,516 471,515 472,514 472,512 472,514 471,515 471,516 469,518 469,519 465,523 464,523 462,525 461,525 460,526 452,526 451,525 450,525 448,523 447,523 444,520 444,519 443,518 443,516 442,515 442,509 443,508 443,507 444,506 444,505 447,502 449,502" stroke="black" stroke-width="1" /><polyline fill="none" points="494,498 494,499 493,500 492,500 492,502 491,503 491,505 490,506 490,507 489,508 489,509 488,510 488,512 487,513 487,514 483,518 482,518 481,517 480,517 479,516 478,516 479,517 481,517 482,518 483,518 484,517 485,517 487,515 487,514 488,513 488,511 489,510 489,508 490,507 490,506 491,505 491,503 492,502 492,501 494,499 499,504 499,505 505,511 506,511 514,519 515,519 517,521 518,521 521,524 522,524 524,526 525,526 527,528 528,528 529,529 530,529 531,530 532,530 533,531 534,531 535,532 536,532 537,533 539,533 540,534 542,534 543,535 545,535 546,536 548,536 549,537 550,537 553,540 554,540 558,544 559,544 562,547 563,547 565,549 565,554 566,555 566,560 563,563 561,563 560,564 559,564 558,565 557,565 548,574 548,575 546,577 546,578 544,580 544,581 543,582 543,584 542,585 542,587 541,588 541,590 540,591 540,594 539,595 539,600 538,601 539,602 539,603 540,603 541,604 548,604 549,605 559,605 560,606 581,606 560,606 559,605 549,605 548,604 541,604 538,601 539,600 539,595 540,594 540,591 541,590 541,588 542,587 542,586 543,585 543,583 544,582 544,581 546,579 546,578 548,576 548,575 558,565 559,565 561,563 563,563 564,562 565,562 566,561 566,555 565,554 565,548 564,547 563,547 561,545 560,545 555,540 554,540 551,537 550,537 549,536 546,536 545,535 543,535 542,534 540,534 539,533 538,533 537,532 536,532 535,531 534,531 533,530 532,530 531,529 530,529 529,528 528,528 526,526 525,526 523,524 522,524 519,521 518,521 516,519 515,519 508,512 507,512 499,504 499,503" stroke="black" stroke-width="1" /><polyline fill="none" points="573,495 574,494 575,494 576,495 577,495 579,497 579,498 580,499 579,500 579,502 577,504 573,504 570,501 570,497 572,495" stroke="black" stroke-width="1" /><polyline fill="none" points="438,495 439,494 440,495 441,495 442,496 444,496 445,497 446,497 447,498 449,498 450,499 453,499 454,500 458,500 459,501 461,501 462,502 463,502 465,504 467,504 468,505 469,505 471,507 471,508 475,512 475,513 476,514 476,515 475,516 475,517 474,518 474,519 471,522 471,523 470,524 469,524 466,527 465,527 464,528 463,528 462,529 461,529 460,530 453,530 452,529 449,529 447,527 446,527 445,526 444,526 437,519 437,518 435,516 435,515 434,514 434,512 433,511 433,502 434,501 434,499 436,497 436,496 437,495" stroke="black" stroke-width="1" /><polyline fill="none" points="574,494 573,495 571,495 570,496 570,502 572,504 578,504 578,503 579,502 579,500 580,499 579,498 579,496 578,495 576,495 575,494" stroke="black" stroke-width="1" /><polyline fill="none" points="731,480 730,481 729,481 728,482 727,482 723,486 722,486 719,489 719,490 723,486 724,486 728,482 729,482 730,481 731,481" stroke="black" stroke-width="1" /><polyline fill="none" points="491,474 492,474 493,475 493,476 494,477 494,485 493,486 493,490 492,491 492,494 491,495 491,496 492,497 491,496 491,495 492,494 492,491 493,490 493,486 494,485 494,476 492,474" stroke="black" stroke-width="1" /><polyline fill="none" points="725,461 723,463 722,463 721,464 720,464 718,466 717,466 713,470 712,470 709,473 708,473 709,473 710,472 711,472 713,470 714,470 718,466 719,466 721,464 722,464 723,463 724,463 726,461 727,461" stroke="black" stroke-width="1" /><polyline fill="none" points="463,461 465,461 466,462 470,462 472,464 472,466 471,467 470,467 470,468 469,469 469,470 468,471 468,472 467,473 467,474 466,475 466,477 464,479 464,480 463,481 463,482 462,483 462,485 461,486 461,488 460,489 460,490 459,491 459,492 457,494 457,497 457,495 459,493 459,492 460,491 460,489 461,488 461,486 462,485 462,484 463,483 463,482 464,481 464,480 466,478 466,476 467,475 467,474 468,473 468,472 469,471 469,470 470,469 470,468 472,466 473,467 474,467 476,469 478,469 479,470 480,470 482,472 483,472 484,473 486,473 488,475 488,477 487,478 487,479 486,480 486,482 485,483 485,485 484,486 484,487 483,488 483,490 482,491 482,493 481,494 481,496 480,497 480,498 479,499 479,501 477,503 477,504 475,506 476,506 477,505 477,504 478,503 478,502 479,501 479,499 480,498 480,497 481,496 481,494 482,493 482,491 483,490 483,488 484,487 484,486 485,485 485,483 486,482 486,481 487,480 487,478 488,477 488,474 487,473 485,473 484,472 483,472 481,470 480,470 479,469 477,469 476,468 475,468 474,467 473,467 472,466 472,463 471,462 466,462 465,461" stroke="black" stroke-width="1" /><polyline fill="none" points="669,450 669,452 668,453 668,456 667,457 667,459 666,460 666,461 664,463 664,464 661,467 661,468 659,470 658,470 657,469 655,469 654,470 654,471 653,472 652,472 651,471 651,470 651,471 650,472 649,472 648,473 648,475 650,477 648,479 647,479 646,480 643,480 642,481 629,481 628,480 626,480 625,479 623,479 622,478 623,477 623,476 625,474 625,473 626,472 625,472 625,473 623,475 623,476 621,478 621,479 620,480 618,478 617,478 616,477 615,477 614,476 613,476 608,471 607,471 605,469 605,468 601,464 601,463 599,461 599,462 601,464 601,465 605,469 605,470 606,471 607,471 612,476 613,476 614,477 615,477 616,478 617,478 619,480 620,480 622,482 625,482 626,483 628,483 629,484 637,484 638,485 639,485 640,484 643,484 644,483 647,483 648,482 650,482 651,481 652,481 655,478 656,478 664,470 664,469 667,466 667,465 668,464 675,464 676,465 679,465 682,468 682,471 681,472 681,480 680,481 680,488 679,489 679,496 678,497 678,504 677,505 677,513 676,514 676,521 675,522 675,523 676,524 675,523 675,522 676,521 676,514 677,513 677,505 678,504 678,497 679,496 679,489 680,488 680,481 681,480 681,472 682,471 682,468 681,467 681,466 680,466 679,465 676,465 675,464 670,464 668,462 668,463 667,464 667,465 665,467 665,468 655,478 654,478 651,481 650,481 649,482 648,482 647,483 644,483 643,484 640,484 639,485 638,485 637,484 629,484 628,483 626,483 625,482 623,482 622,481 621,481 620,480 622,478 623,479 625,479 626,480 628,480 629,481 642,481 643,480 646,480 647,479 648,479 650,477 651,478 651,476 650,476 648,474 648,473 649,472 650,472 651,471 654,474 653,475 654,474 653,473 653,472 656,469 657,470 659,470 662,467 662,466 665,463 665,462 667,460 667,457 668,456 668,453 669,452" stroke="black" stroke-width="1" /><polyline fill="none" points="718,448 716,450 715,450 712,453 711,453 709,455 708,455 706,457 705,457 704,458 703,458 701,460 700,460 700,462 704,466 704,467 706,469 706,470 707,471 706,470 706,469 704,467 704,466 702,464 702,463 701,463 700,462 700,461 701,460 702,460 704,458 705,458 706,457 707,457 709,455 710,455 712,453 713,453 716,450 717,450 718,449 721,452 721,453 722,454 722,455 724,457 724,458 725,459 724,458 724,457 723,456 723,455 721,453 721,452 718,449 719,448" stroke="black" stroke-width="1" /><polyline fill="none" points="573,448 572,449 571,449 571,450 570,451 570,453 569,454 569,459 568,460 568,465 567,466 567,472 566,473 566,478 565,479 565,484 564,485 564,489 563,490 563,495 562,496 562,504 561,505 561,506 562,507 562,509 564,509 564,508 565,507 564,506 564,504 565,503 565,496 566,495 566,490 567,489 567,484 568,483 568,478 569,477 569,473 570,472 570,466 571,465 571,459 572,458 572,454 575,451 583,451 584,452 590,452 591,453 593,453 595,455 595,457 596,458 596,460 597,461 597,462 597,460 596,459 596,458 595,457 595,454 594,453 591,453 590,452 584,452 583,451 574,451 573,452 573,453 572,454 572,458 571,459 571,465 570,466 570,472 569,473 569,477 568,478 568,483 567,484 567,489 566,490 566,495 565,496 565,503 564,504 564,506 565,507 563,509 562,508 562,507 561,506 561,505 562,504 562,496 563,495 563,490 564,489 564,485 565,484 565,479 566,478 566,473 567,472 567,466 568,465 568,460 569,459 569,454 570,453 570,452 571,451 571,450 572,449 573,449 574,448 582,448 583,449 588,449 589,450 594,450 594,449 593,450 589,450 588,449 583,449 582,448" stroke="black" stroke-width="1" /><polyline fill="none" points="634,446 643,446 645,448 646,448 647,449 647,450 648,451 647,452 647,453 645,455 645,456 644,457 643,457 642,458 639,458 638,457 637,457 636,456 635,456 631,452 631,449" stroke="black" stroke-width="1" /><polyline fill="none" points="633,446 631,448 631,452 632,453 632,454 634,456 636,456 637,457 638,457 639,458 643,458 647,454 647,452 648,451 647,450 647,448 646,448 645,447 644,447 643,446" stroke="black" stroke-width="1" /><polyline fill="none" points="605,439 604,440 604,449 605,450 605,454 606,455 606,457 607,458 607,460 608,461 608,462 609,463 609,464 610,465 610,466 611,467 611,468 613,470 613,471 616,474 619,474 620,473 620,472 622,470 622,469 620,471 620,472 618,474 617,474 613,470 613,469 611,467 611,466 610,465 610,464 609,463 609,462 608,461 608,460 607,459 607,458 606,457 606,455 605,454 605,450 604,449 604,441 606,439 607,439 608,440 609,439 608,440 607,439" stroke="black" stroke-width="1" /><polyline fill="none" points="711,435 711,436 710,437 709,437 709,438 708,439 708,440 706,442 706,443 704,445 704,446 700,450 699,450 698,451 698,452 700,450 701,450 704,447 704,446 706,444 706,443 708,441 708,440 709,439 709,438 711,436" stroke="black" stroke-width="1" /><polyline fill="none" points="478,429 479,429 480,430 481,430 482,431 483,431 484,432 485,432 487,434 488,434 491,437 492,437 496,441 496,442 495,443 495,444 493,446 493,447 492,448 492,449 491,450 491,451 489,453 486,450 485,450 484,449 483,449 481,447 480,447 478,445 477,445 476,444 475,444 474,443 473,443 471,441 471,440 473,438 473,437 474,436 474,435 475,434 475,433 476,432 476,431" stroke="black" stroke-width="1" /><polyline fill="none" points="478,429 476,431 476,432 475,433 475,434 474,435 474,436 472,438 472,439 471,440 471,442 472,443 473,443 474,444 475,444 476,445 477,445 478,446 479,446 481,448 482,448 484,450 485,450 487,452 488,452 489,453 490,452 491,452 491,451 492,450 492,449 493,448 493,447 495,445 495,444 496,443 496,441 497,440 496,440 493,437 492,437 489,434 488,434 486,432 485,432 484,431 483,431 482,430 481,430 480,429" stroke="black" stroke-width="1" /><polyline fill="none" points="663,428 664,427 665,427 667,429 667,430 666,431 665,431 663,429" stroke="black" stroke-width="1" /><polyline fill="none" points="663,427 662,428 663,429 663,430 664,430 665,431 668,431 669,432 669,434 669,432 667,430 667,428 666,428 665,427" stroke="black" stroke-width="1" /><polyline fill="none" points="636,420 639,420 643,424 643,425 644,426 642,428 639,428 638,427 636,427 634,425 634,424 633,423" stroke="black" stroke-width="1" /><polyline fill="none" points="635,420 633,422 633,423 634,424 634,426 635,426 636,427 638,427 639,428 643,428 643,427 644,426 643,425 643,423 640,420" stroke="black" stroke-width="1" /><polyline fill="none" points="630,417 631,416 643,416 644,417 645,417 646,418 647,418 650,421 651,421 654,424 654,425 656,427 656,428 659,431 659,433 660,434 660,438 661,439 661,446 660,447 660,451 659,452 659,453 658,454 658,455 657,456 657,457 654,460 654,461 650,465 649,465 646,468 645,468 644,469 643,469 642,470 638,470 637,471 635,471 634,470 630,470 629,469 627,469 626,468 625,468 616,459 616,458 615,457 615,456 613,454 613,452 612,451 612,443 611,442 611,439 612,438 612,436 613,435 613,433 614,432 614,431 615,430 615,429 619,425 619,424 623,420 624,420 626,418 627,418 628,417" stroke="black" stroke-width="1" /><polyline fill="none" points="486,413 486,414 485,415 485,416 484,417 484,418 483,419 484,418 484,417 486,415 486,414 487,413 488,413 489,414 490,414 491,415 492,415 493,416 494,416 496,418 497,418 503,424 504,424 505,425 505,427 503,429 503,430 500,433 500,435 498,437 497,437 494,434 493,434 490,431 489,431 487,429 486,429 485,428 483,428 481,426 480,426 479,425 481,423 481,422 482,421 480,423 480,424 479,425 479,426 480,426 481,427 482,427 483,428 484,428 485,429 486,429 488,431 489,431 492,434 493,434 496,437 499,437 499,436 500,435 500,434 503,431 503,430 504,429 504,428 505,427 505,425 498,418 497,418 495,416 494,416 493,415 491,415 489,413" stroke="black" stroke-width="1" /><polyline fill="none" points="651,408 651,410 650,411 650,413 649,414 649,415 651,417 653,417 654,416 654,415 655,414 657,416 655,418 655,420 656,421 654,423 652,421 651,421 648,418 647,418 646,417 644,417 643,416 631,416 630,417 628,417 627,418 625,418 623,420 622,420 619,423 619,424 615,428 615,430 614,431 614,432 613,433 613,435 612,436 612,438 611,439 611,442 612,443 612,451 613,452 613,454 614,455 614,456 615,457 615,458 616,459 616,460 623,467 624,467 626,469 629,469 630,470 634,470 635,471 637,471 638,470 642,470 643,469 645,469 646,468 647,468 650,465 651,465 654,462 654,461 657,458 657,457 658,456 658,455 659,454 659,452 660,451 660,447 661,446 661,439 660,438 660,434 659,433 659,431 658,430 658,429 656,427 656,426 654,424 654,423 655,422 657,422 658,423 658,424 660,426 658,424 658,423 655,420 655,419 657,417 657,416 655,414 654,414 654,416 653,417 652,417 651,416 650,416 649,415 650,414 650,411 652,409 655,412 656,412 655,411 654,411" stroke="black" stroke-width="1" /><polyline fill="none" points="637,405 637,408 636,409 636,411 636,409 637,408 637,406 638,405 642,405 643,406 645,406 646,407 647,407 648,408 647,409 647,411 646,412 646,413 645,414 646,415 646,412 647,411 647,410 648,409 648,408 646,406 643,406 642,405" stroke="black" stroke-width="1" /><polyline fill="none" points="628,405 627,406 625,406 624,407 622,407 621,408 620,408 618,410 617,410 616,411 616,412 614,414 614,415 612,417 612,418 610,420 610,421 609,422 609,423 608,424 608,426 607,427 607,429 606,430 606,433 605,434 606,435 607,435 609,437 609,436 608,436 606,434 606,430 607,429 607,428 608,427 608,425 609,424 609,423 610,422 610,421 612,419 612,418 614,416 614,415 616,413 616,412 618,410 619,410 621,408 622,408 623,407 624,407 625,406 627,406 628,405 632,405 633,406 632,407 632,408 633,409 633,411 634,412 634,411 633,410 633,409 632,408 632,407 633,406 632,405" stroke="black" stroke-width="1" /><polyline fill="none" points="627,402 626,403 624,403 623,404 621,404 620,405 618,405 616,407 615,407 614,408 613,408 610,411 609,411 606,414 606,415 602,419 602,420 600,422 600,423 599,424 599,425 598,426 598,427 597,428 597,431 596,432 596,448 596,432 597,431 597,429 598,428 598,427 599,426 599,425 600,424 600,423 602,421 602,420 605,417 605,416 610,411 611,411 614,408 615,408 616,407 617,407 619,405 620,405 621,404 623,404 624,403 626,403 627,402 643,402 644,403 646,403 647,404 649,404 651,406 652,406 653,407 654,407 656,409 657,409 666,418 666,419 667,420 667,421 669,423 669,424 670,425 670,427 671,428 671,430 672,431 672,437 673,438 673,447 672,448 672,453 671,454 671,456 670,457 670,461 674,461 675,462 680,462 684,466 684,467 685,468 685,471 684,472 684,480 683,481 683,487 682,488 682,496 681,497 681,503 680,504 680,512 679,513 679,521 678,522 678,526 681,526 682,527 687,527 688,526 688,518 689,517 689,509 690,508 690,499 691,498 691,489 692,488 692,475 693,474 693,463 693,474 692,475 692,488 691,489 691,498 690,499 690,508 689,509 689,517 688,518 688,525 686,527 682,527 681,526 679,526 678,525 678,522 679,521 679,513 680,512 680,504 681,503 681,497 682,496 682,488 683,487 683,481 684,480 684,472 685,471 685,468 684,467 684,465 682,463 681,463 680,462 675,462 674,461 671,461 670,460 670,457 671,456 671,454 672,453 672,448 673,447 673,438 672,437 672,431 671,430 671,428 670,427 670,425 669,424 669,423 668,422 668,421 667,420 667,419 666,418 666,417 658,409 657,409 655,407 654,407 653,406 652,406 651,405 650,405 649,404 647,404 646,403 644,403 643,402" stroke="black" stroke-width="1" /><polyline fill="none" points="495,400 496,399 501,399 502,400 503,400 504,401 505,401 513,409 513,412 512,413 512,414 510,416 510,417 509,418 509,419 508,420 508,421 507,422 506,422 505,421 505,420 504,420 500,416 499,416 497,414 496,414 495,413 494,413 493,412 492,412 491,411 490,411 488,409 489,408 489,407 490,406 490,405 492,403 492,402 494,400" stroke="black" stroke-width="1" /><polyline fill="none" points="700,398 707,405 707,406 709,408 709,410 710,411 710,412 711,413 711,415 710,416 701,416 700,415 700,402 700,416 711,416 711,413 710,412 710,410 709,409 709,407 707,405 707,404 701,398" stroke="black" stroke-width="1" /><polyline fill="none" points="683,394 687,394 690,397 690,401 687,404 686,404 685,405 684,405 683,404 682,404 681,403 681,402 680,401 680,397" stroke="black" stroke-width="1" /><polyline fill="none" points="682,394 680,396 680,402 681,403 681,404 683,404 684,405 685,405 686,404 688,404 690,402 690,396 688,394" stroke="black" stroke-width="1" /><polyline fill="none" points="698,391 698,399 697,400 697,421 696,422 696,440 695,441 695,451 696,452 695,453 695,456 694,457 694,458 694,457 695,456 695,453 696,452 695,451 695,441 696,440 696,422 697,421 697,400 698,399" stroke="black" stroke-width="1" /><polyline fill="none" points="501,384 500,385 498,385 497,386 496,386 490,392 490,394 489,395 489,400 488,401 488,403 487,404 487,405 486,406 486,407 485,408 485,409 485,408 486,407 486,406 487,405 487,404 488,403 489,403 490,404 490,405 489,406 489,407 488,408 488,409 487,410 489,410 491,412 492,412 493,413 494,413 495,414 496,414 498,416 499,416 503,420 504,420 506,422 508,422 508,420 510,418 510,417 512,415 512,413 513,412 513,409 512,408 512,407 506,401 505,401 504,400 502,400 501,399 496,399 495,400 493,400 492,401 492,402 490,404 488,402 488,401 489,400 489,395 490,394 490,393 497,386 498,386 499,385 500,385 501,384 508,384 509,385 510,385 511,386 512,386 518,392 518,393 519,394 519,395 520,396 520,406 519,407 519,409 517,411 517,412 516,413 516,414 514,416 514,417 512,419 512,420 511,421 511,422 510,423 510,424 509,425 508,424 509,425 508,426 508,427 507,428 507,430 505,432 507,430 507,429 508,428 508,427 510,425 510,424 511,423 511,422 512,421 512,420 514,418 514,417 516,415 516,414 517,413 517,412 518,411 518,410 519,409 519,407 520,406 520,396 519,395 519,393 518,392 518,391 513,386 512,386 511,385 509,385 508,384" stroke="black" stroke-width="1" /><polyline fill="none" points="579,380 580,379 581,380 582,380 585,383 585,386 582,389 578,389 575,386 575,382 577,380" stroke="black" stroke-width="1" /><polyline fill="none" points="580,379 579,380 577,380 576,381 575,381 575,387 577,389 583,389 585,387 585,382 583,380 581,380" stroke="black" stroke-width="1" /><polyline fill="none" points="531,376 532,375 537,375 542,380 542,381 543,382 543,383 545,385 545,387 546,388 546,389 545,390 543,390 542,391 530,391 529,390 529,389 528,388 528,386 527,385 527,384 525,382 525,381 523,379 524,378 525,378 526,377 528,377 529,376" stroke="black" stroke-width="1" /><polyline fill="none" points="501,371 500,372 498,372 500,372 501,371 509,371 510,372 512,372 513,373 514,373 516,375 517,375 521,379 522,379 525,382 525,383 528,386 528,388 529,389 529,391 542,391 543,390 544,390 547,393 547,397 548,398 548,401 547,402 547,408 546,409 546,411 545,412 545,413 544,414 544,415 543,416 543,417 541,419 541,420 539,422 538,422 536,420 534,420 533,419 532,419 531,418 530,418 529,417 528,417 526,415 526,414 527,413 527,412 528,411 528,408 529,407 529,404 530,403 530,395 529,394 529,393 529,394 530,395 530,403 529,404 529,407 528,408 528,410 527,411 527,412 526,413 526,416 527,417 529,417 531,419 533,419 534,420 535,420 537,422 540,422 541,421 541,420 543,418 543,417 544,416 544,415 545,414 545,413 546,412 546,409 547,408 547,402 548,401 548,398 547,397 547,393 545,391 546,390 546,388 545,387 545,385 544,384 544,383 543,382 543,381 542,380 542,379 537,374 536,375 532,375 531,376 529,376 528,377 525,377 523,379 522,379 518,375 517,375 515,373 513,373 512,372 510,372 509,371" stroke="black" stroke-width="1" /><polyline fill="none" points="593,367 591,369 581,369 580,368 569,368 569,369 570,368 580,368 581,369 591,369 593,367 594,368 600,368 601,369 609,369 610,370 615,370 616,371 621,371 622,372 625,372 626,373 629,373 630,374 633,374 634,375 637,375 638,376 642,376 643,377 652,377 653,378 657,378 658,379 661,379 662,380 665,380 666,381 670,381 671,382 675,382 676,383 679,383 680,384 683,384 684,385 687,385 688,386 691,386 692,387 694,387 695,388 696,388 697,389 698,389 697,388 695,388 694,387 692,387 691,386 688,386 687,385 684,385 683,384 680,384 679,383 676,383 675,382 671,382 670,381 666,381 665,380 662,380 661,379 658,379 657,378 653,378 652,377 643,377 642,376 638,376 637,375 634,375 633,374 630,374 629,373 626,373 625,372 622,372 621,371 616,371 615,370 610,370 609,369 601,369 600,368 594,368" stroke="black" stroke-width="1" /><polyline fill="none" points="510,365 509,366 505,366 504,367 503,367 502,368 501,368 500,369 501,368 502,368 503,367 504,367 505,366 509,366 510,365 521,365 522,366 525,366 526,367 527,367 528,368 529,368 530,369 531,369 535,373 535,372 532,369 530,369 529,368 528,368 527,367 526,367 525,366 522,366 521,365" stroke="black" stroke-width="1" /><polyline fill="none" points="534,364 537,364 538,365 543,365 544,366 550,366 551,367 556,367 557,368 561,368 562,369 565,369 568,372 568,373 567,374 567,379 566,380 566,388 565,389 565,396 564,397 564,404 563,405 563,412 562,413 562,420 561,421 561,426 560,427 560,433 559,434 559,441 558,442 558,449 557,450 557,456 556,457 556,463 555,464 555,470 554,471 554,476 553,477 553,484 552,485 552,492 551,493 551,501 550,502 550,507 549,508 550,509 553,509 554,510 559,510 560,511 566,511 567,512 572,512 573,513 580,513 581,514 587,514 588,515 594,515 595,516 600,516 601,517 608,517 609,518 614,518 615,519 620,519 621,520 627,520 628,521 634,521 635,522 642,522 643,523 650,523 651,524 656,524 657,525 663,525 664,526 669,526 671,528 668,531 667,531 666,532 665,532 664,533 663,533 662,534 661,534 660,535 659,535 658,536 657,536 656,537 655,537 654,538 653,538 652,539 651,539 650,540 648,540 647,541 645,541 644,542 642,542 641,543 638,543 637,544 635,544 635,545 634,546 634,551 633,552 633,557 632,558 632,563 631,564 631,569 630,570 630,572 629,573 629,582 630,583 630,584 631,585 631,586 633,588 633,590 634,591 634,594 635,595 637,595 638,596 640,596 642,598 643,598 644,599 645,599 649,603 650,603 654,607 654,608 657,611 657,612 659,614 659,615 661,617 661,618 662,619 662,620 663,621 663,623 664,624 664,626 665,627 665,629 666,630 666,635 664,637 660,637 659,638 654,638 653,639 645,639 644,640 606,640 605,639 596,639 595,638 589,638 588,637 584,637 583,636 579,636 578,635 574,635 571,632 571,631 572,630 572,626 573,625 573,623 574,622 574,620 575,619 575,618 576,617 576,616 577,615 577,614 578,613 578,612 581,609 581,608 578,611 578,612 577,613 577,614 576,615 576,617 575,618 575,619 574,620 574,622 573,623 573,625 572,626 572,630 571,631 571,632 572,633 572,634 573,634 574,635 578,635 579,636 583,636 584,637 588,637 589,638 595,638 596,639 605,639 606,640 644,640 645,639 653,639 654,638 659,638 660,637 665,637 666,636 666,629 665,628 665,627 664,626 664,624 663,623 663,621 662,620 662,618 661,617 661,616 659,614 659,613 657,611 657,610 654,607 654,606 651,603 650,603 647,600 646,600 644,598 643,598 642,597 641,597 640,596 638,596 637,595 636,595 634,593 634,591 633,590 633,588 632,587 632,586 631,585 631,584 630,583 630,582 629,581 629,573 630,572 630,570 631,569 631,564 632,563 632,558 633,557 633,552 634,551 634,546 636,544 637,544 638,543 641,543 642,542 644,542 645,541 647,541 648,540 650,540 651,539 652,539 653,538 655,538 656,537 657,537 658,536 659,536 660,535 661,535 662,534 663,534 664,533 665,533 666,532 667,532 668,531 669,531 672,528 675,528 676,529 681,529 682,530 690,530 690,528 691,527 691,519 692,518 692,511 693,510 693,500 694,499 694,490 695,489 695,476 696,475 696,465 696,475 695,476 695,489 694,490 694,499 693,500 693,510 692,511 692,518 691,519 691,527 690,528 690,529 689,530 682,530 681,529 676,529 675,528 671,528 670,527 670,526 664,526 663,525 657,525 656,524 651,524 650,523 643,523 642,522 635,522 634,521 628,521 627,520 621,520 620,519 615,519 614,518 609,518 608,517 601,517 600,516 595,516 594,515 588,515 587,514 581,514 580,513 573,513 572,512 567,512 566,511 560,511 559,510 554,510 553,509 551,509 550,508 550,502 551,501 551,493 552,492 552,485 553,484 553,477 554,476 554,471 555,470 555,464 556,463 556,457 557,456 557,450 558,449 558,442 559,441 559,434 560,433 560,427 561,426 561,421 562,420 562,413 563,412 563,405 564,404 564,397 565,396 565,389 566,388 566,380 567,379 567,374 570,371 572,371 573,372 581,372 582,373 589,373 590,374 596,374 597,375 603,375 604,376 609,376 610,377 614,377 615,378 621,378 622,379 628,379 629,380 634,380 635,381 641,381 642,382 649,382 650,383 657,383 658,384 665,384 666,385 671,385 672,386 677,386 678,387 683,387 684,388 687,388 684,388 683,387 678,387 677,386 672,386 671,385 666,385 665,384 658,384 657,383 650,383 649,382 642,382 641,381 635,381 634,380 629,380 628,379 622,379 621,378 615,378 614,377 610,377 609,376 604,376 603,375 597,375 596,374 590,374 589,373 582,373 581,372 573,372 572,371 570,371 569,372 566,369 562,369 561,368 557,368 556,367 551,367 550,366 544,366 543,365 538,365 537,364" stroke="black" stroke-width="1" /><polyline fill="none" points="510,362 509,363 505,363 504,364 503,364 504,364 505,363 509,363 510,362 521,362 522,363 525,363 526,364 528,364 530,366 531,366 532,367 533,367 535,369 536,369 544,377 544,378 546,380 546,381 547,382 547,383 548,384 548,386 549,387 549,389 550,390 550,397 551,398 551,401 550,402 550,408 549,409 549,412 548,413 548,414 547,415 547,416 545,418 545,419 544,420 544,421 534,431 533,431 531,433 530,433 529,434 528,434 527,435 525,435 524,436 519,436 518,437 514,437 513,436 509,436 508,435 506,435 505,434 504,434 502,436 502,438 500,440 499,439 500,440 500,441 499,442 499,443 497,445 497,446 496,447 496,448 495,449 495,450 494,451 494,452 493,453 493,454 491,456 491,457 490,458 490,459 489,460 489,462 487,464 487,465 486,466 486,467 485,468 484,468 483,467 483,465 485,463 485,462 486,461 486,460 487,459 487,458 488,457 488,455 487,454 486,454 485,453 484,453 482,451 481,451 479,449 478,449 477,448 476,448 475,447 474,447 473,446 472,446 471,445 470,445 469,444 471,446 473,446 474,447 475,447 477,449 478,449 480,451 481,451 483,453 484,453 485,454 486,454 488,456 488,457 487,458 487,459 485,461 485,462 483,464 483,466 482,467 481,467 482,467 483,468 486,468 486,467 487,466 487,464 489,462 489,461 490,460 490,459 491,458 491,457 492,456 492,455 494,453 494,452 495,451 495,450 496,449 496,448 497,447 497,446 499,444 499,443 500,442 500,441 502,439 502,437 505,434 506,435 508,435 509,436 513,436 514,437 518,437 519,436 524,436 525,435 527,435 528,434 530,434 531,433 532,433 534,431 535,431 544,422 544,421 545,420 545,419 547,417 547,416 548,415 548,413 549,412 549,409 550,408 550,402 551,401 551,398 550,397 550,390 549,389 549,387 548,386 548,384 547,383 547,381 545,379 545,378 543,376 543,375 537,369 536,369 534,367 533,367 532,366 531,366 529,364 526,364 525,363 522,363 521,362" stroke="black" stroke-width="1" /><polyline fill="none" points="529,361 538,361 539,362 565,362 566,363 572,363 573,364 576,364 577,365 582,365 583,366 587,366 588,367 587,366 583,366 582,365 577,365 576,364 573,364 572,363 566,363 565,362 539,362 538,361" stroke="black" stroke-width="1" /><polyline fill="none" points="582,336 583,337 586,337 587,338 591,338 592,339 596,339 597,340 602,340 603,341 607,341 608,342 612,342 613,343 617,343 618,344 622,344 623,345 627,345 628,346 632,346 634,348 634,347 633,347 632,346 628,346 627,345 623,345 622,344 618,344 617,343 613,343 612,342 608,342 607,341 603,341 602,340 597,340 596,339 592,339 591,338 587,338 586,337 583,337" stroke="black" stroke-width="1" /><polyline fill="none" points="725,327 726,326 728,326 732,330 732,335 730,337 730,338 729,339 728,339 726,341 723,341 720,338 720,332 721,331 721,330 724,327" stroke="black" stroke-width="1" /><polyline fill="none" points="726,326 725,327 723,327 721,329 721,331 720,332 720,339 721,340 722,340 723,341 726,341 727,340 728,340 729,339 730,339 730,338 731,337 731,336 732,335 732,330 731,329 731,328 730,327 729,327 728,326" stroke="black" stroke-width="1" /><polyline fill="none" points="724,324 725,323 728,323 729,324 730,324 734,328 734,329 735,330 735,335 734,336 734,337 733,338 733,339 730,342 729,342 728,343 727,343 726,344 723,344 722,343 721,343 718,340 718,339 717,338 717,332 718,331 718,330 719,329 719,328 723,324" stroke="black" stroke-width="1" /><polyline fill="none" points="725,323 724,324 722,324 719,327 719,328 718,329 718,330 717,331 717,339 718,340 718,341 720,343 722,343 723,344 726,344 727,343 729,343 730,342 731,342 733,340 733,339 734,338 734,336 735,335 735,330 734,329 734,327 731,324 729,324 728,323" stroke="black" stroke-width="1" /><polyline fill="none" points="779,313 778,314 778,315 771,322 768,322 767,323 766,322 766,323 767,323 768,322 771,322 772,321 773,321 773,320 778,315 778,314" stroke="black" stroke-width="1" /><polyline fill="none" points="652,313 653,312 655,312 656,313 660,313 661,314 666,314 667,315 674,315 675,316 679,316 680,317 677,320 676,320 673,323 672,323 671,324 670,324 669,325 668,325 666,327 664,327 663,328 659,328 658,329 652,329 650,327 650,324 651,323 651,317 652,316" stroke="black" stroke-width="1" /><polyline fill="none" points="652,312 652,316 651,317 651,323 650,324 650,328 651,329 658,329 659,328 663,328 664,327 666,327 667,326 668,326 669,325 670,325 671,324 672,324 673,323 674,323 677,320 678,320 680,318 680,316 675,316 674,315 667,315 666,314 661,314 660,313 656,313 655,312" stroke="black" stroke-width="1" /><polyline fill="none" points="623,304 624,303 625,303 626,304 628,304 629,305 631,305 632,306 633,306 634,307 637,307 638,308 640,308 641,309 643,309 644,310 646,310 647,311 648,311 649,312 649,315 648,316 648,322 647,323 647,325 645,327 643,327 641,325 640,325 639,324 638,324 635,321 634,321 628,315 628,314 626,312 626,311 625,310 625,309 624,308 624,307 623,306" stroke="black" stroke-width="1" /><polyline fill="none" points="623,303 623,306 624,307 624,309 626,311 626,313 628,315 628,316 633,321 634,321 637,324 638,324 639,325 640,325 641,326 642,326 643,327 646,327 647,326 647,323 648,322 648,316 649,315 649,311 648,311 647,310 644,310 643,309 641,309 640,308 638,308 637,307 634,307 633,306 632,306 631,305 629,305 628,304 626,304 625,303" stroke="black" stroke-width="1" /><polyline fill="none" points="620,298 621,299 622,299 623,300 623,301 624,300 626,300 627,301 629,301 630,302 632,302 633,303 634,303 635,304 637,304 638,305 641,305 642,306 644,306 645,307 648,307 649,308 651,308 652,309 656,309 657,310 661,310 662,311 667,311 668,312 675,312 676,313 684,313 686,315 686,316 679,323 678,323 675,326 674,326 673,327 672,327 671,328 670,328 669,329 668,329 667,330 666,330 665,331 661,331 660,332 649,332 648,331 645,331 644,330 642,330 641,329 640,329 639,328 638,328 636,326 635,326 632,323 631,323 627,319 627,318 624,315 624,314 623,313 623,312 621,310 621,309 620,308 620,306 619,305 619,303 618,302 618,300" stroke="black" stroke-width="1" /><polyline fill="none" points="620,298 619,299 618,299 618,302 619,303 619,305 620,306 620,308 621,309 621,311 623,313 623,314 624,315 624,316 628,320 628,321 630,323 631,323 634,326 635,326 636,327 637,327 639,329 640,329 641,330 644,330 645,331 648,331 649,332 660,332 661,331 665,331 666,330 668,330 669,329 670,329 671,328 672,328 673,327 674,327 675,326 676,326 679,323 680,323 686,317 686,314 685,314 684,313 676,313 675,312 668,312 667,311 662,311 661,310 657,310 656,309 652,309 651,308 649,308 648,307 645,307 644,306 642,306 641,305 638,305 637,304 635,304 634,303 633,303 632,302 630,302 629,301 627,301 626,300 624,300 623,299 621,299" stroke="black" stroke-width="1" /><polyline fill="none" points="779,262 780,263 780,265 779,266 779,267 780,268 782,268 783,269 784,269 786,271 786,273 787,274 787,282 786,283 782,283 781,282 778,282 777,281 777,280 776,279 777,278 777,274 778,273 778,269 778,273 777,274 777,278 776,279 776,281 777,281 778,282 781,282 782,283 785,283 786,284 787,283 787,274 786,273 786,270 784,268 783,269 782,268 781,268 779,266 781,264 782,265" stroke="black" stroke-width="1" /><polyline fill="none" points="719,247 728,247 730,249 731,249 735,253 735,254 737,256 737,259 738,260 738,264 737,265 737,268 736,269 736,270 729,277 728,277 727,278 724,278 723,279 721,279 720,278 717,278 715,276 714,276 711,273 711,272 710,271 710,270 708,268 708,258 709,257 709,256 711,254 711,253 712,252 713,252 714,253 714,254 715,255 719,255 719,253 720,252 720,251 719,250 719,249 719,250 720,251 720,252 719,253 719,254 718,255 716,255 714,253 714,251 713,252 712,251 711,252 711,253 709,255 709,257 708,258 708,268 709,269 709,270 710,271 710,272 711,273 711,274 713,276 714,276 715,277 716,277 717,278 720,278 721,279 723,279 724,278 727,278 728,277 730,277 736,271 736,269 737,268 737,265 738,264 738,260 737,259 737,256 736,255 736,254 735,253 735,252 732,249 731,249 729,247" stroke="black" stroke-width="1" /><polyline fill="none" points="484,225 484,229 483,230 483,235 482,236 482,239 481,240 481,242 480,243 480,244 479,245 479,247 478,248 478,249 477,250 477,251 476,252 476,253 475,254 475,255 474,256 474,257 471,260 472,261 471,262 473,262 474,263 475,263 476,264 478,264 479,265 481,265 482,266 484,266 485,267 486,267 487,268 489,268 490,269 491,268 492,268 495,265 495,264 497,262 497,261 498,260 498,259 499,258 499,257 500,256 500,254 501,253 501,252 502,251 502,249 503,248 503,245 504,244 504,241 505,240 505,236 506,235 506,226 506,235 505,236 505,240 504,241 504,244 503,245 503,248 502,249 502,251 501,252 501,253 500,254 500,255 499,256 499,257 498,258 498,259 497,260 497,261 496,262 496,263 490,269 489,268 487,268 486,267 485,267 484,266 482,266 481,265 479,265 478,264 476,264 475,263 474,263 472,261 472,260 474,258 474,257 475,256 475,255 476,254 476,252 478,250 478,248 479,247 479,246 480,245 480,243 481,242 481,240 482,239 482,236 483,235 483,230 484,229" stroke="black" stroke-width="1" /><polyline fill="none" points="626,223 625,224 626,224" stroke="black" stroke-width="1" /><polyline fill="none" points="531,223 532,222 535,222 536,223 537,223 538,224 536,226 535,225 532,225 530,227 530,229 529,230 529,234 528,235 528,237 529,238 529,240 530,241 533,241 534,240 536,240 537,241 535,243 534,243 533,244 530,244 529,243 528,243 527,242 527,241 526,240 526,230 527,229 527,227 529,225 529,224 530,223" stroke="black" stroke-width="1" /><polyline fill="none" points="531,222 528,225 528,226 527,227 527,229 526,230 526,241 527,242 527,243 528,243 529,244 534,244 535,243 536,243 537,242 537,241 536,240 533,240 532,241 531,241 529,239 529,238 528,237 528,235 529,234 529,230 530,229 530,228 533,225 535,225 536,226 538,224 538,223 537,223 536,222" stroke="black" stroke-width="1" /><polyline fill="none" points="626,220 637,220 638,221 639,221 640,222 641,222 646,227 646,228 647,229 647,230 648,231 648,240 647,241 647,243 646,244 646,245 640,251 639,251 638,252 636,252 635,253 630,253 629,252 627,252 626,251 625,251 619,245 619,244 618,243 618,241 617,240 617,233 618,232 618,230 620,228 620,227 621,226 621,225 622,224 623,225 623,227 624,228 629,228 630,227 630,223 629,222 628,222 630,224 630,226 628,228 625,228 623,226 623,225 622,224" stroke="black" stroke-width="1" /><polyline fill="none" points="626,220 625,221 624,221 621,224 621,225 620,226 620,227 618,229 618,232 617,233 617,240 618,241 618,244 619,245 619,246 624,251 625,251 626,252 629,252 630,253 635,253 636,252 639,252 640,251 641,251 646,246 646,245 647,244 647,241 648,240 648,231 647,230 647,228 646,227 646,226 642,222 641,222 640,221 638,221 637,220" stroke="black" stroke-width="1" /><polyline fill="none" points="453,213 454,212 466,212 468,214 469,214 471,216 471,217 473,219 473,221 474,222 474,236 473,237 473,239 472,240 472,241 465,248 464,248 463,249 461,249 460,250 456,250 454,248 456,246 458,246 459,245 460,245 462,243 463,243 467,239 467,237 468,236 468,234 469,233 469,223 468,222 468,221 467,220 467,219 464,216 463,216 467,220 467,221 469,223 469,233 468,234 468,236 467,237 467,238 462,243 461,243 459,245 458,245 457,246 456,246 454,248 453,248 452,247 451,247 450,246 449,246 448,245 447,245 443,241 443,239 442,238 442,225 443,224 443,222 444,221 444,220 446,218 446,217 448,215 449,215 451,213" stroke="black" stroke-width="1" /><polyline fill="none" points="711,212 712,211 719,211 720,212 724,212 725,213 727,213 728,214 729,214 730,215 731,215 732,216 733,216 735,218 736,218 746,228 746,229 748,231 748,232 749,233 749,234 750,235 750,236 751,237 751,238 752,239 752,240 753,241 753,243 754,244 754,248 755,249 755,267 754,268 754,271 753,272 753,274 752,275 752,277 751,278 751,279 750,280 750,281 749,282 749,283 748,284 748,285 746,287 746,288 744,290 744,291 742,293 742,294 736,300 735,300 733,302 732,302 731,303 730,303 728,305 727,305 726,306 725,306 724,307 722,307 721,308 718,308 717,309 707,309 706,308 703,308 701,306 700,306 698,304 697,304 690,297 690,296 688,294 688,293 687,292 687,291 686,290 686,289 685,288 685,287 684,286 684,285 683,284 683,282 682,281 682,279 681,278 681,273 680,272 680,254 681,253 681,248 682,247 682,244 683,243 683,241 684,240 684,238 685,237 685,236 686,235 686,234 687,233 687,232 688,231 688,230 689,229 689,228 690,227 690,226 692,224 692,223 698,217 699,217 701,215 702,215 704,213 706,213 707,212" stroke="black" stroke-width="1" /><polyline fill="none" points="712,211 711,212 707,212 706,213 704,213 703,214 702,214 701,215 700,215 698,217 697,217 692,222 692,223 690,225 690,226 689,227 689,228 688,229 688,230 687,231 687,232 686,233 686,234 685,235 685,237 684,238 684,240 683,241 683,243 682,244 682,247 681,248 681,253 680,254 680,272 681,273 681,278 682,279 682,281 683,282 683,284 684,285 684,287 685,288 685,289 686,290 686,291 687,292 687,293 688,294 688,295 690,297 690,298 696,304 697,304 699,306 700,306 701,307 702,307 703,308 706,308 707,309 717,309 718,308 721,308 722,307 725,307 726,306 727,306 728,305 729,305 731,303 732,303 733,302 734,302 736,300 737,300 742,295 742,294 744,292 744,291 746,289 746,288 748,286 748,285 749,284 749,283 750,282 750,281 751,280 751,278 752,277 752,275 753,274 753,272 754,271 754,268 755,267 755,249 754,248 754,244 753,243 753,241 752,240 752,238 751,237 751,236 750,235 750,234 749,233 749,232 748,231 748,230 746,228 746,227 737,218 736,218 734,216 733,216 732,215 731,215 730,214 728,214 727,213 725,213 724,212 720,212 719,211" stroke="black" stroke-width="1" /><polyline fill="none" points="463,211 462,212 454,212 453,213 450,213 447,216 446,216 446,217 444,219 444,220 443,221 443,223 442,224 442,239 443,240 443,242 446,245 447,245 448,246 449,246 450,247 452,247 453,248 454,248 456,250 460,250 461,249 464,249 465,248 466,248 472,242 472,241 473,240 473,237 474,236 474,222 473,221 473,219 472,218 472,217 471,216 471,215 470,214 469,214 468,213 467,213 466,212 465,212 464,211" stroke="black" stroke-width="1" /><polyline fill="none" points="484,207 485,206 486,206 487,207 497,207 498,206 501,206 504,209 504,211 505,212 505,215 506,216 506,222 505,223 487,223 486,222 485,222 484,221 484,214 483,213 483,209 482,208 483,207" stroke="black" stroke-width="1" /><polyline fill="none" points="485,206 484,207 483,207 482,208 483,209 483,213 484,214 484,221 486,223 504,223 505,224 506,223 506,216 505,215 505,212 504,211 504,208 502,206 498,206 497,207 487,207 486,206" stroke="black" stroke-width="1" /><polyline fill="none" points="720,203 719,204 716,204 715,205 712,205 711,206 709,206 708,207 707,207 706,208 705,208 703,210 702,210 701,211 700,211 698,213 697,213 690,220 696,214 697,214 699,212 700,212 701,211 702,211 703,210 704,210 706,208 707,208 708,207 709,207 710,206 711,206 712,205 715,205 716,204 719,204 720,203 729,203 730,204 733,204 734,205 736,205 738,207 739,207 740,208 741,208 744,211 745,211 748,214 749,214 752,217 752,218 756,222 756,223 758,225 758,226 759,227 759,228 760,229 760,230 761,231 761,233 762,234 762,236 763,237 763,239 764,240 764,245 765,246 765,252 766,253 766,262 765,263 765,271 764,272 764,274 763,275 763,277 762,278 762,279 761,280 761,281 760,282 760,283 759,284 759,285 758,286 758,287 756,289 756,290 755,291 755,292 752,295 752,296 745,303 744,303 741,306 740,306 739,307 738,307 736,309 734,309 733,310 732,310 731,311 729,311 728,312 726,312 725,313 710,313 709,312 706,312 705,311 702,311 701,310 700,310 699,309 698,309 696,307 695,307 691,303 696,308 697,308 698,309 699,309 700,310 701,310 702,311 704,311 705,312 709,312 710,313 725,313 726,312 728,312 729,311 731,311 732,310 734,310 735,309 737,309 739,307 740,307 741,306 742,306 746,302 747,302 752,297 752,296 755,293 755,292 756,291 756,290 758,288 758,287 759,286 759,285 760,284 760,283 761,282 761,280 762,279 762,278 763,277 763,275 764,274 764,272 765,271 765,263 766,262 766,253 765,252 765,246 764,245 764,240 763,239 763,237 762,236 762,234 761,233 761,231 760,230 760,228 759,227 759,226 758,225 758,224 756,222 756,221 752,217 752,216 750,214 749,214 746,211 745,211 742,208 741,208 740,207 739,207 737,205 734,205 733,204 730,204 729,203" stroke="black" stroke-width="1" /><polyline fill="none" points="476,192 479,192 480,193 489,193 490,194 495,194 496,195 497,195 503,201 503,202 505,204 505,205 506,206 506,207 507,208 507,210 508,211 508,214 509,215 509,234 508,235 508,240 507,241 507,244 506,245 506,248 505,249 505,250 504,251 504,253 503,254 503,256 502,257 502,258 501,259 501,260 499,262 499,263 498,264 498,265 488,275 487,275 486,276 479,276 478,275 473,275 472,274 469,274 468,273 464,273 463,272 461,272 463,272 464,273 468,273 469,274 472,274 473,275 478,275 479,276 487,276 488,275 489,275 498,266 498,265 499,264 499,263 500,262 500,261 501,260 501,259 502,258 502,257 503,256 503,254 504,253 504,252 505,251 505,249 506,248 506,245 507,244 507,241 508,240 508,235 509,234 509,215 508,214 508,211 507,210 507,208 506,207 506,205 505,204 505,203 503,201 503,200 498,195 496,195 495,194 490,194 489,193 480,193 479,192" stroke="black" stroke-width="1" /><polyline fill="none" points="456,187 456,201 455,202 455,205 454,206 454,207 453,208 453,209 453,208 454,207 454,206 455,205 455,202 456,201 456,188 457,187 462,187 464,189 464,200 463,201 463,208 462,209 456,209 463,209 463,201 464,200 464,189 463,188 463,187" stroke="black" stroke-width="1" /><polyline fill="none" points="600,183 601,182 615,182 616,183 619,183 620,184 622,184 623,185 624,185 625,186 626,186 627,187 628,187 630,189 631,189 633,191 634,191 642,199 642,200 645,203 645,204 647,206 647,207 648,208 648,210 649,211 649,212 650,213 650,215 651,216 651,219 652,220 652,225 653,226 653,235 652,236 652,241 651,242 651,245 650,246 650,248 649,249 649,251 648,252 648,253 647,254 647,255 646,256 646,257 644,259 644,260 642,262 642,263 640,265 640,266 631,275 630,275 628,277 627,277 625,279 624,279 623,280 622,280 621,281 620,281 619,282 618,282 617,283 615,283 614,284 612,284 611,285 607,285 606,286 599,286 598,285 594,285 593,284 590,284 589,283 588,283 587,282 586,282 585,281 584,281 582,279 581,279 578,276 577,276 571,270 571,269 568,266 568,265 567,264 567,263 565,261 565,259 563,257 563,255 562,254 562,252 561,251 561,247 560,246 560,229 561,228 561,223 562,222 562,219 563,218 563,216 564,215 564,214 565,213 565,212 566,211 566,210 567,209 567,208 568,207 568,206 570,204 570,203 572,201 572,200 582,190 583,190 584,189 585,189 587,187 588,187 589,186 590,186 591,185 592,185 593,184 596,184 597,183" stroke="black" stroke-width="1" /><polyline fill="none" points="601,182 600,183 597,183 596,184 593,184 592,185 591,185 590,186 588,186 587,187 586,187 584,189 583,189 582,190 581,190 573,198 573,199 570,202 570,203 568,205 568,206 567,207 567,208 566,209 566,210 565,211 565,212 564,213 564,215 563,216 563,218 562,219 562,222 561,223 561,228 560,229 560,246 561,247 561,251 562,252 562,254 563,255 563,257 564,258 564,259 565,260 565,262 567,264 567,265 568,266 568,267 571,270 571,271 576,276 577,276 580,279 581,279 583,281 584,281 585,282 587,282 588,283 589,283 590,284 593,284 594,285 598,285 599,286 606,286 607,285 611,285 612,284 614,284 615,283 618,283 619,282 620,282 621,281 622,281 623,280 624,280 625,279 626,279 628,277 629,277 631,275 632,275 640,267 640,266 642,264 642,263 644,261 644,260 646,258 646,257 647,256 647,255 648,254 648,252 649,251 649,249 650,248 650,246 651,245 651,242 652,241 652,236 653,235 653,226 652,225 652,220 651,219 651,216 650,215 650,213 649,212 649,210 648,209 648,207 647,206 647,205 645,203 645,202 642,199 642,198 635,191 634,191 632,189 631,189 629,187 628,187 627,186 626,186 625,185 623,185 622,184 620,184 619,183 616,183 615,182" stroke="black" stroke-width="1" /><polyline fill="none" points="612,174 611,175 604,175 603,176 600,176 599,177 597,177 596,178 594,178 593,179 592,179 591,180 590,180 588,182 587,182 585,184 584,184 581,187 580,187 569,198 569,199 567,201 567,202 565,204 565,205 564,206 564,207 563,208 563,210 562,211 562,212 561,213 561,214 561,213 562,212 562,211 563,210 563,208 564,207 564,206 565,205 565,204 568,201 568,200 569,199 569,198 579,188 580,188 582,186 583,186 585,184 586,184 588,182 589,182 591,180 592,180 593,179 594,179 595,178 596,178 597,177 599,177 600,176 603,176 604,175 611,175 612,174 613,175 623,175 624,176 627,176 628,177 629,177 630,178 631,178 632,179 633,179 634,180 635,180 636,181 637,181 638,182 639,182 642,185 643,185 648,190 648,191 652,195 652,196 654,198 654,199 656,201 656,202 657,203 657,204 658,205 658,207 659,208 659,209 660,210 660,213 661,214 661,218 662,219 662,224 663,225 663,230 662,231 662,240 661,241 661,244 660,245 660,247 659,248 659,250 658,251 658,252 657,253 657,254 656,255 656,256 655,257 655,258 653,260 653,261 652,262 652,263 650,265 650,266 649,267 649,268 640,277 639,277 636,280 635,280 633,282 632,282 630,284 629,284 628,285 627,285 626,286 625,286 624,287 623,287 622,288 619,288 618,289 615,289 614,290 600,290 599,289 596,289 595,288 593,288 592,287 590,287 589,286 587,286 586,285 585,285 584,284 583,284 582,283 581,283 580,282 579,282 577,280 579,282 580,282 581,283 582,283 583,284 584,284 585,285 586,285 587,286 589,286 590,287 592,287 593,288 595,288 596,289 599,289 600,290 614,290 615,289 618,289 619,288 622,288 623,287 624,287 625,286 627,286 628,285 629,285 630,284 631,284 633,282 634,282 636,280 637,280 640,277 641,277 648,270 648,269 650,267 650,266 652,264 652,263 653,262 653,261 654,260 654,259 656,257 656,256 657,255 657,253 658,252 658,251 659,250 659,248 660,247 660,245 661,244 661,241 662,240 662,231 663,230 663,225 662,224 662,219 661,218 661,214 660,213 660,210 659,209 659,208 658,207 658,204 657,203 657,202 656,201 656,200 654,198 654,197 652,195 652,194 648,190 648,189 644,185 643,185 641,183 640,183 638,181 637,181 636,180 635,180 634,179 633,179 632,178 631,178 630,177 628,177 627,176 624,176 623,175 613,175" stroke="black" stroke-width="1" /><polyline fill="none" points="701,162 702,163 704,163 705,164 706,164 707,165 709,165 710,166 711,166 712,167 713,167 714,168 715,168 716,169 718,169 720,171 721,171 722,172 723,172 724,173 725,173 727,175 728,175 729,176 730,176 732,178 733,178 734,179 735,179 737,181 738,181 741,184 742,184 744,186 745,186 747,188 748,188 751,191 752,191 755,194 756,194 759,197 760,197 764,201 765,201 770,206 771,206 778,213 779,213 781,215 781,216 782,217 782,237 781,238 781,248 780,249 780,255 779,256 779,258 781,260 782,260 786,264 786,265 788,267 788,268 789,269 789,272 790,273 790,292 789,293 789,297 788,298 788,301 787,302 787,304 786,305 786,307 785,308 785,309 784,310 784,311 783,312 783,313 781,315 781,316 779,318 779,319 775,323 774,323 773,324 772,324 771,325 770,325 769,326 767,326 766,325 767,326 766,327 765,327 765,330 764,331 764,334 763,335 763,337 762,338 762,340 761,341 761,344 760,345 760,348 759,349 759,351 758,352 758,354 757,355 757,357 754,360 745,360 744,359 731,359 730,358 720,358 719,357 709,357 708,356 698,356 697,355 688,355 687,354 678,354 677,353 668,353 667,352 655,352 654,351 646,351 645,350 640,350 639,349 636,349 635,350 635,360 634,361 634,367 633,368 631,368 630,367 629,367 628,368 627,367 624,367 623,366 619,366 618,365 613,365 612,364 607,364 606,363 601,363 600,362 595,362 593,360 594,359 596,359 597,358 605,358 606,357 630,357 631,358 631,365 631,357 606,357 605,358 597,358 596,359 594,359 593,360 583,360 582,359 579,359 578,358 579,359 582,359 583,360 593,360 595,362 600,362 601,363 606,363 607,364 612,364 613,365 618,365 619,366 623,366 624,367 627,367 628,368 633,368 634,367 635,368 637,368 638,369 642,369 643,370 645,370 646,371 649,371 650,372 653,372 654,373 656,373 657,374 660,374 661,375 664,375 665,376 667,376 668,377 671,377 672,378 674,378 675,379 677,379 678,380 681,380 682,381 684,381 685,382 688,382 689,383 692,383 693,384 695,384 696,385 698,385 701,388 700,389 701,390 701,392 700,393 704,397 705,397 706,398 706,399 710,403 710,404 711,405 711,406 712,407 712,408 713,409 713,411 714,412 714,415 715,416 715,428 714,429 714,436 715,437 715,438 717,440 717,441 719,443 719,444 721,446 721,447 723,449 723,450 724,451 724,452 726,454 726,455 728,457 728,458 729,459 729,460 731,462 731,463 733,465 733,466 734,467 734,468 736,470 736,471 737,472 737,473 738,474 736,476 733,473 733,472 732,471 732,470 731,469 731,468 730,467 730,466 728,464 729,463 728,464 726,464 725,465 724,465 722,467 721,467 719,469 718,469 715,472 714,472 710,476 712,478 712,479 714,481 714,482 717,485 717,486 718,487 718,486 715,483 715,482 713,480 713,479 710,476 711,475 712,475 715,472 716,472 719,469 720,469 722,467 723,467 725,465 726,465 727,464 728,464 729,465 729,466 731,468 731,469 732,470 732,471 733,472 733,473 736,476 735,477 736,477 737,476 737,475 738,474 741,474 743,472 744,472 745,471 748,471 749,470 751,470 752,471 753,471 754,472 755,472 756,473 757,473 759,475 760,475 763,478 764,478 779,493 779,494 782,497 782,498 783,499 780,502 779,502 778,503 777,502 774,502 773,503 769,503 768,504 767,504 766,505 764,505 762,507 761,507 760,508 759,508 757,510 755,510 750,505 750,504 746,500 746,499 739,492 739,491 733,485 733,483 736,480 738,480 741,477 742,477 743,476 744,476 745,475 746,475 747,474 748,474 752,478 752,479 766,493 766,494 771,499 771,500 771,498 766,493 766,492 752,478 752,477 749,474 746,474 745,475 744,475 743,476 742,476 740,478 739,478 737,480 735,480 732,483 733,484 733,485 734,486 734,487 739,492 739,493 747,501 747,502 750,505 750,506 754,510 758,510 760,508 761,508 762,507 763,507 765,505 767,505 768,504 769,504 770,503 774,503 775,502 776,502 780,506 780,507 781,508 781,509 783,511 783,515 784,516 784,520 783,521 783,525 781,527 781,528 774,535 773,535 772,536 771,536 770,537 768,537 767,538 755,538 754,537 752,537 751,536 750,536 748,534 747,534 741,528 742,527 742,526 743,525 744,525 747,522 748,522 752,518 753,518 758,513 757,513 752,518 751,518 747,522 746,522 743,525 742,525 741,526 742,527 740,529 739,529 738,530 737,530 735,532 734,532 733,531 732,531 728,527 728,526 724,522 724,521 721,518 721,517 719,515 719,514 717,512 717,511 716,510 716,509 714,507 714,506 712,504 712,502 711,501 711,500 712,499 712,497 713,496 713,495 715,493 715,492 716,491 716,489 712,485 712,484 711,483 711,482 709,480 709,479 707,477 707,476 704,473 704,472 702,470 702,469 700,467 700,466 698,464 698,463 697,462 697,460 700,457 701,457 702,456 703,456 705,454 706,454 707,453 708,453 711,450 712,450 716,446 717,446 717,445 714,442 714,441 712,439 711,439 711,441 709,443 709,444 707,446 707,447 701,453 700,453 698,455 699,454 700,454 701,453 702,453 706,449 706,448 709,445 709,444 711,442 711,440 712,439 714,441 714,442 717,445 716,446 715,446 711,450 710,450 707,453 706,453 705,454 704,454 702,456 701,456 700,457 699,457 697,459 697,463 698,464 698,465 700,467 700,468 702,470 702,471 704,473 704,474 707,477 707,478 709,480 709,481 711,483 711,484 712,485 712,486 716,490 716,491 713,494 713,495 712,496 712,499 711,500 711,501 712,502 712,505 714,507 714,508 716,510 716,511 717,512 717,513 719,515 719,516 721,518 721,519 724,522 724,523 728,527 728,528 731,531 732,531 733,532 736,532 738,530 739,530 740,529 741,529 746,534 747,534 749,536 751,536 752,537 754,537 755,538 767,538 768,537 770,537 771,536 773,536 774,535 775,535 781,529 781,528 782,527 782,526 783,525 783,521 784,520 784,516 783,515 783,511 782,510 782,509 781,508 781,507 780,506 780,505 778,503 779,502 781,502 783,500 783,498 782,497 782,496 779,493 779,492 766,479 765,479 761,475 760,475 758,473 757,473 756,472 755,472 754,471 752,471 751,470 749,470 748,471 745,471 744,472 742,472 740,474 739,474 737,472 737,471 736,470 736,469 734,467 734,466 733,465 733,464 731,462 731,461 729,459 729,458 728,457 728,456 726,454 726,453 724,451 724,450 723,449 723,448 720,445 720,444 719,443 719,442 717,440 717,439 715,437 715,436 714,435 714,429 715,428 715,416 714,415 714,412 713,411 713,409 712,408 712,406 711,405 711,404 710,403 710,402 703,395 702,395 701,394 701,390 700,389 701,388 700,387 700,386 699,386 698,385 696,385 695,384 693,384 692,383 689,383 688,382 685,382 684,381 682,381 681,380 678,380 677,379 675,379 674,378 672,378 671,377 668,377 667,376 665,376 664,375 661,375 660,374 657,374 656,373 654,373 653,372 650,372 649,371 646,371 645,370 643,370 642,369 638,369 637,368 635,368 634,367 634,361 635,360 635,351 637,349 639,349 640,350 645,350 646,351 654,351 655,352 667,352 668,353 677,353 678,354 687,354 688,355 697,355 698,356 708,356 709,357 719,357 720,358 730,358 731,359 744,359 745,360 755,360 756,359 756,358 757,357 757,355 758,354 758,352 759,351 759,349 760,348 760,345 761,344 761,341 762,340 762,338 763,337 763,335 764,334 764,331 765,330 765,328 767,326 769,326 770,325 772,325 773,324 774,324 775,323 776,323 779,320 779,319 781,317 781,316 783,314 783,313 784,312 784,310 785,309 785,308 786,307 786,305 787,304 787,302 788,301 788,298 789,297 789,293 790,292 790,273 789,272 789,269 788,268 788,266 786,264 786,263 783,260 781,260 780,259 780,258 779,257 779,256 780,255 780,249 781,248 781,238 782,237 782,217 781,216 781,214 780,213 779,213 772,206 771,206 767,202 766,202 761,197 760,197 757,194 756,194 753,191 752,191 749,188 748,188 746,186 745,186 743,184 742,184 739,181 738,181 736,179 735,179 734,178 733,178 731,176 730,176 729,175 728,175 726,173 725,173 724,172 723,172 722,171 721,171 720,170 719,170 718,169 717,169 716,168 715,168 714,167 713,167 712,166 710,166 709,165 708,165 707,164 705,164 704,163 703,163 702,162" stroke="black" stroke-width="1" /><polyline fill="none" points="458,162 457,163 457,172 456,173 456,181 457,182 456,181 456,173 457,172 457,164 459,162 463,162 465,164 465,174 464,175 464,183 463,184 456,184 455,185 456,184 464,184 464,175 465,174 465,164 466,163 464,163 463,162" stroke="black" stroke-width="1" /><polyline fill="none" points="677,161 677,166 678,167 678,170 679,171 679,172 680,173 682,173 683,174 687,174 688,175 690,175 691,176 693,176 694,177 696,177 697,178 699,178 700,179 702,179 703,180 704,180 705,181 706,181 707,182 708,182 709,183 710,183 711,184 712,184 713,185 714,185 715,186 716,186 718,188 720,188 722,190 723,190 724,191 725,191 727,193 728,193 729,194 730,194 732,196 733,196 737,200 738,200 740,202 741,202 743,204 744,204 748,208 749,208 759,218 759,219 761,221 761,222 763,224 763,225 764,226 764,227 765,228 765,229 766,230 766,232 767,233 767,236 768,237 768,246 768,237 767,236 767,233 766,232 766,230 765,229 765,227 764,226 764,225 763,224 763,223 761,221 761,220 759,218 759,217 750,208 749,208 745,204 744,204 742,202 741,202 739,200 738,200 734,196 733,196 731,194 730,194 729,193 728,193 726,191 725,191 724,190 723,190 722,189 721,189 720,188 719,188 718,187 717,187 715,185 714,185 713,184 712,184 711,183 710,183 709,182 708,182 707,181 706,181 705,180 703,180 702,179 700,179 699,178 698,178 697,177 694,177 693,176 691,176 690,175 688,175 687,174 683,174 682,173 681,173 678,170 678,167 677,166 677,162 678,161 683,161 684,162 687,162 688,163 690,163 691,164 694,164 695,165 697,165 698,166 700,166 701,167 703,167 704,168 705,168 706,169 708,169 709,170 710,170 711,171 712,171 713,172 714,172 715,173 716,173 717,174 718,174 719,175 720,175 721,176 722,176 723,177 724,177 726,179 727,179 728,180 729,180 730,181 731,181 733,183 734,183 736,185 737,185 739,187 740,187 742,189 743,189 745,191 746,191 749,194 750,194 753,197 754,197 757,200 758,200 763,205 764,205 767,208 768,208 776,216 777,216 778,217 778,219 779,220 779,235 778,236 778,247 777,248 777,255 776,256 776,258 777,259 777,261 776,262 776,266 775,267 775,271 774,272 774,275 773,276 773,280 772,281 772,287 771,288 771,293 770,294 770,298 769,299 769,303 768,304 768,308 767,309 767,311 766,312 766,316 765,317 765,319 764,320 764,322 764,320 765,319 765,317 766,316 766,312 767,311 767,309 768,308 768,304 769,303 769,299 770,298 770,294 771,293 771,288 772,287 772,281 773,280 773,276 774,275 774,272 775,271 775,267 776,266 776,262 777,261 777,259 776,258 776,256 777,255 777,248 778,247 778,236 779,235 779,220 778,219 779,218 778,217 778,216 777,216 769,208 768,208 765,205 764,205 759,200 758,200 755,197 754,197 751,194 750,194 747,191 746,191 744,189 743,189 741,187 740,187 738,185 737,185 735,183 734,183 732,181 731,181 730,180 729,180 728,179 727,179 725,177 724,177 723,176 722,176 721,175 720,175 719,174 718,174 717,173 716,173 715,172 714,172 713,171 711,171 710,170 709,170 708,169 707,169 706,168 705,168 704,167 701,167 700,166 698,166 697,165 695,165 694,164 691,164 690,163 688,163 687,162 684,162 683,161" stroke="black" stroke-width="1" /><polyline fill="none" points="539,147 538,148 538,149 537,150 537,153 536,154 536,158 535,159 535,161 534,162 534,166 533,167 533,171 532,172 532,175 531,176 531,181 530,182 530,187 529,188 529,192 528,193 528,198 527,199 527,204 526,205 526,210 525,211 525,214 524,215 524,221 523,222 523,227 522,228 522,233 521,234 521,239 520,240 520,249 519,250 519,254 518,255 518,262 517,263 517,268 516,269 516,273 515,274 515,280 514,281 514,286 513,287 513,292 512,293 512,299 511,300 511,305 510,306 510,312 509,313 510,314 510,315 511,315 512,316 515,316 516,317 519,317 520,318 524,318 525,319 528,319 529,320 532,320 533,321 537,321 538,322 541,322 542,323 545,323 546,324 550,324 551,325 555,325 556,326 559,326 560,327 563,327 564,328 568,328 569,329 574,329 575,330 579,330 580,331 585,331 586,332 589,332 590,333 594,333 595,334 599,334 600,335 604,335 605,336 609,336 610,337 614,337 615,338 619,338 620,339 624,339 625,340 629,340 630,341 634,341 635,342 639,342 640,343 644,343 645,344 652,344 653,345 657,345 658,346 662,346 663,347 670,347 671,348 675,348 676,349 681,349 682,350 686,350 687,351 694,351 695,352 702,352 703,353 710,353 711,354 719,354 720,355 731,355 732,356 747,356 748,357 754,357 754,355 755,354 755,351 756,350 756,348 757,347 757,344 758,343 758,340 759,339 759,337 760,336 760,334 761,333 761,330 762,329 762,326 763,325 763,324 763,325 762,326 762,329 761,330 761,333 760,334 760,336 759,337 759,339 758,340 758,343 757,344 757,347 756,348 756,350 755,351 755,354 754,355 754,356 753,357 748,357 747,356 732,356 731,355 720,355 719,354 711,354 710,353 703,353 702,352 695,352 694,351 687,351 686,350 682,350 681,349 676,349 675,348 671,348 670,347 663,347 662,346 658,346 657,345 653,345 652,344 645,344 644,343 640,343 639,342 635,342 634,341 630,341 629,340 625,340 624,339 620,339 619,338 615,338 614,337 610,337 609,336 605,336 604,335 600,335 599,334 595,334 594,333 590,333 589,332 586,332 585,331 580,331 579,330 575,330 574,329 569,329 568,328 564,328 563,327 560,327 559,326 556,326 555,325 551,325 550,324 546,324 545,323 542,323 541,322 538,322 537,321 533,321 532,320 529,320 528,319 525,319 524,318 520,318 519,317 516,317 515,316 512,316 509,313 510,312 510,306 511,305 511,300 512,299 512,293 513,292 513,287 514,286 514,281 515,280 515,274 516,273 516,269 517,268 517,263 518,262 518,255 519,254 519,250 520,249 520,240 521,239 521,234 522,233 522,228 523,227 523,222 524,221 524,215 525,214 525,211 526,210 526,205 527,204 527,199 528,198 528,193 529,192 529,188 530,187 530,182 531,181 531,176 532,175 532,172 533,171 533,167 534,166 534,162 535,161 535,159 536,158 536,154 537,153 537,150 539,148 541,148 540,148" stroke="black" stroke-width="1" /><polyline fill="none" points="564,144 602,144 603,145 614,145 615,146 627,146 628,147 637,147 638,148 644,148 645,149 651,149 652,150 657,150 658,151 662,151 663,152 667,152 668,153 672,153 673,154 676,154 677,155 679,155 680,156 682,156 683,157 685,157 686,158 690,158 691,159 693,159 694,160 695,160 696,161 697,161 696,160 694,160 693,159 691,159 690,158 686,158 685,157 683,157 682,156 680,156 679,155 677,155 676,154 673,154 672,153 668,153 667,152 663,152 662,151 658,151 657,150 652,150 651,149 645,149 644,148 638,148 637,147 628,147 627,146 615,146 614,145 603,145 602,144" stroke="black" stroke-width="1" /><polyline fill="none" points="459,139 458,140 459,141 458,142 458,158 457,159 463,159 459,159 458,158 458,142 459,141 458,140" stroke="black" stroke-width="1" /><polyline fill="none" points="623,124 632,124 633,125 640,125 641,126 645,126 646,127 648,127 649,128 652,128 653,129 656,129 657,130 658,130 659,131 660,131 664,135 664,136 665,137 665,138 663,140 660,140 659,139 655,139 654,138 651,138 650,137 647,137 646,136 641,136 640,135 635,135 634,134 627,134 626,133 623,133 619,129 619,128" stroke="black" stroke-width="1" /><polyline fill="none" points="623,124 622,125 621,125 620,126 620,127 619,128 619,129 620,130 620,131 621,132 622,132 623,133 626,133 627,134 634,134 635,135 640,135 641,136 646,136 647,137 650,137 651,138 654,138 655,139 659,139 660,140 664,140 665,139 665,136 664,135 664,134 661,131 660,131 659,130 657,130 656,129 653,129 652,128 649,128 648,127 646,127 645,126 641,126 640,125 633,125 632,124" stroke="black" stroke-width="1" /><polyline fill="none" points="476,89 476,94 475,95 475,96 473,98 473,99 470,102 469,102 468,103 465,103 464,104 458,104 464,104 465,103 468,103 469,102 470,102 474,98 474,97 475,96 475,95 476,94" stroke="black" stroke-width="1" /><polyline fill="none" points="468,78 469,78 472,81 472,82 474,84 474,85 475,86 473,88 472,88 471,89 469,89 465,85 465,81" stroke="black" stroke-width="1" /><polyline fill="none" points="468,78 467,79 466,79 465,80 465,86 468,89 472,89 475,86 474,85 474,83 472,81 472,80 471,79 470,79 469,78" stroke="black" stroke-width="1" /><polyline fill="none" points="457,75 456,76 454,76 453,77 452,77 447,82 447,83 446,84 446,86 445,87 445,92 446,93 446,95 447,96 447,97 449,99 449,100 450,100 452,102 454,102 455,103 456,103 455,103 454,102 453,102 452,101 451,101 447,97 447,96 446,95 446,93 445,92 445,87 446,86 446,85 447,84 447,83 448,82 448,81 451,78 452,78 454,76 456,76 457,75 464,75 465,76 464,75" stroke="black" stroke-width="1" /><polyline fill="none" points="456,72 455,73 453,73 452,74 451,74 450,75 449,75 445,79 445,80 444,81 444,82 443,83 443,86 442,87 442,92 443,93 443,97 444,98 444,99 449,104 451,104 452,105 454,105 456,107 456,133 455,134 455,158 453,160 452,160 452,163 453,164 453,176 452,177 452,202 451,203 451,204 448,207 447,207 447,208 444,211 444,212 443,213 443,215 442,216 442,217 441,218 441,220 440,221 440,223 439,224 439,239 440,240 440,248 441,249 441,252 442,253 442,255 443,256 443,258 444,259 444,260 446,262 446,263 452,269 454,269 455,270 456,270 458,272 458,278 457,279 457,287 456,288 456,297 455,298 455,303 456,304 458,304 459,305 462,305 463,306 466,306 467,307 469,307 470,308 472,308 473,309 475,309 476,310 479,310 480,311 483,311 484,312 487,312 488,313 490,313 491,314 494,314 495,315 497,315 498,316 501,316 502,317 504,317 505,318 508,318 509,319 512,319 513,320 516,320 517,321 520,321 521,322 523,322 524,323 527,323 528,324 531,324 532,325 535,325 536,326 539,326 540,327 543,327 544,328 547,328 548,329 551,329 552,330 555,330 556,331 559,331 560,332 562,332 563,333 566,333 567,334 570,334 571,335 573,335 574,336 577,336 579,338 579,341 578,342 578,348 577,349 577,355 574,358 561,358 560,357 515,357 514,358 502,358 501,359 501,363 497,367 496,367 495,368 494,368 492,370 491,370 487,374 487,375 485,377 485,378 483,380 483,381 482,382 482,384 481,385 481,387 480,388 480,395 479,396 479,400 480,401 480,406 481,407 481,409 483,411 483,413 481,415 481,416 479,418 479,419 478,420 478,421 477,422 477,423 476,424 476,425 475,426 475,427 473,429 473,430 472,431 472,432 471,433 471,434 469,436 469,437 468,438 468,439 467,440 467,441 466,442 466,443 464,445 464,446 463,447 463,448 462,449 462,450 461,451 461,453 460,454 460,456 458,458 456,458 455,457 447,457 445,459 445,460 442,463 442,464 440,466 440,467 438,469 438,470 437,471 437,472 436,473 436,474 435,475 435,476 433,478 433,479 432,480 432,481 431,482 431,483 430,484 430,486 429,487 429,491 431,493 433,493 434,494 435,494 436,495 436,496 435,497 435,498 434,499 434,501 433,502 433,511 434,512 434,515 435,516 435,517 437,519 437,520 443,526 444,526 445,527 446,527 447,528 448,528 449,529 452,529 453,530 460,530 461,529 463,529 464,528 465,528 466,527 467,527 470,524 471,524 471,523 474,520 474,519 475,518 475,517 476,516 476,514 475,513 475,511 471,507 471,506 470,505 468,505 467,504 465,504 464,503 464,502 463,502 462,501 460,501 459,500 456,500 455,499 454,500 453,499 450,499 449,498 448,498 447,497 445,497 444,496 442,496 439,493 439,494 438,495 437,494 436,495 435,494 434,494 433,493 432,493 429,490 429,488 430,487 430,485 431,484 431,483 432,482 432,481 433,480 433,479 435,477 435,476 436,475 436,474 437,473 437,472 438,471 438,470 440,468 440,467 442,465 442,464 445,461 445,460 448,457 455,457 456,458 459,458 461,460 462,459 462,458 463,457 463,455 464,454 464,453 465,452 465,451 466,450 466,449 467,448 467,447 468,446 467,447 467,448 466,449 466,450 465,451 465,452 464,453 464,454 463,455 463,457 462,458 462,459 461,460 459,458 459,457 460,456 460,454 461,453 461,452 462,451 462,450 463,449 463,448 464,447 464,446 466,444 466,443 467,442 467,441 468,440 468,439 469,438 469,437 471,435 471,434 472,433 472,432 473,431 473,430 475,428 475,427 476,426 476,425 477,424 477,423 478,422 478,421 479,420 479,419 481,417 481,416 482,415 482,414 483,413 483,411 482,410 482,409 481,408 481,407 480,406 480,401 479,400 479,396 480,395 480,388 481,387 481,385 482,384 482,383 483,382 483,381 485,379 485,378 487,376 487,375 492,370 493,370 495,368 496,368 497,367 498,367 501,364 501,360 503,358 514,358 515,357 560,357 561,358 576,358 576,356 577,355 577,349 578,348 578,342 579,341 579,338 578,337 578,336 574,336 573,335 571,335 570,334 567,334 566,333 563,333 562,332 560,332 559,331 556,331 555,330 552,330 551,329 548,329 547,328 544,328 543,327 540,327 539,326 536,326 535,325 532,325 531,324 528,324 527,323 524,323 523,322 521,322 520,321 517,321 516,320 513,320 512,319 509,319 508,318 505,318 504,317 502,317 501,316 498,316 497,315 495,315 494,314 491,314 490,313 488,313 487,312 484,312 483,311 480,311 479,310 476,310 475,309 473,309 472,308 470,308 469,307 467,307 466,306 463,306 462,305 459,305 458,304 457,304 455,302 455,298 456,297 456,288 457,287 457,279 458,278 458,273 459,272 457,270 455,270 454,269 453,269 446,262 446,261 444,259 444,258 443,257 443,256 442,255 442,253 441,252 441,249 440,248 440,240 439,239 439,224 440,223 440,221 441,220 441,218 442,217 442,216 443,215 443,214 444,213 444,212 447,209 447,208 448,207 449,207 451,205 451,204 452,203 452,177 453,176 453,163 452,162 452,161 453,160 454,160 455,159 455,135 456,134 456,106 455,105 452,105 451,104 450,104 444,98 444,97 443,96 443,93 442,92 442,87 443,86 443,84 444,83 444,82 445,81 445,80 450,75 451,75 452,74 453,74 454,73 455,73 456,72 465,72 466,73 467,73 468,74 469,74 471,76 472,76 475,79 475,80 477,82 477,83 478,84 478,85 479,86 479,94 478,95 478,97 476,99 476,100 472,104 471,104 470,105 469,105 468,106 466,106 465,107 465,132 463,134 460,134 459,133 459,118 459,133 458,134 463,134 464,133 465,134 465,159 466,160 467,160 468,161 468,174 467,175 467,193 471,193 473,191 473,188 474,187 474,184 475,183 475,179 476,178 476,175 477,174 477,170 478,169 478,167 479,166 479,162 480,161 480,159 482,157 484,157 485,156 487,156 488,155 491,155 492,154 495,154 496,153 499,153 500,152 503,152 504,151 508,151 509,150 513,150 514,149 518,149 519,148 523,148 524,147 530,147 531,146 534,146 535,145 540,145 541,144 542,144 543,145 544,145 545,144 559,144 560,143 561,144 563,142 563,141 564,140 564,139 571,132 572,132 574,130 575,130 576,129 577,129 578,128 580,128 581,127 582,127 583,126 586,126 587,125 589,125 590,124 594,124 595,123 599,123 600,122 606,122 607,121 632,121 633,122 640,122 641,123 645,123 646,124 649,124 650,125 652,125 653,126 656,126 657,127 659,127 660,128 661,128 662,129 664,129 665,130 666,130 667,131 668,131 669,132 670,132 671,133 672,133 673,134 674,134 675,135 676,135 677,136 678,136 680,138 681,138 683,140 684,140 686,142 687,142 697,152 697,153 699,155 699,157 700,158 700,159 699,160 699,161 699,160 700,159 700,158 699,157 699,154 697,152 697,151 688,142 687,142 685,140 684,140 682,138 681,138 679,136 678,136 677,135 676,135 675,134 674,134 673,133 672,133 671,132 670,132 669,131 667,131 666,130 665,130 664,129 662,129 661,128 660,128 659,127 657,127 656,126 653,126 652,125 650,125 649,124 646,124 645,123 641,123 640,122 633,122 632,121 607,121 606,122 600,122 599,123 595,123 594,124 590,124 589,125 587,125 586,126 583,126 582,127 581,127 580,128 578,128 577,129 575,129 574,130 573,130 571,132 570,132 564,138 564,140 563,141 563,142 562,143 560,143 559,144 545,144 544,145 543,145 542,144 541,144 540,145 535,145 534,146 531,146 530,147 524,147 523,148 519,148 518,149 514,149 513,150 509,150 508,151 504,151 503,152 500,152 499,153 496,153 495,154 492,154 491,155 488,155 487,156 485,156 484,157 481,157 480,158 480,161 479,162 479,166 478,167 478,169 477,170 477,174 476,175 476,178 475,179 475,183 474,184 474,187 473,188 473,190 470,193 468,193 467,192 467,175 468,174 468,160 467,160 465,158 465,135 466,134 465,133 465,108 467,106 468,106 469,105 471,105 472,104 473,104 476,101 476,100 477,99 477,98 478,97 478,95 479,94 479,86 478,85 478,83 477,82 477,81 475,79 475,78 473,76 472,76 470,74 469,74 468,73 466,73 465,72" stroke="black" stroke-width="1" /></svg>