<?xml version="1.0" encoding="utf-8" ?>
<svg baseProfile="tiny" height="704" version="1.2" width="1248" xmlns="http://www.w3.org/2000/svg" xmlns:ev="http://www.w3.org/2001/xml-events" xmlns:xlink="http://www.w3.org/1999/xlink"><defs /><polyline fill="none" points="726,632 727,632 728,633 734,633 735,634 741,634 742,635 746,635 747,636 750,636 751,637 753,637 754,638 755,638 758,641 755,644 754,644 753,645 751,645 750,646 746,646 745,647 741,647 740,648 735,648 734,649 727,649 726,650 718,650 717,651 707,651 706,652 694,652 693,653 678,653 677,654 657,654 656,655 624,655 623,656 574,656 573,655 544,655 543,654 526,654 525,653 510,653 509,652 506,652 509,652 510,653 525,653 526,654 543,654 544,655 573,655 574,656 623,656 624,655 656,655 657,654 677,654 678,653 693,653 694,652 706,652 707,651 717,651 718,650 726,650 727,649 734,649 735,648 740,648 741,647 745,647 746,646 750,646 751,645 753,645 754,644 756,644 758,642 758,641 757,640 757,639 756,638 754,638 753,637 751,637 750,636 747,636 746,635 742,635 741,634 735,634 734,633 728,633 727,632" stroke="black" stroke-width="1" /><polyline fill="none" points="547,626 546,627 524,627 523,628 522,627 521,628 522,627 523,628 524,627 546,627 547,626 639,626 640,627 646,627 640,627 639,626" stroke="black" stroke-width="1" /><polyline fill="none" points="731,619 730,620 729,620 728,621 726,621 725,622 722,622 721,623 719,623 718,624 715,624 714,625 711,625 710,626 707,626 706,627 703,627 702,628 701,627 700,627 701,627 702,628 703,627 706,627 707,626 710,626 711,625 714,625 715,624 718,624 719,623 721,623 722,622 725,622 726,621 728,621 729,620 730,620 731,619 734,619" stroke="black" stroke-width="1" /><polyline fill="none" points="720,600 719,601 716,601 715,602 714,602 713,603 712,603 711,604 710,604 708,606 707,606 705,608 704,608 700,612 700,613 698,615 698,618 699,619 699,625 699,619 698,618 698,615 699,614 700,614 700,613 705,608 706,608 708,606 709,606 711,604 712,604 713,603 714,603 716,601 721,601 729,609 729,610 731,612 731,613 733,615 733,616 734,617 734,616 733,615 733,614 731,612 731,611 729,609 729,608 722,601 721,601" stroke="black" stroke-width="1" /><polyline fill="none" points="698,591 697,592 691,592 690,593 688,593 687,594 686,594 685,595 683,595 682,596 680,596 679,597 678,597 677,598 676,598 672,602 672,603 670,605 670,607 669,608 669,609 668,610 668,611 667,612 667,613 666,614 666,616 665,617 665,618 664,619 664,622 663,623 663,626 662,627 662,629 661,630 661,631 662,632 662,633 668,633 669,632 677,632 678,631 683,631 684,630 691,630 692,629 696,629 697,628 698,628 697,628 696,629 692,629 691,630 684,630 683,631 678,631 677,632 669,632 668,633 663,633 661,631 661,630 662,629 662,627 663,626 663,623 664,622 664,619 665,618 665,617 666,616 666,615 667,614 667,613 668,612 668,611 669,610 669,609 670,608 670,606 671,605 671,604 677,598 678,598 679,597 680,597 681,598 680,599 681,599 682,600 683,600 686,603 687,603 691,607 691,608 695,612 695,613 696,614 696,613 695,612 695,611 691,607 691,606 688,603 687,603 684,600 683,600 680,597 681,596 682,596 683,595 685,595 686,594 687,594 688,593 690,593 691,592 697,592 698,591 703,591 704,592 709,592 710,593 711,593 712,594 713,594 714,595 715,595 716,596 717,596 719,598 720,598 718,596 717,596 716,595 715,595 714,594 712,594 711,593 710,593 709,592 704,592 703,591" stroke="black" stroke-width="1" /><polyline fill="none" points="682,591 681,592 678,592 677,593 675,593 674,594 672,594 671,595 670,595 669,596 668,595 669,596 670,595 672,595 673,594 675,594 676,593 677,593 678,592 681,592 682,591 684,591" stroke="black" stroke-width="1" /><polyline fill="none" points="680,589 679,590 676,590 675,591 672,591 671,592 668,592 667,593 668,593 669,592 671,592 672,591 675,591 676,590 679,590 680,589 684,589" stroke="black" stroke-width="1" /><polyline fill="none" points="468,583 467,584 466,584 465,585 466,586 466,589 467,590 467,592 468,593 468,596 469,597 469,598 470,599 470,600 471,601 471,602 472,603 472,605 473,606 473,609 474,610 474,611 475,612 475,613 476,614 475,613 475,611 474,610 474,609 473,608 473,606 472,605 472,602 470,600 470,599 469,598 469,596 468,595 468,593 467,592 467,590 466,589 466,586 465,585 466,584 467,584 468,583 469,583 470,584 471,583 494,583 495,584 498,584 499,585 500,585 501,586 502,586 506,590 506,591 511,596 511,597 513,599 513,600 514,601 514,602 515,603 515,605 516,606 516,618 515,619 515,621 514,622 514,624 513,625 513,626 511,628 511,629 510,630 510,631 509,632 509,633 508,634 508,635 506,637 506,638 503,641 503,642 500,645 493,638 493,637 487,631 487,630 484,627 484,626 482,624 482,623 480,621 480,620 477,617 479,615 481,615 482,614 485,614 486,613 487,613 488,612 489,612 490,611 491,611 492,612 494,612 496,614 497,614 498,615 499,615 501,617 502,617 507,622 507,623 509,625 509,626 509,624 507,622 507,621 503,617 502,617 500,615 499,615 498,614 497,614 496,613 495,613 494,612 492,612 491,611 490,611 489,612 487,612 486,613 485,613 484,614 482,614 481,615 478,615 478,616 477,617 477,618 480,621 480,622 482,624 482,625 484,627 484,628 487,631 487,632 494,639 494,640 499,645 499,646 500,645 501,645 503,643 503,642 506,639 506,638 508,636 508,635 509,634 509,633 510,632 510,630 512,628 512,627 513,626 513,625 514,624 514,623 515,622 515,619 516,618 516,606 515,605 515,602 514,601 514,600 513,599 513,598 511,596 511,595 506,590 506,589 503,586 502,586 501,585 499,585 498,584 495,584 494,583 471,583 470,584 469,583" stroke="black" stroke-width="1" /><polyline fill="none" points="522,575 522,576 523,577 523,578 524,579 524,580 526,582 526,583 531,588 531,589 533,591 534,591 536,593 533,596 532,596 530,598 529,598 528,599 527,599 525,601 524,601 523,602 521,602 519,600 519,599 518,598 518,597 516,595 516,594 515,593 515,592 514,591 514,590 513,589 513,588 512,587 512,586 511,585 511,584 513,582 514,582 516,580 517,580 519,578 517,580 516,580 514,582 513,582 511,584 511,586 512,587 512,588 513,589 513,590 514,591 514,592 515,593 515,594 516,595 516,596 518,598 518,599 519,600 519,601 521,603 522,602 523,602 524,601 525,601 527,599 528,599 529,598 530,598 532,596 533,596 535,594 537,594 536,593 536,592 535,591 534,591 531,588 531,587 526,582 526,581 524,579 524,578 523,577 523,576" stroke="black" stroke-width="1" /><polyline fill="none" points="685,569 685,570 686,571 686,572 687,573 687,576 688,577 688,579 689,580 689,584 688,585 687,585 686,586 682,586 681,587 677,587 676,588 673,588 672,589 667,589 666,590 667,589 672,589 673,588 676,588 677,587 681,587 682,586 686,586 687,585 689,585 689,580 688,579 688,577 687,576 687,573 686,572 686,570" stroke="black" stroke-width="1" /><polyline fill="none" points="682,567 681,568 680,568 679,569 678,569 677,570 676,570 675,571 674,571 673,572 672,572 671,573 670,573 669,574 668,574 667,575 665,575 664,576 663,576 663,577 664,578 664,580 664,578 663,577 664,576 665,576 666,575 668,575 670,573 672,573 673,572 674,572 675,571 676,571 677,570 678,570 679,569 680,569 681,568 682,568 683,567 684,567" stroke="black" stroke-width="1" /><polyline fill="none" points="532,565 532,566 527,571 527,572 526,573 524,573 525,574 525,576 527,578 527,579 529,581 529,582 539,592 540,591 539,591 529,581 529,580 526,577 526,576 525,575 525,574 528,571 528,570 532,566" stroke="black" stroke-width="1" /><polyline fill="none" points="533,563 540,570 541,570 544,573 545,573 547,575 548,575 551,578 548,581 548,582 541,589 548,582 548,581 552,577 551,577 549,575 548,575 546,573 545,573 542,570 541,570 534,563" stroke="black" stroke-width="1" /><polyline fill="none" points="677,550 677,551 678,552 678,553 680,555 680,556 681,557 681,559 682,560 682,562 683,563 681,565 680,565 679,566 678,566 677,567 676,567 675,568 674,568 673,569 672,569 671,570 670,570 669,571 667,571 665,573 662,573 665,573 666,572 667,572 668,571 670,571 671,570 672,570 673,569 674,569 675,568 676,568 677,567 678,567 680,565 682,565 682,564 683,563 682,562 682,560 681,559 681,557 680,556 680,555 678,553 678,552 677,551" stroke="black" stroke-width="1" /><polyline fill="none" points="674,548 672,550 671,550 669,552 668,552 667,553 666,553 663,556 662,556 660,558 659,558 658,559 657,559 656,560 656,561 658,563 658,564 659,565 659,566 659,565 658,564 658,563 656,561 658,559 659,559 661,557 662,557 663,556 664,556 667,553 668,553 669,552 670,552 672,550 673,550 675,548 676,548" stroke="black" stroke-width="1" /><polyline fill="none" points="540,548 540,550 539,551 539,553 538,554 538,555 537,556 537,557 536,558 536,559 535,560 535,561 542,568 543,568 545,570 546,570 548,572 549,572 551,574 552,574 553,575 554,575 553,575 550,572 549,572 547,570 546,570 544,568 543,568 535,560 536,559 536,558 537,557 537,556 538,555 538,554 539,553 539,552 540,551 540,550 541,549 544,549 541,549" stroke="black" stroke-width="1" /><polyline fill="none" points="674,545 673,546 672,546 671,547 670,547 668,549 667,549 665,551 664,551 662,553 661,553 659,555 658,555 655,558 654,558 655,558 656,557 657,557 659,555 660,555 662,553 663,553 665,551 666,551 668,549 669,549 671,547 672,547 673,546 674,546 675,545" stroke="black" stroke-width="1" /><polyline fill="none" points="679,531 674,536 673,536 672,537 672,540 673,541 673,542 674,543 673,542 673,541 672,540 672,538 674,536 675,536 679,532" stroke="black" stroke-width="1" /><polyline fill="none" points="569,520 569,527 570,528 570,529 571,529 572,530 573,529 587,529 573,529 572,530 569,527 569,521 570,520 571,520 573,522 574,522 576,524 578,524 580,526 582,526 581,526 579,524 577,524 575,522 574,522 573,521 572,521 571,520" stroke="black" stroke-width="1" /><polyline fill="none" points="682,502 686,502 689,505 689,508 686,511 685,511 684,512 683,511 682,511 679,508 679,505" stroke="black" stroke-width="1" /><polyline fill="none" points="681,502 680,503 680,504 679,505 679,508 680,509 680,510 681,511 683,511 684,512 685,511 687,511 689,509 689,504 687,502" stroke="black" stroke-width="1" /><polyline fill="none" points="573,483 573,487 574,488 575,488 576,489 578,489 579,490 580,490 581,491 583,491 584,492 585,492 586,493 587,493 588,494 590,494 591,495 592,495 593,496 594,496 595,497 597,497 598,498 599,498 600,499 601,499 602,500 603,500 604,501 606,501 605,501 604,500 603,500 602,499 601,499 600,498 598,498 597,497 596,497 595,496 594,496 593,495 591,495 590,494 589,494 588,493 587,493 586,492 584,492 583,491 581,491 580,490 579,490 578,489 576,489 573,486" stroke="black" stroke-width="1" /><polyline fill="none" points="624,481 622,483 622,484 616,490 616,491 615,492 615,493 613,495 613,496 612,497 612,498 611,499 611,500 610,501 610,502 609,503 609,505 608,506 608,507 607,508 607,510 606,511 606,512 605,513 605,514 604,515 604,516 603,517 603,518 602,519 602,521 601,522 602,523 602,524 605,524 606,525 609,525 610,526 624,526 625,525 626,525 628,523 629,523 630,522 631,522 636,517 636,516 637,515 637,514 638,513 638,511 639,510 639,499 638,498 638,495 636,493 636,492 632,488 631,488 630,487 628,487 627,486 625,486 626,486 627,487 629,487 630,488 631,488 636,493 636,494 638,496 638,498 639,499 639,510 638,511 638,512 637,513 637,514 636,515 636,516 630,522 629,522 628,523 627,523 625,525 624,525 623,526 610,526 609,525 606,525 605,524 603,524 601,522 602,521 602,520 603,519 603,518 604,517 604,516 605,515 605,514 606,513 606,512 607,511 607,509 608,508 608,507 609,506 609,504 610,503 610,502 611,501 611,500 612,499 612,498 613,497 613,496 615,494 615,493 616,492 616,491 622,485 622,484 625,481" stroke="black" stroke-width="1" /><polyline fill="none" points="579,474 575,478 575,479 578,476 578,475 579,474 580,475 585,475 586,476 587,476 588,477 591,477 592,478 594,478 595,479 598,479 599,480 601,480 602,481 605,481 606,482 608,482 609,483 612,483 613,484 614,484 615,485 615,484 613,484 612,483 609,483 608,482 606,482 605,481 602,481 601,480 599,480 598,479 595,479 594,478 592,478 591,477 588,477 587,476 586,476 585,475 580,475" stroke="black" stroke-width="1" /><polyline fill="none" points="657,472 658,471 660,471 662,473 659,476 657,474" stroke="black" stroke-width="1" /><polyline fill="none" points="556,470 558,472 559,472 560,473 561,473 562,474 563,474 565,476 566,476 568,478 567,479 567,480 566,481 566,482 565,483 565,484 564,485 564,486 563,487 563,488 562,489 562,491 561,492 561,494 560,495 560,497 559,498 558,498 557,497 556,497 555,496 554,496 552,494 551,494 550,493 549,493 547,491 546,491 544,489 546,487 546,486 547,485 547,484 548,483 548,482 549,481 549,480 550,479 550,478 551,477 551,476 553,474 553,473" stroke="black" stroke-width="1" /><polyline fill="none" points="555,470 553,472 553,473 551,475 551,477 549,479 549,480 548,481 548,482 547,483 547,484 546,485 546,486 545,487 545,488 544,489 545,490 545,491 546,491 548,493 549,493 550,494 551,494 553,496 554,496 555,497 556,497 557,498 559,498 560,499 559,498 560,497 560,495 561,494 561,492 562,491 562,489 563,488 563,487 564,486 564,485 565,484 565,483 567,481 567,480 568,479 568,477 567,477 565,475 564,475 563,474 562,474 560,472 559,472 558,471 557,471 556,470" stroke="black" stroke-width="1" /><polyline fill="none" points="513,464 516,467 516,468 520,472 521,472 524,475 524,476 523,477 522,477 511,466" stroke="black" stroke-width="1" /><polyline fill="none" points="598,460 596,462 591,462 590,463 583,463 582,464 579,464 576,467 576,468 574,470 574,472 573,473 573,474 574,473 574,471 575,470 575,469 576,468 578,470 578,472 578,471 579,470 579,469 580,468 581,468 582,467 583,467 584,466 591,466 592,465 597,465 598,464 601,464 603,466 603,468 602,469 597,469 596,468 592,468 596,468 597,469 606,469 608,471 610,471 611,472 612,472 613,473 614,473 615,474 616,474 617,475 618,475 622,479 622,478 620,476 619,476 618,475 617,475 616,474 615,474 614,473 613,473 612,472 611,472 610,471 609,471 608,470 607,470 606,469 605,469 603,467 603,466 602,465 602,464 598,464 597,465 592,465 591,466 583,466 582,467 581,467 580,468 579,468 579,469 578,470 576,468 580,464 582,464 583,463 590,463 591,462 597,462 598,461 599,461" stroke="black" stroke-width="1" /><polyline fill="none" points="541,459 543,461 544,461 547,464 548,464 552,468 552,469 550,471 550,472 549,473 549,474 547,476 547,477 546,478 546,479 545,480 545,482 543,484 543,485 542,486 542,487 541,488 538,485 537,485 534,482 533,482 530,479 529,479 527,477 530,474 530,473 532,471 532,470 534,468 534,467 536,465 536,464" stroke="black" stroke-width="1" /><polyline fill="none" points="681,458 680,459 675,459 674,460 674,461 673,462 673,464 671,466 671,467 670,468 670,469 668,471 668,472 659,481 658,481 656,483 655,483 654,484 653,484 652,485 650,485 649,486 645,486 644,487 635,487 634,486 633,486 631,484 633,482 634,483 636,483 637,484 638,484 637,484 636,483 634,483 633,482 633,478 634,477 634,475 634,477 633,478 633,482 631,484 630,484 628,482 628,481 629,480 629,479 630,478 630,476 631,475 631,474 630,475 630,477 629,478 629,479 627,481 628,482 628,483 629,484 631,484 633,486 634,486 635,487 635,488 636,487 644,487 645,486 649,486 650,485 652,485 653,484 655,484 656,483 657,483 659,481 660,481 668,473 668,472 670,470 670,469 671,468 671,467 672,466 672,465 673,464 673,462 676,459 680,459 681,458 686,458 689,461 689,465 690,466 690,472 691,473 691,479 692,480 692,486 693,487 693,493 694,494 694,501 695,502 695,509 696,510 696,515 694,517 693,517 692,518 688,518 687,519 683,519 682,520 674,520 673,521 663,521 662,522 654,522 653,523 643,523 642,524 634,524 633,525 630,525 633,525 634,524 642,524 643,523 653,523 654,522 662,522 663,521 673,521 674,520 682,520 683,519 687,519 688,518 692,518 693,517 694,517 696,515 696,510 695,509 695,502 694,501 694,494 693,493 693,487 692,486 692,480 691,479 691,473 690,472 690,466 689,465 689,460 687,458" stroke="black" stroke-width="1" /><polyline fill="none" points="640,449 641,448 648,448 651,451 651,452 652,453 651,454 651,455 647,459 645,459 644,460 643,460 642,459 640,459 639,458 638,458 636,456 636,455 635,454 635,453 636,452 636,451 638,449" stroke="black" stroke-width="1" /><polyline fill="none" points="641,448 640,449 637,449 635,451 636,452 635,453 635,454 636,455 636,457 637,458 638,458 639,459 642,459 643,460 644,460 645,459 648,459 651,456 651,454 652,453 651,452 651,450 649,448" stroke="black" stroke-width="1" /><polyline fill="none" points="609,448 608,449 607,449 608,449 609,448 610,448 611,449 611,450 612,451 612,453 612,451 611,450 611,449 612,448 611,449 610,448" stroke="black" stroke-width="1" /><polyline fill="none" points="527,448 528,447 534,453 535,453 538,456 538,457 534,461 534,462 531,465 531,466 529,468 529,469 527,471 527,472 524,475 513,464 513,463 517,459 517,458 525,450 526,450 527,449" stroke="black" stroke-width="1" /><polyline fill="none" points="514,436 515,436 516,437 517,437 518,438 519,438 525,444 525,445 514,456 514,457 510,461 509,460 509,459 507,457 507,456 505,454 505,453 502,450 502,448 504,446 504,445 511,438 512,438" stroke="black" stroke-width="1" /><polyline fill="none" points="668,429 669,430 669,431 670,432 670,434 671,435 671,438 672,439 672,457 671,458 671,461 670,462 670,463 668,465 668,466 666,468 666,469 665,470 663,468 662,468 663,469 664,469 665,470 665,471 663,473 661,471 658,471 657,472 656,472 657,473 657,475 658,475 660,477 659,476 660,475 661,475 661,474 662,473 663,474 663,473 664,472 665,472 665,470 668,467 668,466 669,465 669,464 670,463 670,462 671,461 671,458 673,456 672,455 672,439 671,438 671,435 670,434 670,432 669,431 669,430" stroke="black" stroke-width="1" /><polyline fill="none" points="635,422 636,422 637,423 638,423 644,429 643,430 642,430 641,431 640,430 635,430 632,427 632,425" stroke="black" stroke-width="1" /><polyline fill="none" points="635,422 634,423 633,423 632,424 632,428 633,429 634,429 635,430 640,430 641,431 641,433 641,431 642,430 643,430 647,434 647,435 646,436 645,436 645,437 646,436 647,436 647,433 646,432 645,432 643,430 644,429 644,428 640,424 639,424 638,423 637,423 636,422" stroke="black" stroke-width="1" /><polyline fill="none" points="632,420 633,419 643,419 644,420 646,420 647,421 648,421 650,423 651,423 659,431 659,432 660,433 660,434 661,435 661,436 662,437 662,439 663,440 663,454 662,455 662,456 661,457 661,458 660,459 660,460 659,461 659,462 651,470 650,470 649,471 648,471 647,472 645,472 644,473 635,473 634,472 633,472 631,470 629,470 627,468 626,468 620,462 620,461 618,459 618,458 617,457 617,456 616,455 616,453 615,452 615,449 614,448 614,444 615,443 615,438 616,437 616,435 617,434 617,433 618,432 618,431 620,429 620,428 623,425 624,425 627,422 628,422 629,421 630,421 631,420" stroke="black" stroke-width="1" /><polyline fill="none" points="633,419 632,420 630,420 629,421 628,421 627,422 626,422 623,425 622,425 620,427 620,428 618,430 618,431 617,432 617,434 616,435 616,437 615,438 615,443 614,444 614,448 615,449 615,452 616,453 616,455 617,456 617,458 618,459 618,460 620,462 620,463 625,468 626,468 628,470 630,470 631,471 632,471 633,472 634,472 635,473 644,473 645,472 647,472 648,471 650,471 651,470 652,470 659,463 659,462 660,461 660,460 661,459 661,458 662,457 662,455 663,454 663,440 662,439 662,436 661,435 661,434 660,433 660,432 659,431 659,430 652,423 651,423 649,421 648,421 647,420 644,420 643,419" stroke="black" stroke-width="1" /><polyline fill="none" points="648,412 649,411 650,411 651,412 652,412 653,413 654,413 655,414 656,414 664,422 664,424 662,426 660,426 658,424 657,424 653,420 653,419 654,418 654,416 653,415 652,416 651,416 650,415 649,415 648,414" stroke="black" stroke-width="1" /><polyline fill="none" points="627,409 626,410 625,410 624,411 622,411 621,412 620,412 618,414 617,414 614,417 614,418 613,419 613,420 612,421 612,422 611,423 611,424 610,425 610,427 609,428 609,431 608,432 608,435 607,436 607,444 609,444 610,445 612,445 610,445 609,444 608,444 607,443 607,436 608,435 608,432 609,431 609,428 610,427 610,425 612,423 612,422 613,421 613,420 614,419 614,418 618,414 619,414 621,412 622,412 623,411 624,411 625,410 627,410 628,411 628,414 629,415 629,416 630,416 628,414 628,411 627,410" stroke="black" stroke-width="1" /><polyline fill="none" points="635,408 634,409 632,409 632,413 633,414 632,415 632,416 632,415 633,414 634,415 634,416 642,416 643,417 643,416 644,415 644,412 645,411 647,411 648,412 648,414 647,415 647,417 647,415 648,414 649,415 650,415 651,416 652,416 653,415 654,416 654,417 653,418 653,420 658,425 659,425 662,428 663,428 664,429 665,429 667,427 667,426 664,429 662,427 665,424 666,424 665,424 664,423 664,422 663,421 663,420 658,415 657,415 655,413 654,413 653,412 652,412 651,411 649,411 648,412 647,411 645,411 644,412 644,415 643,416 635,416 632,413 632,410 633,409 634,409 635,408 640,408 641,409 642,409 643,410 643,409 641,409 640,408" stroke="black" stroke-width="1" /><polyline fill="none" points="525,402 526,401 528,401 529,402 530,402 538,410 538,411 540,413 540,414 539,415 537,415 536,416 534,416 533,417 529,417 528,418 524,418 522,416 522,415 514,407 515,406 516,406 517,405 518,405 519,404 520,404 521,403 522,403 523,402" stroke="black" stroke-width="1" /><polyline fill="none" points="528,400 527,401 526,401 525,402 523,402 522,403 521,403 520,404 519,404 518,405 516,405 514,407 513,407 512,406 510,406 509,405 507,405 506,404 502,404 501,403 498,403 497,404 495,404 494,405 492,405 491,406 490,406 491,406 492,405 494,405 495,404 497,404 498,403 501,403 502,404 506,404 507,405 509,405 510,406 511,406 512,407 513,407 522,416 522,417 525,420 525,423 526,424 526,427 527,428 527,435 526,436 526,437 527,436 527,428 526,427 526,424 525,423 525,419 526,418 528,418 529,417 533,417 534,416 536,416 537,415 539,415 540,414 542,416 542,418 543,419 543,422 544,423 544,439 543,440 543,442 542,443 542,444 537,449 536,449 533,446 532,446 522,436 521,436 520,435 519,435 517,433 517,432 516,431 516,426 515,425 515,424 510,419 509,419 508,418 506,418 505,417 497,417 496,418 495,418 494,419 493,419 491,421 490,421 489,422 489,423 487,425 487,427 486,428 486,430 485,431 485,438 486,439 486,441 487,442 487,443 488,444 488,445 494,451 495,451 496,452 499,452 503,456 503,457 504,458 504,459 508,463 506,461 506,460 504,458 504,457 502,455 502,454 501,453 500,453 499,452 497,452 496,451 495,451 487,443 487,442 486,441 486,439 485,438 485,431 486,430 486,428 487,427 487,426 489,424 489,423 491,421 492,421 494,419 495,419 497,417 505,417 506,418 507,418 508,419 509,419 515,425 515,426 516,427 516,431 517,432 517,434 518,434 519,435 520,435 521,436 522,436 525,439 525,440 528,443 526,445 525,444 525,443 520,438 519,438 518,437 516,437 515,436 514,436 513,437 512,437 511,438 510,438 505,443 505,444 502,447 502,451 505,454 505,455 507,457 507,458 509,460 509,461 511,461 514,458 514,457 528,443 531,446 532,446 536,450 537,449 538,449 542,445 542,443 543,442 543,440 544,439 544,423 543,422 543,419 542,418 542,416 540,414 540,412 538,410 538,409 531,402 530,402" stroke="black" stroke-width="1" /><polyline fill="none" points="570,396 572,396 576,400 576,402 575,403 575,404 573,406 569,406 566,403 566,400" stroke="black" stroke-width="1" /><polyline fill="none" points="570,396 569,397 568,397 566,399 566,404 568,406 574,406 575,405 575,403 576,402 576,400 575,399 575,398 573,396" stroke="black" stroke-width="1" /><polyline fill="none" points="509,395 508,396 503,396 502,397 499,397 497,399 495,399 490,404 493,401 494,401 496,399 497,399 498,398 499,398 500,397 502,397 503,396 508,396 509,395 514,395 515,396 520,396 521,397 522,397 523,398 525,398 524,398 523,397 521,397 520,396 515,396 514,395" stroke="black" stroke-width="1" /><polyline fill="none" points="693,393 694,392 697,392 698,393 699,393 701,395 702,395 704,397 704,398 706,400 706,401 708,403 708,404 709,405 708,406 707,406 706,407 702,407 701,408 698,408 697,409 696,409 695,408 695,406 694,405 694,401 693,400" stroke="black" stroke-width="1" /><polyline fill="none" points="691,389 694,392 693,393 692,393 692,394 693,395 693,400 694,401 694,405 695,406 695,408 696,409 695,410 696,409 697,409 698,408 701,408 702,407 706,407 707,406 708,407 709,406 709,404 708,403 708,402 706,400 706,399 703,396 703,395 702,395 700,393 698,393 697,392 694,392 693,391 693,390 692,390" stroke="black" stroke-width="1" /><polyline fill="none" points="675,388 679,388 681,390 681,391 682,392 682,394 681,395 681,396 680,397 679,397 677,399 676,399 675,398 674,398 672,396 672,395 671,394 671,392" stroke="black" stroke-width="1" /><polyline fill="none" points="674,388 672,390 672,391 671,392 671,394 672,395 672,397 673,398 675,398 676,399 677,399 678,398 679,398 681,396 681,395 682,394 682,392 681,391 681,389 680,388" stroke="black" stroke-width="1" /><polyline fill="none" points="661,382 660,383 646,383 645,384 633,384 632,385 621,385 620,386 608,386 607,387 591,387 590,388 580,388 579,389 566,389 565,390 560,390 559,391 558,391 559,391 560,390 565,390 566,389 579,389 580,388 590,388 591,387 607,387 608,386 620,386 621,385 632,385 633,384 645,384 646,383 660,383 661,382 674,382" stroke="black" stroke-width="1" /><polyline fill="none" points="634,379 633,380 602,380 601,381 593,381 592,382 577,382 576,383 552,383 551,384 544,384 543,385 539,385 538,386 535,386 534,387 529,387 528,388 523,388 522,389 519,389 522,389 523,388 528,388 529,387 534,387 535,386 538,386 539,385 543,385 544,384 551,384 552,383 576,383 577,382 592,382 593,381 601,381 602,380 633,380 634,379 679,379 680,380 685,380 686,381 686,383 687,384 687,386 688,387 688,391 689,392 689,398 690,399 690,402 691,403 691,407 692,408 692,412 693,413 693,417 694,418 694,424 695,425 695,428 696,429 696,433 697,434 697,439 698,440 698,448 699,449 699,454 700,455 700,460 701,461 701,467 702,468 702,473 703,474 703,479 704,480 704,485 705,486 705,492 706,493 706,499 707,500 707,505 708,506 708,511 709,512 709,514 708,515 706,515 705,516 699,516 698,515 699,514 699,511 698,510 698,503 697,502 697,494 696,493 696,487 695,486 695,481 694,480 694,473 693,472 693,467 692,466 692,460 691,459 691,458 689,456 688,456 687,455 681,455 680,456 676,456 675,455 675,438 674,437 674,434 673,433 673,431 672,430 672,428 671,427 671,426 668,423 668,422 667,421 667,420 663,416 663,415 662,414 661,414 658,411 657,411 656,410 655,410 654,409 652,409 651,408 650,408 649,407 646,407 645,406 642,406 641,405 635,405 634,406 630,406 629,407 624,407 623,408 622,408 621,409 619,409 617,411 616,411 614,413 613,413 605,421 605,422 603,424 603,425 602,426 602,427 601,428 601,430 600,431 600,433 599,434 599,436 598,437 598,443 597,444 597,445 598,446 598,452 599,453 599,456 600,457 600,459 600,457 599,456 599,453 598,452 598,446 597,445 597,444 598,443 598,437 599,436 599,434 600,433 600,431 601,430 601,429 602,428 602,427 603,426 603,425 605,423 605,422 614,413 615,413 617,411 618,411 620,409 621,409 622,408 623,408 624,407 629,407 630,406 634,406 635,405 641,405 642,406 645,406 646,407 649,407 650,408 651,408 652,409 653,409 654,410 655,410 656,411 657,411 660,414 661,414 663,416 663,417 667,421 667,422 668,423 668,424 671,427 671,428 672,429 672,430 673,431 673,433 674,434 674,437 675,438 675,456 676,457 677,456 680,456 681,455 686,455 687,456 688,456 692,460 692,466 693,467 693,472 694,473 694,480 695,481 695,486 696,487 696,493 697,494 697,502 698,503 698,510 699,511 699,514 698,515 699,516 705,516 706,515 710,515 709,514 709,512 708,511 708,506 707,505 707,500 706,499 706,493 705,492 705,486 704,485 704,480 703,479 703,474 702,473 702,468 701,467 701,461 700,460 700,455 699,454 699,449 698,448 698,440 697,439 697,434 696,433 696,429 695,428 695,425 694,424 694,418 693,417 693,413 692,412 692,408 691,407 691,403 690,402 690,399 689,398 689,392 688,391 688,387 687,386 687,384 686,383 686,380 680,380 679,379" stroke="black" stroke-width="1" /><polyline fill="none" points="611,310 612,309 615,312 615,315 616,316 616,319 617,320 617,322 615,324 608,324 607,323 602,323 601,322 599,322 598,321 596,321 595,320 594,320 592,318 591,318 590,317 589,317 586,314 587,313 596,313 597,312 602,312 603,311 607,311 608,310" stroke="black" stroke-width="1" /><polyline fill="none" points="612,309 611,310 608,310 607,311 603,311 602,312 597,312 596,313 586,313 586,315 588,317 589,317 590,318 591,318 593,320 595,320 596,321 598,321 599,322 601,322 602,323 607,323 608,324 615,324 616,323 617,323 617,320 616,319 616,316 615,315 615,312 614,311 614,309 613,310" stroke="black" stroke-width="1" /><polyline fill="none" points="404,305 405,305 406,306 408,306 410,308 411,308 415,312 415,313 417,315 417,316 418,317 418,329 416,331 416,332 411,337 410,337 409,338 404,338 403,337 402,337 403,337 404,338 409,338 410,337 412,337 416,333 416,332 417,331 417,330 418,329 418,317 417,316 417,315 416,314 416,313 415,312 415,311 412,308 411,308 410,307 409,307 408,306 406,306 405,305" stroke="black" stroke-width="1" /><polyline fill="none" points="404,302 410,302 411,303 412,303 414,305 415,305 419,309 419,310 421,312 421,313 422,314 422,315 423,316 423,318 424,319 424,329 423,330 423,331 422,332 422,333 421,334 421,335 417,339 416,339 414,341 402,341 397,336 397,335 396,334 396,333 394,331 394,330 392,328 392,327 391,326 391,324 390,323 390,315 391,314 391,313 393,311 393,310 396,307 397,307 398,306 399,306 401,304 402,304" stroke="black" stroke-width="1" /><polyline fill="none" points="404,302 402,304 401,304 400,305 399,305 398,306 397,306 396,307 395,307 393,309 393,310 391,312 391,313 390,314 390,323 391,324 391,326 392,327 392,328 393,329 393,330 395,332 395,333 396,334 396,335 397,336 397,337 401,341 414,341 415,340 416,340 417,339 418,339 421,336 421,335 422,334 422,332 423,331 423,330 424,329 424,319 423,318 423,316 422,315 422,313 421,312 421,311 419,309 419,308 416,305 415,305 413,303 411,303 410,302" stroke="black" stroke-width="1" /><polyline fill="none" points="640,301 641,300 642,300 643,301 643,303 642,304 642,305 640,307 640,308 638,310 638,311 632,317 631,317 629,319 628,319 626,321 625,321 624,322 622,322 620,320 620,318 619,317 619,315 618,314 618,309 619,308 620,308 621,307 624,307 625,306 627,306 628,305 630,305 631,304 633,304 634,303 635,303 636,302 638,302 639,301" stroke="black" stroke-width="1" /><polyline fill="none" points="641,300 640,301 639,301 638,302 636,302 635,303 634,303 633,304 631,304 630,305 628,305 627,306 625,306 624,307 621,307 620,308 618,308 618,314 619,315 619,317 620,318 620,321 621,322 624,322 625,321 627,321 629,319 630,319 632,317 633,317 638,312 638,311 640,309 640,308 642,306 642,305 643,304 643,300" stroke="black" stroke-width="1" /><polyline fill="none" points="644,297 645,296 647,296 648,297 648,299 647,300 647,302 646,303 646,305 644,307 644,308 643,309 643,310 641,312 641,313 635,319 634,319 631,322 630,322 629,323 628,323 627,324 626,324 625,325 623,325 622,326 619,326 618,327 605,327 604,326 600,326 599,325 597,325 596,324 595,324 594,323 593,323 592,322 591,322 590,321 589,321 587,319 586,319 580,313 580,312 581,311 585,311 586,310 594,310 595,309 601,309 602,308 606,308 607,307 610,307 611,306 615,306 616,305 619,305 620,304 623,304 624,303 626,303 627,302 629,302 630,301 632,301 633,300 635,300 636,299 637,299 638,298 640,298 641,297 643,297 644,298" stroke="black" stroke-width="1" /><polyline fill="none" points="644,296 643,297 641,297 640,298 638,298 637,299 636,299 635,300 633,300 632,301 630,301 629,302 627,302 626,303 624,303 623,304 620,304 619,305 616,305 615,306 611,306 610,307 607,307 606,308 602,308 601,309 595,309 594,310 586,310 585,311 580,311 580,314 585,319 586,319 588,321 589,321 590,322 591,322 592,323 594,323 595,324 596,324 597,325 599,325 600,326 604,326 605,327 618,327 619,326 622,326 623,325 625,325 626,324 628,324 629,323 630,323 631,322 632,322 635,319 636,319 641,314 641,313 643,311 643,310 644,309 644,308 645,307 645,306 646,305 646,303 647,302 647,300 648,299 648,296" stroke="black" stroke-width="1" /><polyline fill="none" points="690,289 691,289 692,290 693,290 695,292 695,293 696,294 696,296 697,297 697,298 696,299 696,300 692,304 690,304 689,303 688,303 686,301 686,300 685,299 685,294 686,293 686,292 687,291 688,291" stroke="black" stroke-width="1" /><polyline fill="none" points="690,289 689,290 688,290 687,291 686,291 686,292 685,293 685,300 686,301 686,302 687,303 688,303 689,304 693,304 696,301 696,299 697,298 697,297 696,296 696,293 695,292 695,291 694,290 692,290 691,289" stroke="black" stroke-width="1" /><polyline fill="none" points="689,287 690,286 691,286 692,287 693,287 694,288 695,288 698,291 698,292 699,293 699,301 694,306 693,306 692,307 689,307 688,306 687,306 683,302 683,301 682,300 682,293 683,292 683,291 686,288 687,288 688,287" stroke="black" stroke-width="1" /><polyline fill="none" points="690,286 689,287 687,287 686,288 685,288 683,290 683,292 682,293 682,300 683,301 683,303 686,306 688,306 689,307 692,307 693,306 695,306 699,302 699,293 698,292 698,290 696,288 695,288 694,287 692,287 691,286" stroke="black" stroke-width="1" /><polyline fill="none" points="435,281 436,281 443,288 443,289 445,291 445,292 446,293 446,294 445,295 444,295 443,296 442,296 441,297 440,297 438,299 436,299 435,300 434,300 433,301 432,301 431,302 428,302 425,299 425,298 424,297 424,296 421,293 421,292 420,291 419,291 417,289 418,288 420,288 421,287 423,287 424,286 425,286 426,285 428,285 429,284 430,284 431,283 433,283" stroke="black" stroke-width="1" /><polyline fill="none" points="472,279 471,280 470,280 469,281 469,282 468,283 468,289 469,290 469,293 470,294 470,296 471,297 471,298 474,301 479,301 480,300 481,300 482,299 482,298 483,297 483,295 483,297 479,301 475,301 470,296 470,294 469,293 469,290 468,289 468,283 472,279 474,279 476,281 475,282 472,282 471,283 471,289 472,290 472,293 473,294 473,296 475,298 479,298 480,297 480,296 481,295 481,294 480,295 480,296 478,298 476,298 473,295 473,294 472,293 472,290 471,289 471,284 473,282 476,282 476,281 477,280 476,280 475,279" stroke="black" stroke-width="1" /><polyline fill="none" points="394,279 393,280 392,280 391,281 389,281 388,282 387,282 386,283 385,283 387,283 388,282 389,282 390,281 391,281 392,280 393,280 394,281 394,282 395,283 395,284 397,286 397,287 398,288 398,289 399,290 399,292 400,293 400,295 401,296 401,300 398,303 396,303 395,304 394,303 394,302 393,301 393,299 392,298 392,295 391,294 391,293 390,292 390,291 389,290 389,289 388,288 388,287 387,286 387,285 387,286 388,287 388,289 390,291 390,292 391,293 391,294 392,295 392,299 393,300 393,301 394,302 394,305 396,303 398,303 401,300 402,301 401,300 401,296 400,295 400,293 399,292 399,290 398,289 398,287 397,286 398,285 397,286 395,284 395,283 394,282 394,281 393,280" stroke="black" stroke-width="1" /><polyline fill="none" points="425,275 424,276 420,276 419,277 418,277 417,278 416,278 415,279 413,279 412,280 411,280 410,281 408,281 407,282 406,282 405,283 407,285 409,285 410,286 412,286 414,288 415,288 418,291 419,291 421,293 421,294 424,297 424,298 425,299 425,300 429,304 429,307 430,308 430,310 431,311 431,313 432,314 432,315 433,316 433,321 434,322 434,339 433,340 433,345 435,345 436,344 440,344 441,343 446,343 447,342 453,342 454,341 455,341 455,339 456,338 456,320 455,319 455,314 454,313 454,310 453,309 453,307 452,306 452,304 451,303 451,301 450,300 450,299 449,298 449,297 448,296 448,297 449,298 449,299 450,300 450,301 451,302 451,303 452,304 452,306 453,307 453,309 454,310 454,313 455,314 455,319 456,320 456,338 455,339 455,340 453,342 447,342 446,343 441,343 440,344 436,344 435,345 434,345 433,344 433,340 434,339 434,322 433,321 433,316 432,315 432,313 431,312 431,311 430,310 430,308 429,307 429,304 428,303 429,302 431,302 432,301 433,301 434,300 436,300 437,299 438,299 439,298 440,298 441,297 442,297 443,296 444,296 446,294 446,292 445,291 445,290 443,288 443,287 437,281 435,281 434,282 433,282 432,283 430,283 429,284 428,284 427,285 426,285 425,286 424,286 423,287 421,287 420,288 418,288 417,289 416,288 415,288 414,287 413,287 412,286 410,286 409,285 408,285 407,284 406,284 405,283 406,282 407,282 408,281 410,281 411,280 413,280 414,279 416,279 417,278 418,278 419,277 420,277 421,276 424,276 425,275 426,276 429,276 431,278 433,278 434,279 433,278 432,278 431,277 430,277 429,276 426,276" stroke="black" stroke-width="1" /><polyline fill="none" points="382,256 381,257 380,257 379,258 377,258 375,260 376,260 378,258 380,258 381,257 382,257 383,256 384,256 385,257 385,258 386,259 386,261 387,262 387,264 388,265 388,267 389,268 389,269 390,270 390,272 391,273 391,274 392,275 392,276 390,278 389,278 388,279 387,279 386,280 385,280 384,281 385,280 386,280 387,279 388,279 389,278 391,278 392,277 393,277 392,276 392,275 391,274 391,272 390,271 390,270 389,269 389,267 388,266 388,265 387,264 387,262 386,261 386,259 385,258 385,257 384,256" stroke="black" stroke-width="1" /><polyline fill="none" points="380,254 379,255 378,255 377,256 376,256 377,256 378,255 380,255" stroke="black" stroke-width="1" /><polyline fill="none" points="549,238 549,239 548,240 549,239" stroke="black" stroke-width="1" /><polyline fill="none" points="552,237 553,236 554,237 553,238" stroke="black" stroke-width="1" /><polyline fill="none" points="557,234 558,233 564,233 565,234 567,234 568,235 569,235 576,242 576,243 577,244 577,246 578,247 578,254 577,255 577,256 576,257 576,258 574,260 574,261 573,262 572,262 570,264 569,264 568,265 566,265 565,266 562,266 561,265 558,265 556,263 555,263 549,257 549,256 548,255 548,254 547,253 547,245 548,244 551,244 552,245 555,245 556,244 556,240 554,238 554,237 553,236 554,235 555,235 556,234" stroke="black" stroke-width="1" /><polyline fill="none" points="558,233 557,234 555,234 554,235 553,235 552,236 551,236 552,237 552,238 553,238 556,241 556,243 554,245 553,245 552,244 551,244 550,243 550,242 550,243 549,244 548,243 548,242 548,244 547,245 547,253 548,254 548,256 549,257 549,258 554,263 555,263 556,264 557,264 558,265 561,265 562,266 565,266 566,265 569,265 570,264 571,264 573,262 574,262 574,261 576,259 576,258 577,257 577,255 578,254 578,247 577,246 577,243 576,242 576,241 570,235 568,235 567,234 565,234 564,233" stroke="black" stroke-width="1" /><polyline fill="none" points="369,230 368,231 367,231 366,232 367,231 369,231 370,230 371,230" stroke="black" stroke-width="1" /><polyline fill="none" points="637,219 638,218 639,219 638,220" stroke="black" stroke-width="1" /><polyline fill="none" points="534,216 533,217 529,217 528,218 526,218 525,219 524,219 523,220 522,220 521,221 520,221 517,224 516,224 514,226 514,227 512,229 511,229 510,230 510,231 508,233 508,234 507,235 507,236 506,237 506,238 505,239 505,241 504,242 504,245 503,246 503,250 502,251 502,257 503,258 503,266 504,267 504,271 505,272 505,273 506,274 506,275 507,276 507,278 508,279 508,280 509,281 509,282 511,284 511,285 516,290 516,291 518,293 519,293 522,296 523,296 525,298 526,298 527,299 528,299 529,300 531,300 532,301 534,301 535,302 540,302 541,303 550,303 551,302 554,302 555,301 557,301 558,300 559,300 560,299 562,299 563,298 564,298 567,295 568,295 572,291 572,290 575,287 575,286 576,285 576,284 577,283 577,281 579,279 579,278 578,279 578,280 577,281 577,282 576,283 576,284 575,285 575,286 572,289 572,290 567,295 566,295 563,298 562,298 561,299 560,299 559,300 558,300 557,301 555,301 554,302 551,302 550,303 541,303 540,302 535,302 534,301 532,301 531,300 530,300 529,299 528,299 527,298 526,298 524,296 523,296 520,293 519,293 514,288 514,287 511,284 511,283 509,281 509,280 508,279 508,278 507,277 507,276 506,275 506,273 504,271 504,267 503,266 503,258 502,257 502,251 503,250 503,246 504,245 504,242 505,241 505,239 507,237 507,236 508,235 508,234 510,232 510,231 512,229 513,229 513,228 518,223 519,223 521,221 522,221 523,220 524,220 525,219 526,219 527,218 528,218 529,217 533,217 534,216 545,216 546,217 550,217 551,218 553,218 554,219 555,219 556,220 557,220 558,221 559,221 560,222 561,222 564,225 565,225 567,227 568,227 569,228 566,225 565,225 562,222 561,222 560,221 559,221 558,220 557,220 556,219 555,219 554,218 551,218 550,217 546,217 545,216" stroke="black" stroke-width="1" /><polyline fill="none" points="644,215 643,216 641,216 640,217 639,217 638,218 637,218 637,219 638,220 639,220 642,223 642,224 639,227 636,224 636,225 638,227 639,227 640,226 641,226 642,225 642,222 639,219 639,218 640,217 641,217 642,216 643,216 644,215 650,215 651,216 653,216 655,218 656,218 660,222 660,223 662,225 662,227 663,228 663,235 662,236 662,238 660,240 660,241 658,243 657,243 655,245 654,245 653,246 652,246 651,247 647,247 646,246 644,246 643,245 642,245 641,244 640,244 636,240 636,239 635,238 635,237 634,236 634,235 633,234 633,227 634,226 634,224 634,226 633,227 633,234 634,235 634,237 635,238 635,239 636,240 636,241 639,244 640,244 641,245 643,245 644,246 646,246 647,247 651,247 652,246 654,246 655,245 656,245 658,243 659,243 660,242 660,241 662,239 662,236 663,235 663,228 662,227 662,225 661,224 661,223 660,222 660,221 657,218 656,218 654,216 651,216 650,215" stroke="black" stroke-width="1" /><polyline fill="none" points="714,214 713,215 710,215 709,216 708,216 707,215 708,216 708,219 709,220 709,221 710,222 710,226 711,227 711,226 710,225 710,222 709,221 709,220 708,219 708,217 710,215 714,215 717,218 717,219 719,221 719,222 720,223 720,224 722,226 721,227 720,227 719,228 715,228 714,229 712,229 711,230 712,230 713,229 714,229 715,228 719,228 720,227 721,227 722,226 721,225 721,224 720,223 720,222 719,221 719,220 717,218 717,217" stroke="black" stroke-width="1" /><polyline fill="none" points="533,209 534,208 539,208 540,209 546,209 547,210 550,210 551,211 552,211 553,212 554,212 555,213 556,213 557,214 558,214 559,215 560,215 562,217 563,217 566,220 567,220 572,225 572,226 574,228 574,229 577,232 577,233 578,234 578,235 580,237 580,238 581,239 581,241 582,242 582,243 583,244 583,246 584,247 584,250 585,251 585,256 586,257 586,268 585,269 585,274 584,275 584,278 583,279 583,281 582,282 582,283 581,284 581,285 580,286 580,287 579,288 579,289 578,290 578,291 576,293 576,294 572,298 572,299 570,301 569,301 566,304 565,304 563,306 562,306 561,307 560,307 559,308 558,308 557,309 555,309 554,310 551,310 550,311 539,311 538,310 534,310 533,309 531,309 530,308 529,308 528,307 527,307 526,306 525,306 524,305 523,305 522,304 521,304 518,301 517,301 508,292 508,291 505,288 505,287 504,286 504,285 502,283 502,282 501,281 501,280 500,279 500,278 499,277 499,275 498,274 498,273 497,272 497,269 496,268 496,264 495,263 495,244 496,243 496,240 497,239 497,236 498,235 498,234 499,233 499,232 500,231 500,230 501,229 501,228 503,226 503,225 512,216 513,216 515,214 516,214 517,213 518,213 519,212 520,212 521,211 523,211 524,210 527,210 528,209" stroke="black" stroke-width="1" /><polyline fill="none" points="534,208 533,209 528,209 527,210 524,210 523,211 521,211 520,212 518,212 517,213 516,213 515,214 514,214 512,216 511,216 504,223 504,224 501,227 501,228 500,229 500,230 499,231 499,232 498,233 498,235 497,236 497,239 496,240 496,243 495,244 495,263 496,264 496,268 497,269 497,272 498,273 498,274 499,275 499,277 500,278 500,280 501,281 501,282 502,283 502,284 504,286 504,287 505,288 505,289 508,292 508,293 516,301 517,301 520,304 521,304 522,305 523,305 524,306 525,306 526,307 527,307 528,308 530,308 531,309 533,309 534,310 538,310 539,311 550,311 551,310 554,310 555,309 557,309 558,308 560,308 561,307 562,307 563,306 564,306 566,304 567,304 570,301 571,301 572,300 572,299 576,295 576,294 578,292 578,291 579,290 579,289 580,288 580,287 581,286 581,285 582,284 582,282 583,281 583,279 584,278 584,275 585,274 585,269 586,268 586,257 585,256 585,251 584,250 584,247 583,246 583,244 582,243 582,242 581,241 581,239 580,238 580,236 578,234 578,233 577,232 577,231 574,228 574,227 571,224 571,223 568,220 567,220 564,217 563,217 561,215 560,215 559,214 558,214 557,213 556,213 555,212 554,212 553,211 551,211 550,210 547,210 546,209 540,209 539,208" stroke="black" stroke-width="1" /><polyline fill="none" points="537,199 536,200 531,200 530,201 527,201 526,202 524,202 523,203 521,203 520,204 519,204 518,205 517,205 516,206 515,206 512,209 511,209 507,213 507,214 503,218 503,219 501,221 501,222 499,224 499,225 498,226 498,227 497,228 497,230 496,231 496,232 495,233 495,234 494,235 494,238 493,239 493,242 493,239 494,238 494,236 495,235 495,233 496,232 496,231 497,230 497,229 498,228 498,227 499,226 499,225 501,223 501,222 503,220 503,219 507,215 507,214 512,209 513,209 516,206 517,206 518,205 519,205 520,204 521,204 522,203 523,203 524,202 526,202 527,201 530,201 531,200 536,200 537,199 542,199 543,200 550,200 551,201 553,201 554,202 556,202 557,203 558,203 559,204 561,204 563,206 564,206 565,207 566,207 567,208 568,208 572,212 573,212 580,219 580,220 584,224 584,225 586,227 586,228 587,229 587,230 589,232 589,234 590,235 590,236 591,237 591,238 592,239 592,241 593,242 593,245 594,246 594,249 595,250 595,267 594,268 594,274 593,275 593,277 592,278 592,281 591,282 591,283 590,284 590,285 589,286 589,287 588,288 588,289 586,291 586,292 584,294 584,295 575,304 574,304 571,307 570,307 568,309 567,309 566,310 565,310 564,311 563,311 562,312 559,312 558,313 554,313 553,314 538,314 537,313 533,313 532,312 530,312 532,312 533,313 537,313 538,314 553,314 554,313 558,313 559,312 562,312 563,311 565,311 566,310 567,310 568,309 569,309 571,307 572,307 575,304 576,304 584,296 584,295 586,293 586,292 588,290 588,289 589,288 589,287 590,286 590,285 591,284 591,282 592,281 592,278 593,277 593,275 594,274 594,268 595,267 595,250 594,249 594,246 593,245 593,242 592,241 592,239 591,238 591,236 590,235 590,234 589,233 589,231 587,229 587,228 586,227 586,226 584,224 584,223 580,219 580,218 574,212 573,212 570,209 569,209 567,207 566,207 565,206 564,206 562,204 560,204 559,203 557,203 556,202 554,202 553,201 551,201 550,200 543,200 542,199" stroke="black" stroke-width="1" /><polyline fill="none" points="634,190 635,189 650,189 651,190 653,190 654,191 656,191 657,192 658,192 659,193 660,193 661,194 662,194 664,196 665,196 668,199 669,199 674,204 674,205 678,209 678,210 680,212 680,213 681,214 681,215 683,217 683,219 685,221 685,223 686,224 686,227 687,228 687,231 688,232 688,250 687,251 687,255 686,256 686,258 685,259 685,260 684,261 684,262 683,263 683,264 682,265 682,266 680,268 680,269 672,277 671,277 669,279 668,279 667,280 666,280 665,281 664,281 663,282 660,282 659,283 654,283 653,282 649,282 648,281 647,281 646,280 644,280 643,279 642,279 640,277 639,277 637,275 636,275 633,272 632,272 627,267 627,266 624,263 624,262 622,260 622,259 621,258 621,257 620,256 620,255 619,254 619,253 617,251 617,249 616,248 616,247 615,246 615,244 614,243 614,241 613,240 613,236 612,235 612,231 611,230 611,214 612,213 612,210 613,209 613,207 614,206 614,205 615,204 615,202 623,194 624,194 625,193 626,193 628,191 630,191 631,190" stroke="black" stroke-width="1" /><polyline fill="none" points="641,178 640,179 637,179 636,180 634,180 633,181 631,181 630,182 629,182 627,184 626,184 619,191 619,192 615,196 615,197 613,199 613,200 614,199 615,199 616,200 615,201 615,203 614,204 614,206 613,207 613,209 612,210 612,213 611,214 611,230 612,231 612,235 613,236 613,240 614,241 614,243 615,244 615,246 616,247 616,249 617,250 617,251 618,252 618,253 619,254 619,255 620,256 620,257 621,258 621,259 622,260 622,261 624,263 624,264 627,267 627,268 631,272 632,272 635,275 636,275 638,277 639,277 641,279 643,279 644,280 645,280 646,281 648,281 649,282 653,282 654,283 659,283 660,282 663,282 664,281 665,281 666,280 668,280 669,279 670,279 672,277 673,277 680,270 680,269 682,267 682,266 683,265 683,264 684,263 684,261 685,260 685,259 686,258 686,256 687,255 687,251 688,250 688,232 687,231 687,228 686,227 686,224 685,223 685,221 684,220 684,219 683,218 683,216 681,214 681,213 680,212 680,211 678,209 678,208 674,204 674,203 670,199 669,199 666,196 665,196 663,194 662,194 661,193 660,193 659,192 657,192 656,191 654,191 653,190 651,190 650,189 635,189 634,190 631,190 630,191 628,191 627,192 626,192 625,193 624,193 623,194 622,194 616,200 614,198 619,193 619,192 627,184 628,184 630,182 631,182 632,181 633,181 634,180 636,180 637,179 640,179 641,178 650,178 651,179 654,179 655,180 658,180 659,181 660,181 661,182 662,182 663,183 664,183 666,185 667,185 668,186 669,186 671,188 672,188 676,192 677,192 684,199 684,200 687,203 687,204 691,208 691,209 692,210 692,211 693,212 693,213 694,214 694,215 695,216 695,218 696,219 696,221 697,222 697,224 698,225 698,230 699,231 699,236 698,237 698,249 697,250 697,253 696,254 696,256 695,257 695,258 694,259 694,261 693,262 693,263 692,264 692,265 690,267 690,268 688,270 688,271 682,277 681,277 678,280 677,280 676,281 675,281 673,283 671,283 670,284 667,284 666,285 660,285 666,285 667,284 670,284 671,283 673,283 674,282 675,282 676,281 677,281 678,280 679,280 682,277 683,277 688,272 688,271 690,269 690,268 692,266 692,265 693,264 693,263 694,262 694,259 695,258 695,257 696,256 696,254 697,253 697,250 698,249 698,237 699,236 699,231 698,230 698,225 697,224 697,222 696,221 696,219 695,218 695,216 694,215 694,214 693,213 693,211 692,210 692,209 690,207 690,206 687,203 687,202 684,199 684,198 679,193 678,193 673,188 672,188 670,186 669,186 668,185 667,185 665,183 664,183 663,182 662,182 661,181 659,181 658,180 655,180 654,179 651,179 650,178" stroke="black" stroke-width="1" /><polyline fill="none" points="355,176 356,176 357,177 358,177 359,178 360,178 364,182 364,183 361,186 359,186 358,185 357,185 353,181 353,178" stroke="black" stroke-width="1" /><polyline fill="none" points="355,176 354,177 353,177 353,182 356,185 357,185 358,186 362,186 363,185 363,184 364,183 367,186 367,195 365,197 365,198 364,199 363,199 359,203 358,203 357,204 355,204 355,205 356,204 357,204 358,203 360,203 361,202 362,202 362,201 366,197 366,196 367,195 367,186 364,183 364,181 361,178 360,178 359,177 357,177 356,176" stroke="black" stroke-width="1" /><polyline fill="none" points="592,159 591,160 586,160 585,161 580,161 579,162 576,162 575,163 573,163 572,164 571,164 572,165 572,168 575,171 575,172 576,173 580,173 581,172 585,172 586,171 592,171 593,170 607,170 608,169 612,169 613,170 629,170 630,171 635,171 636,172 641,172 642,173 646,173 647,174 650,174 651,175 655,175 656,176 659,176 660,177 661,177 662,178 664,178 665,179 667,179 669,181 670,181 671,182 672,182 673,183 674,183 677,186 678,186 679,187 679,188 683,192 683,193 685,195 685,196 686,196 685,195 685,194 683,192 683,191 679,187 679,186 678,186 675,183 674,183 673,182 672,182 671,181 670,181 669,180 668,180 667,179 665,179 664,178 662,178 661,177 660,177 659,176 656,176 655,175 651,175 650,174 647,174 646,173 642,173 641,172 636,172 635,171 630,171 629,170 613,170 612,169 608,169 607,170 593,170 592,171 586,171 585,172 581,172 580,173 577,173 575,171 575,170 572,167 572,165 574,163 575,163 576,162 579,162 580,161 585,161 586,160 591,160 592,159 629,159 630,160 637,160 638,161 644,161 645,162 649,162 650,163 654,163 655,164 658,164 659,165 663,165 664,166 667,166 668,167 671,167 672,168 675,168 676,169 679,169 680,170 682,170 683,171 684,171 686,173 686,174 688,176 688,177 689,178 689,179 690,180 690,181 691,182 691,183 692,184 692,186 693,187 693,188 694,189 694,191 695,192 695,193 696,194 696,195 697,196 697,197 698,198 698,200 699,201 699,203 700,204 700,206 701,207 701,208 703,210 703,214 704,215 704,218 705,219 705,222 706,223 706,224 707,225 707,227 708,228 708,230 709,231 709,232 710,233 710,236 711,237 711,240 712,241 712,244 713,245 713,248 714,249 714,252 715,253 715,257 716,258 716,262 717,263 717,265 718,266 718,270 719,271 719,278 720,279 720,284 721,285 721,289 722,290 722,294 723,295 723,299 724,300 724,305 722,307 721,307 720,308 718,308 717,307 717,306 716,305 716,302 715,301 715,296 714,295 714,290 713,289 713,285 712,284 712,279 711,278 711,273 710,272 710,269 709,268 709,264 708,263 708,259 707,258 707,255 706,254 706,251 705,250 705,246 704,245 704,242 703,241 703,239 702,238 702,236 702,238 703,239 703,241 704,242 704,245 705,246 705,250 706,251 706,254 707,255 707,258 708,259 708,263 709,264 709,268 710,269 710,272 711,273 711,278 712,279 712,284 713,285 713,289 714,290 714,295 715,296 715,301 716,302 716,305 717,306 717,308 720,308 721,307 723,307 724,306 724,300 723,299 723,295 722,294 722,290 721,289 721,285 720,284 720,279 719,278 719,271 718,270 718,266 717,265 717,263 716,262 716,258 715,257 715,253 714,252 714,249 713,248 713,245 712,244 712,241 711,240 711,237 710,236 710,233 709,232 709,231 708,230 708,228 707,227 707,225 706,224 706,223 705,222 705,219 704,218 704,215 703,214 703,211 704,210 705,211 706,211 705,210 703,210 701,208 701,207 700,206 700,204 699,203 699,201 698,200 698,198 697,197 697,196 696,195 696,193 695,192 695,191 694,190 694,188 693,187 693,186 692,185 692,183 691,182 691,181 690,180 690,179 689,178 689,177 688,176 688,175 686,173 686,172 685,171 683,171 682,170 680,170 679,169 676,169 675,168 672,168 671,167 668,167 667,166 664,166 663,165 659,165 658,164 655,164 654,163 650,163 649,162 645,162 644,161 638,161 637,160 630,160 629,159" stroke="black" stroke-width="1" /><polyline fill="none" points="541,145 542,144 544,144 545,145 547,145 551,149 548,152 546,152 545,153 542,153 541,154 538,154 537,155 533,155 532,156 529,156 528,157 526,157 525,158 522,158 521,159 519,159 518,160 517,160 516,161 514,161 513,162 509,162 506,159 506,156 507,155 508,155 510,153 512,153 514,151 516,151 517,150 519,150 520,149 522,149 523,148 526,148 527,147 529,147 530,146 534,146 535,145" stroke="black" stroke-width="1" /><polyline fill="none" points="543,143 541,145 535,145 534,146 530,146 529,147 527,147 526,148 523,148 522,149 520,149 519,150 517,150 516,151 514,151 513,152 512,152 511,153 509,153 507,155 506,155 506,160 508,162 513,162 514,161 517,161 518,160 519,160 520,159 521,159 522,158 525,158 526,157 528,157 529,156 532,156 533,155 537,155 538,154 541,154 542,153 545,153 546,152 549,152 550,151 550,150 551,149 551,148 549,146 548,146 547,145 545,145" stroke="black" stroke-width="1" /><polyline fill="none" points="542,141 541,142 535,142 534,143 530,143 529,144 526,144 525,145 523,145 522,146 519,146 518,147 517,147 516,148 514,148 513,149 511,149 510,150 508,150 507,151 506,151 505,152 504,152 503,153 502,153 501,154 500,154 499,155 498,155 497,156 496,156 495,157 494,157 492,159 491,159 490,160 489,160 487,162 486,162 483,165 482,165 479,168 478,168 465,181 465,182 463,184 463,185 461,187 461,188 460,189 460,192 459,193 459,196 458,197 458,199 456,201 455,201 453,203 452,203 451,204 450,204 449,205 448,205 446,207 445,207 444,208 443,208 442,209 441,209 437,213 436,213 433,216 432,216 430,218 429,218 427,220 426,220 423,223 422,223 419,226 418,226 415,229 414,229 408,235 407,235 404,238 403,238 398,243 397,243 394,246 394,250 395,251 395,254 396,255 396,257 397,258 397,261 398,262 398,265 399,266 399,269 400,270 400,273 401,274 401,279 402,280 399,283 397,281 397,280 396,279 396,278 395,277 395,275 394,274 394,272 393,271 393,269 392,268 392,266 391,265 391,264 390,263 390,261 389,260 389,258 388,257 388,256 387,255 387,254 386,253 383,253 382,252 382,251 381,250 381,248 380,247 380,245 379,244 379,243 378,242 378,240 377,239 377,237 376,236 376,235 375,234 375,233 374,232 374,229 372,227 372,226 371,225 371,224 370,223 370,221 369,220 369,218 368,217 368,216 367,215 367,213 366,212 366,211 365,210 365,208 364,207 364,206 363,205 363,204 365,202 366,202 368,200 368,199 369,198 369,196 370,195 370,185 369,184 369,183 368,182 368,181 367,180 367,179 364,176 363,176 361,174 359,174 358,173 356,173 355,172 349,172 348,173 346,173 345,174 343,174 341,176 340,176 337,179 337,180 336,181 336,182 335,183 335,185 334,186 334,196 335,197 335,199 337,201 337,202 338,203 339,203 341,205 342,205 343,206 345,206 346,207 354,207 355,208 355,210 356,211 356,212 357,213 357,215 358,216 358,218 359,219 359,220 360,221 360,223 361,224 361,225 362,226 362,228 363,229 363,230 364,231 364,235 365,236 365,237 366,238 366,239 367,240 367,241 368,242 368,244 369,245 369,246 370,247 370,249 371,250 371,251 372,252 372,253 373,254 373,257 372,258 372,261 373,262 373,263 374,264 374,265 375,266 375,267 376,268 376,270 377,271 377,272 378,273 378,274 379,275 379,277 380,278 380,279 381,280 381,281 382,282 382,284 383,285 383,286 384,287 384,288 385,289 385,291 386,292 386,293 388,295 388,296 389,297 389,300 388,301 388,303 387,304 387,307 386,308 386,320 387,321 387,324 388,325 388,327 389,328 389,329 390,330 390,331 391,332 391,333 393,335 393,336 394,337 394,338 395,339 395,340 396,341 396,342 399,345 399,346 407,354 408,354 410,356 411,356 412,357 415,357 416,358 424,358 425,359 425,360 426,361 426,362 427,363 427,364 428,365 428,367 429,368 429,370 430,371 430,372 431,373 431,375 432,376 432,377 433,378 433,379 434,380 434,382 435,383 435,385 436,386 436,387 437,388 437,389 443,389 444,388 449,388 450,387 454,387 455,386 459,386 460,385 465,385 466,384 470,384 471,383 476,383 477,382 480,382 481,381 485,381 486,380 490,380 491,379 495,379 496,378 500,378 501,377 504,377 505,376 510,376 511,375 515,375 516,374 520,374 521,373 524,373 525,372 529,372 530,371 533,371 534,370 538,370 539,369 543,369 544,368 547,368 548,367 551,367 552,366 554,366 555,365 559,365 560,366 560,367 561,368 561,374 562,375 562,376 563,377 567,377 568,376 575,376 576,375 578,375 579,374 580,374 581,373 582,373 583,372 584,372 585,371 587,371 588,370 589,370 590,369 591,369 592,368 594,368 595,367 596,367 597,366 599,366 600,365 601,365 602,364 604,364 605,363 606,363 607,362 609,362 610,361 612,361 613,360 614,361 614,362 615,363 615,370 616,371 615,372 615,373 614,374 610,374 609,375 592,375 591,376 581,376 591,376 592,375 609,375 610,374 618,374 617,374 615,372 616,371 615,370 615,363 614,362 614,360 612,360 611,361 610,361 609,362 607,362 606,363 605,363 604,364 602,364 601,365 600,365 599,366 597,366 596,367 594,367 593,368 592,368 591,369 590,369 589,370 587,370 586,371 585,371 584,372 582,372 580,374 579,374 578,375 576,375 575,376 568,376 567,377 564,377 561,374 561,368 560,367 560,364 561,363 563,363 564,362 567,362 568,361 570,361 571,360 574,360 575,359 578,359 579,358 582,358 583,357 585,357 586,356 589,356 590,355 592,355 593,354 596,354 597,353 600,353 601,352 603,352 604,351 607,351 608,350 610,350 611,349 614,349 615,350 615,349 611,349 610,350 608,350 607,351 604,351 603,352 601,352 600,353 597,353 596,354 593,354 592,355 590,355 589,356 586,356 585,357 583,357 582,358 579,358 578,359 575,359 574,360 571,360 570,361 568,361 567,362 564,362 563,363 561,363 560,364 559,364 558,365 555,365 554,366 552,366 551,367 548,367 547,368 544,368 543,369 539,369 538,370 534,370 533,371 530,371 529,372 525,372 524,373 521,373 520,374 516,374 515,375 511,375 510,376 505,376 504,377 501,377 500,378 496,378 495,379 491,379 490,380 486,380 485,381 481,381 480,382 477,382 476,383 471,383 470,384 466,384 465,385 460,385 459,386 455,386 454,387 450,387 449,388 444,388 443,389 438,389 436,387 436,385 435,384 435,383 434,382 434,380 433,379 433,377 432,376 432,375 431,374 431,373 430,372 430,371 429,370 429,368 428,367 428,365 427,364 427,363 426,362 426,360 424,358 416,358 415,357 413,357 412,356 411,356 409,354 408,354 399,345 399,344 396,341 396,340 394,338 394,337 393,336 393,334 391,332 391,331 389,329 389,327 388,326 388,324 387,323 387,321 386,320 386,308 387,307 387,304 388,303 388,301 389,300 389,296 388,295 388,294 386,292 386,291 385,290 385,289 384,288 384,286 383,285 383,284 382,283 382,282 381,281 381,279 380,278 380,277 379,276 379,275 378,274 378,272 377,271 377,270 376,269 376,268 375,267 375,266 374,265 374,263 373,262 373,261 372,260 372,259 374,257 373,256 373,254 372,253 372,251 370,249 370,247 369,246 369,245 368,244 368,242 367,241 367,240 366,239 366,237 365,236 365,235 364,234 364,231 363,230 363,229 362,228 362,226 361,225 361,224 360,223 360,221 359,220 359,219 358,218 358,216 357,215 357,213 356,212 356,211 355,210 355,207 354,207 353,206 352,207 346,207 345,206 344,206 343,205 342,205 340,203 339,203 337,201 337,200 335,198 335,197 334,196 334,186 335,185 335,183 337,181 337,180 341,176 342,176 344,174 345,174 346,173 348,173 349,172 355,172 356,173 358,173 359,174 360,174 362,176 363,176 367,180 367,181 368,182 368,183 369,184 369,185 370,186 370,195 369,196 369,197 368,198 368,199 365,202 364,202 364,203 363,204 363,205 364,206 364,207 365,208 365,210 366,211 366,212 367,213 367,215 368,216 368,217 369,218 369,220 370,221 370,223 371,224 371,226 372,227 372,228 374,230 374,231 373,232 372,232 371,233 369,233 368,234 369,234 370,233 371,233 372,232 374,232 375,233 375,235 376,236 376,237 377,238 377,239 378,240 378,242 379,243 379,244 380,245 380,247 381,248 381,250 382,251 382,253 385,253 388,256 388,257 389,258 389,260 390,261 390,263 391,264 391,265 392,266 392,268 393,269 393,271 394,272 394,275 395,276 395,277 396,278 396,279 397,280 397,282 398,283 400,283 403,280 404,280 405,279 407,279 408,278 409,278 410,277 412,277 413,276 415,276 416,275 417,275 418,274 419,274 420,273 429,273 430,274 431,274 432,275 433,275 435,277 436,277 438,279 439,279 444,284 444,285 447,288 447,289 449,291 449,292 450,293 450,294 451,295 451,296 452,297 452,298 453,299 453,300 454,301 454,303 455,304 455,306 456,307 456,309 457,310 457,313 458,314 458,318 459,319 459,339 458,340 458,342 457,343 457,344 456,345 456,346 454,348 454,349 452,351 451,351 450,352 448,352 447,353 445,353 444,354 441,354 440,355 438,355 437,356 433,356 432,357 428,357 432,357 433,356 437,356 438,355 440,355 441,354 444,354 445,353 447,353 448,352 450,352 451,351 453,351 454,350 454,349 456,347 456,346 457,345 457,343 458,342 458,340 459,339 459,319 458,318 458,314 457,313 457,310 456,309 456,307 455,306 455,304 454,303 454,300 453,299 453,298 452,297 452,296 451,295 451,294 450,293 450,292 449,291 449,290 446,287 446,286 441,281 441,280 440,279 439,279 437,277 436,277 434,275 433,275 432,274 430,274 429,273 420,273 419,274 418,274 417,275 416,275 415,276 413,276 412,277 410,277 409,278 407,278 406,279 405,279 404,280 402,280 401,279 401,274 400,273 400,270 399,269 399,266 398,265 398,262 397,261 397,258 396,257 396,255 395,254 395,251 394,250 394,247 398,243 399,243 404,238 405,238 409,234 410,234 415,229 416,229 419,226 420,226 423,223 424,223 427,220 428,220 430,218 431,218 434,215 435,215 437,213 438,213 440,211 442,213 442,217 443,218 443,221 444,222 444,226 445,227 445,229 446,230 446,233 447,234 447,237 448,238 448,240 449,241 449,244 450,245 450,247 451,248 451,250 452,251 452,254 453,255 453,258 454,259 454,260 455,261 455,263 456,264 456,266 457,267 457,270 458,271 458,273 459,274 459,276 460,277 460,279 461,280 461,282 462,283 462,285 463,286 463,288 464,289 464,291 465,292 465,293 466,294 466,296 467,297 467,299 468,300 468,302 469,303 469,306 470,307 470,309 471,310 471,312 472,313 472,316 473,317 473,319 474,320 474,322 475,323 475,325 476,326 476,328 477,329 477,331 478,332 478,334 479,335 479,337 480,338 480,340 481,341 481,343 482,344 482,346 483,347 483,349 484,350 484,353 485,354 485,355 486,356 486,358 487,359 487,361 488,362 488,364 489,365 489,366 490,367 490,370 491,371 491,372 492,373 492,374 498,374 499,373 502,373 503,372 506,372 507,371 509,371 510,370 513,370 514,369 516,369 517,368 520,368 521,367 524,367 525,366 528,366 529,365 532,365 533,364 536,364 537,363 540,363 541,362 544,362 545,361 547,361 548,360 551,360 552,359 555,359 556,358 559,358 560,357 564,357 565,356 568,356 569,355 571,355 572,354 575,354 576,353 578,353 579,352 582,352 583,351 585,351 586,350 589,350 590,349 592,349 593,348 597,348 598,347 601,347 602,346 604,346 605,345 608,345 609,344 611,344 612,343 614,343 615,342 618,342 619,341 622,341 623,340 626,340 627,339 629,339 630,338 632,338 633,337 635,337 636,336 639,336 640,335 642,335 643,334 645,334 646,333 649,333 650,332 652,332 653,331 656,331 657,330 659,330 660,329 662,329 663,328 665,328 666,327 668,327 669,326 672,326 673,325 675,325 676,324 677,324 678,323 681,323 682,322 684,322 685,321 687,321 688,320 689,320 690,319 693,319 694,318 695,318 696,317 698,317 699,316 700,316 701,315 703,315 704,314 706,314 707,313 708,313 709,312 711,312 712,311 713,311 714,310 715,310 714,310 713,311 712,311 711,312 709,312 708,313 707,313 706,314 704,314 703,315 701,315 700,316 699,316 698,317 696,317 695,318 694,318 693,319 690,319 689,320 688,320 687,321 685,321 684,322 682,322 681,323 678,323 677,324 676,324 675,325 673,325 672,326 669,326 668,327 666,327 665,328 663,328 662,329 660,329 659,330 657,330 656,331 653,331 652,332 650,332 649,333 646,333 645,334 643,334 642,335 640,335 639,336 636,336 635,337 633,337 632,338 630,338 629,339 627,339 626,340 623,340 622,341 619,341 618,342 615,342 614,343 612,343 611,344 609,344 608,345 605,345 604,346 602,346 601,347 598,347 597,348 593,348 592,349 590,349 589,350 586,350 585,351 583,351 582,352 579,352 578,353 576,353 575,354 572,354 571,355 569,355 568,356 565,356 564,357 560,357 559,358 556,358 555,359 552,359 551,360 548,360 547,361 545,361 544,362 541,362 540,363 537,363 536,364 533,364 532,365 529,365 528,366 525,366 524,367 521,367 520,368 517,368 516,369 514,369 513,370 510,370 509,371 507,371 506,372 503,372 502,373 499,373 498,374 493,374 491,372 491,370 490,369 490,367 489,366 489,365 488,364 488,362 487,361 487,359 486,358 486,356 485,355 485,353 484,352 484,350 483,349 483,347 482,346 482,344 481,343 481,341 480,340 480,338 479,337 479,335 478,334 478,332 477,331 477,329 476,328 476,326 475,325 475,323 474,322 474,320 473,319 473,317 472,316 472,313 471,312 471,310 470,309 470,307 469,306 469,303 468,302 468,300 467,299 467,297 466,296 466,294 465,293 465,292 464,291 464,289 463,288 463,286 462,285 462,283 461,282 461,280 460,279 460,277 459,276 459,274 458,273 458,271 457,270 457,267 456,266 456,264 455,263 455,261 454,260 454,258 453,257 453,255 452,254 452,251 451,250 451,248 450,247 450,245 449,244 449,241 448,240 448,238 447,237 447,234 446,233 446,230 445,229 445,227 444,226 444,222 443,221 443,218 442,217 442,213 440,211 442,209 443,209 444,208 445,208 446,207 447,207 449,205 450,205 451,204 452,204 453,203 454,203 456,201 457,201 457,200 458,199 458,197 459,196 459,193 460,192 460,190 461,189 461,188 463,186 463,185 465,183 465,182 479,168 480,168 483,165 484,165 487,162 488,162 490,160 491,160 492,159 493,159 495,157 496,157 497,156 498,156 499,155 500,155 501,154 502,154 503,153 504,153 505,152 506,152 507,151 508,151 509,150 510,150 511,149 513,149 514,148 516,148 517,147 518,147 519,146 522,146 523,145 525,145 526,144 529,144 530,143 534,143 535,142 541,142 542,141 562,141 563,142 569,142 570,143 574,143 575,144 578,144 579,145 581,145 582,146 583,146 584,147 585,147 591,153 591,154 590,155 588,155 587,154 587,153 584,150 583,150 582,149 581,149 580,148 578,148 577,147 574,147 573,146 570,146 573,146 574,147 577,147 578,148 580,148 581,149 582,149 583,150 584,150 586,152 586,153 587,154 585,156 579,156 578,157 573,157 572,158 570,158 569,159 566,159 565,160 562,160 561,161 558,161 557,162 554,162 553,163 550,163 549,164 546,164 545,165 543,165 542,166 540,166 539,167 536,167 535,168 532,168 531,169 529,169 528,170 527,170 526,171 524,171 523,172 521,172 520,173 518,173 517,174 515,174 514,175 513,175 512,176 510,176 509,177 508,177 507,178 505,178 504,179 502,179 501,180 499,180 498,181 497,181 496,182 495,182 494,183 493,183 492,184 490,184 488,186 486,186 485,187 484,187 483,188 482,188 481,189 480,189 479,190 478,190 476,192 475,192 474,193 473,193 472,194 471,194 470,195 469,195 468,196 467,196 466,197 465,197 464,198 462,198 461,199 461,201 459,203 458,203 456,205 458,203 460,203 460,202 461,201 461,200 463,198 465,198 466,197 467,197 468,196 469,196 470,195 471,195 472,194 473,194 474,193 475,193 476,192 477,192 479,190 480,190 481,189 482,189 483,188 484,188 485,187 486,187 487,186 488,186 489,185 490,185 491,184 493,184 494,183 495,183 496,182 497,182 498,181 499,181 500,180 501,180 502,179 504,179 505,178 508,178 509,177 510,177 511,176 512,176 513,175 515,175 516,174 517,174 518,173 520,173 521,172 523,172 524,171 526,171 527,170 528,170 529,169 531,169 532,168 535,168 536,167 539,167 540,166 542,166 543,165 545,165 546,164 549,164 550,163 553,163 554,162 557,162 558,161 561,161 562,160 565,160 566,159 569,159 570,158 572,158 573,157 578,157 579,156 585,156 587,154 588,155 590,155 591,154 592,155 593,154 618,154 619,155 628,155 629,156 635,156 636,157 642,157 643,158 647,158 648,159 653,159 654,160 658,160 659,161 662,161 663,162 666,162 667,163 670,163 671,164 674,164 675,165 677,165 678,166 681,166 682,167 686,167 688,169 688,170 689,171 689,172 690,173 690,174 691,175 691,176 692,177 692,178 693,179 693,180 694,181 694,182 695,183 695,185 696,186 696,187 697,188 697,190 698,191 698,192 699,193 699,194 700,195 700,196 701,197 701,199 702,200 702,201 703,202 703,205 705,207 704,208 705,208 706,207 707,207 708,208 710,208 711,209 712,209 714,211 715,211 718,214 718,215 721,218 721,219 722,220 722,221 723,222 723,223 724,224 724,225 725,226 725,227 726,228 726,229 727,230 727,232 728,233 728,236 729,237 729,239 730,240 730,246 731,247 731,256 730,257 730,261 729,262 729,264 728,265 728,266 726,268 726,269 722,273 722,278 723,279 723,283 724,284 724,288 725,289 725,293 726,294 726,299 727,300 727,303 728,304 728,306 725,309 724,309 723,310 721,310 720,311 719,311 718,312 717,312 716,313 714,313 713,314 712,314 711,315 710,315 709,316 707,316 706,317 705,317 704,318 702,318 701,319 700,319 699,320 698,320 697,321 695,321 694,322 693,322 692,323 690,323 689,324 688,324 687,325 685,325 684,326 682,326 681,327 680,327 679,328 678,328 677,329 676,329 675,330 674,330 673,331 671,331 670,332 668,332 667,333 666,333 665,334 664,334 663,335 662,335 661,336 659,336 658,337 656,337 655,338 654,338 653,339 651,339 650,340 648,340 647,341 646,341 645,342 643,342 642,343 640,343 639,344 637,344 636,345 634,345 633,346 632,346 631,347 629,347 628,348 627,348 626,349 624,349 623,350 620,350 619,351 617,351 616,352 616,355 617,356 617,361 618,362 618,368 619,369 619,372 620,373 632,373 633,374 646,374 647,375 662,375 663,376 678,376 679,377 687,377 689,379 689,382 690,383 690,385 691,386 690,387 691,386 693,386 694,387 695,387 696,388 697,388 698,389 699,389 700,390 701,390 708,397 708,398 710,400 710,401 711,402 711,403 712,404 712,405 713,406 713,409 714,410 714,425 713,426 713,429 712,430 712,431 711,432 711,433 710,434 710,435 709,436 709,437 707,439 707,440 701,446 701,447 702,448 702,453 703,454 703,459 704,460 704,466 705,467 705,472 706,473 706,477 707,478 707,484 708,485 708,491 709,492 709,498 710,499 710,504 711,505 711,510 712,511 712,516 710,518 707,518 706,519 698,519 697,520 693,520 687,526 686,526 685,527 685,528 683,530 683,531 682,532 682,533 681,534 681,535 679,537 678,537 676,539 676,542 677,543 677,544 679,546 679,548 681,550 681,551 682,552 682,554 684,556 684,558 685,559 685,561 686,562 686,564 687,565 687,566 688,567 688,569 689,570 689,571 690,572 690,575 691,576 691,578 692,579 692,582 693,583 693,587 704,587 705,588 709,588 710,589 712,589 713,590 714,590 715,591 716,591 717,592 718,592 720,594 721,594 723,596 724,596 731,603 731,604 733,606 733,607 735,609 735,610 736,611 736,612 737,613 737,614 738,615 738,616 739,617 739,618 740,619 740,623 739,624 738,624 736,626 734,626 733,627 731,627 730,628 728,628 727,629 724,629 723,630 721,630 720,631 718,631 717,632 715,632 714,633 710,633 709,634 706,634 705,635 701,635 700,636 695,636 694,637 689,637 688,638 680,638 679,639 664,639 663,640 650,640 648,638 648,628 649,627 649,622 650,621 650,618 651,617 651,615 653,613 653,612 654,611 654,610 655,609 655,608 657,606 657,605 662,600 663,600 665,598 665,595 664,594 664,591 663,590 663,586 662,585 662,583 661,582 661,579 660,578 660,576 659,575 659,574 658,573 658,572 657,571 657,569 656,568 656,567 655,566 655,564 654,563 654,561 652,559 652,558 651,557 651,556 650,555 650,554 648,552 648,551 647,550 646,551 644,551 643,552 641,552 640,553 637,553 636,554 633,554 632,555 628,555 627,556 623,556 622,557 614,557 613,558 601,558 600,559 587,559 586,558 572,558 571,557 565,557 565,559 564,560 564,561 563,562 563,563 562,564 562,565 561,566 561,567 560,568 560,569 558,571 558,572 557,573 557,574 556,575 556,576 554,578 554,579 552,581 552,582 537,597 536,597 534,599 533,599 531,601 530,601 528,603 527,603 526,604 525,604 524,605 523,605 522,606 521,606 521,622 520,623 520,626 519,627 519,628 518,629 518,631 517,632 517,633 515,635 515,636 514,637 514,638 508,644 508,645 502,651 501,651 500,652 498,650 497,650 496,649 496,648 494,646 493,646 487,640 487,639 481,633 481,632 478,629 478,628 474,624 474,623 473,622 473,621 472,620 472,619 471,618 471,617 469,615 469,614 468,613 468,611 467,610 467,609 466,608 466,606 465,605 465,603 464,602 464,601 463,600 463,597 462,596 462,594 461,593 461,590 460,589 460,586 459,585 459,582 458,581 458,576 457,575 457,571 458,570 459,570 460,569 468,569 469,568 479,568 480,569 485,569 486,570 488,570 489,571 491,571 492,572 493,572 495,574 496,574 497,575 498,575 505,582 508,582 510,580 511,580 513,578 514,578 516,576 517,576 519,574 520,574 527,567 527,566 530,563 530,562 532,560 532,559 533,558 533,557 534,556 534,555 535,554 535,553 536,552 536,551 537,550 537,549 536,548 536,547 535,546 534,546 533,545 532,545 531,544 530,544 528,542 527,542 526,541 525,541 523,539 522,539 520,537 519,537 516,534 515,534 513,532 507,532 506,533 500,533 499,532 492,532 491,531 491,528 490,527 490,517 489,516 489,504 488,503 488,490 487,489 487,475 486,474 486,455 485,454 485,453 484,452 484,451 481,448 481,447 480,446 480,445 479,444 479,443 478,442 478,441 477,440 477,438 476,437 476,433 475,432 475,425 476,424 476,419 477,418 477,416 478,415 478,414 479,413 479,412 480,411 480,410 482,408 482,407 488,401 489,401 490,400 490,399 491,398 492,398 493,397 494,397 495,396 496,396 497,395 498,395 499,394 501,394 502,393 506,393 507,392 515,392 516,393 520,393 521,394 522,394 523,395 525,395 526,396 527,396 528,397 529,397 532,400 533,400 540,407 540,408 542,410 542,411 543,412 543,413 544,414 544,415 545,416 545,418 546,419 546,421 547,422 547,429 548,430 548,432 547,433 547,439 546,440 546,442 545,443 545,445 543,447 543,448 540,451 540,454 544,458 545,458 548,461 549,461 555,467 556,467 557,468 558,468 559,469 561,469 562,470 563,470 566,473 567,473 568,474 569,474 572,477 572,478 571,479 571,480 569,482 569,483 568,484 568,485 566,487 566,488 565,489 565,491 564,492 564,495 563,496 563,500 561,502 560,502 559,501 557,501 556,500 555,500 554,499 553,499 551,497 550,497 548,495 547,495 546,494 545,494 541,490 540,490 539,489 538,489 536,487 535,487 533,485 532,485 529,482 528,482 525,479 527,477 528,478 528,479 529,479 532,482 533,482 535,484 536,484 538,486 539,486 541,488 542,488 542,487 543,486 543,485 544,484 544,483 545,482 545,481 546,480 546,479 547,478 547,477 549,475 549,474 550,473 550,472 552,470 552,467 549,464 548,464 545,461 544,461 543,460 542,460 541,459 540,459 536,463 536,464 534,466 534,467 532,469 532,470 530,472 530,473 527,476 527,477 525,479 523,477 527,473 527,472 529,470 529,469 531,467 531,466 534,463 534,462 539,457 538,456 538,455 536,453 535,453 530,448 529,448 528,447 525,450 524,450 517,457 517,458 514,461 514,462 512,464 512,465 511,466 505,466 504,465 502,465 501,464 500,464 499,463 498,463 497,462 496,462 494,460 493,460 491,458 490,458 489,457 489,458 490,458 492,460 493,460 495,462 496,462 497,463 498,463 499,464 501,464 502,465 504,465 505,466 510,466 521,477 522,477 527,482 528,482 531,485 532,485 534,487 535,487 537,489 538,489 539,490 540,490 544,494 545,494 546,495 547,495 549,497 550,497 552,499 553,499 554,500 555,500 556,501 559,501 560,502 562,502 563,503 563,509 564,510 564,512 568,516 569,516 570,517 571,517 572,518 573,518 574,519 575,519 577,521 578,521 579,522 580,522 581,523 582,523 584,525 585,525 586,526 587,526 588,527 589,527 591,529 592,529 593,530 596,530 599,527 599,525 599,526 595,530 593,530 591,528 590,528 588,526 587,526 586,525 585,525 583,523 582,523 581,522 580,522 579,521 578,521 576,519 575,519 574,518 573,518 572,517 571,517 570,516 569,516 564,511 564,510 563,509 563,503 562,502 562,501 563,500 563,496 564,495 564,492 565,491 565,490 566,489 566,488 568,486 568,485 569,484 569,483 571,481 571,480 573,478 572,477 572,476 570,474 569,474 568,473 567,473 564,470 563,470 562,469 563,468 563,456 562,455 562,446 561,445 561,438 560,437 560,430 559,429 559,420 558,419 558,411 557,410 557,404 556,403 556,391 555,390 530,390 529,391 523,391 529,391 530,390 554,390 556,392 556,403 557,404 557,410 558,411 558,419 559,420 559,429 560,430 560,437 561,438 561,445 562,446 562,455 563,456 563,468 562,469 559,469 557,467 556,467 550,461 549,461 546,458 545,458 540,453 540,452 543,449 543,448 544,447 544,446 545,445 545,443 546,442 546,440 547,439 547,433 548,432 548,430 547,429 547,422 546,421 546,419 545,418 545,416 544,415 544,413 543,412 543,411 541,409 541,408 538,405 538,404 535,401 534,401 530,397 529,397 528,396 526,396 525,395 524,395 523,394 521,394 520,393 516,393 515,392 507,392 506,393 502,393 501,394 499,394 498,395 496,395 495,396 494,396 493,397 492,397 491,398 489,396 489,393 491,391 492,391 493,390 498,390 499,389 502,389 503,388 506,388 507,387 510,387 511,386 516,386 517,385 521,385 522,384 525,384 526,383 530,383 531,382 535,382 536,381 540,381 541,380 545,380 546,379 550,379 551,378 554,378 555,377 560,377 560,376 559,377 555,377 554,378 551,378 550,379 546,379 545,380 541,380 540,381 536,381 535,382 531,382 530,383 526,383 525,384 522,384 521,385 517,385 516,386 511,386 510,387 507,387 506,388 503,388 502,389 499,389 498,390 493,390 492,391 490,391 489,392 489,396 490,397 490,399 488,401 487,401 482,406 482,407 480,409 480,410 479,411 479,412 478,413 478,415 477,416 477,418 476,419 476,424 475,425 475,432 476,433 476,437 477,438 477,440 478,441 478,443 479,444 479,445 480,446 480,447 481,448 481,449 484,452 484,453 486,455 486,474 487,475 487,489 488,490 488,503 489,504 489,516 490,517 490,527 491,528 491,532 499,532 500,533 506,533 507,532 512,532 514,534 515,534 518,537 519,537 521,539 522,539 524,541 525,541 526,542 527,542 529,544 530,544 531,545 532,545 533,546 534,546 537,549 536,550 536,551 535,552 535,553 534,554 534,555 533,556 533,557 532,558 532,559 530,561 530,562 527,565 527,566 519,574 518,574 516,576 515,576 513,578 512,578 510,580 509,580 507,582 506,582 499,575 498,575 497,574 496,574 494,572 492,572 491,571 489,571 488,570 486,570 485,569 480,569 479,568 469,568 468,569 460,569 459,570 457,570 457,575 458,576 458,581 459,582 459,585 460,586 460,589 461,590 461,593 462,594 462,596 463,597 463,600 464,601 464,602 465,603 465,605 466,606 466,608 467,609 467,611 468,612 468,614 469,615 469,616 471,618 471,619 472,620 472,621 473,622 473,623 474,624 474,625 478,629 478,630 477,631 475,631 474,632 470,632 469,633 463,633 462,634 458,634 457,635 454,635 453,636 450,636 449,637 447,637 446,638 445,638 444,639 444,642 446,644 448,644 449,645 451,645 452,646 456,646 457,647 460,647 461,648 467,648 468,649 475,649 476,650 483,650 484,651 494,651 484,651 483,650 476,650 475,649 468,649 467,648 461,648 460,647 457,647 456,646 452,646 451,645 449,645 448,644 447,644 444,641 444,640 447,637 449,637 450,636 453,636 454,635 457,635 458,634 462,634 463,633 469,633 470,632 474,632 475,631 477,631 478,630 481,633 481,634 488,641 488,642 492,646 493,646 496,649 496,650 497,650 498,651 499,651 500,652 501,651 503,651 508,646 508,645 514,639 514,638 515,637 515,636 517,634 517,632 518,631 518,629 519,628 519,627 520,626 520,623 521,622 521,607 522,606 523,606 524,605 525,605 526,604 527,604 528,603 529,603 531,601 532,601 534,599 535,599 537,597 538,597 552,583 552,582 554,580 554,579 556,577 556,576 557,575 557,574 558,573 558,572 559,571 559,570 561,568 561,567 562,566 562,565 563,564 563,563 564,562 564,560 565,559 565,558 566,557 571,557 572,558 586,558 587,559 600,559 601,558 613,558 614,557 622,557 623,556 627,556 628,555 632,555 633,554 636,554 637,553 640,553 641,552 643,552 644,551 647,551 648,552 648,553 650,555 650,556 651,557 651,558 652,559 652,560 654,562 654,564 655,565 655,566 656,567 656,568 657,569 657,571 658,572 658,573 659,574 659,575 660,576 660,578 661,579 661,582 662,583 662,585 663,586 663,590 664,591 664,594 665,595 665,597 662,600 661,600 657,604 657,605 655,607 655,608 654,609 654,610 653,611 653,612 652,613 652,614 651,615 651,617 650,618 650,621 649,622 649,626 648,627 648,639 649,640 663,640 664,639 679,639 680,638 688,638 689,637 694,637 695,636 700,636 701,635 705,635 706,634 709,634 710,633 714,633 715,632 717,632 718,631 721,631 722,630 723,630 724,629 727,629 728,628 730,628 731,627 733,627 734,626 736,626 737,625 738,625 739,624 740,624 741,623 740,622 740,619 739,618 739,616 738,615 738,614 737,613 737,612 736,611 736,610 735,609 735,608 733,606 733,605 731,603 731,602 725,596 724,596 722,594 721,594 719,592 718,592 717,591 716,591 715,590 713,590 712,589 710,589 709,588 705,588 704,587 694,587 693,586 693,583 692,582 692,579 691,578 691,576 690,575 690,572 689,571 689,570 688,569 688,567 687,566 687,565 686,564 686,562 685,561 685,559 684,558 684,556 683,555 683,554 682,553 682,551 681,550 681,549 679,547 679,546 678,545 678,544 677,543 677,542 676,541 676,540 679,537 680,537 681,536 681,535 682,534 682,532 685,529 685,528 687,526 688,526 694,520 697,520 698,519 706,519 707,518 711,518 712,517 712,511 711,510 711,505 710,504 710,499 709,498 709,492 708,491 708,485 707,484 707,478 706,477 706,473 705,472 705,467 704,466 704,460 703,459 703,454 702,453 702,448 701,447 707,441 707,440 709,438 709,437 710,436 710,435 711,434 711,432 712,431 712,430 713,429 713,426 714,425 714,410 713,409 713,406 712,405 712,404 711,403 711,401 710,400 710,399 708,397 708,396 702,390 701,390 700,389 699,389 698,388 696,388 695,387 694,387 693,386 692,386 690,384 690,383 689,382 689,378 688,377 679,377 678,376 663,376 662,375 647,375 646,374 633,374 632,373 621,373 619,371 619,369 618,368 618,362 617,361 617,356 616,355 616,353 618,351 619,351 620,350 623,350 624,349 626,349 627,348 628,348 629,347 631,347 632,346 633,346 634,345 636,345 637,344 639,344 640,343 642,343 643,342 645,342 646,341 647,341 648,340 650,340 651,339 653,339 654,338 655,338 656,337 658,337 659,336 661,336 662,335 663,335 664,334 666,334 667,333 668,333 669,332 670,332 671,331 673,331 674,330 676,330 677,329 678,329 679,328 680,328 681,327 682,327 683,326 684,326 685,325 687,325 688,324 690,324 691,323 692,323 693,322 694,322 695,321 697,321 698,320 700,320 702,318 704,318 705,317 707,317 708,316 709,316 710,315 712,315 713,314 714,314 715,313 717,313 718,312 719,312 720,311 721,311 722,310 723,310 724,309 726,309 728,307 728,304 727,303 727,300 726,299 726,294 725,293 725,289 724,288 724,284 723,283 723,279 722,278 722,274 726,270 726,269 728,267 728,266 729,265 729,262 730,261 730,257 731,256 731,247 730,246 730,240 729,239 729,237 728,236 728,233 727,232 727,230 726,229 726,227 725,226 725,225 724,224 724,223 723,222 723,221 722,220 722,219 721,218 721,217 718,214 718,213 717,212 716,212 713,209 712,209 711,208 708,208 707,207 705,207 704,206 704,205 703,204 703,202 702,201 702,200 701,199 701,197 700,196 700,195 699,194 699,192 698,191 698,190 697,189 697,188 696,187 696,186 695,185 695,183 694,182 694,180 693,179 693,178 692,177 692,176 691,175 691,174 690,173 690,172 689,171 689,170 688,169 688,168 687,167 682,167 681,166 678,166 677,165 675,165 674,164 671,164 670,163 667,163 666,162 663,162 662,161 659,161 658,160 654,160 653,159 648,159 647,158 643,158 642,157 636,157 635,156 629,156 628,155 619,155 618,154 592,154 590,152 590,151 586,147 585,147 584,146 582,146 581,145 579,145 578,144 575,144 574,143 570,143 569,142 563,142 562,141" stroke="black" stroke-width="1" /></svg>