<?xml version="1.0" encoding="utf-8" ?>
<svg baseProfile="tiny" height="704" version="1.2" width="1248" xmlns="http://www.w3.org/2000/svg" xmlns:ev="http://www.w3.org/2001/xml-events" xmlns:xlink="http://www.w3.org/1999/xlink"><defs /><polyline fill="none" points="403,626 402,627 384,627 383,628 370,628 369,629 362,629 361,630 353,630 352,631 347,631 346,632 341,632 340,633 336,633 335,634 333,634 332,635 329,635 328,636 326,636 325,637 324,637 323,638 323,640 322,641 323,641 325,643 327,643 328,644 331,644 332,645 335,645 336,646 341,646 342,647 347,647 348,648 354,648 355,649 364,649 365,650 374,650 375,651 386,651 387,652 404,652 405,653 426,653 427,654 494,654 495,653 517,653 518,652 532,652 533,651 543,651 544,650 553,650 554,649 562,649 563,648 570,648 571,647 576,647 577,646 581,646 582,645 585,645 586,644 587,644 588,643 590,643 591,642 591,639 589,637 587,637 586,636 584,636 583,635 580,635 579,634 575,634 574,633 570,633 569,632 564,632 563,631 556,631 555,630 548,630 547,629 538,629 537,628 527,628 526,627 504,627 503,626 495,626 494,627 495,626 503,626 504,627 526,627 527,628 537,628 538,629 547,629 548,630 555,630 556,631 563,631 564,632 569,632 570,633 574,633 575,634 579,634 580,635 583,635 584,636 586,636 587,637 588,637 591,640 591,641 589,643 588,643 587,644 586,644 585,645 582,645 581,646 577,646 576,647 571,647 570,648 563,648 562,649 554,649 553,650 544,650 543,651 533,651 532,652 518,652 517,653 495,653 494,654 427,654 426,653 405,653 404,652 387,652 386,651 375,651 374,650 365,650 364,649 355,649 354,648 348,648 347,647 342,647 341,646 336,646 335,645 332,645 331,644 328,644 327,643 326,643 323,640 323,639 326,636 328,636 329,635 332,635 333,634 335,634 336,633 340,633 341,632 346,632 347,631 352,631 353,630 361,630 362,629 369,629 370,628 383,628 384,627 402,627 403,626 408,626" stroke="black" stroke-width="1" /><polyline fill="none" points="495,590 497,590 498,591 499,591 500,592 501,592 504,595 505,595 507,597 508,597 513,602 510,605 509,605 508,606 507,606 505,608 504,608 503,609 502,609 500,611 499,611 498,612 497,612 496,613 495,613 494,614 493,614 492,615 491,615 490,616 489,616 488,617 487,617 485,619 484,619 482,621 481,620 481,619 480,618 480,615 479,614 479,613 477,611 477,609 478,608 478,607 479,606 479,605 480,604 480,603 482,601 482,600 486,596 487,596 489,594 490,594 491,593 492,593" stroke="black" stroke-width="1" /><polyline fill="none" points="424,589 423,590 419,590 418,591 415,591 414,592 411,592 410,593 408,593 407,594 404,594 403,595 401,595 400,596 399,596 398,597 399,598 399,599 401,601 401,602 403,604 403,605 404,606 404,607 406,609 406,610 409,613 409,614 412,617 412,618 418,624 417,623 417,622 412,617 412,616 409,613 409,612 406,609 406,608 404,606 404,605 403,604 403,603 401,601 401,600 398,597 399,596 400,596 401,595 403,595 404,594 407,594 408,593 410,593 411,592 414,592 415,591 418,591 419,590 423,590 424,589 432,589 433,590 435,590 437,592 436,593 436,603 435,604 435,606 434,607 434,608 433,609 434,608 434,607 435,606 435,604 436,603 436,593 437,592 439,594 440,594 441,595 442,595 444,597 444,598 439,603 439,604 437,606 437,608 436,609 436,610 435,611 435,613 434,614 434,615 433,616 432,616 433,617 433,618 432,619 432,635 431,636 429,634 429,633 428,633 421,626 423,624 424,624 429,619 429,618 430,617 430,616 429,617 429,618 423,624 422,624 422,625 420,627 419,626 420,627 421,627 427,633 428,633 429,634 429,635 430,636 432,636 432,619 433,618 433,616 434,615 434,614 435,613 435,612 436,611 436,609 437,608 437,607 439,605 439,604 444,599 444,596 443,595 442,595 441,594 440,594 438,592 437,592 435,590 433,590 432,589" stroke="black" stroke-width="1" /><polyline fill="none" points="475,587 476,586 488,586 489,587 492,587 495,590 493,592 492,592 491,593 490,593 489,594 488,594 485,597 484,597 482,599 482,600 480,602 480,603 479,604 479,605 478,606 478,608 477,609 476,609 473,606 472,606 469,603 468,603 466,601 465,601 464,600 462,600 461,599 460,599 459,598 457,598 456,597 458,595 459,595 462,592 463,592 465,590 466,590 467,589 469,589 470,588 472,588 473,587" stroke="black" stroke-width="1" /><polyline fill="none" points="476,586 475,587 473,587 472,588 470,588 469,589 467,589 466,590 464,590 462,592 461,592 458,595 457,595 455,597 454,597 451,600 451,601 450,602 450,605 449,606 449,607 448,608 448,611 447,612 447,616 446,617 446,633 445,634 445,635 446,636 446,637 448,637 449,636 450,636 451,635 452,635 453,634 455,634 456,633 457,633 458,632 459,632 460,631 461,631 462,630 463,630 464,629 465,629 466,628 467,628 468,627 469,627 470,626 471,626 472,625 473,625 474,624 475,624 476,623 477,623 478,622 477,623 476,623 475,624 473,624 472,625 471,625 470,626 469,626 468,627 467,627 466,628 465,628 464,629 463,629 462,630 461,630 460,631 459,631 458,632 457,632 456,633 455,633 454,634 452,634 451,635 450,635 449,636 448,636 447,637 445,635 445,634 446,633 446,617 447,616 447,612 448,611 448,608 449,607 449,606 450,605 450,603 451,602 451,601 455,597 456,597 457,598 459,598 460,599 461,599 462,600 463,600 464,601 465,601 467,603 468,603 471,606 472,606 478,612 478,613 479,614 479,615 480,616 480,618 481,619 481,620 482,621 483,620 484,620 485,619 486,619 488,617 489,617 490,616 491,616 492,615 493,615 494,614 495,614 496,613 497,613 498,612 499,612 500,611 501,611 503,609 504,609 505,608 506,608 508,606 509,606 510,605 511,605 513,603 513,601 510,598 509,598 506,595 505,595 502,592 501,592 500,591 498,591 497,590 495,590 494,589 494,588 493,588 492,587 489,587 488,586" stroke="black" stroke-width="1" /><polyline fill="none" points="469,577 471,579 471,580 470,581 469,581 467,579" stroke="black" stroke-width="1" /><polyline fill="none" points="468,577 468,578 467,579 468,580 468,581 471,581 471,579 472,578 474,580 475,580 476,581 476,582 477,582 478,581 485,581 486,582 489,582 490,583 492,583 493,582 494,582 493,582 492,583 490,583 489,582 486,582 485,581 477,581 476,580 475,580 474,579 474,578 473,579 472,578 471,579 470,578 470,577" stroke="black" stroke-width="1" /><polyline fill="none" points="453,575 452,576 451,576 450,577 449,577 447,579 446,579 443,582 442,582 441,583 441,586 443,588 443,589 444,590 444,591 445,592 448,592 449,591 450,591 451,590 452,590 453,589 455,589 456,588 458,588 459,587 461,587 462,586 463,586 464,585 466,585 466,584 467,583 468,583 467,583 465,581 465,580 464,579 464,578 463,577 465,575 466,576 466,575 465,575 463,577 463,578 465,580 465,581 467,583 465,585 464,585 463,586 462,586 461,587 459,587 458,588 456,588 455,589 453,589 452,590 450,590 448,592 446,592 444,590 444,589 443,588 443,587 441,585 441,584 443,582 444,582 447,579 448,579 450,577 451,577 452,576 453,576 454,575" stroke="black" stroke-width="1" /><polyline fill="none" points="450,573 449,574 448,574 445,577 444,577 442,579 441,579 440,580 439,579 440,580 441,580 442,579 443,579 445,577 446,577 450,573 454,573" stroke="black" stroke-width="1" /><polyline fill="none" points="543,543 544,542 545,543 546,543 549,546 549,549 546,552 545,552 544,553 543,553 542,552 541,552 539,550 539,546 542,543" stroke="black" stroke-width="1" /><polyline fill="none" points="544,542 543,543 541,543 539,545 539,551 540,552 542,552 543,553 544,553 545,552 547,552 549,550 549,545 547,543 545,543" stroke="black" stroke-width="1" /><polyline fill="none" points="451,526 454,526 457,529 457,533 455,535 454,535 453,536 451,536 448,533 448,532 447,531 448,530 448,529" stroke="black" stroke-width="1" /><polyline fill="none" points="450,526 448,528 448,530 447,531 448,532 448,534 450,536 454,536 455,535 456,535 457,534 457,528 456,527 455,527 454,526" stroke="black" stroke-width="1" /><polyline fill="none" points="525,508 526,507 528,507 530,509 528,511 527,511 525,509" stroke="black" stroke-width="1" /><polyline fill="none" points="525,507 525,510 527,512 528,511 529,511 530,510 530,508 529,507" stroke="black" stroke-width="1" /><polyline fill="none" points="678,502 681,502 682,503 683,503 686,506 687,506 689,508 689,509 691,511 691,512 693,514 693,517 694,518 694,524 693,525 693,528 692,529 692,530 684,538 683,538 682,539 681,539 680,540 679,540 678,541 677,541 676,542 673,542 672,543 667,543 666,542 662,542 661,541 659,541 656,538 656,536 658,534 658,533 659,532 659,531 660,530 660,528 661,527 661,526 662,525 662,524 663,523 663,521 664,520 664,517 665,516 665,515 666,514 666,513 669,510 669,509 673,505 674,505 675,504 676,504" stroke="black" stroke-width="1" /><polyline fill="none" points="341,494 323,512 322,512 318,516 319,516 323,512 324,512 341,495" stroke="black" stroke-width="1" /><polyline fill="none" points="475,488 476,489 476,490 477,491 477,492 478,493 478,495 479,496 479,497 480,498 480,499 482,501 482,502 486,506 486,507 487,507 492,512 494,512 495,513 496,513 497,514 499,514 501,516 503,516 504,517 506,517 507,518 512,518 513,519 518,519 519,518 522,518 523,517 525,517 526,516 528,516 529,515 530,515 532,513 533,513 534,512 535,512 543,504 543,503 545,501 545,500 546,499 549,499 550,500 554,500 555,501 557,501 560,504 560,509 559,510 559,517 558,518 558,525 557,526 557,533 556,534 556,540 555,541 555,548 554,549 554,555 553,556 553,560 552,561 553,560 553,556 554,555 554,549 555,548 555,541 556,540 556,534 557,533 557,526 558,525 558,518 559,517 559,510 560,509 560,503 558,501 555,501 554,500 550,500 549,499 545,499 545,500 543,502 543,503 534,512 533,512 532,513 531,513 529,515 528,515 527,516 526,516 525,517 523,517 522,518 519,518 518,519 513,519 512,518 507,518 506,517 504,517 503,516 501,516 499,514 497,514 496,513 495,513 494,512 493,512 488,507 487,507 485,505 485,504 482,501 482,500 480,498 480,497 478,495 478,493 477,492 477,491 476,490 476,489" stroke="black" stroke-width="1" /><polyline fill="none" points="620,481 620,482 618,484 618,485 615,488 615,489 613,491 613,492 607,498 607,499 606,500 607,499 611,503 612,503 615,506 616,506 619,509 615,505 614,505 611,502 610,502 607,499 613,493 613,492 615,490 615,489 618,486 618,485 620,483 621,483 623,485 624,485 628,489 629,489 630,490 628,488 627,488 623,484 622,484 620,482" stroke="black" stroke-width="1" /><polyline fill="none" points="606,471 605,472 605,473 603,475 603,476 599,480 599,481 597,483 597,484 594,487 594,488 593,489 597,485 597,484 599,482 599,481 602,478 602,477 605,474 605,473 607,471 613,477 614,477 617,480 617,481 616,482 616,483 613,486 613,487 610,490 610,491 604,497 602,495 601,495 596,490 601,495 602,495 604,497 605,497 610,492 610,491 613,488 613,487 616,484 616,483 617,482 617,480 618,479 616,479 613,476 612,476 607,471" stroke="black" stroke-width="1" /><polyline fill="none" points="484,471 484,472 482,474 482,478 483,479 483,487 484,488 484,490 485,491 485,493 486,494 486,495 487,496 487,497 488,498 488,499 489,500 489,501 490,502 490,503 492,505 493,505 495,507 496,507 500,511 500,512 501,512 502,513 503,513 504,514 506,514 507,515 522,515 523,514 525,514 525,513 524,514 523,514 522,515 507,515 506,514 505,514 504,513 502,513 500,511 501,510 501,509 502,508 502,506 502,507 501,508 501,509 500,510 499,510 497,508 499,506 499,505 500,504 500,503 499,504 499,505 497,507 496,507 495,506 494,506 490,502 490,501 489,500 489,499 488,498 488,497 487,496 487,495 486,494 486,493 485,492 485,491 484,490 484,488 483,487 483,479 482,478 482,474 484,472 485,472 486,473 488,473 486,473" stroke="black" stroke-width="1" /><polyline fill="none" points="544,463 546,465 546,466 545,467 544,467 542,465" stroke="black" stroke-width="1" /><polyline fill="none" points="597,463 597,464 596,465 596,467 595,468 595,471 594,472 594,473 593,474 593,475 592,476 592,477 591,478 591,479 589,481 589,482 587,484 588,484 588,483 591,480 591,479 592,478 592,477 593,476 593,475 594,474 594,472 595,471 595,468 596,467 596,465 597,464 598,464 602,468 602,467 601,466 600,466" stroke="black" stroke-width="1" /><polyline fill="none" points="333,460 330,463 329,463 325,467 326,467 326,466 328,464 329,464" stroke="black" stroke-width="1" /><polyline fill="none" points="594,459 594,463 593,464 593,467 592,468 592,470 591,471 591,473 589,475 589,476 588,477 588,478 586,480 586,481 584,483 583,483 582,484 581,484 579,486 578,486 577,487 576,487 576,488 577,487 578,487 581,484 582,484 583,483 585,483 586,482 586,481 588,479 588,478 589,477 589,476 590,475 590,474 591,473 591,471 592,470 592,468 593,467 593,464 594,463" stroke="black" stroke-width="1" /><polyline fill="none" points="335,457 334,458 335,458 343,466 343,467 347,471 347,472 349,474 349,475 345,479 344,479 341,482 341,483 340,484 340,486 340,484 349,475 349,473 347,471 347,470 343,466 343,465" stroke="black" stroke-width="1" /><polyline fill="none" points="534,455 534,456 535,455 537,455" stroke="black" stroke-width="1" /><polyline fill="none" points="514,454 518,454 522,458 522,459 523,460 521,462 516,462 515,461 514,461 512,459 512,456" stroke="black" stroke-width="1" /><polyline fill="none" points="514,454 513,455 512,455 512,460 513,461 514,461 515,462 521,462 522,463 522,464 524,466 524,467 522,469 520,467 520,466 519,465 519,464 519,465 520,466 520,468 521,468 522,469 523,469 524,468 524,466 523,465 523,464 522,463 522,461 523,460 522,459 522,457 520,455 519,455 518,454" stroke="black" stroke-width="1" /><polyline fill="none" points="509,451 510,450 520,450 521,451 523,451 524,452 525,452 527,454 528,454 534,460 534,461 535,462 535,463 536,464 536,465 537,466 537,467 538,468 538,470 539,471 539,481 538,482 538,485 537,486 537,488 536,489 536,490 535,491 535,492 532,495 532,496 528,500 527,500 525,502 524,502 523,503 522,503 521,504 518,504 517,505 511,505 510,504 507,504 506,503 505,503 504,502 503,502 495,494 495,493 493,491 493,490 492,489 492,488 491,487 491,483 490,482 490,472 491,471 491,469 492,468 492,466 493,465 493,464 495,462 495,461 502,454 503,454 505,452 506,452 507,451" stroke="black" stroke-width="1" /><polyline fill="none" points="510,450 509,451 507,451 506,452 504,452 502,454 501,454 495,460 495,461 494,462 494,463 493,464 493,465 492,466 492,468 491,469 491,471 490,472 490,482 491,483 491,487 492,488 492,490 493,491 493,492 495,494 495,495 502,502 503,502 504,503 506,503 507,504 510,504 511,505 517,505 518,504 521,504 522,503 524,503 525,502 526,502 528,500 529,500 532,497 532,496 535,493 535,492 536,491 536,489 537,488 537,486 538,485 538,482 539,481 539,471 538,470 538,468 537,467 537,465 536,464 536,463 535,462 535,461 534,460 534,459 529,454 528,454 526,452 524,452 523,451 521,451 520,450" stroke="black" stroke-width="1" /><polyline fill="none" points="536,447 537,448 537,449 541,453 541,454 543,456 543,457 544,458 544,459 545,460 545,462 544,463 543,463 542,464 542,466 543,466 544,467 546,467 547,466 548,466 547,466 546,465 546,464 545,464 544,463 545,462 545,460 544,459 544,457 542,455 542,454 540,452 540,451" stroke="black" stroke-width="1" /><polyline fill="none" points="529,446 530,445 532,447 532,448 530,450 528,448 529,447" stroke="black" stroke-width="1" /><polyline fill="none" points="348,446 344,450 343,450 339,454 341,452 342,452 348,446 356,454 356,455 359,458 359,459 362,462 362,463 360,465 359,465 352,472 350,470 350,469 346,465 346,464 337,455 337,456 346,465 346,466 350,470 350,471 351,472 352,472 356,468 357,468 360,465 361,465 362,464 362,461 359,458 359,457 356,454 356,453 349,446" stroke="black" stroke-width="1" /><polyline fill="none" points="529,445 529,446 526,449 525,449 524,448 522,448 524,448 525,449 527,449 528,448 530,450 530,451 529,452 530,452 531,453 532,453 531,453 530,452 530,451 532,449 532,446 531,446 530,445" stroke="black" stroke-width="1" /><polyline fill="none" points="507,439 506,440 503,440 502,441 501,441 500,442 499,442 491,450 491,451 490,452 490,453 488,455 488,456 487,457 487,458 486,459 486,461 485,462 485,464 484,465 484,468 485,468 486,469 487,469 488,470 489,470 488,470 487,469 486,469 484,467 484,465 485,464 485,462 486,461 486,460 487,459 487,458 488,457 488,456 490,454 490,453 491,452 491,451 500,442 501,442 502,441 503,441 504,440 506,440 507,439 511,439 513,441 513,445 514,446 515,445 517,447 520,447 517,447 516,446 517,445 517,440 518,439 521,439 522,440 524,440 525,441 526,441 527,442 528,442 529,443 528,442 527,442 526,441 525,441 524,440 522,440 521,439 517,439 517,444 516,445 514,445 513,444 513,441 512,440 512,439" stroke="black" stroke-width="1" /><polyline fill="none" points="506,436 505,437 503,437 502,438 500,438 499,439 498,439 497,440 496,440 495,441 494,441 493,442 492,442 489,445 488,445 484,449 484,450 481,453 481,454 479,456 479,457 478,458 478,459 477,460 477,461 476,462 476,463 475,464 475,467 474,468 474,481 474,468 475,467 475,464 477,462 477,461 478,460 478,459 479,458 479,457 481,455 481,454 484,451 484,450 489,445 490,445 493,442 494,442 495,441 496,441 497,440 498,440 500,438 502,438 503,437 505,437 506,436 521,436 522,437 525,437 526,438 527,438 528,439 529,439 530,440 531,440 533,442 534,442 536,444 537,444 542,449 542,450 545,453 545,454 546,455 546,456 547,457 547,458 548,459 548,460 549,461 549,463 550,464 550,466 551,467 551,485 550,486 550,489 549,490 549,492 548,493 548,496 549,497 554,497 555,498 558,498 563,503 563,508 562,509 562,517 561,518 561,525 560,526 560,533 559,534 559,541 558,542 558,547 557,548 557,555 556,556 556,559 555,560 555,561 556,560 556,556 557,555 557,548 558,547 558,542 559,541 559,534 560,533 560,526 561,525 561,518 562,517 562,509 563,508 563,502 559,498 555,498 554,497 550,497 548,495 548,493 549,492 549,490 550,489 550,486 551,485 551,467 550,466 550,464 549,463 549,461 548,460 548,459 547,458 547,456 546,455 546,454 545,453 545,452 542,449 542,448 538,444 537,444 535,442 534,442 532,440 531,440 530,439 529,439 528,438 526,438 525,437 522,437 521,436" stroke="black" stroke-width="1" /><polyline fill="none" points="360,434 360,435 355,440 354,440 352,442 353,441 354,441 361,434 362,434 369,441 369,442 372,445 372,446 374,448 374,449 375,450 368,457 367,457 366,458 366,459 368,457 369,457 375,451 375,449 374,448 374,447 372,445 372,444 369,441 369,440 363,434" stroke="black" stroke-width="1" /><polyline fill="none" points="580,433 580,434 581,434 582,435 583,435 589,441 589,442 591,444 591,445 592,446 592,448 593,449 593,451 592,452 585,452 584,451 581,451 580,450 580,436 580,451 579,452 580,451 584,451 585,452 593,452 593,449 592,448 592,445 591,444 591,443 589,441 589,440 585,436 584,436 582,434 581,434" stroke="black" stroke-width="1" /><polyline fill="none" points="564,430 565,429 566,430 567,430 570,433 570,436 566,440 563,440 559,436 559,434 563,430" stroke="black" stroke-width="1" /><polyline fill="none" points="565,429 564,430 562,430 560,432 560,433 559,434 559,436 560,437 560,438 561,439 562,439 563,440 567,440 570,437 570,432 568,430 566,430" stroke="black" stroke-width="1" /><polyline fill="none" points="373,423 374,422 375,423 376,423 377,424 378,424 385,431 385,432 386,433 386,434 387,435 387,438 386,439 386,440 378,448 376,446 376,445 374,443 374,442 371,439 371,438 365,432 364,432 363,431 364,430 365,430 372,423" stroke="black" stroke-width="1" /><polyline fill="none" points="378,413 377,414 375,414 374,415 373,415 369,419 369,420 368,421 368,422 363,427 362,427 362,428 365,425 366,425 366,424 367,423 369,425 363,431 362,430 361,430 362,430 363,431 363,432 364,432 372,440 372,441 374,443 374,444 376,446 376,447 377,447 378,448 379,448 386,441 386,439 387,438 387,435 386,434 386,432 385,431 385,430 379,424 378,424 377,423 375,423 374,422 373,423 371,423 369,425 367,423 369,421 369,420 374,415 375,415 376,414 377,414 378,413 387,413 388,414 389,414 396,421 396,422 397,423 397,425 398,426 398,434 397,435 397,437 396,438 396,439 394,441 394,442 388,448 387,448 385,450 381,450 380,451 378,451 378,452 374,456 379,451 380,451 381,450 385,450 386,449 387,449 388,448 389,448 394,443 394,442 396,440 396,438 397,437 397,435 398,434 398,426 397,425 397,422 396,421 396,420 390,414 388,414 387,413" stroke="black" stroke-width="1" /><polyline fill="none" points="458,412 459,411 462,411 465,414 465,417 464,418 464,419 463,420 462,420 461,421 459,421 455,417 455,415 456,414 456,413 457,412" stroke="black" stroke-width="1" /><polyline fill="none" points="458,411 457,412 456,412 456,413 455,414 455,418 457,420 458,420 459,421 461,421 462,420 464,420 464,419 465,418 465,413 463,411" stroke="black" stroke-width="1" /><polyline fill="none" points="410,405 411,404 415,404 419,408 419,409 420,410 420,411 421,412 421,413 423,415 423,418 424,419 422,421 416,421 415,420 414,421 413,421 412,420 408,420 406,418 406,416 405,415 405,414 404,413 404,412 402,410 402,409 401,408 403,406 406,406 407,405" stroke="black" stroke-width="1" /><polyline fill="none" points="382,399 381,400 378,400 381,400 382,399 385,399 386,400 389,400 390,401 391,401 392,402 393,402 395,404 396,404 402,410 402,411 404,413 404,414 405,415 405,416 406,417 406,419 408,421 409,420 412,420 413,421 414,421 415,420 416,421 423,421 423,420 424,419 423,418 423,415 422,414 422,413 421,412 421,411 420,410 420,409 419,408 419,407 415,403 414,404 411,404 410,405 407,405 406,406 402,406 402,407 401,408 397,404 396,404 394,402 392,402 391,401 390,401 389,400 386,400 385,399" stroke="black" stroke-width="1" /><polyline fill="none" points="414,394 418,394 419,395 424,395 425,396 428,396 429,397 433,397 434,398 438,398 439,399 442,399 443,400 445,400 446,401 447,401 448,402 448,405 447,406 447,412 446,413 446,419 445,420 445,426 444,427 444,431 443,432 443,438 442,439 442,444 441,445 441,450 440,451 440,457 439,458 439,464 438,465 438,470 437,471 437,477 436,478 436,483 435,484 435,490 434,491 434,496 433,497 433,502 432,503 432,508 431,509 431,513 430,514 430,519 429,520 429,525 428,526 428,531 427,532 427,537 426,538 427,539 428,539 429,540 434,540 435,541 437,541 438,542 444,542 445,543 448,543 449,544 452,544 453,545 457,545 458,546 462,546 463,547 467,547 468,548 472,548 473,549 477,549 478,550 483,550 484,551 488,551 489,552 494,552 495,553 499,553 500,554 504,554 505,555 510,555 511,556 516,556 517,557 521,557 522,558 528,558 529,559 535,559 536,560 540,560 541,561 544,561 545,562 547,562 548,561 547,562 545,562 544,561 541,561 540,560 536,560 535,559 529,559 528,558 522,558 521,557 517,557 516,556 511,556 510,555 505,555 504,554 500,554 499,553 495,553 494,552 489,552 488,551 484,551 483,550 478,550 477,549 473,549 472,548 468,548 467,547 463,547 462,546 458,546 457,545 453,545 452,544 449,544 448,543 445,543 444,542 443,542 442,541 442,533 443,532 443,527 444,526 444,522 445,521 445,516 446,515 446,510 447,509 447,505 448,504 448,498 449,497 449,493 450,492 450,487 454,483 461,483 462,484 467,484 468,485 471,485 473,487 473,488 473,486 472,485 468,485 467,484 462,484 461,483 453,483 451,485 451,486 450,487 450,492 449,493 449,497 448,498 448,504 447,505 447,509 446,510 446,515 445,516 445,521 444,522 444,526 443,527 443,532 442,533 442,541 441,542 438,542 437,541 439,539 439,533 440,532 440,527 441,526 441,522 442,521 442,516 443,515 443,510 444,509 444,505 445,504 445,499 446,498 446,493 447,492 447,487 448,486 448,485 449,484 449,483 451,481 452,481 453,480 461,480 462,481 466,481 467,482 472,482 472,481 471,482 467,482 466,481 462,481 461,480 452,480 451,481 450,481 449,482 449,483 448,484 448,486 447,487 447,492 446,493 446,498 445,499 445,504 444,505 444,509 443,510 443,515 442,516 442,521 441,522 441,526 440,527 440,532 439,533 439,539 437,541 435,541 434,540 429,540 427,538 427,532 428,531 428,526 429,525 429,520 430,519 430,514 431,513 431,509 432,508 432,503 433,502 433,497 434,496 434,491 435,490 435,484 436,483 436,478 437,477 437,471 438,470 438,465 439,464 439,458 440,457 440,451 441,450 441,445 442,444 442,439 443,438 443,432 444,431 444,427 445,426 445,420 446,419 446,413 447,412 447,406 448,405 448,404 449,403 450,403 451,402 452,403 458,403 459,404 465,404 466,405 470,405 471,406 476,406 477,407 481,407 482,408 486,408 487,409 491,409 492,410 498,410 499,411 504,411 505,412 509,412 510,413 514,413 515,414 519,414 520,415 524,415 525,416 530,416 531,417 535,417 536,418 540,418 541,419 546,419 547,420 551,420 552,421 555,421 556,422 560,422 561,423 564,423 565,424 568,424 569,425 570,425 571,426 570,425 569,425 568,424 565,424 564,423 561,423 560,422 556,422 555,421 552,421 551,420 547,420 546,419 541,419 540,418 536,418 535,417 531,417 530,416 525,416 524,415 520,415 519,414 515,414 514,413 510,413 509,412 505,412 504,411 499,411 498,410 492,410 491,409 487,409 486,408 482,408 481,407 477,407 476,406 471,406 470,405 466,405 465,404 459,404 458,403 452,403 451,402 450,403 448,401 446,401 445,400 443,400 442,399 439,399 438,398 434,398 433,397 429,397 428,396 425,396 424,395 419,395 418,394" stroke="black" stroke-width="1" /><polyline fill="none" points="388,394 387,395 385,395 384,396 383,396 382,397 381,397 382,397 383,396 384,396 385,395 387,395 388,394 399,394 400,395 402,395 403,396 405,396 407,398 408,398 409,399 410,399 413,402 413,401 412,400 411,400 409,398 408,398 407,397 406,397 405,396 404,396 403,395 400,395 399,394" stroke="black" stroke-width="1" /><polyline fill="none" points="413,391 418,391 419,392 427,392 428,393 444,393 445,394 451,394 452,395 456,395 457,396 459,396 460,397 462,397 463,398 466,398 467,399 472,399 473,400 478,400 479,401 481,401 483,403 485,403 486,402 487,402 488,403 494,403 495,404 498,404 499,405 502,405 503,406 507,406 508,407 513,407 514,408 518,408 519,409 521,409 522,410 525,410 526,411 530,411 531,412 534,412 535,413 537,413 538,414 542,414 543,415 546,415 547,416 550,416 551,417 554,417 555,418 557,418 558,419 561,419 562,420 565,420 566,421 568,421 569,422 571,422 572,423 574,423 575,424 576,424 577,425 577,429 578,430 578,433 577,434 577,456 576,457 576,466 575,467 575,478 574,479 574,489 573,490 573,494 572,495 572,504 571,505 571,515 570,516 570,524 569,525 569,534 568,535 568,542 567,543 567,549 566,550 566,556 565,557 565,562 564,563 562,563 561,562 557,562 561,562 562,563 565,563 565,557 566,556 566,550 567,549 567,543 568,542 568,535 569,534 569,525 570,524 570,516 571,515 571,505 572,504 572,495 573,494 573,490 574,489 575,490 574,489 574,479 575,478 575,467 576,466 576,457 577,456 577,434 578,433 578,430 577,429 577,424 575,424 574,423 572,423 571,422 569,422 568,421 566,421 565,420 562,420 561,419 558,419 557,418 555,418 554,417 551,417 550,416 547,416 546,415 543,415 542,414 538,414 537,413 535,413 534,412 531,412 530,411 526,411 525,410 522,410 521,409 519,409 518,408 514,408 513,407 508,407 507,406 503,406 502,405 499,405 498,404 495,404 494,403 488,403 487,402 486,402 485,403 483,403 481,401 479,401 478,400 473,400 472,399 467,399 466,398 463,398 462,397 460,397 459,396 457,396 456,395 452,395 451,394 445,394 444,393 428,393 427,392 419,392 418,391" stroke="black" stroke-width="1" /><polyline fill="none" points="614,384 615,383 617,383 621,387 621,391 616,396 612,396 611,395 610,395 609,394 609,392 608,391 609,390 609,388 613,384" stroke="black" stroke-width="1" /><polyline fill="none" points="615,383 614,384 612,384 609,387 609,390 608,391 609,392 609,395 610,395 611,396 617,396 620,393 620,392 621,391 621,386 619,384 618,384 617,383" stroke="black" stroke-width="1" /><polyline fill="none" points="613,381 614,380 618,380 619,381 620,381 623,384 623,385 624,386 624,391 623,392 623,393 622,394 622,395 620,397 619,397 617,399 610,399 607,396 607,395 606,394 606,388 607,387 607,386 612,381" stroke="black" stroke-width="1" /><polyline fill="none" points="614,380 613,381 611,381 607,385 607,387 606,388 606,395 607,396 607,397 608,398 609,398 610,399 617,399 618,398 619,398 620,397 621,397 622,396 622,395 623,394 623,392 624,391 624,386 623,385 623,383 622,382 621,382 620,381 619,381 618,380" stroke="black" stroke-width="1" /><polyline fill="none" points="670,376 664,382 663,382 661,384 658,384 657,385 658,385 659,384 661,384 662,383 663,383" stroke="black" stroke-width="1" /><polyline fill="none" points="547,359 547,361 546,362 546,364 545,365 545,366 544,367 544,369 543,370 543,373 545,373 546,374 560,374 561,373 563,373 564,372 566,372 567,371 568,371 569,370 570,370 571,369 572,369 574,367 573,367 571,369 570,369 569,370 568,370 567,371 566,371 565,372 564,372 563,373 561,373 560,374 546,374 545,373 544,373 543,372 543,370 544,369 544,368 545,367 545,366 546,365 546,362 547,361 547,360 548,359 551,359 552,360 553,360 554,361 556,361 557,362 560,362 561,363 564,363 565,364 568,364 569,365 574,365 569,365 568,364 565,364 564,363 561,363 560,362 557,362 556,361 554,361 553,360 552,360 551,359" stroke="black" stroke-width="1" /><polyline fill="none" points="519,346 520,345 521,346 522,346 524,348 525,348 526,349 527,349 528,350 529,350 530,351 531,351 532,352 533,352 534,353 535,353 536,354 538,354 539,355 540,355 541,356 542,356 544,358 544,360 543,361 543,363 542,364 542,365 541,366 541,368 540,369 540,370 539,371 538,371 537,370 536,370 534,368 533,368 524,359 524,358 522,356 522,355 521,354 521,353 520,352 520,350 519,349" stroke="black" stroke-width="1" /><polyline fill="none" points="519,344 518,345 519,346 519,349 520,350 520,352 521,353 521,355 522,356 522,357 524,359 524,360 532,368 533,368 535,370 536,370 537,371 540,371 540,369 541,368 541,366 542,365 542,364 543,363 543,361 544,360 544,357 543,356 541,356 540,355 539,355 538,354 537,354 536,353 535,353 534,352 533,352 532,351 531,351 530,350 529,350 528,349 527,349 526,348 525,348 524,347 523,347 521,345 520,345" stroke="black" stroke-width="1" /><polyline fill="none" points="515,340 515,348 516,349 516,352 517,353 517,354 518,355 518,356 519,357 519,358 520,359 520,360 523,363 523,364 528,369 529,369 532,372 533,372 534,373 535,373 536,374 537,374 538,375 540,375 541,376 543,376 544,377 549,377 550,378 556,378 557,377 562,377 563,376 565,376 566,375 568,375 569,374 570,374 571,373 572,373 573,372 574,372 579,367 579,365 580,364 579,363 576,363 575,362 571,362 570,361 566,361 565,360 562,360 561,359 558,359 557,358 556,358 555,357 553,357 552,356 549,356 548,355 547,355 546,354 545,354 544,353 543,353 542,352 540,352 539,351 538,351 537,350 536,350 535,349 534,349 533,348 532,348 531,347 530,347 529,346 528,346 527,345 526,345 524,343 523,343 522,342 521,342 520,341 519,341 518,340 517,340 518,341 519,341 520,342 521,342 522,343 523,343 525,345 526,345 527,346 528,346 529,347 530,347 531,348 532,348 533,349 534,349 535,350 536,350 537,351 538,351 539,352 541,352 542,353 544,353 545,354 546,354 547,355 548,355 549,356 552,356 553,357 555,357 556,358 557,358 558,359 561,359 562,360 565,360 566,361 570,361 571,362 575,362 576,363 578,363 579,364 579,366 573,372 572,372 571,373 570,373 569,374 568,374 567,375 566,375 565,376 563,376 562,377 557,377 556,378 550,378 549,377 544,377 543,376 541,376 540,375 539,375 538,374 536,374 534,372 533,372 531,370 530,370 522,362 522,361 520,359 520,358 519,357 519,356 518,355 518,354 517,353 517,352 516,351 516,349 515,348" stroke="black" stroke-width="1" /><polyline fill="none" points="676,333 677,334 678,334 679,335 680,335 681,336 681,337 682,338 682,347 680,349 678,349 677,348 676,348 675,347 674,347 672,345 673,344 673,341 674,340 674,338 675,337 675,335 675,337 674,338 674,340 673,341 673,344 672,345 672,346 673,347 674,347 675,348 677,348 678,349 680,349 681,350 681,348 682,347 682,338 681,337 681,335 680,334 679,335 677,333" stroke="black" stroke-width="1" /><polyline fill="none" points="626,307 633,307 634,308 635,308 640,313 640,314 642,316 642,318 643,319 643,323 642,324 642,327 641,328 641,329 639,331 639,332 635,336 634,336 633,337 632,337 631,338 623,338 622,337 621,337 620,336 619,336 615,332 615,331 613,329 613,328 612,327 612,319 613,318 613,317 614,316 614,315 618,311 618,310 619,309 620,310 620,311 621,312 621,314 625,314 626,313 626,309 625,309 626,310 626,312 624,314 622,314 621,313 621,312 620,311 620,310 619,309 619,308 618,309 618,310 614,314 614,315 613,316 613,318 612,319 612,327 613,328 613,330 615,332 615,333 618,336 619,336 620,337 622,337 623,338 631,338 632,337 634,337 635,336 636,336 639,333 639,332 641,330 641,328 642,327 642,324 643,323 643,319 642,318 642,315 640,313 640,312 636,308 634,308 633,307" stroke="black" stroke-width="1" /><polyline fill="none" points="619,275 618,276 611,276 610,277 608,277 607,278 606,278 605,279 603,279 602,280 601,280 599,282 598,282 597,283 597,284 600,281 601,281 602,280 603,280 604,279 605,279 606,278 607,278 608,277 610,277 611,276 618,276 619,275 622,275 623,276 626,276 627,277 629,277 630,278 631,278 632,279 633,279 636,282 637,282 641,286 641,287 644,290 644,291 646,293 646,294 647,295 647,296 648,297 648,299 649,300 649,302 650,303 650,309 651,310 651,318 650,319 650,325 650,319 651,318 651,310 650,309 650,303 649,302 649,300 648,299 648,296 647,295 647,294 646,293 646,292 644,290 644,289 641,286 641,285 638,282 637,282 634,279 633,279 632,278 630,278 629,277 627,277 626,276 623,276 622,275" stroke="black" stroke-width="1" /><polyline fill="none" points="530,271 531,270 532,271 531,272" stroke="black" stroke-width="1" /><polyline fill="none" points="534,270 534,271 535,270" stroke="black" stroke-width="1" /><polyline fill="none" points="616,268 617,267 618,267 619,268 626,268 627,269 629,269 630,270 631,270 632,271 633,271 634,272 635,272 638,275 639,275 648,284 648,285 649,286 649,287 650,288 650,289 651,290 651,291 652,292 652,293 653,294 653,296 654,297 654,299 655,300 655,305 656,306 656,317 655,318 655,322 654,323 654,326 653,327 653,330 652,331 652,332 651,333 651,334 650,335 650,336 649,337 649,338 648,339 648,340 646,342 646,343 643,346 643,347 635,355 634,355 632,357 631,357 629,359 628,359 627,360 626,360 625,361 624,361 623,362 621,362 620,363 618,363 617,364 606,364 605,363 602,363 600,361 599,361 598,360 597,360 590,353 590,352 588,350 588,349 586,347 586,346 585,345 585,344 584,343 584,342 583,341 583,340 582,339 582,337 581,336 581,332 580,331 580,313 581,312 581,308 582,307 582,304 583,303 583,301 584,300 584,298 585,297 585,296 586,295 586,294 588,292 588,291 589,290 589,289 591,287 591,286 592,285 592,284 594,282 594,281 601,274 602,274 605,271 606,271 608,269 610,269 611,268" stroke="black" stroke-width="1" /><polyline fill="none" points="617,267 616,268 611,268 610,269 608,269 607,270 606,270 605,271 604,271 601,274 600,274 594,280 594,281 592,283 592,284 591,285 591,286 589,288 589,289 588,290 588,291 586,293 586,294 585,295 585,297 584,298 584,300 583,301 583,303 582,304 582,307 581,308 581,312 580,313 580,331 581,332 581,336 582,337 582,339 583,340 583,342 584,343 584,344 585,345 585,346 586,347 586,348 588,350 588,351 590,353 590,354 596,360 597,360 598,361 599,361 600,362 601,362 602,363 605,363 606,364 617,364 618,363 620,363 621,362 623,362 624,361 626,361 627,360 628,360 629,359 630,359 632,357 633,357 635,355 636,355 643,348 643,347 646,344 646,343 648,341 648,340 649,339 649,338 650,337 650,336 651,335 651,334 652,333 652,331 653,330 653,327 654,326 654,323 655,322 655,318 656,317 656,306 655,305 655,300 654,299 654,297 653,296 653,294 652,293 652,291 651,290 651,289 650,288 650,287 649,286 649,285 648,284 648,283 640,275 639,275 636,272 635,272 634,271 633,271 632,270 630,270 629,269 627,269 626,268 619,268 618,267" stroke="black" stroke-width="1" /><polyline fill="none" points="534,267 533,268 534,267 535,267" stroke="black" stroke-width="1" /><polyline fill="none" points="621,261 620,262 618,262 617,263 615,263 614,264 612,264 611,265 609,265 608,266 607,266 606,267 605,267 603,269 602,269 600,271 599,271 595,275 599,271 600,271 602,269 603,269 604,268 605,268 606,267 607,267 608,266 609,266 610,265 612,265 613,264 614,264 615,263 617,263 618,262 620,262 621,261 635,261 636,262 638,262 639,263 640,263 641,264 642,264 644,266 645,266 650,271 651,271 653,273 653,274 656,277 656,278 658,280 658,281 660,283 660,285 661,286 661,287 662,288 662,289 663,290 663,291 664,292 664,294 665,295 665,298 666,299 666,305 667,306 667,322 666,323 666,326 665,327 665,329 664,330 664,332 663,333 663,335 662,336 662,337 660,339 660,340 658,342 658,343 656,345 656,346 649,353 649,354 648,355 647,355 642,360 641,360 639,362 638,362 637,363 636,363 635,364 634,364 633,365 632,365 631,366 630,366 629,367 628,367 627,368 623,368 622,369 610,369 609,368 607,368 606,367 604,367 603,366 601,366 600,365 599,365 598,364 597,364 595,362 594,362 586,354 586,353 586,354 595,363 596,363 598,365 600,365 601,366 602,366 603,367 606,367 607,368 609,368 610,369 622,369 623,368 627,368 628,367 630,367 631,366 632,366 633,365 634,365 635,364 636,364 637,363 638,363 639,362 640,362 642,360 643,360 656,347 656,346 658,344 658,343 660,341 660,340 662,338 662,336 663,335 663,333 664,332 664,330 665,329 665,327 666,326 666,323 667,322 667,306 666,305 666,299 665,298 665,295 664,294 664,292 663,291 663,290 662,289 662,287 661,286 661,285 660,284 660,282 658,280 658,279 656,277 656,276 653,273 653,272 652,271 651,271 646,266 645,266 643,264 641,264 640,263 639,263 638,262 636,262 635,261" stroke="black" stroke-width="1" /><polyline fill="none" points="439,253 440,252 442,252 444,254 445,254 446,255 445,256 442,256 441,255 440,256 439,256 437,258 437,260 436,261 436,263 435,264 435,270 436,271 440,271 441,270 443,272 442,273 441,273 440,274 435,274 432,271 432,264 433,263 433,261 434,260 434,258 436,256 436,255 438,253" stroke="black" stroke-width="1" /><polyline fill="none" points="440,252 439,253 438,253 437,254 436,254 436,255 435,256 435,257 434,258 434,260 433,261 433,263 432,264 432,272 434,274 441,274 442,273 443,273 443,272 441,270 440,271 437,271 435,269 435,264 436,263 436,261 437,260 437,259 441,255 442,256 445,256 446,255 446,254 445,254 444,253 443,253 442,252" stroke="black" stroke-width="1" /><polyline fill="none" points="372,234 373,235 373,236 376,239 376,240 377,241 377,245 378,246 378,247 377,248 377,252 376,253 376,254 375,255 375,256 368,263 367,263 366,264 358,264 356,262 355,262 354,261 353,261 354,262 355,262 357,264 366,264 367,263 369,263 375,257 375,256 376,255 376,254 377,253 377,248 378,247 378,246 377,245 377,241 376,240 376,238" stroke="black" stroke-width="1" /><polyline fill="none" points="361,232 362,231 368,231 369,232 370,232 371,231 372,231 373,232 374,232 375,233 376,233 380,237 380,238 382,240 382,242 383,243 383,249 382,250 382,254 381,255 381,256 380,257 380,258 379,259 379,260 372,267 371,267 370,268 368,268 367,269 360,269 359,268 358,268 356,266 355,266 351,262 351,261 349,259 349,252 350,251 350,244 351,243 351,242 352,241 352,240 353,239 353,238 357,234 358,234 360,232" stroke="black" stroke-width="1" /><polyline fill="none" points="362,231 361,232 359,232 357,234 356,234 353,237 353,238 352,239 352,240 351,241 351,243 350,244 350,251 349,252 349,259 350,260 350,261 352,263 352,264 353,265 354,265 357,268 359,268 360,269 367,269 368,268 371,268 372,267 373,267 379,261 379,260 380,259 380,258 381,257 381,255 382,254 382,250 383,249 383,243 382,242 382,239 380,237 380,236 377,233 376,233 375,232 374,232 373,231 371,231 370,232 369,232 368,231" stroke="black" stroke-width="1" /><polyline fill="none" points="395,229 396,230 402,230 403,231 411,231 414,234 414,248 413,249 410,249 409,248 404,248 403,247 399,247 398,246 396,246 393,243 393,231" stroke="black" stroke-width="1" /><polyline fill="none" points="394,229 393,230 393,243 394,244 394,245 395,246 398,246 399,247 403,247 404,248 409,248 410,249 412,249 413,250 414,249 414,234 413,233 413,232 412,231 403,231 402,230 396,230 395,229" stroke="black" stroke-width="1" /><polyline fill="none" points="507,224 506,225 503,225 502,226 500,226 499,227 498,227 497,228 496,228 495,229 494,229 493,230 492,230 490,232 489,232 487,234 486,234 481,239 481,240 476,245 476,246 474,248 474,249 473,250 473,251 471,253 471,255 470,256 470,258 469,259 469,261 468,262 468,264 467,265 467,268 466,269 466,289 467,290 467,293 468,294 468,296 469,297 469,300 470,301 470,302 471,303 471,304 473,306 473,307 474,308 474,309 477,312 477,313 481,317 482,317 484,319 485,319 487,321 488,321 489,322 491,322 492,323 493,323 494,324 496,324 497,325 502,325 503,326 512,326 513,325 517,325 518,324 521,324 522,323 523,323 524,322 526,322 527,321 528,321 529,320 530,320 531,319 532,319 534,317 535,317 546,306 546,305 549,302 549,301 552,298 552,296 554,294 554,293 556,291 556,289 557,288 557,285 557,288 556,289 556,291 554,293 554,294 553,295 552,295 551,294 551,293 553,291 553,289 554,288 554,285 555,284 555,279 554,278 554,275 552,273 552,272 551,271 550,271 548,269 547,269 546,268 544,268 543,267 537,267 543,267 544,268 545,268 546,269 547,269 549,271 550,271 552,273 552,274 554,276 554,278 555,279 555,284 554,285 554,288 553,289 553,290 551,292 551,293 546,298 545,298 544,299 541,299 540,300 538,300 537,299 534,299 532,297 531,297 527,293 527,292 525,290 525,288 524,287 524,281 525,280 525,278 526,277 526,276 528,274 528,273 530,271 532,273 532,274 533,275 537,275 539,273 539,272 538,271 538,269 537,269 538,270 538,271 539,272 536,275 534,275 532,273 532,271 531,270 530,270 528,272 528,273 526,275 526,276 525,277 525,280 524,281 524,287 525,288 525,291 527,293 527,294 530,297 531,297 532,298 533,298 534,299 537,299 538,300 540,300 541,299 544,299 545,298 547,298 551,294 552,295 552,297 549,300 549,301 546,304 546,305 534,317 533,317 531,319 530,319 529,320 528,320 527,321 526,321 525,322 524,322 523,323 522,323 521,324 518,324 517,325 513,325 512,326 503,326 502,325 497,325 496,324 494,324 493,323 492,323 491,322 490,322 489,321 488,321 487,320 486,320 483,317 482,317 477,312 477,311 474,308 474,307 473,306 473,305 471,303 471,302 470,301 470,300 469,299 469,297 468,296 468,294 467,293 467,290 466,289 466,269 467,268 467,265 468,264 468,262 469,261 469,259 470,258 470,256 471,255 471,254 473,252 473,251 474,250 474,249 476,247 476,246 481,241 481,240 487,234 488,234 490,232 491,232 493,230 494,230 495,229 496,229 498,227 499,227 500,226 502,226 503,225 506,225 507,224 523,224 524,225 527,225 528,226 530,226 532,228 534,228 536,230 537,230 538,231 539,231 543,235 544,235 547,238 547,239 550,242 550,243 552,245 552,246 553,247 553,248 554,249 554,250 555,251 555,252 556,253 556,255 557,256 557,260 558,261 558,283 558,261 557,260 557,256 556,255 556,253 555,252 555,250 554,249 554,248 553,247 553,246 552,245 552,244 550,242 550,241 547,238 547,237 545,235 544,235 540,231 539,231 538,230 537,230 535,228 533,228 532,227 531,227 530,226 528,226 527,225 524,225 523,224" stroke="black" stroke-width="1" /><polyline fill="none" points="515,218 514,219 511,219 510,220 507,220 506,221 504,221 503,222 501,222 500,223 498,223 496,225 495,225 494,226 493,226 492,227 491,227 489,229 488,229 486,231 485,231 477,239 477,240 473,244 473,245 471,247 471,248 470,249 471,248 471,247 473,245 473,244 477,240 477,239 484,232 485,232 488,229 489,229 491,227 492,227 493,226 494,226 495,225 496,225 497,224 498,224 499,223 501,223 502,222 504,222 505,221 506,221 507,220 510,220 511,219 514,219 515,218 531,218 532,219 535,219 536,220 538,220 539,221 540,221 541,222 542,222 543,223 544,223 546,225 547,225 551,229 552,229 555,232 555,233 559,237 559,238 561,240 561,241 562,242 562,243 563,244 563,245 564,246 564,247 565,248 565,250 566,251 566,254 567,255 567,259 568,260 568,279 567,280 567,283 566,284 566,287 565,288 565,290 564,291 564,292 563,293 563,294 562,295 562,296 561,297 561,298 560,299 560,300 558,302 558,303 557,304 557,305 553,309 553,310 550,313 549,313 542,320 541,320 540,321 539,321 537,323 536,323 534,325 533,325 532,326 531,326 530,327 529,327 528,328 527,328 526,329 522,329 521,330 502,330 501,329 498,329 497,328 495,328 494,327 493,327 492,326 491,326 490,325 488,325 487,324 486,324 484,322 483,322 482,321 483,322 484,322 486,324 487,324 488,325 489,325 490,326 491,326 492,327 494,327 495,328 497,328 498,329 501,329 502,330 521,330 522,329 526,329 527,328 528,328 529,327 531,327 532,326 533,326 534,325 535,325 537,323 538,323 540,321 541,321 542,320 543,320 550,313 551,313 553,311 553,310 556,307 556,306 558,304 558,303 560,301 560,300 561,299 561,298 562,297 562,296 563,295 563,293 565,291 565,288 566,287 566,284 567,283 567,280 568,279 568,260 567,259 567,255 566,254 566,251 565,250 565,248 564,247 564,245 563,244 563,243 562,242 562,241 561,240 561,239 559,237 559,236 555,232 555,231 553,229 552,229 548,225 547,225 546,224 545,224 543,222 541,222 540,221 539,221 538,220 536,220 535,219 532,219 531,218" stroke="black" stroke-width="1" /><polyline fill="none" points="370,205 369,206 369,208 368,209 368,213 367,214 367,220 366,221 366,223 365,224 365,225 364,226 364,227 365,228 371,228 372,229 373,229 373,227 374,226 374,223 375,222 375,220 376,219 376,216 377,215 377,209 377,215 376,216 376,219 375,220 375,222 374,223 374,226 373,227 373,228 372,229 371,228 365,228 364,227 364,226 365,225 365,224 366,223 366,221 367,220 367,214 368,213 368,209 369,208 369,206 370,205 371,205 372,206 376,206 377,207 378,207 377,206 372,206 371,205" stroke="black" stroke-width="1" /><polyline fill="none" points="370,201 369,202 371,202 372,203 377,203 378,204 379,204 378,204 377,203 373,203 372,202 371,202" stroke="black" stroke-width="1" /><polyline fill="none" points="455,180 454,181 454,184 453,185 453,186 452,187 452,189 451,190 451,191 450,192 450,194 449,195 449,197 448,198 448,200 447,201 447,203 446,204 446,206 445,207 445,209 444,210 444,212 443,213 443,215 442,216 442,218 441,219 441,222 440,223 440,225 439,226 439,228 438,229 438,232 437,233 437,235 436,236 436,239 435,240 435,241 434,242 434,245 433,246 433,248 432,249 432,251 431,252 431,255 430,256 430,259 429,260 429,263 428,264 428,266 427,267 427,269 426,270 426,272 425,273 425,275 424,276 424,278 423,279 423,281 422,282 422,285 421,286 421,288 420,289 420,291 419,292 419,295 418,296 418,297 417,298 417,301 416,302 416,305 415,306 415,308 414,309 414,311 413,312 413,314 412,315 412,317 411,318 411,321 410,322 410,325 409,326 409,328 408,329 408,331 407,332 407,335 406,336 406,338 405,339 405,340 406,341 406,342 407,342 408,343 410,343 411,344 412,344 413,345 415,345 416,346 417,346 418,347 420,347 421,348 423,348 424,349 425,349 426,350 427,350 428,351 430,351 431,352 433,352 434,353 435,353 436,354 437,354 438,355 441,355 442,356 443,356 444,357 446,357 447,358 448,358 449,359 451,359 452,360 454,360 455,361 457,361 458,362 459,362 460,363 462,363 463,364 465,364 466,365 467,365 468,366 470,366 471,367 472,367 473,368 476,368 477,369 478,369 479,370 481,370 482,371 483,371 484,372 486,372 487,373 489,373 490,374 491,374 492,375 494,375 495,376 497,376 498,377 500,377 501,378 502,378 503,379 505,379 506,380 508,380 509,381 510,381 511,382 512,382 513,383 516,383 517,384 518,384 519,385 521,385 522,386 524,386 525,387 526,387 527,388 529,388 530,389 532,389 533,390 536,390 537,391 539,391 540,392 542,392 543,393 546,393 547,394 549,394 550,395 552,395 553,396 555,396 556,397 558,397 559,398 562,398 563,399 565,399 566,400 568,400 569,401 573,401 574,402 577,402 578,403 580,403 581,404 583,404 584,405 588,405 589,406 592,406 593,407 595,407 596,408 599,408 600,409 603,409 604,410 607,410 608,411 612,411 613,412 616,412 617,413 622,413 623,414 626,414 627,415 632,415 633,416 636,416 637,417 640,417 641,416 641,413 642,412 642,411 643,410 643,409 644,408 644,406 646,404 646,402 647,401 647,400 648,399 648,397 649,396 649,394 650,393 650,392 651,391 651,390 652,389 652,388 655,385 655,382 656,381 656,380 657,379 657,378 658,377 658,375 659,374 659,372 660,371 660,370 661,369 661,367 662,366 662,365 663,364 663,362 664,361 664,359 665,358 665,357 666,356 666,354 667,353 667,351 668,350 668,347 669,346 669,343 670,342 670,340 671,339 671,337 672,336 672,334 673,333 673,332 674,331 674,330 675,329 675,327 676,326 676,324 675,323 676,322 676,318 677,317 677,314 678,313 678,310 679,309 679,306 680,305 680,301 681,300 681,296 682,295 682,288 683,287 683,283 681,281 681,280 670,269 670,268 649,247 648,247 643,242 642,242 636,236 635,236 633,234 632,234 630,232 629,232 626,229 625,229 623,227 622,227 621,226 620,226 618,224 617,224 616,223 615,223 613,221 612,221 611,220 610,220 609,219 608,219 607,218 606,218 605,217 603,217 602,216 601,216 600,215 599,215 598,214 596,214 595,213 593,213 592,212 589,212 589,220 590,221 590,224 591,225 593,225 594,226 596,226 598,228 599,228 600,229 601,229 602,230 603,230 604,231 605,231 606,232 607,232 608,233 609,233 611,235 612,235 613,236 614,236 616,238 617,238 618,239 619,239 621,241 622,241 625,244 626,244 629,247 630,247 634,251 635,251 651,267 652,267 653,268 636,251 635,251 631,247 630,247 627,244 626,244 623,241 622,241 620,239 619,239 618,238 617,238 615,236 614,236 613,235 612,235 610,233 609,233 608,232 607,232 606,231 605,231 604,230 603,230 602,229 601,229 600,228 599,228 598,227 597,227 596,226 594,226 593,225 592,225 590,223 590,221 589,220 589,213 590,212 592,212 593,213 595,213 596,214 597,214 598,215 599,215 600,216 602,216 603,217 604,217 605,218 606,218 607,219 608,219 609,220 610,220 611,221 612,221 614,223 615,223 616,224 617,224 619,226 620,226 621,227 622,227 624,229 625,229 628,232 629,232 631,234 632,234 634,236 635,236 641,242 642,242 647,247 648,247 670,269 670,270 681,281 681,282 682,282 683,283 683,287 682,288 682,295 681,296 681,300 680,301 680,305 679,306 679,309 678,310 678,313 677,314 677,317 676,318 676,322 675,323 675,329 674,330 674,331 673,332 673,333 672,334 672,336 671,337 671,339 670,340 670,342 669,343 669,346 668,347 668,350 667,351 667,353 666,354 666,356 665,357 665,358 664,359 664,361 663,362 663,364 662,365 662,366 661,367 661,369 660,370 660,371 659,372 659,374 658,375 658,376 657,377 657,378 656,379 656,381 655,382 655,384 652,387 652,388 651,389 651,391 650,392 650,393 649,394 649,396 648,397 648,398 647,399 647,400 646,401 646,403 645,404 645,405 644,406 644,408 643,409 643,410 642,411 642,412 641,413 641,415 639,417 637,417 636,416 634,416 633,415 633,413 634,412 634,411 635,410 635,408 636,407 636,406 637,405 637,404 638,403 638,402 639,401 639,399 640,398 640,396 641,395 641,394 642,393 642,391 643,390 643,389 644,388 644,387 645,386 645,385 646,384 646,383 647,382 647,380 648,379 648,377 649,376 649,375 650,374 650,373 651,372 651,371 652,370 652,368 653,367 653,365 654,364 654,363 655,362 655,360 656,359 656,358 657,357 657,355 658,354 658,352 659,351 659,349 660,348 660,346 661,345 661,343 661,345 660,346 660,348 659,349 659,351 658,352 658,353 657,354 657,357 656,358 656,359 655,360 655,362 654,363 654,364 653,365 653,366 652,367 652,369 651,370 651,372 650,373 650,374 649,375 649,376 648,377 648,379 647,380 647,381 646,382 646,383 645,384 645,385 644,386 644,387 643,388 643,390 642,391 642,393 641,394 641,395 640,396 640,398 639,399 639,400 638,401 638,402 637,403 637,404 636,405 636,407 635,408 635,409 634,410 634,411 633,412 633,414 632,415 627,415 626,414 623,414 622,413 617,413 616,412 613,412 612,411 608,411 607,410 604,410 603,409 600,409 599,408 596,408 595,407 593,407 592,406 589,406 588,405 584,405 583,404 581,404 580,403 578,403 577,402 574,402 573,401 569,401 568,400 566,400 565,399 563,399 562,398 559,398 558,397 556,397 555,396 553,396 552,395 550,395 549,394 547,394 546,393 543,393 542,392 540,392 539,391 537,391 536,390 533,390 532,389 530,389 529,388 527,388 526,387 525,387 524,386 522,386 521,385 519,385 518,384 517,384 516,383 514,383 513,382 512,382 511,381 509,381 508,380 506,380 505,379 503,379 502,378 501,378 500,377 498,377 497,376 495,376 494,375 492,375 491,374 490,374 489,373 487,373 486,372 484,372 483,371 482,371 481,370 480,370 479,369 477,369 476,368 473,368 472,367 471,367 470,366 469,366 468,365 466,365 465,364 463,364 462,363 460,363 459,362 458,362 457,361 455,361 454,360 452,360 451,359 449,359 448,358 447,358 446,357 445,357 444,356 442,356 441,355 439,355 438,354 436,354 435,353 434,353 433,352 431,352 430,351 428,351 427,350 426,350 425,349 424,349 423,348 421,348 420,347 418,347 417,346 416,346 415,345 413,345 411,343 408,343 405,340 405,339 406,338 406,336 407,335 407,332 408,331 408,329 409,328 409,326 410,325 410,322 411,321 411,318 412,317 412,315 413,314 413,312 414,311 414,309 415,308 415,306 416,305 416,302 417,301 417,298 418,297 418,296 419,295 419,292 420,291 420,289 421,288 421,286 422,285 422,282 423,281 423,279 424,278 424,276 425,275 425,273 426,272 426,270 427,269 427,267 428,266 428,264 429,263 429,260 430,259 430,256 431,255 431,252 432,251 432,249 433,248 433,246 434,245 434,242 435,241 435,240 436,239 436,236 437,235 437,233 438,232 438,229 439,228 439,226 440,225 440,223 441,222 441,219 442,218 442,216 443,215 443,213 444,212 444,210 445,209 445,207 446,206 446,204 447,203 447,201 448,200 448,198 449,197 449,195 450,194 450,192 451,191 451,190 452,189 452,187 453,186 453,185 454,184 454,182 456,180 457,180" stroke="black" stroke-width="1" /><polyline fill="none" points="374,180 378,180 379,181 382,181 384,183 383,184 383,187 382,188 382,191 381,192 381,195 380,196 380,199 379,200 379,202 379,200 380,199 380,196 381,195 381,192 382,191 382,188 383,187 383,184 384,183 382,181 379,181 378,180" stroke="black" stroke-width="1" /><polyline fill="none" points="479,179 480,179 481,180 487,180 488,181 498,181 499,182 503,182 504,183 508,183 509,184 515,184 516,185 521,185 522,186 524,186 525,187 524,186 522,186 521,185 516,185 515,184 509,184 508,183 504,183 503,182 499,182 498,181 488,181 487,180 481,180 480,179" stroke="black" stroke-width="1" /><polyline fill="none" points="377,177 378,177 379,178 382,178 380,178 379,177" stroke="black" stroke-width="1" /><polyline fill="none" points="539,168 540,167 542,167 543,168 547,168 548,169 551,169 552,170 554,170 555,171 557,171 558,172 560,172 561,173 563,173 564,174 566,174 567,175 568,175 569,176 570,176 571,177 572,177 574,179 575,179 578,182 578,183 579,184 579,185 576,188 575,187 572,187 571,186 570,186 569,185 567,185 566,184 564,184 563,183 562,183 561,182 559,182 558,181 556,181 555,180 553,180 552,179 549,179 548,178 545,178 544,177 541,177 539,175 538,175 535,172 535,171 538,168" stroke="black" stroke-width="1" /><polyline fill="none" points="540,167 539,168 537,168 535,170 535,172 536,173 536,174 537,175 538,175 539,176 540,176 541,177 544,177 545,178 548,178 549,179 552,179 553,180 555,180 556,181 557,181 558,182 561,182 562,183 563,183 564,184 566,184 567,185 569,185 570,186 571,186 572,187 575,187 576,188 577,187 578,187 578,186 579,185 579,183 578,182 578,181 576,179 575,179 573,177 572,177 571,176 570,176 569,175 567,175 566,174 564,174 563,173 561,173 560,172 558,172 557,171 555,171 554,170 552,170 551,169 548,169 547,168 543,168 542,167" stroke="black" stroke-width="1" /><polyline fill="none" points="381,155 382,156 382,159 381,160 381,163 380,164 380,168 379,169 379,172 378,173 378,175 378,173 379,172 379,169 380,168 380,164 381,163 381,160 382,159 382,156 383,155 384,155 385,156 386,156 385,156 384,155" stroke="black" stroke-width="1" /><polyline fill="none" points="382,152 383,152 384,153 385,152 386,153 387,153 386,153 385,152" stroke="black" stroke-width="1" /><polyline fill="none" points="401,99 402,98 406,102 406,103 407,104 407,107 404,110 403,110 402,109 401,109 399,107 399,106 398,105 398,102 399,101 399,100 400,99" stroke="black" stroke-width="1" /><polyline fill="none" points="402,98 401,99 399,99 399,101 398,102 398,105 399,106 399,108 400,109 401,109 402,110 405,110 406,109 406,108 407,107 407,103 406,102 406,101 403,98" stroke="black" stroke-width="1" /><polyline fill="none" points="391,94 390,95 387,95 385,97 384,97 380,101 380,102 379,103 379,104 378,105 378,107 377,108 377,110 378,111 378,114 379,115 379,116 383,120 384,120 385,121 386,121 388,123 387,124 388,123 391,123 392,124 395,124 396,123 400,123 401,122 402,122 406,118 406,117 408,115 408,111 408,115 405,118 405,119 403,121 402,121 400,123 396,123 395,124 392,124 391,123 388,123 386,121 385,121 383,119 382,119 380,117 380,116 378,114 378,111 377,110 377,108 378,107 378,105 379,104 379,103 381,101 381,100 383,98 384,98 387,95 390,95 391,94 396,94 397,95 398,95 397,95 396,94" stroke="black" stroke-width="1" /><polyline fill="none" points="391,91 390,92 387,92 386,93 384,93 383,94 382,94 378,98 378,99 376,101 376,103 375,104 375,107 374,108 374,110 375,111 375,114 376,115 376,117 377,118 377,119 380,122 381,122 382,123 383,123 385,125 385,129 384,130 384,133 383,134 383,138 382,139 382,143 381,144 381,148 380,149 380,151 379,152 379,156 378,157 378,161 377,162 377,166 376,167 376,170 375,171 375,175 373,177 371,177 371,182 370,183 370,187 369,188 369,191 368,192 368,197 367,198 367,201 366,202 366,206 365,207 365,211 364,212 364,217 363,218 363,221 359,225 358,225 355,228 355,229 351,233 351,234 350,235 350,237 349,238 349,239 348,240 348,242 347,243 347,252 346,253 346,271 347,272 347,275 348,276 348,277 349,278 349,280 350,281 350,282 357,289 358,289 359,290 359,293 358,294 358,297 357,298 357,301 356,302 356,306 355,307 355,310 354,311 354,314 353,315 353,318 352,319 352,320 353,321 353,322 354,323 355,323 356,324 357,324 358,325 359,325 360,326 361,326 362,327 364,327 365,328 366,328 367,329 368,329 369,330 370,330 371,331 373,331 374,332 375,332 376,333 377,333 378,334 380,334 381,335 382,335 383,336 384,336 385,337 386,337 387,338 389,338 390,339 391,339 392,340 394,340 395,341 396,341 397,342 399,342 400,343 401,343 402,344 403,344 404,345 405,345 406,346 408,346 409,347 410,347 411,348 412,348 413,349 415,349 416,350 417,350 418,351 420,351 421,352 422,352 423,353 424,353 425,354 427,354 428,355 429,355 430,356 432,356 433,357 434,357 435,358 436,358 437,359 439,359 440,360 441,360 442,361 443,361 444,362 446,362 447,363 449,363 451,365 453,365 454,366 456,366 457,367 458,367 460,369 461,369 462,370 461,371 461,375 460,376 460,379 459,380 459,384 458,385 458,388 457,389 442,389 441,388 421,388 420,387 390,387 389,386 386,386 385,387 384,387 384,388 383,389 383,392 382,393 381,393 380,394 379,394 378,395 376,395 375,396 374,396 372,398 371,398 364,405 364,406 362,408 362,409 361,410 361,411 360,412 360,414 359,415 359,417 358,418 358,424 357,425 357,430 358,431 357,432 357,433 354,436 353,436 344,445 343,445 331,457 330,457 322,465 320,465 318,463 317,463 316,462 311,462 310,463 309,463 308,464 307,464 305,466 304,466 303,467 302,467 301,468 300,468 298,470 297,470 295,472 294,472 293,473 292,473 290,475 289,475 287,477 286,477 284,479 283,479 281,481 281,483 280,484 285,489 283,491 282,491 279,494 279,495 277,497 277,499 276,500 276,502 275,503 275,511 276,512 276,514 277,515 277,517 278,518 278,519 280,521 280,522 284,526 285,526 287,528 288,528 289,529 291,529 292,530 295,530 296,531 301,531 302,530 305,530 306,529 308,529 309,528 310,528 315,523 316,524 316,525 317,526 317,527 318,527 319,528 324,528 325,527 326,527 336,517 336,516 343,509 343,508 347,504 347,503 348,502 348,500 349,499 349,496 348,495 348,493 345,490 345,489 343,487 343,486 358,471 359,472 358,471 360,469 361,469 372,458 373,458 375,460 376,460 377,461 378,461 379,462 380,462 381,463 383,463 384,464 386,464 387,465 401,465 402,464 405,464 406,463 408,463 410,461 411,461 413,459 414,459 421,452 421,451 423,449 423,448 424,447 424,445 425,444 425,443 426,442 426,440 427,439 427,437 428,436 428,422 427,421 427,418 426,417 426,415 425,414 425,412 424,411 424,409 423,408 423,407 419,403 419,402 417,400 416,400 412,396 411,396 410,395 409,395 408,394 407,394 406,393 404,393 403,392 400,392 399,391 388,391 387,392 386,392 387,392 388,391 399,391 400,392 403,392 404,393 405,393 406,394 407,394 408,395 409,395 410,396 411,396 415,400 416,400 421,405 421,406 423,408 423,409 424,410 424,411 425,412 425,414 426,415 426,417 427,418 427,421 428,422 428,436 427,437 427,439 426,440 426,442 425,443 425,444 424,445 424,446 423,447 423,448 421,450 421,451 413,459 412,459 410,461 409,461 407,463 406,463 405,464 402,464 401,465 387,465 386,464 384,464 383,463 381,463 379,461 378,461 377,460 376,460 374,458 371,458 366,463 365,462 365,461 364,460 364,459 362,457 362,456 359,453 359,452 350,443 350,444 359,453 359,454 362,457 362,458 365,461 365,462 366,463 360,469 359,469 342,486 343,487 343,488 346,491 346,492 348,494 348,495 349,496 349,499 348,500 348,501 347,502 347,503 343,507 343,508 336,515 336,516 325,527 324,527 323,528 320,528 319,527 318,527 317,526 317,525 315,523 315,521 316,520 314,518 314,519 315,520 315,522 309,528 308,528 307,529 306,529 305,530 302,530 301,531 296,531 295,530 292,530 291,529 290,529 289,528 288,528 286,526 285,526 280,521 280,520 278,518 278,517 277,516 277,515 276,514 276,512 275,511 275,503 276,502 276,500 277,499 277,498 279,496 279,495 283,491 284,491 285,490 287,490 288,491 289,491 294,496 295,496 302,503 303,503 307,507 307,508 315,516 316,516 314,514 313,514 312,513 312,512 307,507 307,506 304,503 303,503 296,496 295,496 290,491 289,491 288,490 287,490 286,489 285,489 284,488 284,487 281,484 281,482 284,479 285,479 287,477 288,477 290,475 291,475 293,473 294,473 295,472 296,472 298,470 299,470 301,468 302,468 303,467 304,467 305,466 306,466 308,464 309,464 311,462 315,462 316,463 317,463 319,465 321,465 323,467 322,468 324,470 325,470 331,476 323,484 322,484 315,491 314,491 309,496 308,496 306,498 305,498 304,499 305,500 304,501 305,500 305,499 306,498 307,498 309,496 310,496 316,490 317,490 323,484 324,484 329,479 329,478 330,477 333,480 333,481 337,485 337,486 339,488 339,489 344,494 344,495 346,497 346,498 345,499 345,500 343,502 343,503 337,509 337,510 322,525 321,525 319,523 321,525 322,525 323,524 324,524 333,515 333,514 340,507 340,506 344,502 344,501 345,500 345,499 346,498 346,497 345,496 345,495 343,493 343,492 338,487 338,486 337,485 337,484 333,480 333,479 331,477 331,475 326,470 325,470 323,468 323,467 322,466 331,457 332,457 344,445 345,445 354,436 355,436 357,434 357,432 358,431 357,430 357,425 358,424 358,418 359,417 359,415 360,414 360,413 361,412 361,411 362,410 362,409 364,407 364,406 372,398 373,398 375,396 376,396 377,395 378,395 379,394 381,394 382,393 383,393 383,389 386,386 389,386 390,387 420,387 421,388 441,388 442,389 455,389 456,390 458,388 458,385 459,384 459,380 460,379 460,376 461,375 461,371 462,370 463,370 464,369 465,370 466,370 467,371 469,371 470,372 472,372 473,373 475,373 476,374 478,374 479,375 480,375 481,376 483,376 484,377 486,377 487,378 488,378 489,379 491,379 492,380 494,380 495,381 497,381 498,382 499,382 500,383 502,383 503,384 505,384 506,385 507,385 508,386 510,386 511,387 513,387 514,388 515,388 514,387 511,387 510,386 508,386 507,385 506,385 505,384 503,384 502,383 500,383 499,382 498,382 497,381 495,381 494,380 492,380 491,379 489,379 488,378 487,378 486,377 484,377 483,376 481,376 480,375 479,375 478,374 476,374 475,373 473,373 472,372 470,372 469,371 468,371 467,370 466,370 465,369 463,369 462,370 459,367 457,367 456,366 455,366 454,365 452,365 451,364 450,364 449,363 448,363 447,362 445,362 444,361 442,361 441,360 440,360 439,359 437,359 436,358 435,358 434,357 433,357 432,356 431,356 430,355 428,355 427,354 426,354 425,353 424,353 423,352 421,352 420,351 418,351 417,350 416,350 415,349 414,349 413,348 411,348 410,347 409,347 408,346 406,346 404,344 403,344 402,343 400,343 399,342 397,342 396,341 395,341 394,340 392,340 391,339 390,339 389,338 388,338 387,337 386,337 385,336 384,336 383,335 381,335 380,334 379,334 378,333 377,333 376,332 374,332 373,331 372,331 371,330 370,330 369,329 368,329 367,328 366,328 365,327 363,327 362,326 361,326 360,325 359,325 358,324 357,324 356,323 355,323 352,320 352,319 353,318 353,315 354,314 354,311 355,310 355,307 356,306 356,302 357,301 357,298 358,297 358,294 359,293 359,291 360,290 361,291 364,291 365,292 366,292 367,293 369,293 370,294 372,294 373,295 375,295 376,296 378,296 379,297 381,297 382,298 388,298 389,297 391,297 393,295 394,295 396,293 397,293 402,288 402,287 405,284 405,283 407,281 407,280 408,279 408,278 410,276 410,274 411,273 411,272 412,271 412,269 413,268 413,267 414,266 414,264 415,263 415,260 416,259 416,254 417,253 417,234 416,233 416,231 415,230 415,229 414,228 414,226 412,224 412,223 408,219 407,219 406,218 404,218 403,217 400,217 399,216 396,216 395,215 391,215 390,214 387,214 390,214 391,215 395,215 396,216 399,216 400,217 403,217 404,218 406,218 413,225 413,226 414,227 414,228 415,229 415,230 416,231 416,233 417,234 417,253 416,254 416,259 415,260 415,263 414,264 414,266 413,267 413,268 412,269 412,270 411,271 411,272 410,273 410,275 408,277 408,278 407,279 407,280 405,282 405,283 402,286 402,287 396,293 395,293 393,295 392,295 390,297 389,297 388,298 382,298 381,297 379,297 378,296 376,296 375,295 373,295 372,294 370,294 369,293 367,293 366,292 365,292 364,291 361,291 359,289 358,289 350,281 350,280 349,279 349,278 348,277 348,276 347,275 347,272 346,271 346,254 347,253 347,243 348,242 348,240 349,239 349,238 350,237 350,236 351,235 351,234 355,230 355,229 359,225 360,225 363,222 363,218 364,217 364,212 365,211 365,207 366,206 366,203 367,202 367,198 368,197 368,192 369,191 369,188 370,187 370,183 371,182 371,178 372,177 374,177 375,176 375,171 376,170 376,167 377,166 377,162 378,161 378,157 379,156 379,153 380,152 380,149 381,148 381,144 382,143 382,139 383,138 383,134 384,133 384,130 385,129 385,124 384,123 383,123 382,122 381,122 377,118 377,117 376,116 376,115 375,114 375,111 374,110 374,108 375,107 375,104 376,103 376,102 378,100 378,99 383,94 384,94 385,93 386,93 387,92 390,92 391,91 396,91 397,92 399,92 400,93 401,93 402,94 403,94 409,100 409,101 410,102 410,103 411,104 411,115 410,116 410,117 408,119 408,120 404,124 403,124 402,125 401,125 400,126 395,126 394,127 394,130 393,131 393,135 392,136 392,140 391,141 391,145 390,146 390,150 389,151 389,156 388,157 388,162 387,163 387,167 386,168 386,171 385,172 385,176 384,177 384,179 385,180 386,180 387,181 387,182 386,183 386,188 385,189 385,192 384,193 384,195 383,196 383,199 382,200 382,203 381,204 381,207 380,208 380,213 381,214 383,214 384,213 385,213 385,210 386,209 386,207 387,206 387,205 388,204 388,202 389,201 389,199 390,198 390,197 391,196 391,194 392,193 392,191 393,190 393,189 394,188 394,186 395,185 395,183 398,180 402,180 403,179 415,179 416,178 444,178 445,177 466,177 467,178 477,178 484,171 485,171 486,170 487,170 488,169 489,169 490,168 491,168 492,167 493,167 494,166 497,166 498,165 501,165 502,164 508,164 509,163 534,163 535,164 542,164 543,165 547,165 548,166 551,166 552,167 555,167 556,168 558,168 559,169 561,169 562,170 564,170 565,171 566,171 567,172 569,172 571,174 573,174 575,176 576,176 577,177 578,177 580,179 581,179 582,180 583,180 585,182 586,182 589,185 590,185 593,188 594,188 599,193 600,193 602,195 602,196 607,201 607,202 609,204 609,205 610,206 610,207 611,208 611,209 612,210 612,213 610,215 608,213 606,213 605,212 604,212 603,211 602,211 601,210 600,210 599,209 598,209 597,208 595,208 594,207 593,207 592,206 591,206 590,205 589,205 588,204 586,204 585,203 582,203 581,202 579,202 578,201 576,201 575,200 573,200 572,199 571,199 570,198 567,198 566,197 565,197 564,196 562,196 561,195 559,195 558,194 554,194 553,193 550,193 549,192 547,192 546,191 542,191 541,190 537,190 536,189 534,189 533,188 528,188 527,187 528,188 533,188 534,189 536,189 537,190 541,190 542,191 546,191 547,192 549,192 550,193 553,193 554,194 558,194 559,195 561,195 562,196 564,196 565,197 566,197 567,198 570,198 571,199 572,199 573,200 575,200 576,201 578,201 579,202 581,202 582,203 585,203 586,204 587,204 588,205 589,205 590,206 592,206 593,207 594,207 595,208 596,208 597,209 598,209 599,210 600,210 601,211 602,211 603,212 604,212 605,213 607,213 609,215 612,215 615,218 616,218 618,220 619,220 621,222 622,222 624,224 625,224 627,226 628,226 631,229 632,229 636,233 637,233 642,238 643,238 647,242 648,242 675,269 675,270 682,277 682,278 686,282 686,288 685,289 685,296 684,297 684,301 683,302 683,306 682,307 682,310 681,311 681,315 680,316 680,318 679,319 679,323 678,324 678,326 682,330 682,331 684,333 684,335 685,336 685,349 684,350 684,354 683,355 683,358 682,359 682,361 681,362 681,364 680,365 680,366 679,367 679,368 678,369 678,370 677,371 677,372 675,374 675,375 672,378 672,379 667,384 666,384 664,386 663,386 662,387 661,387 660,388 657,388 656,387 656,388 654,390 654,392 653,393 653,394 652,395 652,397 651,398 651,399 650,400 650,402 649,403 649,404 648,405 648,406 647,407 647,408 646,409 646,411 645,412 645,414 644,415 644,416 643,417 643,418 641,420 635,420 634,419 631,419 630,418 626,418 625,417 621,417 620,416 616,416 615,415 611,415 610,414 606,414 605,413 602,413 601,412 598,412 597,411 593,411 592,410 589,410 588,409 585,409 584,408 581,408 580,407 577,407 576,406 573,406 572,405 569,405 568,404 566,404 565,403 562,403 561,402 558,402 557,401 555,401 554,400 551,400 550,399 548,399 547,398 544,398 543,397 541,397 540,396 538,396 537,395 534,395 533,394 531,394 530,393 528,393 527,392 525,392 524,391 522,391 521,390 518,390 517,389 516,390 516,395 515,396 515,400 514,401 512,401 511,400 512,399 512,393 503,393 502,392 483,392 482,393 472,393 471,392 467,392 466,391 461,391 460,390 459,390 460,390 461,391 466,391 467,392 471,392 472,393 482,393 483,392 502,392 503,393 511,393 512,394 512,399 510,401 507,401 506,400 503,400 502,399 500,399 499,398 495,398 494,397 489,397 488,396 484,396 483,395 484,396 488,396 489,397 494,397 495,398 499,398 500,399 502,399 503,400 506,400 507,401 513,401 514,402 514,401 515,400 516,401 517,401 518,402 520,402 521,403 523,403 524,404 526,404 527,405 529,405 530,406 532,406 533,407 536,407 537,408 539,408 540,409 542,409 543,410 545,410 546,411 548,411 549,412 550,412 551,413 553,413 554,414 556,414 557,415 559,415 560,416 562,416 563,417 565,417 566,418 568,418 569,419 572,419 573,420 575,420 576,421 578,421 580,423 580,427 581,428 580,429 581,430 580,431 581,430 582,430 584,432 585,432 592,439 592,440 593,441 593,442 594,443 594,444 595,445 595,447 596,448 596,451 597,452 597,459 600,462 601,462 607,468 608,468 612,472 613,472 618,477 619,477 623,481 624,481 627,484 628,484 634,490 632,492 632,493 634,491 634,489 638,485 639,485 642,482 643,482 644,481 648,481 649,482 652,482 653,483 656,483 657,484 659,484 660,485 662,485 663,486 664,486 665,487 667,487 668,488 670,488 671,489 672,489 673,490 674,490 675,491 676,491 677,492 678,492 679,493 680,493 681,494 682,494 684,496 684,498 681,501 680,501 679,502 678,501 674,505 672,505 669,508 669,509 667,511 667,512 665,514 665,515 664,516 664,519 663,520 663,522 662,523 662,524 661,525 661,527 660,528 660,529 659,530 659,531 658,532 658,533 656,535 656,540 651,545 650,545 649,544 648,544 647,543 646,543 645,542 644,542 643,541 642,541 640,539 639,539 637,537 636,537 635,536 634,536 632,534 631,534 629,532 628,532 626,530 625,530 619,524 619,523 618,522 618,514 620,512 621,512 621,510 624,507 624,505 626,503 626,502 627,501 627,500 629,498 630,498 632,500 632,501 633,502 634,502 635,503 636,503 637,504 638,504 640,506 641,506 642,507 643,507 644,508 645,508 646,509 647,509 648,510 649,510 650,511 651,511 652,512 653,512 654,513 655,513 656,514 657,514 659,516 661,516 662,517 661,516 660,516 659,515 658,515 657,514 656,514 654,512 653,512 652,511 651,511 650,510 649,510 648,509 647,509 646,508 645,508 644,507 643,507 642,506 641,506 639,504 638,504 637,503 636,503 635,502 634,502 631,499 634,496 634,495 639,490 639,489 642,486 644,488 645,488 646,489 648,489 649,490 650,490 651,491 652,491 653,492 654,492 655,493 657,493 658,494 659,494 660,495 662,495 664,497 666,497 667,498 668,498 669,499 670,499 671,500 672,500 673,501 673,500 672,500 671,499 670,499 669,498 667,498 666,497 665,497 664,496 663,496 662,495 660,495 658,493 656,493 655,492 654,492 653,491 651,491 649,489 647,489 646,488 645,488 644,487 643,487 642,486 641,486 639,488 639,489 635,493 635,494 631,498 628,498 627,499 627,500 626,501 626,502 624,504 624,506 623,507 623,508 621,510 621,511 619,513 616,510 615,510 611,506 610,506 607,503 606,503 601,498 600,498 596,494 595,494 589,488 590,487 591,487 594,484 594,483 596,481 596,480 600,476 600,475 603,472 603,471 605,469 604,469 603,470 603,471 600,474 600,475 596,479 596,480 594,482 594,483 592,485 592,486 591,487 590,487 589,488 588,488 586,486 584,486 582,488 581,488 579,490 578,490 576,492 576,495 575,496 575,507 574,508 574,517 573,518 573,526 572,527 572,535 571,536 571,543 570,544 570,550 569,551 569,557 568,558 568,564 566,566 561,566 560,565 555,565 554,564 547,564 546,565 545,565 543,567 542,567 541,568 540,568 538,570 537,570 536,571 535,571 534,572 532,572 531,573 530,573 529,574 527,574 526,575 524,575 523,576 521,576 520,577 517,577 516,578 512,578 511,579 506,579 505,580 499,580 498,581 498,582 497,583 497,585 498,585 499,586 501,586 503,588 504,588 505,589 506,589 509,592 510,592 515,597 515,598 520,603 520,604 521,605 521,607 520,608 519,608 516,611 515,611 514,612 513,612 511,614 510,614 508,616 507,616 505,618 504,618 503,619 502,619 500,621 499,621 498,622 497,622 496,623 495,623 494,624 493,624 492,625 491,625 490,626 489,626 488,627 487,627 486,628 485,628 484,629 483,629 482,630 481,630 480,631 479,631 478,632 477,632 476,633 474,633 473,634 472,634 471,635 470,635 469,636 467,636 466,637 465,637 464,638 462,638 461,639 460,639 459,640 457,640 456,641 454,641 453,642 452,642 451,643 449,643 448,644 446,644 445,645 443,645 442,646 440,646 439,647 436,647 432,643 431,643 429,641 428,641 425,638 424,638 408,622 408,621 405,618 405,617 402,614 402,613 400,611 400,610 399,609 399,608 397,606 397,605 396,604 396,603 395,602 395,601 393,599 393,598 392,597 392,596 391,595 391,594 390,593 390,592 389,591 389,590 388,589 388,588 387,587 387,585 389,583 391,583 392,582 393,582 394,581 396,581 397,580 400,580 401,579 404,579 405,578 410,578 411,577 415,577 416,578 421,578 422,579 425,579 426,580 427,580 428,581 429,581 431,583 432,583 434,585 437,585 437,581 434,578 434,577 431,574 431,573 430,572 430,571 427,568 427,567 426,566 425,566 424,565 421,565 420,564 419,564 418,563 417,563 416,562 415,562 414,561 412,561 411,560 410,560 409,559 408,559 406,557 405,557 404,556 403,556 401,554 400,554 398,552 397,552 395,550 394,550 390,546 389,546 378,535 378,534 374,530 374,529 371,526 370,526 369,525 366,525 365,524 362,524 361,523 358,523 357,522 355,522 354,521 352,521 351,520 351,513 352,512 352,507 353,506 353,501 354,500 354,495 355,494 355,490 356,489 356,484 357,483 357,478 358,477 358,475 359,474 358,475 358,477 357,478 357,483 356,484 356,489 355,490 355,494 354,495 354,500 353,501 353,506 352,507 352,512 351,513 351,519 350,520 351,521 354,521 355,522 357,522 358,523 361,523 362,524 365,524 366,525 369,525 374,530 374,531 378,535 378,536 388,546 389,546 393,550 394,550 396,552 397,552 399,554 400,554 402,556 403,556 404,557 405,557 407,559 408,559 409,560 410,560 411,561 413,561 414,562 415,562 416,563 418,563 419,564 420,564 421,565 424,565 427,568 427,569 430,572 430,573 431,574 431,575 434,578 434,579 437,582 437,584 436,585 435,585 433,583 432,583 430,581 429,581 428,580 426,580 425,579 422,579 421,578 416,578 415,577 411,577 410,578 405,578 404,579 401,579 400,580 397,580 396,581 394,581 393,582 392,582 391,583 389,583 388,584 387,584 387,586 386,587 388,589 388,590 389,591 389,592 390,593 390,594 391,595 391,596 392,597 392,598 393,599 393,600 395,602 395,603 396,604 396,605 397,606 397,607 399,609 399,610 400,611 400,612 402,614 402,615 405,618 405,619 408,622 408,623 423,638 424,638 427,641 428,641 430,643 431,643 435,647 440,647 441,646 442,646 443,645 445,645 446,644 448,644 449,643 451,643 452,642 453,642 454,641 456,641 457,640 459,640 460,639 461,639 462,638 464,638 465,637 466,637 467,636 469,636 470,635 471,635 472,634 474,634 475,633 476,633 477,632 479,632 480,631 481,631 482,630 483,630 484,629 485,629 486,628 487,628 488,627 489,627 490,626 491,626 492,625 493,625 494,624 495,624 496,623 497,623 498,622 499,622 500,621 501,621 503,619 504,619 505,618 506,618 508,616 509,616 511,614 512,614 514,612 515,612 516,611 517,611 520,608 521,608 521,604 520,603 520,602 515,597 515,596 511,592 510,592 507,589 506,589 505,588 504,588 503,587 502,587 501,586 500,586 499,585 498,585 497,584 497,583 500,580 505,580 506,579 511,579 512,578 516,578 517,577 520,577 521,576 523,576 524,575 526,575 527,574 529,574 530,573 532,573 533,572 534,572 535,571 537,571 538,570 539,570 541,568 542,568 543,567 544,567 546,565 547,565 548,564 554,564 555,565 560,565 561,566 567,566 567,565 568,564 568,558 569,557 569,551 570,550 570,544 571,543 571,536 572,535 572,527 573,526 573,518 574,517 574,508 575,507 575,496 576,495 576,493 579,490 580,490 582,488 583,488 585,486 586,486 587,487 587,488 588,488 594,494 595,494 599,498 600,498 605,503 606,503 609,506 610,506 614,510 615,510 618,513 618,523 619,524 619,525 624,530 625,530 627,532 628,532 630,534 631,534 633,536 634,536 635,537 636,537 638,539 639,539 640,540 641,540 643,542 644,542 645,543 646,543 647,544 648,544 649,545 652,545 655,542 655,541 656,540 658,540 659,541 661,541 662,542 666,542 667,543 672,543 673,542 676,542 677,541 679,541 680,540 681,540 682,539 683,539 684,538 685,538 692,531 692,530 693,529 693,525 694,524 694,518 693,517 693,514 692,513 692,512 691,511 691,510 689,508 689,507 688,506 687,506 684,503 683,503 681,501 682,500 683,500 684,499 684,495 683,494 682,494 681,493 680,493 679,492 678,492 677,491 676,491 675,490 674,490 673,489 671,489 670,488 668,488 667,487 665,487 664,486 663,486 662,485 660,485 659,484 657,484 656,483 653,483 652,482 649,482 648,481 644,481 643,482 641,482 638,485 637,485 634,488 633,488 629,484 628,484 625,481 624,481 620,477 619,477 614,472 613,472 609,468 608,468 602,462 601,462 599,460 598,460 597,459 597,452 596,451 596,448 595,447 595,445 594,444 594,442 593,441 593,440 592,439 592,438 586,432 585,432 583,430 582,430 581,429 581,428 580,427 580,422 579,422 578,421 576,421 575,420 573,420 572,419 569,419 568,418 566,418 565,417 563,417 562,416 560,416 559,415 557,415 556,414 554,414 553,413 551,413 550,412 549,412 548,411 546,411 545,410 543,410 542,409 540,409 539,408 537,408 536,407 533,407 532,406 530,406 529,405 527,405 526,404 524,404 523,403 521,403 520,402 518,402 517,401 516,401 515,400 515,396 516,395 516,391 517,390 521,390 522,391 524,391 525,392 527,392 528,393 530,393 531,394 533,394 534,395 537,395 538,396 540,396 541,397 543,397 544,398 547,398 548,399 550,399 551,400 554,400 555,401 557,401 558,402 561,402 562,403 565,403 566,404 568,404 569,405 572,405 573,406 576,406 577,407 580,407 581,408 584,408 585,409 588,409 589,410 592,410 593,411 597,411 598,412 601,412 602,413 605,413 606,414 610,414 611,415 615,415 616,416 620,416 621,417 625,417 626,418 630,418 631,419 634,419 635,420 642,420 643,419 643,417 644,416 644,415 645,414 645,413 646,412 646,410 647,409 647,408 648,407 648,405 649,404 649,403 650,402 650,400 651,399 651,398 652,397 652,396 653,395 653,394 654,393 654,391 655,390 655,389 656,388 660,388 661,387 663,387 664,386 665,386 667,384 668,384 672,380 672,379 675,376 675,375 677,373 677,372 678,371 678,370 679,369 679,368 680,367 680,365 681,364 681,362 682,361 682,359 683,358 683,355 684,354 684,350 685,349 685,336 684,335 684,333 683,332 683,331 682,330 682,329 678,325 678,324 679,323 679,319 680,318 680,316 681,315 681,311 682,310 682,307 683,306 683,302 684,301 684,297 685,296 685,289 686,288 686,281 682,277 682,276 675,269 675,268 649,242 648,242 644,238 643,238 638,233 637,233 633,229 632,229 630,227 629,227 626,224 625,224 623,222 622,222 620,220 619,220 617,218 616,218 614,216 613,216 612,215 612,210 611,209 611,207 610,206 610,205 609,204 609,203 607,201 607,200 602,195 602,194 601,193 600,193 595,188 594,188 591,185 590,185 587,182 586,182 584,180 583,180 582,179 581,179 579,177 578,177 577,176 576,176 574,174 572,174 571,173 570,173 569,172 567,172 566,171 565,171 564,170 562,170 561,169 559,169 558,168 556,168 555,167 552,167 551,166 548,166 547,165 543,165 542,164 535,164 534,163 509,163 508,164 502,164 501,165 498,165 497,166 494,166 493,167 492,167 491,168 489,168 488,169 487,169 486,170 485,170 484,171 483,171 476,178 467,178 466,177 445,177 444,178 416,178 415,179 403,179 402,180 397,180 395,182 395,185 394,186 394,188 393,189 393,190 392,191 392,193 391,194 391,196 390,197 390,198 389,199 389,201 388,202 388,204 387,205 387,206 386,207 386,209 385,210 385,212 383,214 382,214 380,212 380,208 381,207 381,204 382,203 382,200 383,199 383,196 384,195 384,193 385,192 385,189 386,188 386,184 387,183 387,180 386,180 384,178 384,177 385,176 385,172 386,171 386,168 387,167 387,163 388,162 388,158 389,157 389,151 390,150 390,146 391,145 391,141 392,140 392,136 393,135 393,131 394,130 394,128 396,126 400,126 401,125 403,125 404,124 405,124 408,121 408,120 410,118 410,116 411,115 411,104 410,103 410,101 409,100 409,99 404,94 403,94 402,93 401,93 400,92 397,92 396,91" stroke="black" stroke-width="1" /></svg>