<?xml version="1.0" encoding="utf-8" ?>
<svg baseProfile="tiny" height="704" version="1.2" width="1248" xmlns="http://www.w3.org/2000/svg" xmlns:ev="http://www.w3.org/2001/xml-events" xmlns:xlink="http://www.w3.org/1999/xlink"><defs /><polyline fill="none" points="496,629 495,630 486,630 485,631 479,631 478,632 473,632 472,633 467,633 466,634 462,634 461,635 458,635 457,636 455,636 454,637 452,637 451,638 450,638 449,639 448,639 448,642 449,643 450,643 451,644 453,644 454,645 456,645 457,646 460,646 461,647 466,647 467,648 471,648 472,649 478,649 479,650 489,650 490,651 498,651 499,652 509,652 510,653 525,653 526,654 544,654 545,655 572,655 573,656 623,656 624,655 656,655 657,654 675,654 676,653 691,653 692,652 703,652 704,651 714,651 715,650 723,650 724,649 730,649 731,648 737,648 738,647 743,647 744,646 746,646 747,645 750,645 751,644 752,644 753,643 754,643 754,639 753,639 752,638 750,638 749,637 747,637 746,636 744,636 743,635 739,635 738,634 734,634 733,633 723,633 733,633 734,634 738,634 739,635 743,635 744,636 746,636 747,637 749,637 750,638 751,638 752,639 753,639 754,640 754,642 753,643 752,643 750,645 747,645 746,646 744,646 743,647 738,647 737,648 731,648 730,649 724,649 723,650 715,650 714,651 704,651 703,652 692,652 691,653 676,653 675,654 657,654 656,655 624,655 623,656 573,656 572,655 545,655 544,654 526,654 525,653 510,653 509,652 499,652 498,651 490,651 489,650 479,650 478,649 472,649 471,648 467,648 466,647 461,647 460,646 457,646 456,645 454,645 453,644 452,644 451,643 450,643 448,641 448,640 450,638 451,638 452,637 454,637 455,636 457,636 458,635 461,635 462,634 466,634 467,633 472,633 473,632 478,632 479,631 485,631 486,630 495,630 496,629 498,629" stroke="black" stroke-width="1" /><polyline fill="none" points="552,626 551,627 541,627 551,627 552,626 628,626 629,627 633,627 629,627 628,626" stroke="black" stroke-width="1" /><polyline fill="none" points="702,607 703,606 709,606 715,612 715,613 717,615 717,616 720,619 720,620 722,622 720,624 719,624 718,625 715,625 714,626 711,626 710,627 707,627 706,628 701,628 700,629 696,629 695,630 691,630 690,631 687,631 686,630 686,621 685,620 685,619 686,618 687,618 687,617 693,611 694,611 696,609 698,609 699,608 700,608 701,607" stroke="black" stroke-width="1" /><polyline fill="none" points="680,595 679,596 675,596 674,597 671,597 670,598 669,598 668,599 667,599 666,600 665,600 661,604 661,605 657,609 657,610 656,611 656,612 655,613 655,615 654,616 654,618 653,619 653,620 652,621 652,623 651,624 651,625 650,626 650,628 649,629 649,630 648,631 648,632 649,633 648,634 661,634 662,633 671,633 672,632 679,632 680,631 684,631 680,631 679,632 672,632 671,633 662,633 661,634 650,634 648,632 649,631 649,629 650,628 650,626 651,625 651,624 652,623 652,621 653,620 653,619 654,618 654,616 655,615 655,614 656,613 656,612 657,611 657,610 660,607 660,606 666,600 667,600 668,599 669,599 670,598 671,598 672,597 674,597 675,596 679,596 680,595 693,595 694,596 697,596 698,597 699,597 700,598 701,598 702,599 703,599 704,600 705,600 708,603 708,605 707,606 703,606 702,607 700,607 699,608 698,608 697,609 696,609 695,610 694,610 693,611 692,611 687,616 687,617 685,619 684,618 684,617 683,616 683,615 681,613 681,612 679,610 679,609 672,602 671,602 670,601 669,601 670,602 671,602 679,610 679,611 681,613 681,614 683,616 683,617 685,619 685,620 686,621 686,631 690,631 691,630 695,630 696,629 700,629 701,628 706,628 707,627 710,627 711,626 714,626 715,625 718,625 719,624 721,624 721,623 722,622 721,621 721,620 720,619 720,618 717,615 717,614 715,612 715,611 708,604 708,602 706,600 705,600 704,599 703,599 702,598 700,598 699,597 698,597 697,596 694,596 693,595" stroke="black" stroke-width="1" /><polyline fill="none" points="665,593 664,594 656,594 664,594 665,593 671,593" stroke="black" stroke-width="1" /><polyline fill="none" points="523,587 524,586 528,590 528,591 533,596 533,597 534,598 534,599 535,600 535,606 536,607 536,610 535,611 535,618 534,619 534,621 532,623 532,624 531,625 531,627 530,628 530,629 528,631 528,633 527,634 527,635 524,638 524,639 522,641 521,641 513,633 513,632 508,627 508,626 505,623 505,622 500,617 500,616 498,614 498,613 499,612 500,612 501,611 503,611 504,610 505,610 506,609 507,609 508,608 509,608 510,607 511,607 512,608 514,608 515,609 516,609 517,610 518,610 520,612 521,612 527,618 527,619 530,622 530,621 526,617 526,616 522,612 521,612 519,610 518,610 517,609 515,609 514,608 512,608 511,607 511,606 517,600 517,599 519,597 519,596 520,595 520,594 521,593 521,592 522,591 522,590 523,589" stroke="black" stroke-width="1" /><polyline fill="none" points="480,579 481,580 481,581 482,581 484,583 484,585 485,586 485,588 486,589 486,590 487,591 487,592 488,593 488,594 489,595 489,597 490,598 490,599 491,600 491,602 492,603 492,605 493,606 493,607 494,608 494,609 495,610 495,611 495,609 494,608 494,607 493,606 493,605 492,604 492,603 491,602 491,600 490,599 490,598 489,597 489,594 488,593 488,592 487,591 487,590 486,589 486,588 485,587 485,585 484,584 484,583 483,582 484,581 485,581 486,580 493,580 494,579 504,579 505,580 515,580 516,581 519,581 520,582 521,582 524,585 524,586 523,587 523,588 522,589 522,590 521,591 521,592 520,593 520,594 519,595 519,596 517,598 517,599 512,604 512,605 509,608 507,608 506,609 505,609 504,610 503,610 502,611 500,611 499,612 498,612 498,613 497,614 496,614 497,614 500,617 500,618 505,623 505,624 508,627 508,628 513,633 513,634 520,641 523,641 524,640 524,639 527,636 527,635 528,634 528,632 530,630 530,629 531,628 531,625 532,624 532,623 534,621 534,619 535,618 535,611 536,610 536,607 535,606 535,599 534,598 534,597 533,596 533,595 528,590 528,589 525,586 525,585 522,582 521,582 520,581 517,581 516,580 505,580 504,579 494,579 493,580 486,580 485,581 484,581 483,582 481,580 481,579" stroke="black" stroke-width="1" /><polyline fill="none" points="533,574 531,576 530,576 528,578 526,578 527,579 527,581 529,583 529,584 531,586 531,587 533,589 533,590 535,592 535,593 537,595 537,596 540,596 542,594 543,594 545,592 546,592 550,588 547,591 546,591 543,594 542,594 540,596 538,596 537,595 537,594 535,592 535,591 533,589 533,588 531,586 531,585 529,583 529,582 527,580 527,579 530,576 531,576 533,574 534,574" stroke="black" stroke-width="1" /><polyline fill="none" points="673,571 672,572 671,572 670,573 668,573 667,574 665,574 664,575 663,575 662,576 659,576 658,577 655,577 654,578 653,578 654,578 655,577 658,577 659,576 662,576 663,575 664,575 665,574 668,574 669,573 670,573 671,572 673,572 674,571 675,571 676,572 676,573 677,574 677,577 678,578 678,582 679,583 679,588 678,589 676,589 675,590 667,590 666,591 657,591 655,589 655,584 654,583 654,580 654,583 655,584 655,589 656,590 655,591 666,591 667,590 675,590 676,589 679,589 679,583 678,582 678,578 677,577 677,574 676,573 676,571" stroke="black" stroke-width="1" /><polyline fill="none" points="536,571 536,572 537,573 537,574 545,582 546,582 548,584 549,584 552,587 553,587 550,584 549,584 547,582 546,582 537,573 537,572" stroke="black" stroke-width="1" /><polyline fill="none" points="675,566 672,569 671,569 670,570 668,570 667,571 665,571 664,572 662,572 661,573 659,573 658,574 655,574 654,575 652,575 654,575 655,574 658,574 659,573 661,573 662,572 664,572 665,571 667,571 668,570 670,570 671,569 672,569 673,568 674,568 675,567" stroke="black" stroke-width="1" /><polyline fill="none" points="539,566 539,567 538,568 538,570 540,572 540,573 547,580 548,580 550,582 551,582 552,583 553,583 554,584 556,584 556,582 557,581 556,582 556,583 555,584 554,584 552,582 551,582 549,580 548,580 540,572 540,571 538,569 538,568 539,567" stroke="black" stroke-width="1" /><polyline fill="none" points="542,560 542,561 541,562 541,563 540,564 541,563 541,562 543,560 544,560 546,562 547,562 548,563 550,563 551,564 552,564 553,565 555,565 556,566 558,566 559,567 563,567 564,568 564,569 563,570 563,571 562,572 562,573 562,572 563,571 563,570 564,569 564,568 565,567 559,567 558,566 556,566 555,565 553,565 552,564 551,564 550,563 549,563 548,562 547,562 546,561 545,561 544,560" stroke="black" stroke-width="1" /><polyline fill="none" points="667,551 666,552 665,552 664,553 663,553 661,555 660,555 659,556 658,556 656,558 654,558 652,560 651,560 650,561 649,561 649,564 649,562 650,561 651,561 652,560 653,560 655,558 656,558 657,557 658,557 659,556 660,556 661,555 662,555 664,553 665,553 666,552 667,552 668,551 670,551 672,553 672,558 672,552 671,551" stroke="black" stroke-width="1" /><polyline fill="none" points="545,547 545,548 544,549 544,551 543,552 543,557 544,557 545,558 546,558 547,559 548,559 549,560 550,560 551,561 552,561 553,562 554,562 555,563 558,563 559,564 563,564 564,565 565,564 565,563 566,562 566,560 566,562 565,563 565,564 564,565 563,564 559,564 558,563 556,563 555,562 554,562 553,561 552,561 551,560 550,560 549,559 548,559 547,558 546,558 545,557 544,557 543,556 543,552 544,551 544,549 545,548" stroke="black" stroke-width="1" /><polyline fill="none" points="676,539 672,543 671,543 670,544 670,545 669,546 669,547 668,548 667,548 666,549 665,549 664,550 663,550 662,551 661,551 660,552 659,552 658,553 657,553 655,555 654,555 653,556 652,556 650,558 648,558 647,557 647,558 650,558 651,557 652,557 653,556 654,556 655,555 656,555 658,553 659,553 660,552 661,552 662,551 663,551 665,549 666,549 667,548 669,548 669,546 673,542 674,543 674,544 675,545 675,546 676,547 676,549 677,550 677,551 678,552 680,552 679,552 677,550 677,549 676,548 676,547 675,546 675,544 673,542 675,540 676,540 677,539" stroke="black" stroke-width="1" /><polyline fill="none" points="681,510 685,510 688,513 688,516 685,519 684,519 683,520 682,520 678,516 678,513" stroke="black" stroke-width="1" /><polyline fill="none" points="680,510 678,512 678,517 680,519 681,519 682,520 683,520 684,519 686,519 687,518 687,517 688,516 688,513 687,512 687,511 686,510" stroke="black" stroke-width="1" /><polyline fill="none" points="546,495 546,498 547,499 547,500 549,502 549,503 553,507 553,508 557,512 557,513 559,515 559,516 562,519 562,520 566,524 566,525 566,523 562,519 562,518 559,515 559,514 557,512 557,511 553,507 553,506 549,502 549,501 546,498" stroke="black" stroke-width="1" /><polyline fill="none" points="560,485 561,484 564,484 565,485 566,485 568,487 569,487 571,489 572,489 575,492 576,492 577,493 578,493 579,494 579,495 589,505 589,506 591,508 591,509 593,511 590,514 591,514 593,512 593,511 592,510 592,509 591,508 591,507 588,504 588,503 580,495 581,494 582,494 590,502 590,503 594,507 594,508 595,509 595,511 596,512 595,513 595,514 594,515 593,515 591,517 590,517 589,516 587,516 586,517 583,517 582,518 580,518 578,520 577,520 576,521 575,521 574,522 573,522 572,523 571,523 561,533 560,533 558,535 557,535 555,537 554,537 547,544 545,544 544,543 544,542 538,536 538,535 535,532 535,531 533,529 533,528 532,527 532,526 529,523 529,522 528,521 528,519 527,518 527,517 526,516 526,512 527,511 527,510 528,509 528,508 529,507 529,506 530,505 530,504 535,499 536,499 542,493 543,493 544,492 546,492 547,491 548,491 549,490 550,490 551,489 553,489 554,488 555,488 557,486 558,486 559,485" stroke="black" stroke-width="1" /><polyline fill="none" points="636,479 637,480 636,481 636,484 634,486 635,485 637,487 652,487 653,486 655,486 653,486 652,487 638,487 637,486 636,486 635,485 636,484 636,481 637,480" stroke="black" stroke-width="1" /><polyline fill="none" points="633,478 633,480 632,481 632,482 631,483 631,485 631,483 632,482 632,481 633,480 633,479 634,478" stroke="black" stroke-width="1" /><polyline fill="none" points="537,477 536,478 534,478 533,479 532,479 531,480 530,480 528,482 527,482 526,483 525,483 524,484 523,484 521,486 520,486 521,487 521,488 522,489 522,490 523,491 523,492 524,493 524,494 526,496 526,497 529,500 528,499 528,498 525,495 525,494 524,493 524,492 523,491 523,490 521,488 521,487 524,484 525,484 526,483 527,483 528,482 529,482 531,480 532,480 533,479 534,479 535,478 536,478 537,477 541,477 543,479 543,480 544,481 544,482 546,484 546,485 547,486 547,487 548,487 547,486 547,485 546,484 546,483 544,481 544,480 542,478 542,477" stroke="black" stroke-width="1" /><polyline fill="none" points="609,473 609,474 610,475 610,476 616,482 616,483 619,486 620,486 622,488 623,488 624,489 625,489 626,490 628,490 629,491 631,491 632,492 636,492 637,493 644,493 637,493 636,492 632,492 631,491 629,491 628,490 627,490 626,489 625,489 624,488 623,488 621,486 620,486 615,481 615,480 610,475 610,474" stroke="black" stroke-width="1" /><polyline fill="none" points="529,461 530,460 533,460 534,461 534,462 535,463 535,465 536,466 536,467 537,468 537,469 538,470 538,471 539,472 539,473 538,474 537,474 536,475 534,475 533,476 531,476 529,478 528,478 527,479 526,479 525,480 524,480 523,481 522,481 520,483 519,483 518,482 518,481 517,480 517,479 516,478 516,477 515,476 515,475 513,473 513,471 512,470 512,469 514,467 515,467 516,466 517,466 519,464 521,464 522,463 523,463 524,462 525,462 526,461" stroke="black" stroke-width="1" /><polyline fill="none" points="530,460 529,461 526,461 525,462 523,462 522,463 521,463 520,464 519,464 518,465 517,465 516,466 515,466 513,468 512,468 511,469 513,471 513,473 514,474 514,475 515,476 515,477 516,478 516,479 517,480 517,481 518,482 518,484 519,483 521,483 523,481 524,481 525,480 526,480 527,479 528,479 529,478 530,478 532,476 533,476 534,475 536,475 537,474 539,474 540,473 538,471 538,469 537,468 537,467 536,466 536,465 535,464 535,463 534,462 534,460" stroke="black" stroke-width="1" /><polyline fill="none" points="645,453 646,452 653,452 654,453 655,453 656,454 656,455 657,456 657,459 653,463 652,463 651,464 647,464 646,463 645,463 640,458 640,456 643,453" stroke="black" stroke-width="1" /><polyline fill="none" points="646,452 645,453 642,453 640,455 640,459 644,463 646,463 647,464 651,464 652,463 654,463 656,461 656,460 657,459 657,455 655,453 654,453 653,452" stroke="black" stroke-width="1" /><polyline fill="none" points="613,449 613,456 614,457 614,460 615,461 615,463 616,464 616,466 617,467 617,468 618,469 618,470 619,471 619,472 620,473 620,474 622,476 622,477 626,481 626,482 627,482 628,483 629,483 628,482 627,482 626,481 626,480 622,476 622,475 620,473 620,472 619,471 619,470 618,469 618,468 617,467 617,466 616,465 616,464 615,463 615,461 614,460 614,457 613,456 613,450 614,449 616,449 617,450 616,449" stroke="black" stroke-width="1" /><polyline fill="none" points="495,445 495,446 496,447 497,447 498,448 499,448 500,449 501,449 504,452 504,456 505,457 505,460 506,461 506,464 507,465 507,466 508,467 508,468 509,469 509,471 510,472 510,473 511,474 511,476 512,477 512,478 513,479 513,480 514,481 514,482 515,483 515,484 517,486 517,487 518,488 518,489 519,490 519,491 520,492 520,493 521,494 521,495 523,497 523,498 526,501 526,502 527,503 528,503 526,501 526,500 523,497 523,496 521,494 521,493 520,492 520,491 519,490 519,489 518,488 518,487 516,485 516,484 515,483 515,482 514,481 514,480 513,479 513,478 512,477 512,476 511,475 511,474 510,473 510,471 509,470 509,468 507,466 507,465 506,464 506,461 505,460 505,457 504,456 504,451 502,449 501,449 500,448 499,448 498,447 497,447" stroke="black" stroke-width="1" /><polyline fill="none" points="524,444 525,443 526,443 529,446 529,448 530,449 530,450 531,451 531,453 532,454 532,456 531,457 529,457 528,458 526,458 525,459 523,459 522,460 521,460 520,461 518,461 516,463 514,463 512,465 511,465 509,463 509,461 508,460 508,457 507,456 507,451 508,450 509,450 511,448 512,448 513,447 515,447 516,446 518,446 519,445 520,445 521,444" stroke="black" stroke-width="1" /><polyline fill="none" points="678,443 678,456 677,457 677,464 675,466 675,467 674,468 674,469 670,473 669,472 668,472 667,473 667,475 668,476 668,477 666,479 665,478 664,478 663,477 660,477 660,478 659,479 659,480 661,482 662,482 663,481 661,481 659,479 661,477 662,477 663,478 664,478 665,479 665,480 666,480 666,479 668,477 668,475 667,474 669,472 670,473 670,474 670,473 671,472 672,472 673,471 673,470 674,469 674,468 675,467 675,466 678,463 677,462 677,457 678,456" stroke="black" stroke-width="1" /><polyline fill="none" points="525,443 524,444 521,444 520,445 518,445 517,446 516,446 515,447 513,447 512,448 511,448 510,449 509,449 508,450 507,450 506,451 507,452 507,456 508,457 508,460 509,461 509,464 510,465 513,465 515,463 516,463 517,462 518,462 519,461 520,461 521,460 522,460 523,459 525,459 526,458 528,458 529,457 532,457 532,453 531,452 531,451 530,450 530,449 529,448 529,446 528,445 528,444 527,443" stroke="black" stroke-width="1" /><polyline fill="none" points="642,427 646,427 651,432 650,433 649,433 648,434 647,434 646,433 643,433 642,432 641,432 640,431 640,429" stroke="black" stroke-width="1" /><polyline fill="none" points="514,428 515,427 519,427 523,431 523,432 524,433 524,434 525,435 525,436 526,437 526,439 525,440 524,440 523,441 521,441 520,442 518,442 517,443 516,443 515,444 513,444 512,445 510,445 509,446 508,446 507,447 505,447 504,446 504,443 503,442 503,438 502,437 502,435 505,432 506,432 507,431 508,431 510,429 511,429 512,428" stroke="black" stroke-width="1" /><polyline fill="none" points="641,427 640,428 640,432 641,432 642,433 646,433 647,434 648,434 649,433 650,433 651,432 652,433 652,434 653,435 653,440 653,435 652,434 652,433 651,432 651,431 647,427" stroke="black" stroke-width="1" /><polyline fill="none" points="515,427 514,428 511,428 510,429 509,429 507,431 506,431 505,432 504,432 503,433 503,434 502,435 502,437 503,438 503,442 504,443 504,447 505,448 506,447 508,447 509,446 510,446 511,445 512,445 513,444 515,444 516,443 517,443 518,442 520,442 521,441 523,441 524,440 526,440 526,437 525,436 525,435 524,434 524,432 523,431 523,430 521,428 520,428 519,427" stroke="black" stroke-width="1" /><polyline fill="none" points="639,423 640,422 647,422 648,423 652,423 654,425 655,425 657,427 658,427 660,429 660,430 666,436 666,437 667,438 667,440 668,441 668,443 669,444 669,456 668,457 668,459 667,460 667,461 666,462 666,463 665,464 665,465 656,474 655,474 654,475 653,475 652,476 650,476 649,477 639,477 638,476 637,476 636,475 635,475 632,472 631,472 625,466 625,465 624,464 624,463 623,462 623,460 622,459 622,458 621,457 621,455 620,454 620,450 619,449 620,448 620,445 621,444 621,441 622,440 622,438 623,437 623,436 625,434 625,433 632,426 633,426 635,424 636,424 637,423" stroke="black" stroke-width="1" /><polyline fill="none" points="640,422 639,423 637,423 636,424 634,424 632,426 631,426 625,432 625,433 623,435 623,437 622,438 622,440 621,441 621,444 620,445 620,448 619,449 620,450 620,454 621,455 621,457 622,458 622,460 623,461 623,462 624,463 624,465 625,466 625,467 630,472 631,472 634,475 635,475 637,477 638,476 639,477 649,477 650,476 653,476 654,475 655,475 656,474 657,474 665,466 665,465 666,464 666,463 667,462 667,461 668,460 668,457 669,456 669,444 668,443 668,441 667,440 667,437 666,436 666,435 660,429 660,428 659,428 656,425 655,425 654,424 653,424 652,423 648,423 647,422" stroke="black" stroke-width="1" /><polyline fill="none" points="656,416 657,415 659,415 663,419 664,419 671,426 671,427 672,428 672,429 671,430 670,430 669,431 668,431 667,432 666,431 666,430 660,424 660,423 659,423 658,422 660,420 661,420 660,420 658,422 657,422 656,421" stroke="black" stroke-width="1" /><polyline fill="none" points="642,411 645,411 646,412 651,412 652,413 653,413 654,414 653,415 653,418 651,420 649,420 648,419 643,419 648,419 649,420 651,420 652,421 652,419 653,418 653,416 654,415 654,414 655,413 654,414 653,413 652,413 651,412 646,412 645,411" stroke="black" stroke-width="1" /><polyline fill="none" points="640,411 640,413 641,414 641,415 642,416 640,418 639,418 638,417 638,416 637,415 637,413 636,412 634,412 633,413 631,413 630,414 629,414 628,415 627,415 620,422 620,423 618,425 618,426 617,427 617,428 616,429 616,430 615,431 615,434 614,435 614,438 613,439 613,444 614,444 616,446 618,446 617,445 615,445 613,443 613,439 614,438 614,435 615,434 615,432 616,431 616,430 617,429 617,428 618,427 618,426 620,424 620,423 628,415 629,415 630,414 631,414 632,413 633,413 634,412 635,412 637,414 637,415 638,416 638,418 639,419 640,418 641,419 641,417 642,416 641,415 641,413 640,412" stroke="black" stroke-width="1" /><polyline fill="none" points="640,409 641,408 645,408 646,409 652,409 653,410 654,410 655,411 657,411 658,412 659,412 660,413 661,413 663,415 664,415 673,424 673,425 675,427 675,429 674,430 673,430 672,429 672,428 671,427 671,426 662,417 661,417 659,415 657,415 656,416 656,421 657,422 658,422 662,426 662,427 663,427 665,429 665,430 667,432 669,432 670,433 671,433 672,434 673,434 674,433 675,433 674,433 673,434 672,434 671,433 670,433 669,432 671,430 674,430 675,429 677,431 677,432 678,433 678,434 679,435 679,437 680,438 680,441 681,442 681,457 680,458 680,463 690,463 691,464 692,464 695,467 695,468 696,469 696,505 697,506 696,507 696,514 697,515 697,517 696,518 696,523 695,524 694,523 694,499 693,498 693,469 692,468 692,467 691,467 690,466 679,466 678,467 678,468 676,470 676,471 675,472 675,473 673,475 673,476 664,485 663,485 661,487 660,487 659,488 658,488 657,489 655,489 654,490 637,490 636,489 634,489 632,487 629,487 628,486 627,486 626,485 625,485 623,483 622,483 621,482 620,482 618,480 618,481 619,482 620,482 621,483 622,483 624,485 626,485 628,487 632,487 634,489 636,489 637,490 654,490 655,489 657,489 658,488 660,488 661,487 662,487 664,485 665,485 673,477 673,476 675,474 675,473 676,472 676,471 678,469 678,468 680,466 690,466 693,469 693,498 694,499 694,524 691,527 615,527 614,526 600,526 614,526 615,527 688,527 690,529 690,531 696,531 697,532 699,532 701,534 701,536 700,537 700,541 699,542 699,544 698,545 698,546 695,549 695,550 694,551 693,551 691,553 690,553 688,555 686,555 685,556 679,556 678,555 675,555 675,558 676,559 676,560 677,561 677,564 678,565 678,568 679,569 679,572 680,573 680,576 681,577 681,581 682,582 682,589 683,590 683,591 693,591 694,592 697,592 698,593 700,593 701,594 702,594 703,595 704,595 705,596 706,596 707,597 708,597 718,607 718,608 720,610 720,611 722,613 722,614 723,615 723,616 724,617 724,618 725,619 725,620 726,621 726,623 727,624 727,628 725,630 723,630 722,631 719,631 718,632 716,632 715,633 713,633 712,634 709,634 708,635 704,635 703,636 699,636 698,637 694,637 693,638 686,638 685,639 675,639 674,640 636,640 635,639 635,627 636,626 636,623 637,622 637,620 638,619 638,618 639,617 639,616 640,615 640,614 641,613 641,612 642,611 642,610 644,608 644,607 650,601 651,601 653,599 653,592 652,591 652,586 651,585 651,580 650,579 650,576 649,575 649,573 648,572 648,570 647,569 647,567 646,566 646,562 645,561 645,560 644,559 644,558 643,557 643,556 642,555 642,554 638,554 637,555 633,555 632,556 627,556 626,557 591,557 590,556 583,556 582,555 578,555 577,554 571,554 571,555 570,556 570,559 569,560 569,563 568,564 568,567 567,568 567,570 566,571 566,572 565,573 565,574 564,575 564,576 563,577 563,578 561,580 561,581 558,584 558,585 551,592 550,592 547,595 546,595 544,597 543,597 541,599 540,599 539,600 539,602 540,603 540,606 541,607 541,619 540,620 540,623 539,624 539,626 538,627 538,628 537,629 537,630 536,631 536,632 534,634 534,635 531,638 531,639 528,642 528,643 524,647 523,647 522,648 521,648 518,645 517,645 506,634 506,633 499,626 499,625 496,622 496,621 493,618 493,617 492,616 492,615 490,613 490,612 489,611 489,610 488,609 488,608 487,607 487,606 486,605 486,604 485,603 485,602 484,601 484,600 483,599 483,598 482,597 482,596 481,595 481,594 480,593 480,591 479,590 479,588 478,587 478,585 477,584 477,582 476,581 476,578 475,577 475,575 474,574 474,572 473,571 473,569 474,568 476,568 477,567 481,567 482,566 487,566 488,565 501,565 502,566 506,566 507,567 508,567 509,568 510,568 511,569 512,569 513,570 514,570 515,571 516,571 522,577 523,576 524,577 525,576 526,576 530,572 531,572 532,571 533,571 535,569 535,567 536,566 536,564 537,563 537,562 538,561 538,560 539,559 539,556 540,555 540,551 541,550 541,547 542,546 542,545 543,544 544,544 545,545 546,544 547,544 548,543 549,543 555,537 556,537 558,535 559,535 561,533 562,533 572,523 573,523 574,522 575,522 576,521 577,521 578,520 579,520 581,518 583,518 584,517 586,517 587,516 589,516 594,521 594,522 597,525 597,526 598,527 598,534 597,535 597,538 596,539 596,540 595,541 595,542 594,543 594,544 589,549 588,549 586,551 585,551 584,552 583,552 585,552 586,551 587,551 589,549 590,549 594,545 594,544 595,543 595,542 596,541 596,539 597,538 597,535 598,534 598,526 597,525 597,524 594,521 594,520 591,517 592,516 593,516 594,515 595,515 595,513 596,512 596,511 595,510 595,508 593,506 593,505 590,502 590,501 584,495 583,495 581,493 582,492 582,473 583,472 583,467 586,464 604,464 605,465 606,465 608,467 608,468 609,469 609,470 610,471 610,470 609,469 609,468 608,467 608,466 607,465 606,465 605,464 585,464 583,466 583,472 582,473 582,492 581,493 581,494 580,495 579,494 579,493 578,492 578,491 579,490 579,475 580,474 580,466 581,465 581,464 583,462 584,462 585,461 605,461 606,460 605,459 605,457 604,456 604,455 603,454 604,453 604,450 603,449 603,447 604,446 604,441 605,440 605,437 606,436 606,434 607,433 607,432 608,431 608,430 610,428 610,427 612,425 612,424 618,418 619,418 622,415 623,415 625,413 626,413 627,412 628,412 629,411 630,411 631,410 633,410 634,409" stroke="black" stroke-width="1" /><polyline fill="none" points="506,405 505,406 503,406 502,407 501,407 500,408 499,408 495,412 495,413 494,414 494,415 493,416 493,418 492,419 492,427 493,428 493,429 494,430 494,432 495,433 495,434 496,435 497,435 499,437 499,438 500,439 500,442 501,443 501,446 501,443 500,442 500,438 499,437 499,436 498,435 497,435 495,433 495,432 494,431 494,430 493,429 493,428 492,427 492,419 493,418 493,417 494,416 494,415 495,414 495,413 500,408 501,408 502,407 503,407 504,406 505,406 506,405 509,405 510,406 513,406 514,407 515,407 517,409 518,409 522,413 522,414 523,415 523,416 524,417 524,427 525,428 525,429 526,430 526,431 527,432 527,433 528,434 528,435 529,436 529,438 530,439 530,442 531,443 531,445 532,446 532,447 533,448 533,449 533,448 532,447 532,446 531,445 531,443 530,442 530,439 529,438 529,435 528,434 528,433 527,432 527,431 525,429 525,428 524,427 524,417 523,416 523,414 522,413 522,412 519,409 518,409 516,407 514,407 513,406 510,406 509,405" stroke="black" stroke-width="1" /><polyline fill="none" points="704,401 705,400 706,400 708,402 709,402 712,405 712,406 714,408 714,409 716,411 716,412 717,413 717,415 716,416 711,416 710,417 706,417 704,415" stroke="black" stroke-width="1" /><polyline fill="none" points="704,399 705,400 704,401 704,415 706,417 705,418 704,418 705,418 706,417 710,417 711,416 717,416 717,412 716,411 716,410 714,408 714,407 712,405 712,404 710,402 709,402 708,401 707,401 706,400 705,400" stroke="black" stroke-width="1" /><polyline fill="none" points="686,396 691,396 693,398 693,402 689,406 686,406 683,403 683,399" stroke="black" stroke-width="1" /><polyline fill="none" points="702,396 703,395 704,395 705,396 706,396 707,397 708,397 711,400 712,400 714,402 714,403 717,406 717,407 718,408 718,409 719,410 719,411 720,412 720,414 721,415 721,419 722,420 722,429 721,430 721,434 720,435 720,437 719,438 719,439 718,440 718,441 717,442 717,443 716,444 716,445 714,447 714,448 709,453 708,453 707,454 707,473 708,474 708,491 709,492 709,503 710,504 710,532 708,534 701,534 700,533 700,532 697,532 696,531 691,531 690,530 691,529 690,529 689,528 690,527 691,527 692,526 693,526 693,525 694,524 696,524 697,525 697,526 705,526 707,528 706,529 696,529 695,528 693,528 695,528 696,529 706,529 707,530 706,531 703,531 707,531 707,530 706,529 707,528 706,527 707,526 707,513 706,512 706,493 705,492 705,479 704,478 705,477 704,476 704,461 703,460 703,455 704,454 704,449 703,448 703,428 702,427 702,417 701,416 701,398 700,397 701,396" stroke="black" stroke-width="1" /><polyline fill="none" points="685,396 683,398 683,403 684,404 684,405 685,406 690,406 692,404 692,403 693,402 693,397 692,396" stroke="black" stroke-width="1" /><polyline fill="none" points="580,393 581,392 583,392 587,396 587,399 584,402 583,402 582,403 581,402 580,402 577,399 577,396 578,395 578,394 579,393" stroke="black" stroke-width="1" /><polyline fill="none" points="580,392 579,393 578,393 578,394 577,395 577,400 579,402 581,402 582,403 583,402 585,402 587,400 587,396 586,395 586,394 585,393 584,393 583,392" stroke="black" stroke-width="1" /><polyline fill="none" points="536,391 537,391 545,399 545,400 546,401 546,402 548,404 548,406 547,407 546,407 545,408 538,408 537,409 533,409 530,406 530,405 529,404 529,403 524,398 525,397 526,397 528,395 530,395 531,394 532,394 533,393 534,393" stroke="black" stroke-width="1" /><polyline fill="none" points="513,385 512,386 509,386 508,387 506,387 503,390 505,388 506,388 507,387 508,387 509,386 512,386 513,385 526,385 527,386 529,386 531,388 532,388 533,389 534,389 536,391 534,393 533,393 532,394 531,394 530,395 528,395 527,396 526,396 524,398 523,398 521,396 520,396 519,395 518,395 517,394 516,394 515,393 512,393 511,392 505,392 504,393 501,393 500,394 499,394 500,394 501,393 504,393 505,392 511,392 512,393 514,393 515,394 517,394 519,396 520,396 522,398 523,398 529,404 529,405 530,406 530,407 533,410 533,417 534,418 534,425 533,426 533,430 532,431 532,432 531,433 531,435 532,435 533,436 536,436 537,437 540,437 541,438 543,438 544,439 546,439 548,437 548,435 549,434 549,432 550,431 550,429 551,428 551,412 550,411 550,409 550,411 551,412 551,428 550,429 550,431 549,432 549,433 548,434 548,436 545,439 544,439 543,438 541,438 540,437 537,437 536,436 533,436 531,434 531,433 533,431 533,426 534,425 534,418 533,417 533,410 534,409 537,409 538,408 545,408 546,407 547,408 548,407 548,404 547,403 547,402 546,401 546,400 545,399 545,398 539,392 538,392 537,391 536,391 535,390 535,389 534,389 533,388 532,388 531,387 530,387 529,386 527,386 526,385" stroke="black" stroke-width="1" /><polyline fill="none" points="513,382 512,383 508,383 507,384 506,384 505,385 504,385 505,385 506,384 507,384 508,383 512,383 513,382 526,382 527,383 529,383 530,384 532,384 534,386 535,386 537,388 538,388 539,389 540,389 547,396 547,397 549,399 549,400 550,401 550,402 551,403 551,405 552,406 552,407 553,408 553,411 554,412 554,429 553,430 553,432 552,433 552,435 551,436 551,437 549,439 549,440 546,443 546,444 542,448 541,448 538,451 537,451 536,452 535,452 534,453 535,454 535,457 536,458 536,459 537,460 537,461 538,462 538,464 539,465 539,466 540,467 540,468 541,469 541,471 542,472 542,473 544,475 544,476 545,477 545,478 547,480 547,481 548,482 548,483 550,485 550,486 550,484 548,482 548,481 547,480 547,479 545,477 545,476 543,474 543,473 542,472 542,471 541,470 541,468 539,466 539,465 538,464 538,461 537,460 537,459 536,458 536,457 535,456 535,453 536,452 537,452 538,451 539,451 542,448 543,448 546,445 546,444 549,441 549,440 551,438 551,436 552,435 552,433 553,432 553,430 554,429 554,412 553,411 553,408 552,407 552,405 551,404 551,403 550,402 550,401 549,400 549,399 548,398 548,397 545,394 545,393 542,390 541,390 539,388 538,388 536,386 535,386 534,385 533,385 532,384 531,384 530,383 527,383 526,382" stroke="black" stroke-width="1" /><polyline fill="none" points="559,377 558,378 550,378 549,379 534,379 533,380 535,380 536,379 549,379 550,378 558,378 559,377 569,377 570,378 585,378 586,379 611,379 586,379 585,378 570,378 569,377" stroke="black" stroke-width="1" /><polyline fill="none" points="624,363 623,364 619,364 618,365 615,365 614,366 611,366 610,367 607,367 606,368 603,368 602,369 599,369 598,370 597,370 595,372 578,372 595,372 597,370 598,370 599,369 602,369 603,368 606,368 607,367 610,367 611,366 614,366 615,365 618,365 619,364 623,364 624,363 628,363 629,364 629,365 629,363" stroke="black" stroke-width="1" /><polyline fill="none" points="610,314 611,314 612,315 635,315 637,317 637,327 638,328 638,331 636,333 634,333 633,332 630,332 629,331 627,331 626,330 625,330 624,329 623,329 622,328 621,328 620,327 619,327 616,324 615,324 612,321 612,320 608,316" stroke="black" stroke-width="1" /><polyline fill="none" points="609,314 609,315 608,316 608,317 612,321 612,322 614,324 615,324 618,327 619,327 620,328 621,328 622,329 623,329 624,330 626,330 627,331 629,331 630,332 633,332 634,333 637,333 638,332 638,328 637,327 637,316 638,315 637,316 636,315 612,315 611,314" stroke="black" stroke-width="1" /><polyline fill="none" points="660,313 661,312 666,312 667,313 666,314 666,315 665,316 665,317 663,319 663,320 656,327 655,327 653,329 652,329 651,330 650,330 649,331 648,331 647,332 644,332 643,333 641,331 641,326 640,325 640,316 642,314 651,314 652,313" stroke="black" stroke-width="1" /><polyline fill="none" points="661,312 660,313 652,313 651,314 642,314 641,315 640,315 640,325 641,326 641,332 642,332 643,333 644,332 647,332 648,331 650,331 651,330 652,330 653,329 654,329 656,327 657,327 663,321 663,320 665,318 665,317 666,316 666,314 667,313 667,312" stroke="black" stroke-width="1" /><polyline fill="none" points="714,309 717,309 720,312 720,313 721,314 721,318 720,319 720,320 717,323 713,323 709,319 709,314" stroke="black" stroke-width="1" /><polyline fill="none" points="713,309 710,312 710,313 709,314 709,320 712,323 718,323 720,321 720,319 721,318 721,314 720,313 720,311 719,310 718,310 717,309" stroke="black" stroke-width="1" /><polyline fill="none" points="664,309 665,308 671,308 672,309 672,311 671,312 671,313 670,314 670,315 669,316 669,317 668,318 668,319 666,321 666,322 659,329 658,329 656,331 655,331 654,332 653,332 651,334 649,334 648,335 645,335 644,336 633,336 632,335 629,335 628,334 626,334 625,333 623,333 622,332 621,332 620,331 619,331 617,329 616,329 606,319 606,318 604,316 604,315 603,314 603,313 605,311 613,311 614,312 633,312 634,311 635,311 636,312 639,312 640,311 651,311 652,310 659,310 660,309" stroke="black" stroke-width="1" /><polyline fill="none" points="665,308 664,309 660,309 659,310 652,310 651,311 640,311 639,312 636,312 635,311 634,311 633,312 614,312 613,311 604,311 603,312 603,314 604,315 604,317 606,319 606,320 615,329 616,329 617,330 618,330 619,331 620,331 621,332 622,332 623,333 625,333 626,334 628,334 629,335 632,335 633,336 644,336 645,335 648,335 649,334 651,334 652,333 653,333 654,332 655,332 656,331 657,331 659,329 660,329 666,323 666,322 668,320 668,319 669,318 669,317 670,316 670,315 671,314 671,313 672,312 672,308" stroke="black" stroke-width="1" /><polyline fill="none" points="713,306 717,306 718,307 719,307 722,310 722,311 723,312 723,313 724,314 724,318 723,319 723,320 722,321 722,322 719,325 718,325 717,326 712,326 706,320 706,314 707,313 707,312 709,310 709,309 710,308 711,308" stroke="black" stroke-width="1" /><polyline fill="none" points="713,306 712,307 711,307 707,311 707,313 706,314 706,320 707,321 707,322 711,326 718,326 719,325 720,325 722,323 722,322 723,321 723,319 724,318 724,314 723,313 723,311 722,310 722,309 720,307 718,307 717,306" stroke="black" stroke-width="1" /><polyline fill="none" points="431,275 433,277 434,277 440,283 440,285 441,286 441,290 442,291 442,292 441,293 441,297 440,298 440,300 438,302 438,303 435,306 434,306 433,307 432,307 431,308 429,308 428,309 429,308 432,308 434,306 436,306 438,304 438,303 439,302 439,301 440,300 440,298 441,297 441,293 442,292 442,291 441,290 441,286 440,285 440,283 439,282 439,281 435,277 434,277 432,275" stroke="black" stroke-width="1" /><polyline fill="none" points="429,273 430,272 434,272 435,273 436,273 438,275 439,275 441,277 441,278 443,280 443,281 445,283 445,285 446,286 446,287 447,288 447,299 446,300 446,301 445,302 445,303 440,308 439,308 437,310 436,310 435,311 427,311 426,310 425,310 423,308 422,308 418,304 418,303 417,302 417,300 416,299 416,298 415,297 415,296 414,295 414,292 413,291 413,288 414,287 414,285 415,284 415,283 416,282 416,281 417,280 417,279 418,278 419,278 421,276 422,276 423,275 424,275 425,274 427,274 428,273" stroke="black" stroke-width="1" /><polyline fill="none" points="430,272 429,273 428,273 427,274 424,274 423,275 422,275 421,276 420,276 418,278 417,278 417,279 416,280 416,281 415,282 415,284 414,285 414,287 412,289 413,290 413,291 414,292 414,295 415,296 415,298 416,299 416,300 417,301 417,303 418,304 418,305 421,308 422,308 424,310 426,310 427,311 435,311 436,310 438,310 440,308 441,308 445,304 445,303 446,302 446,300 447,299 447,288 446,287 446,285 445,284 445,283 444,282 444,281 443,280 443,279 441,277 441,276 440,275 439,275 437,273 436,273 435,272" stroke="black" stroke-width="1" /><polyline fill="none" points="759,265 759,279 758,280 758,281 757,282 757,285 755,287 755,288 749,294 750,294 752,292 752,291 755,288 755,287 757,285 757,283 758,282 758,280 759,279" stroke="black" stroke-width="1" /><polyline fill="none" points="501,265 500,266 500,269 499,270 499,273 500,274 500,278 501,279 501,280 502,281 505,281 506,280 507,280 507,279 508,278 505,281 503,281 501,279 501,278 500,277 500,274 499,273 499,270 500,269 500,267 502,265 505,265" stroke="black" stroke-width="1" /><polyline fill="none" points="500,262 497,265 497,270 496,271 496,273 497,274 497,278 498,279 498,281 500,283 501,283 502,284 506,284 507,283 508,283 510,281 510,278 510,280 507,283 506,283 505,284 502,284 498,280 498,279 497,278 497,274 496,273 496,271 497,270 497,266 501,262 503,262 504,263 506,263 505,263 504,262" stroke="black" stroke-width="1" /><polyline fill="none" points="465,257 464,258 461,258 460,259 457,259 456,260 454,260 453,261 448,261 453,261 454,260 456,260 457,259 460,259 461,258 464,258 465,257 466,258 467,258 468,259 468,260 470,262 470,263 472,265 472,266 473,267 473,268 474,269 474,271 473,272 472,272 471,273 468,273 467,274 464,274 463,275 459,275 458,276 454,276 453,275 453,274 452,273 452,272 451,271 451,269 450,268 450,267 448,265 448,264 446,262 447,263 447,264 448,265 448,266 450,268 450,269 451,270 451,271 452,272 452,274 454,276 454,277 455,277 456,276 458,276 459,275 463,275 464,274 467,274 468,273 471,273 472,272 473,272 474,271 474,269 473,268 473,267 472,266 472,264 470,262 470,261 468,259 468,258 466,258" stroke="black" stroke-width="1" /><polyline fill="none" points="424,253 426,255 426,257 427,258 427,261 428,262 428,265 429,266 429,268 427,270 426,270 425,271 424,271 423,272 422,272 420,270 420,269 419,268 419,263 418,262 418,259 417,258 417,255 417,258 418,259 418,262 419,263 419,268 420,269 420,271 421,272 423,272 424,271 426,271 427,270 428,270 429,269 429,266 428,265 428,262 427,261 427,258 426,257 426,256 427,255 426,255" stroke="black" stroke-width="1" /><polyline fill="none" points="423,250 422,251 420,251 419,252 417,252 416,253 415,253 417,253 418,252 419,252 420,251 422,251 423,250 424,250" stroke="black" stroke-width="1" /><polyline fill="none" points="617,247 618,248 618,263 617,264 617,265 614,268 611,268 610,269 608,269 607,270 605,270 604,271 601,271 600,272 598,272 597,273 594,273 593,274 588,274 587,275 582,275 581,276 571,276 570,277 561,277 560,276 549,276 548,275 544,275 543,274 539,274 538,273 533,273 531,271 531,270 530,269 530,266 529,265 529,263 528,262 528,258 529,257 535,257 536,256 542,256 543,255 550,255 551,254 558,254 559,253 567,253 568,252 575,252 576,251 582,251 584,253 584,256 585,257 585,258 586,259 586,260 591,265 592,265 593,266 595,266 596,267 603,267 604,266 606,266 607,265 608,265 613,260 613,259 614,258 614,255 615,254 615,249" stroke="black" stroke-width="1" /><polyline fill="none" points="616,247 615,248 615,254 614,255 614,257 613,258 613,259 607,265 606,265 605,266 604,266 603,267 596,267 595,266 594,266 593,265 592,265 586,259 586,258 584,256 584,253 583,252 583,251 576,251 575,252 568,252 567,253 559,253 558,254 551,254 550,255 543,255 542,256 536,256 535,257 529,257 528,258 528,262 529,263 529,265 530,266 530,269 531,270 531,272 532,272 533,273 538,273 539,274 543,274 544,275 548,275 549,276 560,276 561,277 570,277 571,276 581,276 582,275 587,275 588,274 593,274 594,273 597,273 598,272 600,272 601,271 604,271 605,270 607,270 608,269 610,269 611,268 614,268 615,267 616,267 617,266 617,264 618,263 618,247" stroke="black" stroke-width="1" /><polyline fill="none" points="610,247 609,248 605,248 604,249 595,249 594,250 588,250 587,251 586,251 587,251 588,250 594,250 595,249 604,249 605,248 609,248 610,247 612,247 613,248 613,247" stroke="black" stroke-width="1" /><polyline fill="none" points="578,247 577,248 567,248 566,249 559,249 558,250 551,250 550,251 542,251 541,252 536,252 535,253 530,253 529,254 528,254 527,255 527,256 527,255 528,254 529,254 530,253 535,253 536,252 541,252 542,251 550,251 551,250 558,250 559,249 566,249 567,248 577,248 578,247 586,247" stroke="black" stroke-width="1" /><polyline fill="none" points="455,247 454,248 449,248 448,249 443,249 442,250 436,250 435,251 436,250 442,250 443,249 448,249 449,248 454,248 455,247 456,247 457,248 460,248 462,250 463,250 468,255 469,255 470,256 470,257 472,259 472,260 474,262 474,263 475,264 475,265 476,266 476,268 477,269 477,270 478,271 478,273 479,274 479,276 480,277 480,282 481,283 481,305 480,306 480,309 479,310 479,313 478,314 478,317 477,318 477,319 475,321 475,322 469,328 467,328 466,329 457,329 456,330 447,330 446,331 444,331 446,331 447,330 456,330 457,329 466,329 467,328 470,328 475,323 475,322 476,321 476,320 477,319 477,318 478,317 478,314 479,313 479,310 480,309 480,306 481,305 481,283 480,282 480,277 479,276 479,274 478,273 478,271 477,270 477,268 476,267 476,266 475,265 475,264 474,263 474,262 473,261 473,260 471,258 471,257 464,250 463,250 462,249 461,249 460,248 457,248 456,247" stroke="black" stroke-width="1" /><polyline fill="none" points="422,247 421,248 419,248 418,249 417,249 416,250 414,250 416,250 417,249 418,249 419,248 422,248 423,247" stroke="black" stroke-width="1" /><polyline fill="none" points="680,243 680,244 679,245 678,244 679,245 680,244 693,244 694,243 701,243 702,244 703,244 706,247 706,253 705,254 705,256 703,258 703,259 700,262 699,262 697,264 696,264 695,265 692,265 691,266 690,266 689,265 686,265 684,263 683,263 679,259 679,258 678,257 678,256 677,255 677,253 676,252 676,247 677,246 676,245 676,244 650,244 649,245 648,245 649,245 650,244 675,244 677,246 676,247 676,252 677,253 677,256 678,257 678,258 679,259 679,260 682,263 683,263 685,265 689,265 690,266 691,266 692,265 695,265 696,264 698,264 700,262 701,262 703,260 703,259 705,257 705,254 706,253 706,247 705,246 705,245 706,244 722,244 724,246 724,257 722,259 721,259 720,260 719,260 718,261 717,261 716,262 715,262 714,263 713,263 712,264 711,264 710,265 709,265 708,266 707,266 706,267 704,267 703,268 699,268 698,269 692,269 691,270 671,270 670,269 664,269 663,268 658,268 657,267 655,267 652,264 652,263 651,262 651,259 650,258 650,254 649,253 649,248 648,247 649,248 649,253 650,254 650,258 651,259 651,262 652,263 652,265 653,266 654,266 655,267 657,267 658,268 663,268 664,269 670,269 671,270 691,270 692,269 698,269 699,268 703,268 704,267 706,267 707,266 708,266 709,265 711,265 712,264 713,264 714,263 715,263 716,262 717,262 718,261 719,261 720,260 721,260 722,259 723,259 724,258 724,246 723,245 723,244 706,244 705,245 704,244 702,244 701,243 694,243 693,244 681,244" stroke="black" stroke-width="1" /><polyline fill="none" points="744,238 746,240 746,247 747,248 747,252 748,253 747,254 748,253 755,253 749,253 747,251 747,248 746,247 746,241 748,239 750,239 754,243 754,244 755,245 755,246 756,247 756,249 757,250 757,253 757,250 756,249 756,247 755,246 755,245 754,244 754,242 751,239 748,239 747,240 746,240 745,239 745,238" stroke="black" stroke-width="1" /><polyline fill="none" points="414,227 413,228 410,228 408,230 409,230 410,231 410,233 411,234 411,236 412,237 412,240 413,241 413,244 414,245 414,247 414,245 413,244 413,241 412,240 412,237 411,236 411,234 410,233 410,231 409,230 411,228 413,228 414,227 418,227" stroke="black" stroke-width="1" /><polyline fill="none" points="568,204 567,205 563,205 562,206 559,206 558,207 557,207 556,208 554,208 553,209 552,209 550,211 549,211 547,213 546,213 544,215 544,216 538,222 538,223 537,224 537,225 536,226 536,227 534,229 534,230 533,231 533,232 532,233 532,235 531,236 531,238 530,239 530,244 529,245 529,250 529,245 530,244 530,240 531,239 531,236 532,235 532,234 533,233 533,232 534,231 534,230 535,229 535,228 537,226 537,225 538,224 538,223 544,217 544,216 547,213 548,213 550,211 551,211 553,209 554,209 555,208 556,208 557,207 558,207 559,206 562,206 563,205 567,205 568,204 577,204 578,205 582,205 583,206 586,206 587,207 588,207 589,208 590,208 591,209 592,209 593,210 594,210 595,211 596,211 597,212 598,212 607,221 607,222 609,224 609,225 611,227 611,228 612,229 612,230 613,231 613,232 614,233 614,234 615,235 615,237 617,239 617,242 615,244 614,244 613,245 614,244 615,244 616,243 618,243 617,242 617,238 615,236 615,234 614,233 614,232 613,231 613,230 612,229 612,228 611,227 611,226 609,224 609,223 607,221 607,220 599,212 598,212 597,211 595,211 594,210 593,210 591,208 589,208 588,207 587,207 586,206 583,206 582,205 578,205 577,204" stroke="black" stroke-width="1" /><polyline fill="none" points="408,203 407,204 404,204 405,205 406,204 407,204 408,203 409,203" stroke="black" stroke-width="1" /><polyline fill="none" points="408,200 407,201 404,201 407,201" stroke="black" stroke-width="1" /><polyline fill="none" points="567,194 566,195 563,195 562,196 561,196 560,197 557,197 556,198 555,198 553,200 552,200 551,201 550,201 548,203 547,203 540,210 540,211 537,214 537,215 535,217 535,218 534,219 534,220 532,222 532,224 531,225 531,226 530,227 530,229 529,230 529,233 528,234 528,237 527,238 527,242 526,243 526,253 526,243 527,242 527,238 528,237 528,234 529,233 529,230 530,229 530,227 532,225 532,223 534,221 534,220 535,219 535,218 537,216 537,215 540,212 540,211 548,203 549,203 551,201 552,201 553,200 554,200 556,198 557,198 558,197 560,197 561,196 562,196 563,195 566,195 567,194 582,194 583,195 587,195 588,196 590,196 592,198 594,198 595,199 596,199 597,200 598,200 600,202 601,202 603,204 604,204 608,208 609,208 614,213 614,214 616,216 616,217 618,219 618,220 620,222 620,223 621,224 621,225 622,226 622,227 623,228 623,230 624,231 624,233 625,234 625,236 626,237 626,241 627,242 627,261 626,262 626,267 625,268 625,270 624,271 624,273 623,274 623,276 622,277 622,278 621,279 621,280 620,281 620,282 619,283 619,284 618,285 618,286 615,289 615,290 606,299 605,299 602,302 601,302 600,303 599,303 598,304 597,304 596,305 595,305 594,306 591,306 590,307 587,307 586,308 582,308 581,309 575,309 574,308 569,308 568,307 564,307 563,306 562,306 561,305 560,305 559,304 558,304 557,303 556,303 555,302 554,302 553,301 552,301 550,299 549,299 546,296 545,296 543,294 543,293 537,287 537,286 536,285 536,284 534,282 534,281 533,280 533,279 532,278 532,277 531,276 531,274 531,276 532,277 532,279 533,280 533,281 535,283 535,284 536,285 536,286 537,287 537,288 544,295 544,296 545,296 548,299 549,299 551,301 552,301 553,302 554,302 555,303 556,303 557,304 558,304 559,305 560,305 561,306 563,306 564,307 568,307 569,308 574,308 575,309 581,309 582,308 586,308 587,307 590,307 591,306 594,306 595,305 597,305 598,304 599,304 600,303 601,303 602,302 603,302 606,299 607,299 615,291 615,290 618,287 618,286 619,285 619,284 620,283 620,282 621,281 621,279 622,278 622,277 623,276 623,274 624,273 624,271 625,270 625,268 626,267 626,262 627,261 627,242 626,241 626,237 625,236 625,234 624,233 624,231 623,230 623,228 622,227 622,225 621,224 621,223 620,222 620,221 618,219 618,218 616,216 616,215 614,213 614,212 610,208 609,208 605,204 604,204 602,202 601,202 599,200 598,200 597,199 596,199 595,198 593,198 592,197 591,197 590,196 588,196 587,195 583,195 582,194" stroke="black" stroke-width="1" /><polyline fill="none" points="683,191 682,192 677,192 676,193 675,193 674,194 672,194 671,195 670,195 669,196 668,196 667,197 666,197 662,201 661,201 660,202 660,203 655,208 655,209 654,210 654,211 652,213 652,214 651,215 651,217 650,218 650,220 649,221 649,223 648,224 648,227 647,228 647,233 646,234 646,239 647,240 647,243 648,243 647,242 648,241 653,241 654,240 682,240 683,239 710,239 711,240 712,240 713,239 714,240 718,240 719,239 721,239 722,238 722,235 721,234 721,232 720,231 720,230 719,229 719,228 718,227 718,226 716,224 716,223 715,222 715,221 712,218 712,217 706,211 705,211 703,209 702,209 699,206 698,206 697,205 695,205 694,204 692,204 691,203 689,203 688,202 675,202 674,203 671,203 670,204 669,204 668,205 667,205 666,206 665,206 663,208 662,208 660,210 659,210 659,211 656,214 656,215 654,217 654,219 653,220 653,221 652,222 652,224 651,225 651,227 650,228 650,232 649,233 650,232 650,229 651,228 651,225 652,224 652,223 653,222 653,220 654,219 654,218 656,216 656,215 658,213 658,212 660,210 661,210 663,208 664,208 666,206 667,206 668,205 669,205 670,204 671,204 672,203 674,203 675,202 688,202 689,203 691,203 692,204 694,204 695,205 696,205 697,206 698,206 701,209 702,209 704,211 705,211 712,218 712,219 715,222 715,223 716,224 716,225 718,227 718,228 719,229 719,230 720,231 720,232 721,233 721,234 722,235 722,237 720,239 719,239 718,240 714,240 713,239 712,240 711,240 710,239 683,239 682,240 654,240 653,241 648,241 646,239 646,234 647,233 647,228 648,227 648,224 649,223 649,221 650,220 650,218 651,217 651,216 652,215 652,214 654,212 654,211 655,210 655,209 660,204 660,203 662,201 663,201 667,197 668,197 669,196 670,196 671,195 672,195 673,194 674,194 675,193 676,193 677,192 682,192 683,191 687,191 688,192 692,192 693,193 695,193 696,194 698,194 699,195 700,195 701,196 702,196 703,197 704,197 705,198 706,198 709,201 710,201 721,212 721,213 722,214 722,215 724,217 724,218 726,220 726,221 727,222 727,223 728,224 728,225 730,227 730,229 731,230 731,233 732,234 732,237 733,238 733,242 734,243 734,253 733,254 733,259 732,260 732,264 731,265 731,267 730,268 730,269 729,270 729,272 728,273 728,274 727,275 727,276 726,277 726,278 725,279 725,280 724,281 724,282 722,284 722,285 715,292 714,292 711,295 710,295 709,296 708,296 707,297 706,297 705,298 704,298 703,299 701,299 700,300 687,300 686,299 684,299 683,298 681,298 680,297 679,297 678,296 677,296 676,295 675,295 674,294 673,294 671,292 670,292 658,280 658,279 656,277 656,276 655,275 655,274 654,273 654,271 652,269 653,270 653,271 654,272 654,274 655,275 655,276 657,278 657,279 658,280 658,281 669,292 670,292 672,294 673,294 674,295 675,295 676,296 678,296 679,297 680,297 681,298 682,298 683,299 686,299 687,300 700,300 701,299 703,299 704,298 706,298 707,297 708,297 709,296 710,296 711,295 712,295 715,292 716,292 722,286 722,285 724,283 724,282 725,281 725,280 726,279 726,277 728,275 728,273 729,272 729,270 730,269 730,268 731,267 731,265 732,264 732,260 733,259 733,254 734,253 734,243 733,242 733,238 732,237 732,234 731,233 731,230 730,229 730,227 729,226 729,225 728,224 728,223 727,222 727,221 725,219 725,218 724,217 724,216 722,214 722,213 721,212 721,211 711,201 710,201 707,198 706,198 705,197 704,197 703,196 702,196 701,195 699,195 698,194 697,194 696,193 693,193 692,192 688,192 687,191" stroke="black" stroke-width="1" /><polyline fill="none" points="504,181 505,180 506,181 505,182" stroke="black" stroke-width="1" /><polyline fill="none" points="622,164 621,165 620,165 620,166 619,167 620,168 620,170 621,171 621,172 624,175 625,175 626,176 627,176 628,175 641,175 642,176 652,176 653,177 658,177 659,178 663,178 664,179 668,179 669,180 671,180 672,181 674,181 675,182 678,182 679,183 681,183 682,184 684,184 685,185 686,185 687,186 689,186 690,187 691,187 692,188 694,188 695,189 696,189 697,190 699,190 700,191 701,191 702,192 703,192 705,194 706,194 707,195 708,195 709,196 710,196 712,198 713,198 716,201 717,201 718,202 718,203 719,203 721,205 721,206 723,208 723,209 725,211 725,212 726,213 726,214 727,215 727,216 728,217 728,218 728,216 727,215 727,214 726,213 726,212 725,211 725,210 723,208 723,207 721,205 721,204 720,203 719,203 714,198 713,198 711,196 710,196 709,195 708,195 707,194 706,194 704,192 703,192 702,191 700,191 699,190 697,190 695,188 693,188 692,187 690,187 689,186 687,186 686,185 685,185 684,184 682,184 681,183 679,183 678,182 675,182 674,181 672,181 671,180 669,180 668,179 664,179 663,178 659,178 658,177 653,177 652,176 642,176 641,175 628,175 627,176 626,176 625,175 624,175 623,174 623,173 621,171 621,170 620,169 620,168 619,167 622,164 647,164 648,165 655,165 656,166 661,166 662,167 666,167 667,168 671,168 672,169 675,169 676,170 679,170 680,171 682,171 683,172 685,172 686,173 688,173 689,174 691,174 692,175 694,175 695,176 697,176 698,177 699,177 700,178 702,178 703,179 704,179 705,180 706,180 707,181 708,181 709,182 711,182 712,183 713,183 714,184 715,184 716,185 717,185 718,186 720,186 721,187 722,187 723,188 725,188 726,189 727,189 728,190 729,190 732,193 732,195 733,196 733,199 734,200 734,202 735,203 735,205 736,206 736,209 737,210 737,213 738,214 738,218 739,219 739,223 740,224 740,230 741,231 741,232 742,233 741,232 741,231 740,230 740,224 739,223 739,219 738,218 738,214 737,213 737,210 736,209 736,206 735,205 735,203 734,202 734,200 733,199 733,196 732,195 732,193 731,192 731,191 730,190 728,190 727,189 726,189 725,188 724,188 723,187 721,187 720,186 718,186 716,184 714,184 713,183 712,183 711,182 710,182 709,181 708,181 707,180 706,180 705,179 703,179 702,178 700,178 699,177 698,177 697,176 695,176 694,175 692,175 691,174 689,174 688,173 686,173 685,172 683,172 682,171 680,171 679,170 676,170 675,169 672,169 671,168 667,168 666,167 662,167 661,166 656,166 655,165 648,165 647,164" stroke="black" stroke-width="1" /><polyline fill="none" points="399,147 401,147 402,148 403,148 407,152 407,154 404,157 402,157 401,156 400,156 397,153 397,149" stroke="black" stroke-width="1" /><polyline fill="none" points="398,147 397,148 397,154 399,156 400,156 401,157 405,157 407,155 407,151 404,148 402,148 401,147" stroke="black" stroke-width="1" /><polyline fill="none" points="578,142 579,141 593,141 594,142 596,142 597,143 598,143 600,145 600,146 601,147 598,150 580,150 579,151 571,151 570,152 566,152 565,153 558,153 556,151 556,150 555,149 556,148 556,147 558,145 559,145 560,144 564,144 565,143 569,143 570,142" stroke="black" stroke-width="1" /><polyline fill="none" points="393,142 392,143 389,143 388,144 386,144 385,145 384,145 380,149 380,150 378,152 378,154 377,155 377,165 378,166 378,168 380,170 380,171 383,174 384,174 385,175 387,175 388,176 394,176 395,177 395,178 396,179 396,182 397,183 397,187 398,188 398,191 399,192 399,195 400,196 400,199 401,200 401,205 402,206 402,207 403,208 403,211 404,212 404,215 405,216 405,218 406,219 406,222 407,223 407,226 405,228 405,230 406,231 406,232 407,233 407,235 408,236 408,239 409,240 409,243 410,244 410,246 411,247 411,250 412,251 412,254 413,255 413,256 414,257 414,260 415,261 415,263 416,264 416,267 415,268 415,269 414,270 414,271 413,272 413,273 412,274 412,277 411,278 411,282 410,283 410,291 411,292 411,296 412,297 412,298 413,299 413,301 414,302 414,305 415,306 415,307 416,308 416,310 417,311 417,312 418,313 418,314 419,315 419,316 421,318 421,319 424,322 424,323 425,324 426,324 429,327 430,327 432,329 434,329 435,330 439,330 440,331 441,331 442,332 442,335 443,336 443,340 444,341 444,344 445,345 445,349 446,350 446,354 447,355 447,359 448,360 448,362 505,362 506,361 529,361 530,360 550,360 551,359 571,359 572,358 573,359 574,359 575,360 575,370 576,371 576,372 576,371 575,370 575,359 576,358 577,358 578,357 590,357 591,356 604,356 605,355 615,355 616,354 625,354 626,353 631,353 626,353 625,354 616,354 615,355 605,355 604,356 591,356 590,357 578,357 577,358 576,358 575,359 574,358 573,359 572,358 571,359 551,359 550,360 530,360 529,361 506,361 505,362 449,362 448,361 448,360 447,359 447,355 446,354 446,350 445,349 445,345 444,344 444,341 443,340 443,336 442,335 442,331 440,331 439,330 435,330 434,329 433,329 431,327 430,327 427,324 426,324 424,322 424,321 421,318 421,317 419,315 419,314 418,313 418,312 417,311 417,310 416,309 416,308 415,307 415,306 414,305 414,302 413,301 413,299 412,298 412,297 411,296 411,292 410,291 410,283 411,282 411,278 412,277 412,274 414,272 414,271 415,270 415,269 416,268 416,264 415,263 415,261 414,260 414,257 413,256 413,254 412,253 412,251 411,250 411,247 410,246 410,244 409,243 409,240 408,239 408,236 407,235 407,232 406,231 406,230 405,229 408,226 407,225 407,223 406,222 406,219 405,218 405,216 404,215 404,212 403,211 403,208 402,207 402,205 401,204 401,200 400,199 400,196 399,195 399,192 398,191 398,188 397,187 397,183 396,182 396,179 395,178 395,176 388,176 387,175 386,175 385,174 384,174 380,170 380,169 378,167 378,166 377,165 377,155 378,154 378,153 380,151 380,150 385,145 386,145 387,144 388,144 389,143 392,143 393,142 398,142 399,143 401,143 402,144 403,144 405,146 406,146 410,150 410,151 412,153 412,155 413,156 413,165 412,166 412,167 406,173 405,173 404,174 403,173 403,172 406,169 407,169 407,168 409,166 409,165 410,164 410,158 410,164 409,165 409,166 403,172 402,172 401,173 399,173 398,174 395,174 394,173 388,173 382,167 382,166 380,164 380,156 381,155 381,154 383,152 383,151 385,149 386,149 388,147 389,147 390,146 392,146 393,145 395,145 393,145 392,146 389,146 387,148 386,148 382,152 382,153 381,154 381,155 380,156 380,164 381,165 381,166 382,167 382,168 386,172 387,172 388,173 394,173 395,174 398,174 399,173 401,173 402,172 404,174 404,177 405,178 405,180 406,181 406,184 407,185 407,188 408,189 408,192 409,193 409,196 410,197 410,200 411,201 411,203 412,204 412,207 413,208 413,210 414,211 414,214 415,215 415,218 416,219 416,221 416,219 415,218 415,215 414,214 414,211 413,210 413,208 412,207 412,204 411,203 411,200 410,199 410,197 409,196 409,193 408,192 408,189 407,188 407,185 406,184 406,181 405,180 405,178 404,177 404,175 406,173 407,173 412,168 412,166 413,165 413,156 412,155 412,153 411,152 411,151 410,150 410,149 407,146 406,146 404,144 402,144 401,143 399,143 398,142" stroke="black" stroke-width="1" /><polyline fill="none" points="579,141 578,142 570,142 569,143 565,143 564,144 560,144 559,145 557,145 556,146 556,148 555,149 556,150 556,152 557,153 565,153 566,152 570,152 571,151 579,151 580,150 598,150 599,149 600,149 600,148 601,147 600,146 600,144 599,143 598,143 597,142 594,142 593,141" stroke="black" stroke-width="1" /><polyline fill="none" points="577,139 578,138 595,138 596,139 602,139 603,140 608,140 609,141 613,141 614,142 617,142 618,143 620,143 621,144 623,144 624,145 625,145 626,146 627,146 628,147 629,147 630,148 631,148 632,149 633,149 639,155 639,156 640,157 640,158 639,159 638,159 636,157 636,156 633,153 632,153 631,152 634,155 635,155 636,156 636,158 634,160 627,160 626,159 614,159 613,160 599,160 598,161 589,161 588,162 583,162 582,163 576,163 575,164 571,164 570,165 566,165 565,166 559,166 558,167 552,167 551,168 548,168 547,169 544,169 543,170 540,170 539,171 536,171 535,172 532,172 531,173 528,173 527,174 525,174 524,175 522,175 521,176 519,176 518,177 516,177 515,178 513,178 512,179 509,179 508,180 507,180 506,181 505,180 504,181 503,180 503,178 504,177 504,175 505,174 505,173 506,172 506,171 516,161 517,161 519,159 520,159 522,157 523,157 525,155 526,155 527,154 528,154 529,153 530,153 531,152 532,152 533,151 534,151 535,150 536,150 537,149 538,149 539,148 540,148 541,147 543,147 544,146 545,146 546,145 548,145 549,144 552,144 553,143 555,143 556,142 559,142 560,141 563,141 564,140 569,140 570,139" stroke="black" stroke-width="1" /><polyline fill="none" points="578,138 577,139 570,139 569,140 564,140 563,141 560,141 559,142 556,142 555,143 553,143 552,144 549,144 548,145 546,145 545,146 544,146 543,147 540,147 539,148 538,148 537,149 536,149 535,150 534,150 533,151 532,151 531,152 530,152 529,153 528,153 527,154 526,154 525,155 524,155 522,157 521,157 519,159 518,159 516,161 515,161 506,170 506,171 505,172 505,173 504,174 504,177 503,178 503,180 502,181 501,181 500,182 499,182 498,183 496,183 495,184 493,184 492,185 490,185 489,186 487,186 486,187 485,187 484,188 483,188 482,189 480,189 478,191 477,191 476,192 475,192 474,193 472,193 471,194 470,194 469,195 468,195 467,196 466,196 465,197 464,197 463,198 462,198 461,199 460,199 459,200 458,200 457,201 456,201 454,203 453,203 452,204 451,204 450,205 449,205 448,206 447,206 446,207 445,207 444,208 443,208 442,209 441,209 440,210 439,210 437,212 436,212 434,214 433,214 431,216 431,217 430,218 430,219 431,220 431,235 432,236 432,249 433,250 430,253 428,253 427,252 427,251 426,250 426,247 425,246 425,242 424,241 424,238 423,237 423,233 422,232 422,228 421,227 421,224 418,224 417,223 416,223 415,224 413,224 412,225 410,225 412,225 413,224 415,224 416,223 417,223 418,224 420,224 421,225 421,227 422,228 422,232 423,233 423,237 424,238 424,241 425,242 425,247 426,248 426,250 427,251 427,252 428,253 431,253 433,251 433,250 432,249 432,236 431,235 431,220 430,219 430,218 434,214 435,214 437,212 438,212 440,210 441,210 442,209 443,209 444,208 445,208 446,207 447,207 448,206 449,206 450,205 451,205 452,204 453,204 454,203 455,203 457,201 458,201 459,200 460,200 461,199 462,199 463,198 464,198 465,197 466,197 467,196 468,196 469,195 470,195 471,194 472,194 473,193 474,193 475,192 476,192 477,191 479,191 481,189 482,189 483,188 484,188 485,187 486,187 487,186 489,186 490,185 492,185 493,184 495,184 496,183 498,183 499,182 501,182 503,180 505,182 507,180 508,180 509,179 512,179 513,178 515,178 516,177 518,177 519,176 521,176 522,175 524,175 525,174 527,174 528,173 531,173 532,172 535,172 536,171 539,171 540,170 543,170 544,169 547,169 548,168 551,168 552,167 558,167 559,166 565,166 566,165 570,165 571,164 575,164 576,163 582,163 583,162 588,162 589,161 598,161 599,160 613,160 614,159 626,159 627,160 634,160 635,159 639,159 640,158 641,159 643,159 644,160 651,160 652,161 658,161 659,162 662,162 663,163 668,163 669,164 671,164 672,165 675,165 676,166 678,166 679,167 682,167 683,168 685,168 686,169 688,169 689,170 691,170 692,171 694,171 695,172 696,172 697,173 699,173 700,174 701,174 702,175 703,175 704,176 706,176 707,177 708,177 709,178 710,178 711,179 712,179 713,180 714,180 715,181 717,181 718,182 720,182 721,183 722,183 723,184 724,184 725,185 726,185 727,186 728,186 729,187 730,187 731,188 732,188 735,191 735,195 736,196 736,198 737,199 737,201 738,202 738,204 739,205 739,209 740,210 740,212 741,213 741,217 742,218 742,222 743,223 743,229 745,231 744,232 745,231 746,231 747,232 748,232 750,234 751,234 753,236 753,237 756,240 756,241 757,242 757,243 758,244 758,245 759,246 759,248 760,249 760,251 761,252 761,256 762,257 762,264 763,265 763,272 762,273 762,280 761,281 761,283 760,284 760,286 758,288 758,289 757,290 757,291 750,298 749,298 747,296 747,295 746,294 746,269 745,268 745,254 744,253 744,250 743,249 743,245 742,244 742,235 742,244 743,245 743,249 744,250 744,253 745,254 745,268 746,269 746,294 747,295 747,298 746,299 746,325 747,326 747,328 746,329 746,330 745,331 743,331 742,332 740,332 739,331 739,328 738,327 738,277 737,276 737,261 736,260 736,258 736,260 737,261 737,276 738,277 738,327 739,328 739,331 737,333 735,333 734,334 731,334 730,335 726,335 725,336 722,336 721,337 716,337 715,338 711,338 710,339 705,339 704,340 699,340 698,341 693,341 692,342 685,342 684,343 678,343 677,344 668,344 667,345 660,345 659,346 650,346 649,347 640,347 639,348 628,348 627,349 616,349 615,350 608,350 607,351 597,351 596,352 583,352 582,353 574,353 573,354 562,354 561,355 553,355 552,356 540,356 539,357 523,357 522,358 506,358 504,356 504,352 503,351 503,345 502,344 502,340 501,339 501,330 500,329 500,325 499,324 499,316 498,315 498,311 497,310 497,302 496,301 496,296 495,295 495,288 494,287 494,280 493,279 493,273 492,272 492,268 491,267 491,261 490,260 490,253 489,252 489,245 488,244 488,236 487,235 487,229 486,228 486,218 485,217 485,211 484,210 484,199 483,198 483,192 484,191 483,192 483,198 484,199 484,210 485,211 485,217 486,218 486,228 487,229 487,235 488,236 488,244 489,245 489,252 490,253 490,260 491,261 491,267 492,268 492,272 493,273 493,279 494,280 494,287 495,288 495,295 496,296 496,301 497,302 497,310 498,311 498,315 499,316 499,324 500,325 500,329 501,330 501,339 502,340 502,344 503,345 503,351 504,352 504,356 505,357 505,358 522,358 523,357 539,357 540,356 552,356 553,355 561,355 562,354 573,354 574,353 582,353 583,352 596,352 597,351 607,351 608,350 615,350 616,349 627,349 628,348 639,348 640,347 649,347 650,346 659,346 660,345 667,345 668,344 677,344 678,343 684,343 685,342 692,342 693,341 698,341 699,340 704,340 705,339 710,339 711,338 715,338 716,337 721,337 722,336 725,336 726,335 730,335 731,334 734,334 735,333 737,333 739,331 740,332 742,332 743,331 746,331 747,330 746,329 747,328 747,326 746,325 746,299 748,297 749,298 749,311 750,312 750,330 749,331 749,332 748,333 747,333 746,334 744,334 743,335 740,335 739,336 735,336 734,337 731,337 730,338 727,338 726,339 722,339 721,340 716,340 715,341 712,341 711,342 707,342 706,343 701,343 700,344 696,344 695,345 691,345 690,346 684,346 683,347 679,347 678,348 673,348 672,349 666,349 665,350 660,350 659,351 653,351 652,352 645,352 644,353 636,353 635,354 633,354 632,355 632,362 633,363 633,374 632,375 630,375 629,374 628,375 616,375 615,374 614,375 611,375 610,374 605,374 604,373 597,373 604,373 605,374 610,374 611,375 614,375 615,374 616,375 632,375 633,374 634,375 638,375 639,376 644,376 645,377 650,377 651,378 657,378 658,379 663,379 664,380 668,380 669,381 673,381 674,382 679,382 680,383 685,383 686,384 692,384 693,385 698,385 699,386 700,386 702,388 702,394 703,395 702,396 701,396 699,394 699,389 697,389 696,388 693,388 692,387 686,387 685,386 676,386 675,385 665,385 664,384 654,384 653,383 646,383 645,382 634,382 633,381 620,381 619,382 614,382 613,381 612,381 613,381 614,382 619,382 620,381 633,381 634,382 645,382 646,383 653,383 654,384 664,384 665,385 675,385 676,386 685,386 686,387 692,387 693,388 696,388 697,389 698,389 699,390 699,394 701,396 700,397 701,398 701,416 702,417 702,427 703,428 703,448 704,449 704,454 703,455 703,460 704,461 704,476 705,477 704,478 705,479 705,492 706,493 706,512 707,513 707,525 706,526 698,526 696,524 696,518 697,517 697,515 696,514 696,507 697,506 696,505 696,469 695,468 695,466 693,464 691,464 690,463 681,463 680,462 680,458 681,457 681,442 680,441 680,438 679,437 679,435 678,434 678,432 676,430 676,429 675,428 675,426 673,424 673,423 665,415 664,415 662,413 661,413 660,412 658,412 657,411 655,411 654,410 653,410 652,409 646,409 645,408 641,408 640,409 634,409 633,410 631,410 630,411 628,411 627,412 626,412 625,413 624,413 622,415 621,415 618,418 617,418 613,422 613,423 610,426 610,427 608,429 608,430 607,431 607,433 606,434 606,436 605,437 605,440 604,441 604,446 603,447 603,449 604,450 604,453 603,454 602,453 604,455 604,456 605,457 605,459 606,460 605,461 584,461 583,462 582,462 581,463 581,465 580,466 580,474 579,475 579,489 578,490 575,487 574,487 572,485 571,485 567,481 567,465 568,464 568,454 567,453 567,450 568,449 568,387 569,386 567,384 560,384 559,383 546,383 545,382 535,382 545,382 546,383 559,383 560,384 566,384 568,386 568,449 567,450 567,453 568,454 568,464 567,465 567,482 570,485 571,485 573,487 574,487 576,489 577,489 578,490 578,492 577,493 573,489 572,489 570,487 569,487 568,486 567,486 566,485 565,485 564,484 561,484 560,485 559,485 558,486 556,486 554,488 553,488 552,489 550,489 549,490 548,490 546,492 544,492 543,493 541,493 535,499 534,499 530,503 530,504 529,505 529,506 528,507 528,508 527,509 527,511 526,512 526,516 527,517 527,519 528,520 528,522 529,523 529,524 532,527 532,528 533,529 533,530 535,532 535,533 538,536 538,537 541,540 542,540 544,542 544,543 542,545 541,544 541,543 540,542 539,542 538,541 537,541 535,539 534,539 533,538 532,538 530,536 529,536 528,535 527,535 525,533 524,533 521,530 520,530 517,527 516,527 510,521 508,521 507,520 497,520 496,519 490,519 489,518 489,485 490,484 490,466 491,465 491,447 492,446 492,444 493,443 491,441 491,440 488,437 488,436 487,435 487,434 485,432 485,430 484,429 484,426 483,425 483,410 484,409 484,407 485,406 485,405 486,404 486,403 487,402 487,401 489,399 489,398 492,395 492,394 495,391 496,391 498,389 499,389 502,386 502,384 501,383 502,382 502,380 503,379 504,379 505,378 512,378 513,377 520,377 521,376 532,376 533,375 541,375 542,374 553,374 554,373 564,373 565,372 574,372 565,372 564,373 554,373 553,374 542,374 541,375 533,375 532,376 521,376 520,377 513,377 512,378 505,378 504,379 502,379 502,382 501,383 502,384 502,385 498,389 497,389 495,391 494,391 492,393 492,394 489,397 489,398 487,400 487,401 486,402 486,403 485,404 485,406 484,407 484,409 483,410 483,425 484,426 484,429 485,430 485,432 486,433 486,434 487,435 487,436 488,437 488,438 491,441 491,442 492,443 492,446 491,447 491,465 490,466 490,484 489,485 489,519 496,519 497,520 507,520 508,521 509,521 515,527 516,527 519,530 520,530 523,533 524,533 526,535 527,535 528,536 529,536 531,538 532,538 533,539 534,539 536,541 537,541 538,542 539,542 542,545 542,546 541,547 541,550 540,551 540,555 539,556 539,559 538,560 538,561 537,562 537,563 536,564 536,566 535,567 535,568 532,571 531,571 530,572 529,572 524,577 523,576 522,576 517,571 516,571 515,570 514,570 513,569 512,569 511,568 509,568 508,567 507,567 506,566 502,566 501,565 488,565 487,566 482,566 481,567 477,567 476,568 474,568 473,569 473,571 474,572 474,574 475,575 475,577 476,578 476,581 477,582 477,584 478,585 478,587 479,588 479,590 480,591 480,593 481,594 481,595 482,596 482,597 483,598 483,600 484,601 484,602 485,603 485,604 486,605 486,606 487,607 487,608 488,609 488,610 489,611 489,612 490,613 490,614 492,616 492,617 493,618 493,619 496,622 496,623 499,626 499,627 506,634 506,635 515,644 516,644 520,648 523,648 524,647 525,647 528,644 528,643 531,640 531,639 534,636 534,635 535,634 535,633 537,631 537,629 538,628 538,627 539,626 539,624 540,623 540,620 541,619 541,607 540,606 540,603 539,602 539,601 541,599 542,599 544,597 545,597 547,595 548,595 551,592 552,592 558,586 558,585 561,582 561,581 563,579 563,578 564,577 564,576 565,575 565,574 566,573 566,571 567,570 567,568 568,567 568,564 569,563 569,560 570,559 570,556 572,554 577,554 578,555 582,555 583,556 590,556 591,557 626,557 627,556 632,556 633,555 637,555 638,554 641,554 643,556 643,557 644,558 644,559 645,560 645,562 646,563 646,566 647,567 647,569 648,570 648,572 649,573 649,575 650,576 650,579 651,580 651,585 652,586 652,591 653,592 653,598 650,601 649,601 644,606 644,607 642,609 642,610 641,611 641,612 640,613 640,614 639,615 639,616 638,617 638,619 637,620 637,622 636,623 636,626 635,627 635,640 674,640 675,639 685,639 686,638 693,638 694,637 698,637 699,636 703,636 704,635 708,635 709,634 712,634 713,633 715,633 716,632 718,632 719,631 722,631 723,630 726,630 727,629 727,624 726,623 726,621 725,620 725,619 724,618 724,616 723,615 723,614 722,613 722,612 720,610 720,609 718,607 718,606 709,597 708,597 707,596 706,596 705,595 704,595 703,594 701,594 700,593 698,593 697,592 694,592 693,591 684,591 682,589 682,582 681,581 681,577 680,576 680,573 679,572 679,569 678,568 678,565 677,564 677,561 676,560 676,559 675,558 675,556 676,555 678,555 679,556 685,556 686,555 688,555 689,554 690,554 691,553 692,553 694,551 695,551 695,550 698,547 698,546 699,545 699,542 700,541 700,537 701,536 701,535 702,534 709,534 710,533 710,504 709,503 709,492 708,491 708,474 707,473 707,455 709,453 710,453 714,449 714,448 716,446 716,445 717,444 717,443 718,442 718,441 719,440 719,438 720,437 720,435 721,434 721,430 722,429 722,420 721,419 721,415 720,414 720,412 719,411 719,409 718,408 718,407 717,406 717,405 714,402 714,401 713,400 712,400 709,397 708,397 707,396 706,396 705,395 704,395 702,393 702,387 701,386 699,386 698,385 693,385 692,384 686,384 685,383 680,383 679,382 674,382 673,381 669,381 668,380 664,380 663,379 658,379 657,378 651,378 650,377 645,377 644,376 639,376 638,375 635,375 633,373 633,363 632,362 632,355 633,354 635,354 636,353 644,353 645,352 652,352 653,351 659,351 660,350 665,350 666,349 672,349 673,348 678,348 679,347 683,347 684,346 690,346 691,345 695,345 696,344 700,344 701,343 706,343 707,342 711,342 712,341 715,341 716,340 721,340 722,339 726,339 727,338 730,338 731,337 734,337 735,336 739,336 740,335 743,335 744,334 747,334 748,333 749,333 749,331 750,330 750,312 749,311 749,299 750,298 751,298 757,292 757,291 758,290 758,289 759,288 759,287 760,286 760,284 761,283 761,281 762,280 762,273 763,272 763,265 762,264 762,257 761,256 761,252 760,251 760,249 759,248 759,246 758,245 758,244 757,243 757,241 756,240 756,239 753,236 753,235 752,234 751,234 749,232 748,232 747,231 745,231 744,230 744,229 743,228 743,223 742,222 742,218 741,217 741,213 740,212 740,210 739,209 739,205 738,204 738,202 737,201 737,199 736,198 736,196 735,195 735,191 734,190 734,189 733,188 732,188 731,187 730,187 729,186 728,186 727,185 726,185 725,184 723,184 722,183 721,183 720,182 719,182 718,181 716,181 715,180 714,180 713,179 712,179 711,178 710,178 709,177 708,177 707,176 705,176 704,175 703,175 702,174 700,174 699,173 697,173 696,172 695,172 694,171 692,171 691,170 689,170 688,169 686,169 685,168 683,168 682,167 679,167 678,166 676,166 675,165 672,165 671,164 669,164 668,163 663,163 662,162 659,162 658,161 652,161 651,160 644,160 643,159 641,159 640,158 640,157 639,156 639,154 634,149 633,149 632,148 631,148 630,147 628,147 626,145 624,145 623,144 621,144 620,143 618,143 617,142 614,142 613,141 609,141 608,140 603,140 602,139 596,139 595,138" stroke="black" stroke-width="1" /></svg>