<?xml version="1.0" encoding="utf-8" ?>
<svg baseProfile="tiny" height="704" version="1.2" width="1248" xmlns="http://www.w3.org/2000/svg" xmlns:ev="http://www.w3.org/2001/xml-events" xmlns:xlink="http://www.w3.org/1999/xlink"><defs /><polyline fill="none" points="570,626 569,627 539,627 538,628 521,628 520,629 509,629 508,630 500,630 499,631 492,631 491,632 485,632 484,633 478,633 477,634 473,634 472,635 469,635 468,636 466,636 465,637 463,637 462,638 460,638 459,639 459,642 461,644 463,644 464,645 466,645 467,646 470,646 471,647 476,647 477,648 482,648 483,649 490,649 491,650 499,650 500,651 510,651 511,652 523,652 524,653 537,653 538,654 554,654 555,655 584,655 585,656 610,656 611,655 616,655 617,656 618,656 619,655 649,655 650,654 669,654 670,653 683,653 684,652 695,652 696,651 706,651 707,650 714,650 715,649 722,649 723,648 729,648 730,647 735,647 736,646 739,646 740,645 742,645 743,644 745,644 746,643 746,641 747,640 746,639 745,639 744,638 743,638 742,637 740,637 739,636 735,636 734,635 731,635 730,634 725,634 724,633 718,633 717,632 712,632 711,631 702,631 701,630 692,630 691,629 681,629 680,628 666,628 665,627 650,627 649,626 645,626 649,626 650,627 665,627 666,628 680,628 681,629 691,629 692,630 701,630 702,631 711,631 712,632 717,632 718,633 724,633 725,634 730,634 731,635 734,635 735,636 739,636 740,637 742,637 744,639 745,639 746,640 746,642 744,644 743,644 742,645 740,645 739,646 736,646 735,647 730,647 729,648 723,648 722,649 715,649 714,650 707,650 706,651 696,651 695,652 684,652 683,653 670,653 669,654 650,654 649,655 619,655 618,656 617,656 616,655 611,655 610,656 585,656 584,655 555,655 554,654 538,654 537,653 524,653 523,652 511,652 510,651 500,651 499,650 491,650 490,649 483,649 482,648 477,648 476,647 471,647 470,646 467,646 466,645 464,645 463,644 462,644 459,641 459,640 461,638 462,638 463,637 465,637 466,636 468,636 469,635 472,635 473,634 477,634 478,633 484,633 485,632 491,632 492,631 499,631 500,630 508,630 509,629 520,629 521,628 538,628 539,627 569,627 570,626 573,626 574,627 573,626" stroke="black" stroke-width="1" /><polyline fill="none" points="629,618 630,617 633,617 634,618 634,619 635,620 635,622 636,623 636,626 637,627 637,632 638,633 638,636 637,637 630,637 629,636 625,636 624,635 620,635 619,634 615,634 614,633 611,633 610,632 607,632 606,631 604,631 601,628 603,626 604,626 605,625 606,625 607,624 609,624 610,623 613,623 614,622 616,622 617,621 619,621 620,620 622,620 623,619 625,619 626,618" stroke="black" stroke-width="1" /><polyline fill="none" points="630,617 629,618 626,618 625,619 623,619 622,620 620,620 619,621 617,621 616,622 614,622 613,623 610,623 609,624 607,624 606,625 604,625 603,626 602,626 601,627 601,629 603,631 606,631 607,632 610,632 611,633 614,633 615,634 619,634 620,635 624,635 625,636 629,636 630,637 638,637 638,633 637,632 637,627 636,626 636,623 635,622 635,620 634,619 634,617" stroke="black" stroke-width="1" /><polyline fill="none" points="647,575 646,576 645,576 644,577 643,577 636,584 636,585 634,587 634,588 633,589 633,591 633,590 634,589 634,588 636,586 636,585 644,577 645,577 646,576 647,576 648,575 649,575" stroke="black" stroke-width="1" /><polyline fill="none" points="633,569 634,568 640,568 641,569 645,569 646,570 648,570 649,571 650,571 651,572 652,572 655,575 656,575 658,577 659,577 663,581 664,581 669,586 669,587 668,588 667,588 666,589 665,589 664,590 663,590 661,592 660,592 659,593 658,593 657,594 656,594 654,596 653,596 652,597 651,597 650,598 649,598 648,599 646,599 645,600 644,600 643,601 642,601 641,602 640,602 639,603 638,603 637,604 636,604 635,603 635,602 634,601 634,598 633,597 633,595 631,593 631,592 625,586 624,586 622,584 621,584 620,583 619,583 618,582 617,582 616,581 614,581 612,579 616,575 617,575 619,573 620,573 621,572 622,572 623,571 624,571 625,570 628,570 629,569" stroke="black" stroke-width="1" /><polyline fill="none" points="634,568 633,569 629,569 628,570 625,570 624,571 622,571 621,572 620,572 619,573 618,573 616,575 615,575 612,578 610,578 609,579 608,579 607,580 607,581 606,582 606,583 605,584 605,585 604,586 604,587 603,588 603,590 602,591 602,596 601,597 601,601 600,602 600,618 600,602 601,601 601,597 602,596 602,591 603,590 603,588 604,587 604,586 606,584 606,583 607,582 607,581 609,579 610,579 611,578 612,579 612,580 613,581 616,581 617,582 618,582 620,584 621,584 623,586 624,586 632,594 632,595 633,596 633,597 634,598 634,601 635,602 635,604 638,604 639,603 640,603 641,602 642,602 643,601 644,601 645,600 646,600 647,599 648,599 649,598 651,598 652,597 653,597 654,596 655,596 657,594 658,594 659,593 660,593 661,592 662,592 664,590 665,590 666,589 667,589 668,588 669,588 669,585 665,581 664,581 660,577 659,577 657,575 656,575 654,573 653,573 651,571 649,571 648,570 646,570 645,569 641,569 640,568" stroke="black" stroke-width="1" /><polyline fill="none" points="616,555 616,556 617,557 617,558 618,559 618,560 619,561 619,562 620,563 620,564 621,565 621,566 622,567 625,567 626,566 629,566 630,565 635,565 636,564 638,564 639,565 638,564 636,564 635,565 630,565 629,566 626,566 625,567 623,567 621,565 621,564 619,562 619,560 618,559 618,558 616,556" stroke="black" stroke-width="1" /><polyline fill="none" points="618,553 618,554 619,553 621,553 622,554 624,554 625,555 627,555 628,556 630,556 631,557 634,557 635,558 638,558 639,559 638,558 635,558 634,557 631,557 630,556 628,556 627,555 625,555 624,554 622,554 621,553" stroke="black" stroke-width="1" /><polyline fill="none" points="617,549 618,550 622,550 623,551 624,551 625,552 627,552 628,553 630,553 631,554 634,554 635,555 638,555 639,556 642,553 642,551 642,553 639,556 638,555 635,555 634,554 631,554 630,553 628,553 627,552 625,552 624,551 623,551 622,550 618,550" stroke="black" stroke-width="1" /><polyline fill="none" points="612,548 613,548 616,551 614,553 610,549 610,550 611,551 609,553 608,553 607,554 606,554 605,555 604,555 602,557 601,557 598,560 597,560 595,562 594,562 590,566 590,567 595,562 596,562 598,560 599,560 602,557 603,557 605,555 606,555 608,553 609,553 614,558 614,559 615,560 615,561 616,562 616,563 618,565 618,566 616,568 612,568 611,569 610,569 609,570 607,570 606,571 605,571 604,572 603,572 602,573 601,573 600,574 599,574 598,575 597,575 595,573 596,574 596,575 599,575 600,574 601,574 602,573 603,573 604,572 605,572 606,571 607,571 608,570 609,570 610,569 612,569 613,568 616,568 617,567 618,567 618,565 617,564 617,563 616,562 616,561 615,560 615,559 614,558 614,557 610,553 610,552 611,551 613,553 615,553 615,552 616,551 615,550 615,549 614,549 613,548" stroke="black" stroke-width="1" /><polyline fill="none" points="587,545 586,546 585,546 580,551 578,549 578,548 577,548 580,551 579,552 580,552 587,545 589,547 582,554 582,555 584,557 584,558 585,558 586,559 586,560 589,563 588,564 589,563 590,563 593,560 594,560 597,557 598,557 601,554 602,554 604,552 605,552 608,549 607,549 604,552 603,552 601,554 600,554 597,557 596,557 593,560 592,560 589,563 586,560 586,559 584,557 584,556 583,556 582,555 589,548 589,545 588,546" stroke="black" stroke-width="1" /><polyline fill="none" points="573,542 576,545 576,546 576,545 577,544 579,544 577,544 576,545" stroke="black" stroke-width="1" /><polyline fill="none" points="689,502 690,501 693,501 695,503 695,504 696,505 696,507 692,511 689,511 686,508 686,504 688,502" stroke="black" stroke-width="1" /><polyline fill="none" points="689,501 688,502 687,502 686,503 686,509 688,511 693,511 695,509 695,508 696,507 696,505 695,504 695,502 694,501" stroke="black" stroke-width="1" /><polyline fill="none" points="597,500 598,499 600,499 604,503 604,505 603,506 603,507 601,509 600,509 599,510 598,510 594,506 594,503 595,502 595,501 596,500" stroke="black" stroke-width="1" /><polyline fill="none" points="598,499 597,500 595,500 595,501 594,502 594,507 596,509 597,509 598,510 599,510 600,509 602,509 602,508 603,507 603,506 604,505 604,502 601,499" stroke="black" stroke-width="1" /><polyline fill="none" points="435,495 434,496 433,496 432,497 431,497 431,498 429,500 429,501 428,502 428,504 427,505 427,512 428,513 428,515 429,516 429,517 432,520 433,520 435,522 437,522 438,523 446,523 447,522 448,522 449,521 450,521 451,520 452,520 456,516 456,515 457,514 455,516 455,517 453,519 452,519 450,521 449,521 448,522 447,522 446,523 438,523 437,522 436,522 435,521 434,521 429,516 429,515 428,514 428,513 427,512 427,505 428,504 428,503 429,502 429,501 431,499 431,498 433,496 434,496 435,495 437,495" stroke="black" stroke-width="1" /><polyline fill="none" points="428,487 430,487 431,488 432,488 435,491 436,491 438,493 439,493 441,495 442,495 444,497 445,497 446,498 447,498 450,501 451,501 452,502 453,502 459,508 459,512 461,514 461,515 452,524 451,524 450,525 449,525 448,526 437,526 436,525 434,525 433,524 432,524 429,521 428,521 426,519 426,518 423,515 423,514 422,513 422,512 421,511 421,510 420,509 420,498 421,497 421,495 423,493 423,492" stroke="black" stroke-width="1" /><polyline fill="none" points="805,472 802,475 802,476 804,474 804,473" stroke="black" stroke-width="1" /><polyline fill="none" points="804,469 800,473 800,474 798,476 798,477 797,478 797,479 796,480 796,481 795,482 796,482 796,480 798,478 798,477 800,475 800,474 803,471 803,470" stroke="black" stroke-width="1" /><polyline fill="none" points="645,469 645,471 644,472 644,473 641,476 642,476 643,477 645,477 646,478 659,478 660,477 663,477 664,476 665,476 666,475 667,475 666,475 665,476 663,476 662,477 660,477 659,478 646,478 645,477 644,477 643,476 643,475 644,474 644,472 645,471" stroke="black" stroke-width="1" /><polyline fill="none" points="468,469 466,471 466,472 461,477 461,478 456,483 456,484 451,489 451,490 448,493 448,495 448,494 451,491 451,490 456,485 456,484 461,479 461,478 466,473 466,472 468,470 469,470" stroke="black" stroke-width="1" /><polyline fill="none" points="809,467 808,468 807,468 806,469 806,470 809,467 810,467" stroke="black" stroke-width="1" /><polyline fill="none" points="669,466 669,467 667,469 666,468 665,468 666,468 667,469 667,471 668,472 669,472 670,473 671,472 669,472 667,470 667,469 669,467 670,467 673,470 674,470 671,467 670,467" stroke="black" stroke-width="1" /><polyline fill="none" points="616,465 617,466 617,467 620,470 620,471 625,476 626,476 629,479 630,479 632,481 634,481 635,482 636,482 637,483 640,483 641,484 651,484 641,484 640,483 638,483 637,482 635,482 634,481 633,481 631,479 630,479 627,476 626,476 620,470 620,469" stroke="black" stroke-width="1" /><polyline fill="none" points="761,461 759,463 759,464 757,466 757,467 756,468 756,469 755,470 755,471 754,472 754,473 752,475 752,476 753,475 753,474 755,472 755,471 756,470 756,469 757,468 757,467 759,465 759,464 761,462" stroke="black" stroke-width="1" /><polyline fill="none" points="687,455 688,454 698,454 699,455 700,455 703,458 703,471 704,472 704,515 703,516 702,515 702,504 701,503 701,466 700,465 700,458 699,457 688,457 687,456" stroke="black" stroke-width="1" /><polyline fill="none" points="772,451 771,452 771,453 768,456 768,457 765,460 765,461 763,463 764,464 764,466 765,466 766,467 767,467 769,469 770,469 772,471 773,471 774,472 775,472 776,473 777,473 779,475 780,475 781,476 782,476 783,477 784,477 785,478 786,478 787,479 788,479 789,480 790,480 791,481 793,481 792,481 791,480 789,480 788,479 787,479 785,477 784,477 783,476 782,476 781,475 780,475 778,473 777,473 776,472 775,472 774,471 773,471 771,469 770,469 768,467 767,467 766,466 765,466 764,465 764,463 765,462 765,461 768,458 768,457 771,454 771,453 773,451 775,451 777,453 779,453 781,455 782,455 783,456 785,456 786,457 787,457 788,458 789,458 790,459 791,459 792,460 793,460 794,461 795,461 796,462 797,462 798,463 799,463 800,464 802,464 803,465 806,465 803,465 802,464 801,464 800,463 799,463 798,462 797,462 796,461 795,461 794,460 793,460 792,459 791,459 790,458 788,458 786,456 784,456 783,455 782,455 781,454 780,454 779,453 778,453 777,452 776,452 775,451" stroke="black" stroke-width="1" /><polyline fill="none" points="610,448 610,451 609,452 595,452 594,453 591,453 588,456 588,458 587,459 587,491 586,492 586,513 587,514 587,515 589,515 589,514 590,513 589,512 589,487 590,486 590,459 594,455 611,455 612,456 611,455 594,455 593,456 592,456 591,457 591,458 590,459 590,486 589,487 589,512 590,513 588,515 586,513 586,492 587,491 587,459 588,458 588,457 592,453 594,453 595,452 611,452 610,451" stroke="black" stroke-width="1" /><polyline fill="none" points="471,447 472,448 466,454 466,455 463,458 464,458 464,457 467,454 467,453 472,448 475,451 476,451 484,459 485,459 488,462 488,463 483,468 483,469 481,471 481,473 480,474 479,473 479,472 479,473 480,474 481,474 481,472 482,471 482,470 485,467 485,466 488,463 488,461 486,459 485,459 477,451 476,451 473,448 472,448" stroke="black" stroke-width="1" /><polyline fill="none" points="753,446 746,453 746,454 742,458 742,459 739,462 739,463 740,464 741,464 747,470 748,470 751,473 748,470 747,470 741,464 740,464 739,463 742,460 742,459 746,455 746,454 753,447 754,447 757,450 758,450 762,454 756,448 755,448" stroke="black" stroke-width="1" /><polyline fill="none" points="651,444 652,443 660,443 661,444 662,444 664,446 664,450 659,455 655,455 654,454 652,454 648,450 648,446 650,444" stroke="black" stroke-width="1" /><polyline fill="none" points="750,443 750,444 749,445 749,446 744,451 744,452 740,456 740,457 736,461 737,461 740,458 740,457 744,453 744,452 749,447 749,446 750,445" stroke="black" stroke-width="1" /><polyline fill="none" points="652,443 651,444 649,444 648,445 648,451 650,453 651,453 652,454 654,454 655,455 660,455 664,451 664,445 663,444 662,444 661,443" stroke="black" stroke-width="1" /><polyline fill="none" points="620,437 621,438 620,439 621,439 622,440 621,441 620,441 620,445 621,446 621,450 622,451 622,454 623,455 623,457 624,458 624,459 625,460 625,461 626,462 626,463 628,465 628,466 637,475 638,474 639,475 640,474 640,473 641,472 641,471 642,470 642,468 642,469 641,470 641,471 640,472 640,473 639,474 637,474 628,465 628,464 626,462 626,461 625,460 625,459 624,458 624,457 623,456 623,455 622,454 622,451 621,450 621,446 620,445 620,442 622,440 623,440 624,441 625,440 624,441 623,440 622,440 621,439 621,438" stroke="black" stroke-width="1" /><polyline fill="none" points="483,435 476,442 476,443 474,445 473,445 476,448 477,448 486,457 487,457 491,461 491,460 490,460 489,459 489,458 488,457 487,457 478,448 477,448 474,445 476,443 476,442 483,435 484,435 488,439 489,439 496,446 496,447 499,450 493,456 493,457 492,458 498,452 498,451 499,450 499,449 496,446 496,445 490,439 489,439 485,435" stroke="black" stroke-width="1" /><polyline fill="none" points="728,425 728,427 727,428 727,429 726,430 726,431 725,432 725,433 724,434 724,435 722,437 722,438 718,442 718,444 723,449 723,450 725,448 725,447 728,444 728,443 732,439 732,438 737,433 737,432 733,436 733,437 728,442 728,443 725,446 725,447 723,449 718,444 718,443 722,439 722,438 724,436 724,435 725,434 725,433 726,432 726,431 727,430 727,428 728,427 728,426 729,425 730,425 735,430 730,425" stroke="black" stroke-width="1" /><polyline fill="none" points="628,425 628,426 627,427 627,429 626,430 626,433 625,434 625,435 625,434 626,433 626,430 627,429 627,427 628,426" stroke="black" stroke-width="1" /><polyline fill="none" points="495,421 496,422 497,422 500,425 501,425 508,432 508,433 511,436 509,438 509,439 505,443 505,444 502,447 501,447 499,445 499,444 491,436 490,436 486,432 486,431 491,426 491,425" stroke="black" stroke-width="1" /><polyline fill="none" points="494,421 493,422 493,423 489,427 489,428 485,432 484,432 485,432 489,436 490,436 499,445 499,446 501,448 502,447 503,447 504,446 504,445 508,441 508,440 510,438 510,437 511,436 510,435 510,434 508,432 508,431 502,425 501,425 498,422 497,422 496,421" stroke="black" stroke-width="1" /><polyline fill="none" points="671,418 672,419 672,420 674,422 675,422 676,423 676,424 677,424 678,425 679,424 682,424 681,423 680,424 679,424 678,425 676,423 676,422 678,420 679,420 677,420 675,422 674,422 673,421 673,420" stroke="black" stroke-width="1" /><polyline fill="none" points="650,417 652,417 657,422 657,423 658,424 657,425 654,425 653,424 650,424 647,421 647,420" stroke="black" stroke-width="1" /><polyline fill="none" points="650,417 649,418 648,418 648,419 647,420 647,422 648,423 649,423 650,424 653,424 654,425 657,425 658,424 657,423 657,421 654,418 653,418 652,417" stroke="black" stroke-width="1" /><polyline fill="none" points="647,414 648,413 655,413 656,414 658,414 659,415 660,415 661,416 662,416 663,417 664,417 672,425 672,426 673,427 673,428 674,429 674,430 675,431 675,433 676,434 676,448 675,449 675,451 674,452 674,453 673,454 673,455 671,457 671,458 664,465 663,465 662,466 661,466 660,467 657,467 656,468 650,468 649,467 645,467 643,465 642,465 640,463 639,463 633,457 633,456 631,454 631,453 630,452 630,451 629,450 629,448 628,447 628,442 627,441 627,439 628,438 628,434 629,433 629,430 631,428 631,427 632,426 632,425 634,423 634,422 638,418 639,418 641,416 642,416 643,415 644,415 645,414" stroke="black" stroke-width="1" /><polyline fill="none" points="648,413 647,414 645,414 644,415 642,415 641,416 640,416 638,418 637,418 634,421 634,422 632,424 632,425 631,426 631,427 630,428 630,429 629,430 629,433 628,434 628,438 627,439 627,441 628,442 628,447 629,448 629,450 630,451 630,453 631,454 631,455 633,457 633,458 638,463 639,463 641,465 642,465 644,467 649,467 650,468 656,468 657,467 661,467 662,466 663,466 664,465 665,465 671,459 671,458 673,456 673,455 674,454 674,453 675,452 675,449 676,448 676,434 675,433 675,431 674,430 674,428 673,427 673,426 672,425 672,424 665,417 664,417 663,416 662,416 661,415 660,415 659,414 656,414 655,413" stroke="black" stroke-width="1" /><polyline fill="none" points="506,409 507,408 508,408 509,409 510,409 511,410 512,410 514,412 515,412 519,416 519,417 520,418 520,419 521,420 521,424 520,425 520,426 517,429 517,430 514,433 513,433 511,431 511,430 503,422 502,422 499,419 498,419 497,418 499,416 499,415 505,409" stroke="black" stroke-width="1" /><polyline fill="none" points="507,408 506,409 504,409 500,413 500,414 497,417 497,419 498,419 501,422 502,422 511,431 511,432 512,433 515,433 516,432 516,431 520,427 520,426 521,425 521,419 520,418 520,417 519,416 519,415 516,412 515,412 513,410 512,410 511,409 509,409 508,408" stroke="black" stroke-width="1" /><polyline fill="none" points="643,403 642,404 639,404 638,405 637,405 636,406 635,406 633,408 632,408 628,412 628,413 627,414 627,415 626,416 626,417 625,418 625,419 624,420 624,422 623,423 623,424 622,425 622,429 621,430 621,435 622,436 623,436 624,437 625,437 624,437 621,434 621,430 622,429 622,425 623,424 623,423 624,422 624,421 625,420 625,419 626,418 626,417 627,416 627,415 628,414 628,413 633,408 634,408 636,406 637,406 638,405 639,405 640,404 643,404 644,405 644,408 645,409 645,410 646,411 646,410 647,409 648,409 648,408 649,407 648,406 648,404 649,403 648,403 648,406 649,407 646,410 644,408 644,405 643,404" stroke="black" stroke-width="1" /><polyline fill="none" points="651,402 652,403 657,403 659,405 659,406 658,407 658,409 657,410 650,410 657,410 658,411 658,407 659,406 661,406 662,407 662,409 661,410 661,411 660,412 661,411 664,414 665,414 666,415 664,413 663,413 661,411 661,410 662,409 662,407 661,406 662,405 664,405 666,407 667,407 668,408 669,408 671,410 672,410 673,411 673,412 679,418 676,415 676,414 672,410 671,410 669,408 668,408 666,406 665,406 664,405 662,405 661,406 660,406 659,405 659,404 658,403 652,403" stroke="black" stroke-width="1" /><polyline fill="none" points="648,400 649,399 651,399 652,400 659,400 660,401 662,401 663,402 664,402 665,403 666,403 667,404 668,404 670,406 671,406 674,409 675,409 678,412 678,413 681,416 681,417 682,418 682,419 684,421 684,422 685,423 685,424 686,425 686,427 687,428 687,430 688,431 688,439 689,440 689,442 688,443 688,450 687,451 687,456 685,458 685,459 684,460 684,461 683,462 683,463 682,464 682,465 678,469 678,470 676,472 675,472 670,477 669,477 668,478 667,478 666,479 665,479 664,480 662,480 661,481 645,481 644,480 642,480 641,479 639,479 638,478 636,478 634,476 633,476 631,474 630,474 628,472 627,472 623,468 622,468 621,467 621,466 619,464 619,463 617,461 617,460 616,459 616,458 615,457 615,455 614,454 614,452 612,450 612,443 611,442 611,434 612,433 612,429 613,428 613,427 614,426 614,425 615,424 615,423 616,422 616,421 617,420 617,419 620,416 620,415 627,408 628,408 631,405 632,405 633,404 634,404 635,403 636,403 637,402 638,402 639,401 641,401 642,400" stroke="black" stroke-width="1" /><polyline fill="none" points="514,397 513,398 510,398 509,399 508,399 507,400 506,400 502,404 502,405 501,406 501,407 499,409 499,410 495,414 495,415 494,416 494,417 494,416 499,411 499,410 501,408 501,407 502,406 502,405 507,400 508,400 510,398 513,398 514,397 518,397 519,398 521,398 523,400 524,400 528,404 528,405 530,407 530,408 531,409 531,412 532,413 532,417 531,418 531,422 530,423 530,424 529,425 529,426 527,428 527,429 523,433 522,433 521,434 520,434 519,435 517,435 516,436 515,436 513,438 513,439 512,440 512,441 511,442 510,442 511,442 513,440 513,439 517,435 519,435 520,434 522,434 523,433 524,433 527,430 527,429 529,427 529,425 531,423 531,418 532,417 532,413 531,412 531,409 530,408 530,406 528,404 528,403 525,400 524,400 523,399 522,399 521,398 519,398 518,397" stroke="black" stroke-width="1" /><polyline fill="none" points="710,388 711,388 712,389 713,389 714,390 715,390 719,394 719,395 721,397 721,398 722,399 722,400 724,402 723,403 722,403 721,404 715,404 714,405 713,405 712,404 712,403 711,402 711,394 710,393 710,390 710,393 711,394 711,402 712,403 712,404 713,405 714,405 715,404 721,404 722,403 723,403 724,402 723,401 723,400 722,399 722,398 721,397 721,396 719,394 719,393 716,390 715,390 714,389 712,389 711,388" stroke="black" stroke-width="1" /><polyline fill="none" points="693,386 697,386 700,389 700,393 697,396 696,396 695,397 694,397 693,396 692,396 690,394 690,393 689,392 689,391 690,390 690,389" stroke="black" stroke-width="1" /><polyline fill="none" points="692,386 690,388 690,390 689,391 689,392 690,393 690,395 691,396 693,396 694,397 695,397 696,396 698,396 700,394 700,388 698,386" stroke="black" stroke-width="1" /><polyline fill="none" points="588,384 590,384 591,385 592,385 593,386 593,387 594,388 594,391 591,394 587,394 585,392 585,391 584,390 584,388" stroke="black" stroke-width="1" /><polyline fill="none" points="543,385 544,384 545,384 551,390 551,391 553,393 553,394 555,396 555,398 556,399 555,400 551,400 550,401 542,401 541,402 540,402 539,401 539,400 537,398 537,397 535,395 535,394 531,390 533,388 535,388 536,387 538,387 539,386 541,386 542,385" stroke="black" stroke-width="1" /><polyline fill="none" points="587,384 584,387 584,391 585,392 585,393 586,394 592,394 594,392 594,387 593,386 593,385 592,385 591,384" stroke="black" stroke-width="1" /><polyline fill="none" points="521,377 520,378 517,378 516,379 514,379 513,380 512,380 509,383 508,383 507,384 508,383 509,383 511,381 512,381 513,380 514,380 515,379 516,379 517,378 520,378 521,377 532,377 533,378 535,378 536,379 537,379 538,380 539,380 540,381 541,381 544,384 543,385 542,385 541,386 539,386 538,387 536,387 535,388 532,388 532,389 531,390 530,389 529,389 527,387 525,387 524,386 523,386 522,385 519,385 518,384 512,384 511,385 509,385 508,386 507,386 508,386 509,385 511,385 512,384 518,384 519,385 522,385 523,386 524,386 525,387 526,387 528,389 529,389 535,395 535,396 537,398 537,399 539,401 539,402 540,403 540,407 541,408 541,419 540,420 540,423 539,424 539,428 541,428 542,429 545,429 546,430 549,430 550,431 554,431 554,430 555,429 555,427 556,426 556,424 557,423 557,419 558,418 558,405 557,404 557,402 557,404 558,405 558,418 557,419 557,423 556,424 556,426 555,427 555,428 554,429 554,430 553,431 550,431 549,430 546,430 545,429 542,429 541,428 540,428 539,427 539,424 540,423 540,420 541,419 541,408 540,407 540,403 542,401 550,401 551,400 555,400 556,399 555,398 555,396 554,395 554,394 553,393 553,392 551,390 551,389 547,385 546,385 542,381 541,381 540,380 539,380 538,379 536,379 535,378 533,378 532,377" stroke="black" stroke-width="1" /><polyline fill="none" points="546,374 545,375 542,375 545,375 546,374 551,374 552,375 565,375 566,376 573,376 575,378 575,517 586,517 587,518 638,518 639,519 698,519 700,517 701,517 702,516 704,516 706,518 713,518 714,517 715,517 715,516 714,515 714,496 713,495 713,474 712,473 712,457 711,456 711,446 712,445 711,446 711,456 712,457 712,473 713,474 713,495 714,496 714,515 715,516 713,518 706,518 704,516 704,472 703,471 703,457 701,455 700,455 699,454 688,454 687,453 687,451 688,450 688,443 689,442 689,440 688,439 688,431 687,430 687,428 686,427 686,425 685,424 685,422 684,421 684,420 682,418 682,417 681,416 681,415 678,412 678,411 676,409 675,409 672,406 671,406 669,404 668,404 667,403 666,403 665,402 663,402 662,401 660,401 659,400 652,400 651,399 649,399 648,400 642,400 641,401 639,401 638,402 636,402 635,403 634,403 633,404 632,404 631,405 630,405 627,408 626,408 620,414 620,415 618,417 618,418 616,420 616,421 615,422 615,423 614,424 614,425 613,426 613,428 612,429 612,433 611,434 611,442 612,443 612,450 614,452 614,455 615,456 615,457 616,458 616,460 617,461 617,462 619,464 619,465 626,472 627,472 629,474 630,474 632,476 633,476 634,477 635,477 636,478 638,478 639,479 641,479 642,480 644,480 645,481 661,481 662,480 664,480 665,479 667,479 668,478 669,478 670,477 671,477 676,472 677,472 678,471 678,470 681,467 681,466 683,464 683,463 684,462 684,461 685,460 685,459 687,457 698,457 700,459 700,465 701,466 701,503 702,504 702,516 701,517 700,517 698,519 639,519 638,518 587,518 586,517 576,517 575,516 575,379 577,377 613,377 614,378 655,378 656,379 657,378 658,379 661,379 662,378 664,378 665,379 692,379 693,380 697,380 698,381 699,381 700,382 700,384 700,382 698,380 693,380 692,379 665,379 664,378 662,378 661,379 658,379 657,378 656,379 655,378 614,378 613,377 577,377 576,378 574,376 566,376 565,375 552,375 551,374" stroke="black" stroke-width="1" /><polyline fill="none" points="603,371 629,371 630,372 634,372 635,373 652,373 653,374 665,374 666,375 678,375 679,376 689,376 690,377 698,377 699,378 703,378 704,379 705,379 706,380 706,383 707,384 707,395 708,396 708,404 709,405 709,414 710,415 710,429 711,430 711,440 712,441 712,443 712,441 711,440 711,430 710,429 710,415 709,414 709,405 708,404 708,396 707,395 707,384 706,383 706,379 704,379 703,378 699,378 698,377 690,377 689,376 679,376 678,375 666,375 665,374 653,374 652,373 635,373 634,372 630,372 629,371" stroke="black" stroke-width="1" /><polyline fill="none" points="569,369 568,370 559,370 558,371 545,371 544,372 539,372 544,372 545,371 558,371 559,370 568,370 569,369 570,369 571,370 572,369 575,369 576,370 595,370 576,370 575,369 572,369 571,370 570,369" stroke="black" stroke-width="1" /><polyline fill="none" points="730,321 731,320 732,321 733,321 735,323 735,324 736,325 736,329 735,330 735,331 731,335 727,335 724,332 724,326 725,325 725,324 728,321" stroke="black" stroke-width="1" /><polyline fill="none" points="731,320 730,321 727,321 725,323 725,324 724,325 724,333 726,335 732,335 735,332 735,330 736,329 736,325 735,324 735,322 734,321 732,321" stroke="black" stroke-width="1" /><polyline fill="none" points="727,319 728,318 733,318 734,319 735,319 737,321 737,322 738,323 738,324 739,325 739,329 738,330 738,332 737,333 737,334 734,337 733,337 732,338 727,338 726,337 725,337 721,333 721,325 722,324 722,323 726,319" stroke="black" stroke-width="1" /><polyline fill="none" points="727,318 726,319 725,319 722,322 722,324 721,325 721,333 722,334 722,335 724,337 726,337 727,338 732,338 733,337 734,337 735,336 736,336 737,335 737,334 738,333 738,330 739,329 739,325 738,324 738,322 737,321 737,320 736,319 735,319 734,318" stroke="black" stroke-width="1" /><polyline fill="none" points="657,313 658,312 661,312 662,313 672,313 673,314 680,314 681,313 683,315 680,318 679,318 676,321 675,321 674,322 673,322 672,323 671,323 670,324 669,324 668,325 665,325 664,326 657,326 656,325 656,315 657,314" stroke="black" stroke-width="1" /><polyline fill="none" points="657,312 657,314 656,315 656,326 664,326 665,325 668,325 669,324 670,324 671,323 673,323 674,322 675,322 676,321 677,321 680,318 681,318 684,315 683,314 682,314 681,313 680,314 673,314 672,313 662,313 661,312" stroke="black" stroke-width="1" /><polyline fill="none" points="626,307 627,306 630,306 631,307 633,307 634,308 637,308 638,309 642,309 643,310 646,310 647,311 652,311 653,312 653,320 652,321 652,324 651,325 649,325 648,324 647,324 646,323 645,323 644,322 643,322 642,321 641,321 639,319 638,319 635,316 634,316 630,312 630,311" stroke="black" stroke-width="1" /><polyline fill="none" points="626,306 626,308 630,312 630,313 633,316 634,316 637,319 638,319 640,321 641,321 642,322 643,322 644,323 645,323 646,324 648,324 649,325 652,325 652,321 653,320 653,313 654,312 655,312 654,312 653,311 647,311 646,310 643,310 642,309 638,309 637,308 634,308 633,307 631,307 630,306" stroke="black" stroke-width="1" /><polyline fill="none" points="621,303 622,302 626,302 627,303 631,303 632,304 634,304 635,305 638,305 639,306 643,306 644,307 648,307 649,308 654,308 655,309 662,309 663,310 676,310 677,311 678,311 679,310 683,310 684,311 688,311 690,313 682,321 681,321 679,323 678,323 676,325 675,325 674,326 673,326 672,327 671,327 670,328 667,328 666,329 651,329 650,328 647,328 646,327 645,327 644,326 643,326 642,325 641,325 639,323 638,323 637,322 636,322 632,318 631,318 628,315 628,314 624,310 624,309 623,308 623,307 622,306 622,305 621,304" stroke="black" stroke-width="1" /><polyline fill="none" points="621,302 621,305 622,306 622,307 623,308 623,309 624,310 624,311 628,315 628,316 630,318 631,318 635,322 636,322 637,323 638,323 640,325 641,325 642,326 643,326 644,327 646,327 647,328 650,328 651,329 666,329 667,328 670,328 671,327 673,327 674,326 675,326 676,325 677,325 679,323 680,323 682,321 683,321 690,314 690,313 689,312 689,311 684,311 683,310 679,310 678,311 677,311 676,310 663,310 662,309 655,309 654,308 649,308 648,307 644,307 643,306 639,306 638,305 635,305 634,304 632,304 631,303 627,303 626,302" stroke="black" stroke-width="1" /><polyline fill="none" points="775,259 776,258 777,259 780,259 781,260 781,261 782,262 782,263 783,264 783,268 784,269 784,271 783,272 776,272 774,270 774,264 775,263" stroke="black" stroke-width="1" /><polyline fill="none" points="774,257 775,257 776,258 774,260 775,261 775,263 774,264 774,271 775,271 776,272 782,272 784,274 784,280 784,274 783,273 784,272 784,269 783,268 783,264 782,263 782,261 781,260 781,259 777,259 775,257" stroke="black" stroke-width="1" /><polyline fill="none" points="727,254 728,253 729,254 728,255" stroke="black" stroke-width="1" /><polyline fill="none" points="736,248 737,247 740,247 741,248 743,248 744,249 745,249 750,254 750,255 752,257 752,264 751,265 751,269 750,270 750,271 749,272 749,273 746,276 745,276 742,279 740,279 739,280 736,280 735,279 733,279 732,278 731,278 726,273 726,272 725,271 725,270 724,269 724,259 725,258 725,257 726,256 726,255 727,254 728,255 729,255 730,256 734,256 735,255 735,252 734,251 734,249 735,248" stroke="black" stroke-width="1" /><polyline fill="none" points="485,237 503,237 504,238 504,255 503,256 503,261 502,262 502,264 501,265 501,266 500,267 500,269 499,270 499,271 498,272 498,273 497,274 497,276 495,278 495,279 492,282 489,282 488,281 485,281 484,280 481,280 480,279 475,279 474,278 473,278 472,277 473,276 473,275 475,273 475,272 476,271 476,270 477,269 477,268 478,267 478,266 479,265 479,262 480,261 480,259 481,258 481,254 482,253 482,240" stroke="black" stroke-width="1" /><polyline fill="none" points="530,233 533,233 535,235 534,236 530,236 529,237 529,238 528,239 528,251 529,252 533,252 535,250 536,251 536,252 533,255 529,255 528,254 527,254 526,253 526,252 525,251 525,240 526,239 526,237" stroke="black" stroke-width="1" /><polyline fill="none" points="529,233 527,235 527,236 526,237 526,239 525,240 525,251 526,252 526,254 527,254 528,255 534,255 536,253 536,250 534,250 532,252 530,252 528,250 528,240 529,239 529,238 531,236 535,236 535,234 534,233" stroke="black" stroke-width="1" /><polyline fill="none" points="455,229 454,230 449,230 448,231 447,231 444,234 444,235 442,237 442,240 441,241 441,254 442,255 442,259 445,262 445,261 442,258 442,254 441,253 441,241 442,240 442,238 444,236 444,235 448,231 449,231 450,230 454,230 455,229 457,229 458,230 459,230 466,237 466,238 467,239 467,241 468,242 468,248 467,249 467,252 465,254 465,255 458,262 455,262 454,263 451,263 450,262 451,263 454,263 455,262 459,262 465,256 465,255 466,254 466,253 467,252 467,249 468,248 468,242 467,241 467,239 466,238 466,236 461,231 460,231 459,230 458,230 457,229" stroke="black" stroke-width="1" /><polyline fill="none" points="494,221 495,220 498,220 500,222 500,223 501,224 501,226 502,227 502,229 503,230 503,233 504,234 504,235 502,237 484,237 482,235 482,231 481,230 481,227 480,226 480,225 479,224 479,223 481,221" stroke="black" stroke-width="1" /><polyline fill="none" points="472,211 490,211 493,214 494,214 496,216 496,217 497,218 497,219 496,220 495,220 494,221 480,221 480,222 479,223 478,222 479,223 479,224 480,225 480,226 481,227 481,230 482,231 482,235 483,236 483,237 484,238 482,240 482,253 481,254 481,258 480,259 480,261 479,262 479,264 478,265 478,267 476,269 476,270 475,271 475,272 474,273 474,274 472,276 472,278 474,278 475,279 480,279 481,280 484,280 485,281 488,281 489,282 492,282 493,281 494,281 495,280 495,279 496,278 496,277 497,276 497,275 498,274 498,273 499,272 499,270 500,269 500,267 501,266 501,265 502,264 502,262 503,261 503,256 504,255 504,238 503,237 504,236 504,234 503,233 503,230 502,229 502,227 501,226 501,224 500,223 500,221 497,218 497,217 492,212 491,212 490,211" stroke="black" stroke-width="1" /><polyline fill="none" points="469,208 490,208 491,209 492,209 494,211 495,211 498,214 498,215 502,219 502,220 503,221 503,222 504,223 504,225 505,226 505,229 506,230 506,233 507,234 507,253 506,254 506,260 505,261 505,264 504,265 504,267 503,268 503,269 502,270 502,272 500,274 500,276 499,277 499,278 498,279 498,280 497,281 497,282 490,289 489,289 488,290 487,290 486,291 479,291 478,290 472,290 471,289 466,289 465,288 461,288 465,288 466,289 471,289 472,290 478,290 479,291 486,291 487,290 489,290 490,289 491,289 497,283 497,282 498,281 498,280 499,279 499,277 500,276 500,275 501,274 501,273 502,272 502,270 503,269 503,268 504,267 504,265 505,264 505,261 506,260 506,254 507,253 507,234 506,233 506,230 505,229 505,226 504,225 504,222 503,221 503,220 501,218 501,217 498,214 498,213 496,211 495,211 493,209 491,209 490,208" stroke="black" stroke-width="1" /><polyline fill="none" points="461,208 461,224 460,225 454,225 459,225 460,226 460,227 459,228 463,228 465,230 466,230 470,234 470,235 471,236 471,237 472,238 472,241 473,242 473,252 472,253 472,255 470,257 470,258 463,265 462,265 461,266 457,266 456,267 455,267 454,266 451,266 450,265 449,265 448,264 449,265 450,265 451,266 454,266 455,267 456,267 457,266 461,266 462,265 464,265 470,259 470,258 471,257 471,256 472,255 472,253 473,252 473,242 472,241 472,238 471,237 471,235 470,234 470,233 467,230 466,230 465,229 464,229 463,228 461,228 460,227 460,225 461,224" stroke="black" stroke-width="1" /><polyline fill="none" points="706,207 705,208 702,208 701,209 700,209 699,210 698,210 696,212 695,212 692,215 692,216 689,219 689,220 688,221 688,222 686,224 686,225 685,226 685,228 684,229 684,230 683,231 683,233 682,234 682,236 681,237 681,242 680,243 680,249 679,250 679,259 680,260 680,267 681,268 681,272 682,273 682,276 683,277 683,279 684,280 684,282 685,283 685,284 686,285 686,286 688,288 688,289 690,291 690,292 698,300 699,300 700,301 701,301 702,302 704,302 705,303 707,303 708,304 715,304 716,303 720,303 721,302 723,302 724,301 725,301 726,300 727,300 728,299 729,299 730,298 731,298 735,294 736,294 737,293 737,292 742,287 742,286 744,284 744,283 746,281 746,280 744,282 744,283 742,285 742,286 738,290 738,291 735,294 734,294 730,298 729,298 728,299 727,299 726,300 725,300 723,302 721,302 720,303 716,303 715,304 708,304 707,303 705,303 704,302 703,302 702,301 701,301 700,300 699,300 690,291 690,290 688,288 688,287 686,285 686,284 685,283 685,282 684,281 684,280 683,279 683,277 682,276 682,273 681,272 681,268 680,267 680,260 679,259 679,250 680,249 680,243 681,242 681,237 682,236 682,234 683,233 683,232 684,231 684,230 685,229 685,227 686,226 686,225 688,223 688,222 689,221 689,220 692,217 692,216 696,212 697,212 699,210 700,210 702,208 705,208 706,207 719,207 720,208 723,208 724,209 725,209 726,210 727,210 729,212 730,212 731,213 732,213 736,217 737,217 739,219 739,220 743,224 743,225 745,227 745,228 746,229 746,230 747,231 747,232 748,233 748,234 749,235 749,237 750,238 750,241 751,242 751,248 752,249 752,254 751,255 750,254 750,253 746,249 745,249 744,248 741,248 740,247 737,247 736,248 733,248 734,249 733,250 735,252 735,254 733,256 731,256 729,254 729,253 728,253 727,252 727,253 726,254 726,255 725,256 725,258 724,259 724,269 725,270 725,272 726,273 726,274 730,278 732,278 733,279 735,279 736,280 739,280 740,279 742,279 743,278 744,278 745,277 746,278 745,277 746,276 747,276 749,274 749,273 750,272 750,270 751,269 751,265 752,264 752,256 751,255 752,254 752,249 751,248 751,242 750,241 750,238 749,237 749,235 748,234 748,232 747,231 747,230 746,229 746,228 745,227 745,226 743,224 743,223 738,218 738,217 737,217 733,213 732,213 731,212 730,212 728,210 727,210 726,209 724,209 723,208 720,208 719,207" stroke="black" stroke-width="1" /><polyline fill="none" points="451,203 452,204 452,213 453,214 452,215 452,221 451,222 451,227 452,226 452,225 451,224 451,222 452,221 452,215 453,214 452,213 452,204 453,203 461,203" stroke="black" stroke-width="1" /><polyline fill="none" points="716,198 715,199 712,199 711,200 709,200 708,201 707,201 706,202 705,202 703,204 702,204 701,205 700,205 698,207 697,207 695,209 694,209 690,213 693,210 694,210 696,208 697,208 699,206 700,206 701,205 702,205 704,203 705,203 706,202 707,202 709,200 711,200 712,199 715,199 716,198 724,198 725,199 728,199 729,200 730,200 731,201 732,201 733,202 734,202 735,203 736,203 737,204 738,204 741,207 742,207 750,215 750,216 753,219 753,220 754,221 754,222 756,224 756,225 757,226 757,227 758,228 758,229 759,230 759,232 760,233 760,236 761,237 761,240 762,241 762,245 763,246 763,261 762,262 762,267 761,268 761,271 760,272 760,273 759,274 759,275 758,276 758,278 756,280 756,281 755,282 755,283 753,285 753,286 751,288 751,289 740,300 739,300 737,302 736,302 735,303 734,303 733,304 732,304 731,305 730,305 729,306 727,306 726,307 723,307 722,308 713,308 712,307 707,307 706,306 704,306 703,305 701,305 700,304 699,304 698,303 697,303 695,301 697,303 698,303 699,304 700,304 701,305 702,305 703,306 706,306 707,307 712,307 713,308 722,308 723,307 726,307 727,306 729,306 730,305 732,305 733,304 734,304 735,303 736,303 737,302 738,302 740,300 741,300 751,290 751,289 753,287 753,286 755,284 755,283 756,282 756,281 757,280 757,279 758,278 758,276 759,275 759,274 760,273 760,272 761,271 761,268 762,267 762,262 763,261 763,246 762,245 762,241 761,240 761,237 760,236 760,233 759,232 759,230 758,229 758,228 757,227 757,225 756,224 756,223 754,221 754,220 753,219 753,218 750,215 750,214 743,207 742,207 739,204 738,204 737,203 736,203 735,202 734,202 733,201 732,201 731,200 729,200 728,199 725,199 724,198" stroke="black" stroke-width="1" /><polyline fill="none" points="596,188 597,187 612,187 613,188 616,188 617,189 619,189 620,190 621,190 622,191 623,191 624,192 625,192 627,194 628,194 630,196 631,196 639,204 639,205 641,207 641,208 643,210 643,211 644,212 644,213 645,214 645,215 646,216 646,217 647,218 647,221 648,222 648,226 649,227 649,231 648,232 644,228 643,228 642,227 640,227 639,226 630,226 639,226 640,227 641,227 642,228 643,228 648,233 648,234 650,236 650,244 649,245 649,249 648,250 648,251 641,258 640,258 639,259 631,259 629,257 628,257 623,252 623,251 622,250 622,249 621,248 621,247 620,246 620,239 621,238 621,236 622,235 622,234 623,233 623,231 625,229 626,230 626,231 625,232 626,233 626,234 627,235 631,235 632,234 632,229 631,228 630,228 632,230 632,233 630,235 628,235 626,233 626,230 625,229 627,227 626,227 624,229 624,230 623,231 623,232 622,233 622,234 621,235 621,238 620,239 620,246 621,247 621,249 622,250 622,251 623,252 623,253 627,257 628,257 629,258 630,258 631,259 639,259 640,258 642,258 644,256 645,257 645,259 643,261 643,262 642,263 642,264 640,266 640,267 638,269 638,270 634,274 634,275 631,278 630,278 626,282 625,282 622,285 621,285 620,286 619,286 618,287 617,287 616,288 614,288 613,289 611,289 610,290 603,290 602,291 599,291 598,290 593,290 592,289 589,289 588,288 587,288 586,287 585,287 584,286 583,286 582,285 581,285 579,283 578,283 571,276 571,275 568,272 568,271 566,269 566,268 565,267 565,266 564,265 564,264 563,263 563,262 562,261 562,259 561,258 561,255 560,254 560,250 559,249 559,232 560,231 560,226 561,225 561,222 562,221 562,220 563,219 563,217 564,216 564,215 565,214 565,213 566,212 566,211 568,209 568,208 570,206 570,205 581,194 582,194 584,192 585,192 586,191 587,191 588,190 589,190 590,189 592,189 593,188" stroke="black" stroke-width="1" /><polyline fill="none" points="597,187 596,188 593,188 592,189 590,189 589,190 587,190 586,191 585,191 584,192 583,192 581,194 580,194 570,204 570,205 568,207 568,208 566,210 566,211 565,212 565,213 564,214 564,216 563,217 563,219 562,220 562,221 561,222 561,225 560,226 560,231 559,232 559,249 560,250 560,254 561,255 561,258 562,259 562,261 563,262 563,263 564,264 564,266 565,267 565,268 566,269 566,270 568,272 568,273 571,276 571,277 577,283 578,283 580,285 581,285 582,286 583,286 584,287 586,287 587,288 588,288 589,289 592,289 593,290 598,290 599,291 602,291 603,290 610,290 611,289 613,289 614,288 616,288 617,287 619,287 620,286 621,286 622,285 623,285 626,282 627,282 631,278 632,278 634,276 634,275 638,271 638,270 640,268 640,267 642,265 642,264 643,263 643,262 645,260 645,257 644,256 648,252 648,250 649,249 649,245 650,244 650,235 648,233 648,232 649,231 650,232 649,231 649,227 648,226 648,222 647,221 647,218 646,217 646,215 645,214 645,213 644,212 644,211 643,210 643,209 641,207 641,206 639,204 639,203 632,196 631,196 629,194 628,194 626,192 625,192 624,191 623,191 622,190 620,190 619,189 617,189 616,188 613,188 612,187" stroke="black" stroke-width="1" /><polyline fill="none" points="607,179 606,180 602,180 601,181 598,181 597,182 596,182 595,183 594,183 593,184 591,184 590,185 588,185 587,186 586,186 584,188 583,188 581,190 580,190 574,196 573,196 571,198 571,199 568,202 578,192 579,192 581,190 582,190 584,188 585,188 587,186 588,186 589,185 591,185 592,184 593,184 594,183 595,183 596,182 597,182 598,181 601,181 602,180 606,180 607,179 616,179 617,180 621,180 622,181 624,181 625,182 627,182 629,184 630,184 631,185 632,185 633,186 634,186 636,188 637,188 640,191 641,191 645,195 645,196 649,200 649,201 651,203 651,204 653,206 653,207 654,208 654,210 655,211 655,212 656,213 656,214 657,215 657,218 658,219 658,222 659,223 659,230 660,231 660,240 659,241 659,246 658,247 658,251 657,252 657,253 656,254 656,256 655,257 655,258 654,259 654,260 653,261 653,262 652,263 652,264 651,265 651,266 650,267 650,268 648,270 648,271 646,273 646,274 639,281 638,281 633,286 632,286 630,288 629,288 628,289 627,289 626,290 625,290 624,291 623,291 622,292 620,292 619,293 617,293 616,294 612,294 611,295 602,295 601,294 596,294 595,293 592,293 591,292 589,292 591,292 592,293 595,293 596,294 601,294 602,295 611,295 612,294 616,294 617,293 619,293 620,292 622,292 623,291 624,291 625,290 627,290 628,289 629,289 630,288 631,288 633,286 634,286 639,281 640,281 646,275 646,274 648,272 648,271 650,269 650,268 651,267 651,266 652,265 652,264 653,263 653,262 654,261 654,259 655,258 655,257 656,256 656,255 657,254 657,252 658,251 658,247 659,246 659,241 660,240 660,231 659,230 659,223 658,222 658,219 657,218 657,215 656,214 656,212 654,210 654,208 653,207 653,205 651,203 651,202 649,200 649,199 645,195 645,194 642,191 641,191 638,188 637,188 635,186 634,186 633,185 632,185 631,184 630,184 629,183 628,183 627,182 625,182 624,181 622,181 621,180 617,180 616,179" stroke="black" stroke-width="1" /><polyline fill="none" points="460,177 459,178 453,178 453,194 453,179 454,178 459,178 460,177 462,179 462,189 461,190 461,198 461,190 462,189 462,178 461,178" stroke="black" stroke-width="1" /><polyline fill="none" points="666,162 666,163 667,164 667,166 668,167 668,170 669,171 670,171 671,172 675,172 676,173 680,173 681,174 685,174 686,175 689,175 690,176 693,176 694,177 695,177 696,178 699,178 700,179 701,179 702,180 703,180 704,181 705,181 706,182 707,182 708,183 710,183 711,184 712,184 713,185 714,185 715,186 716,186 717,187 718,187 719,188 720,188 721,189 722,189 724,191 725,191 727,193 728,193 729,194 730,194 732,196 733,196 735,198 736,198 738,200 739,200 743,204 744,204 748,208 749,208 752,211 752,212 755,215 755,216 757,218 757,219 758,220 758,221 760,223 760,226 761,227 761,228 761,227 760,226 760,223 759,222 759,221 758,220 758,219 757,218 757,217 755,215 755,214 752,211 752,210 751,209 750,209 745,204 744,204 740,200 739,200 737,198 736,198 734,196 733,196 731,194 730,194 729,193 728,193 726,191 725,191 723,189 722,189 721,188 720,188 719,187 718,187 717,186 716,186 715,185 714,185 713,184 712,184 711,183 709,183 708,182 707,182 706,181 705,181 704,180 702,180 701,179 700,179 699,178 696,178 695,177 694,177 693,176 690,176 689,175 686,175 685,174 681,174 680,173 676,173 675,172 671,172 668,169 668,167 667,166 667,164 666,163" stroke="black" stroke-width="1" /><polyline fill="none" points="666,160 673,160 674,161 679,161 680,162 684,162 685,163 688,163 689,164 691,164 692,165 695,165 696,166 698,166 699,167 701,167 702,168 703,168 704,169 706,169 707,170 709,170 710,171 711,171 712,172 714,172 716,174 717,174 718,175 720,175 722,177 723,177 724,178 725,178 726,179 727,179 729,181 730,181 731,182 732,182 733,183 734,183 736,185 737,185 738,186 739,186 740,187 741,187 743,189 744,189 746,191 747,191 749,193 750,193 752,195 753,195 754,196 755,196 759,200 760,200 763,203 764,203 767,206 768,206 771,209 771,214 772,215 772,257 771,258 771,274 770,275 770,281 769,282 769,291 768,292 768,297 767,298 767,302 766,303 766,308 765,309 765,314 764,315 764,318 763,319 763,324 762,325 762,330 761,331 761,335 760,336 760,340 759,341 759,345 758,346 758,347 757,348 751,348 750,347 750,344 751,343 751,339 752,338 752,334 753,333 753,329 754,328 754,324 755,323 755,319 756,318 756,314 757,313 757,308 758,307 758,302 759,301 759,295 760,294 760,289 761,288 761,282 762,281 762,275 762,281 761,282 761,288 760,289 760,294 759,295 759,301 758,302 758,307 757,308 757,313 756,314 756,318 755,319 755,323 754,324 754,328 753,329 753,333 752,334 752,338 751,339 751,343 750,344 750,348 758,348 758,346 759,345 759,341 760,340 760,336 761,335 761,331 762,330 762,325 763,324 763,319 764,318 764,315 765,314 765,309 766,308 766,303 767,302 767,298 768,297 768,292 769,291 769,282 770,281 770,275 771,274 771,258 772,257 772,215 771,214 771,208 769,206 768,206 765,203 764,203 761,200 760,200 757,197 756,197 754,195 753,195 751,193 750,193 748,191 747,191 745,189 744,189 742,187 741,187 740,186 739,186 738,185 737,185 735,183 734,183 733,182 732,182 731,181 730,181 728,179 727,179 726,178 725,178 724,177 723,177 721,175 719,175 718,174 717,174 716,173 715,173 714,172 712,172 711,171 710,171 709,170 708,170 707,169 704,169 703,168 702,168 701,167 699,167 698,166 696,166 695,165 692,165 691,164 689,164 688,163 685,163 684,162 680,162 679,161 674,161 673,160" stroke="black" stroke-width="1" /><polyline fill="none" points="529,159 528,160 528,165 527,166 527,172 526,173 526,183 525,184 525,192 524,193 524,204 523,205 523,215 522,216 522,229 521,230 521,240 520,241 520,257 519,258 519,270 518,271 518,285 517,286 517,301 516,302 516,315 515,316 515,328 518,328 519,329 525,329 526,330 531,330 532,331 537,331 538,332 544,332 545,333 551,333 552,334 559,334 560,335 567,335 568,336 576,336 577,337 584,337 585,338 593,338 594,339 603,339 604,340 611,340 612,341 622,341 623,342 633,342 634,343 642,343 643,344 652,344 653,345 663,345 664,346 673,346 674,347 684,347 685,348 707,348 708,349 746,349 747,348 748,348 747,348 746,349 708,349 707,348 685,348 684,347 674,347 673,346 664,346 663,345 653,345 652,344 643,344 642,343 634,343 633,342 623,342 622,341 612,341 611,340 604,340 603,339 594,339 593,338 585,338 584,337 577,337 576,336 568,336 567,335 560,335 559,334 552,334 551,333 545,333 544,332 538,332 537,331 532,331 531,330 526,330 525,329 519,329 518,328 516,328 515,327 515,316 516,315 516,302 517,301 517,286 518,285 518,271 519,270 519,258 520,257 520,241 521,240 521,230 522,229 522,216 523,215 523,205 524,204 524,193 525,192 525,184 526,183 526,173 527,172 527,166 528,165 528,161 530,159 531,159" stroke="black" stroke-width="1" /><polyline fill="none" points="456,152 455,153 456,154 456,174 455,175 460,175 457,175 456,174 456,153 457,152 461,152" stroke="black" stroke-width="1" /><polyline fill="none" points="610,128 628,128 629,129 635,129 636,130 641,130 642,131 645,131 647,133 648,133 651,136 651,137 652,138 652,139 650,141 648,141 647,140 638,140 637,139 632,139 631,138 623,138 622,137 610,137 607,134 607,131" stroke="black" stroke-width="1" /><polyline fill="none" points="610,128 609,129 608,129 607,130 607,134 608,135 608,136 609,136 610,137 622,137 623,138 631,138 632,139 637,139 638,140 647,140 648,141 650,141 651,140 652,140 652,137 651,136 651,135 649,133 648,133 647,132 646,132 645,131 642,131 641,130 636,130 635,129 629,129 628,128" stroke="black" stroke-width="1" /><polyline fill="none" points="605,126 606,125 627,125 628,126 635,126 636,127 641,127 642,128 645,128 646,129 648,129 649,130 651,130 652,131 655,131 656,132 657,132 658,133 660,133 661,134 662,134 663,135 664,135 665,136 666,136 667,137 668,137 669,138 670,138 672,140 673,140 675,142 676,142 678,144 679,144 687,152 687,153 688,154 688,157 687,158 686,158 685,157 684,157 683,158 682,157 679,157 678,156 673,156 672,155 669,155 668,154 660,154 659,153 652,153 651,152 641,152 640,151 621,151 620,150 616,150 615,151 614,150 611,150 610,151 602,151 601,150 590,150 589,151 573,151 572,152 563,152 562,153 551,153 550,152 550,151 551,150 551,149 552,148 552,147 558,141 559,141 561,139 562,139 564,137 565,137 566,136 567,136 568,135 570,135 572,133 574,133 575,132 577,132 578,131 580,131 581,130 583,130 584,129 586,129 587,128 590,128 591,127 596,127 597,126" stroke="black" stroke-width="1" /><polyline fill="none" points="474,105 474,110 473,111 473,112 472,113 472,114 469,117 468,117 467,118 466,118 465,119 464,119 465,119 466,118 468,118 472,114 472,113 473,112 473,111 474,110" stroke="black" stroke-width="1" /><polyline fill="none" points="465,94 467,94 472,99 472,100 473,101 473,102 472,103 471,103 470,104 467,104 463,100 463,96" stroke="black" stroke-width="1" /><polyline fill="none" points="465,94 464,95 463,95 463,100 464,101 464,102 466,104 471,104 473,102 473,101 472,100 472,98 468,94" stroke="black" stroke-width="1" /><polyline fill="none" points="455,91 454,92 453,92 452,93 451,93 445,99 445,100 444,101 444,110 445,111 445,112 447,114 447,115 448,116 449,116 450,117 451,117 452,118 454,118 456,120 456,121 457,120 461,120 462,121 462,120 456,120 454,118 452,118 451,117 450,117 445,112 445,111 444,110 444,101 446,99 446,98 451,93 452,93 453,92 454,92 455,91 462,91 463,92 462,91" stroke="black" stroke-width="1" /><polyline fill="none" points="455,88 454,89 452,89 451,90 450,90 449,91 448,91 443,96 443,97 442,98 442,99 441,100 441,103 440,104 440,107 441,108 441,111 442,112 442,113 443,114 443,115 444,116 444,117 445,118 446,118 448,120 450,120 451,121 453,121 454,122 454,123 455,124 455,127 454,128 454,148 453,149 453,170 452,171 452,174 450,176 449,176 449,179 450,180 450,186 449,187 449,219 443,225 443,226 442,227 442,229 441,230 441,231 440,232 440,234 439,235 439,238 438,239 438,254 439,255 439,263 440,264 440,267 441,268 441,270 442,271 442,273 443,274 443,275 444,276 444,277 448,281 448,282 449,283 450,283 453,286 455,286 456,287 457,287 459,289 459,317 458,318 459,319 459,321 462,321 463,322 467,322 468,323 472,323 473,324 477,324 478,325 482,325 483,326 487,326 488,327 493,327 494,328 497,328 498,329 504,329 505,330 510,330 511,331 514,331 515,332 520,332 521,333 526,333 527,334 531,334 532,335 537,335 538,336 543,336 544,337 548,337 549,338 554,338 555,339 559,339 560,340 566,340 567,341 572,341 573,342 578,342 579,343 581,343 583,345 583,348 582,349 582,362 580,364 573,364 572,365 562,365 561,366 553,366 552,367 543,367 542,368 535,368 534,369 527,369 526,370 521,370 520,371 512,371 511,372 509,372 508,373 508,378 504,382 503,382 496,389 496,390 494,392 494,393 493,394 493,396 492,397 492,399 491,400 491,403 490,404 490,416 491,417 491,420 485,426 485,427 478,434 478,435 473,440 473,441 468,446 468,447 463,452 463,453 459,457 458,457 457,456 456,456 455,455 453,455 452,454 450,454 449,455 447,455 444,458 443,458 436,465 435,465 423,477 423,478 422,479 422,482 425,485 426,485 427,486 427,487 423,491 423,492 422,493 422,494 421,495 421,497 420,498 420,509 421,510 421,511 422,512 422,514 423,515 423,516 426,519 426,520 427,521 428,521 431,524 432,524 433,525 436,525 437,526 448,526 449,525 451,525 452,524 453,524 461,516 461,513 459,511 459,507 455,503 454,503 453,502 452,502 448,498 447,498 446,497 445,497 443,495 442,495 440,493 439,493 437,491 436,491 433,488 432,488 430,486 429,487 428,486 427,486 422,481 422,480 423,479 423,478 436,465 437,465 444,458 445,458 448,455 449,455 450,454 452,454 453,455 454,455 455,456 456,456 457,457 458,457 460,459 461,459 463,461 463,462 464,462 465,463 466,463 468,465 469,465 470,466 470,468 476,474 476,475 477,476 478,476 481,479 481,480 483,482 480,485 480,486 478,488 478,489 476,491 476,492 472,496 472,497 469,500 469,501 465,505 465,506 463,508 462,508 463,509 464,508 464,507 469,502 469,501 472,498 472,497 476,493 476,492 478,490 478,489 480,487 480,486 482,484 482,483 483,482 486,485 486,484 480,478 480,477 479,477 475,473 475,472 470,467 470,465 469,465 467,463 466,463 465,462 464,462 460,458 460,457 462,455 462,454 468,448 468,447 473,442 473,441 478,436 478,435 485,428 485,427 490,422 490,421 491,420 491,417 490,416 490,404 491,403 491,400 492,399 492,397 493,396 493,395 494,394 494,393 496,391 496,390 504,382 505,382 509,378 508,377 508,374 510,372 511,372 512,371 520,371 521,370 526,370 527,369 534,369 535,368 542,368 543,367 552,367 553,366 561,366 562,365 572,365 573,364 581,364 581,363 582,362 583,363 583,364 598,364 599,363 602,363 603,362 604,362 605,361 608,361 609,360 613,360 614,359 619,359 620,358 626,358 627,357 635,357 636,358 636,357 627,357 626,358 620,358 619,359 614,359 613,360 609,360 608,361 605,361 604,362 603,362 602,363 599,363 598,364 584,364 582,362 582,349 583,348 583,345 582,344 582,343 579,343 578,342 573,342 572,341 567,341 566,340 560,340 559,339 555,339 554,338 549,338 548,337 544,337 543,336 538,336 537,335 532,335 531,334 527,334 526,333 521,333 520,332 515,332 514,331 511,331 510,330 505,330 504,329 498,329 497,328 494,328 493,327 488,327 487,326 483,326 482,325 478,325 477,324 473,324 472,323 468,323 467,322 463,322 462,321 460,321 459,320 459,319 458,318 459,317 459,288 458,287 456,287 455,286 454,286 451,283 450,283 448,281 448,280 444,276 444,275 443,274 443,273 442,272 442,271 441,270 441,268 440,267 440,264 439,263 439,255 438,254 438,239 439,238 439,235 440,234 440,232 441,231 441,230 442,229 442,228 443,227 443,226 449,220 449,187 450,186 450,180 449,179 449,177 450,176 451,176 453,174 452,173 452,171 453,170 453,150 454,149 454,128 455,127 455,124 454,123 454,121 451,121 450,120 449,120 447,118 446,118 444,116 444,115 443,114 443,113 441,111 441,108 440,107 440,104 441,103 441,100 443,98 443,97 449,91 450,91 452,89 454,89 455,88 463,88 464,89 466,89 468,91 469,91 475,97 475,98 476,99 476,100 477,101 477,110 476,111 476,113 474,115 474,116 470,120 469,120 468,121 466,121 465,122 464,122 463,123 463,148 462,149 463,150 463,168 462,169 462,175 463,175 465,177 465,189 464,190 464,199 463,200 463,203 464,204 464,205 463,206 464,207 463,208 464,209 466,209 467,208 467,199 468,198 468,192 469,191 469,186 470,185 470,180 471,179 471,175 473,173 474,173 475,172 477,172 478,171 480,171 481,170 483,170 484,169 486,169 487,168 489,168 490,167 492,167 493,166 495,166 496,165 498,165 499,164 502,164 503,163 505,163 506,162 508,162 509,161 512,161 513,160 516,160 517,159 520,159 521,158 524,158 525,157 527,157 528,156 532,156 533,155 537,155 538,154 544,154 545,153 549,153 550,152 551,153 562,153 563,152 572,152 573,151 589,151 590,150 601,150 602,151 610,151 611,150 614,150 615,151 616,150 620,150 621,151 640,151 641,152 651,152 652,153 659,153 660,154 668,154 669,155 672,155 673,156 678,156 679,157 682,157 683,158 684,157 685,158 685,159 686,158 687,158 688,157 689,158 689,159 691,159 692,160 694,160 695,161 696,161 697,162 699,162 700,163 702,163 703,164 705,164 706,165 708,165 709,166 710,166 711,167 712,167 713,168 714,168 715,169 716,169 717,170 718,170 719,171 720,171 721,172 722,172 723,173 724,173 725,174 726,174 727,175 728,175 729,176 730,176 732,178 733,178 734,179 735,179 737,181 738,181 739,182 740,182 742,184 743,184 745,186 746,186 748,188 749,188 751,190 752,190 754,192 755,192 757,194 758,194 761,197 762,197 765,200 766,200 769,203 770,203 774,207 774,213 775,214 775,231 776,232 776,235 775,236 775,249 774,250 775,249 776,249 783,256 783,257 784,258 784,259 785,260 785,262 786,263 786,267 787,268 787,282 786,283 786,288 785,289 785,292 784,293 784,296 783,297 783,299 782,300 782,301 781,302 781,303 779,305 779,306 777,308 777,309 776,310 775,310 771,314 770,314 769,315 768,315 767,314 768,313 768,312 770,310 771,310 776,305 776,304 777,303 777,302 779,300 779,298 780,297 780,295 781,294 781,292 782,291 782,288 783,287 783,282 783,287 782,288 782,291 781,292 781,294 780,295 780,297 779,298 779,300 777,302 777,303 776,304 776,305 771,310 769,310 768,311 768,313 767,314 768,315 767,316 767,320 766,321 766,325 765,326 765,331 764,332 764,336 763,337 763,341 762,342 762,347 761,348 761,349 759,351 749,351 748,352 707,352 706,351 697,351 696,352 695,351 652,351 651,350 641,350 639,348 636,348 635,347 625,347 624,346 614,346 613,345 603,345 602,344 594,344 593,343 584,343 593,343 594,344 602,344 603,345 613,345 614,346 624,346 625,347 635,347 636,348 639,348 640,349 640,365 639,366 637,366 636,365 637,364 635,366 621,366 620,365 604,365 620,365 621,366 639,366 640,365 641,366 644,366 645,367 651,367 652,368 660,368 661,369 666,369 667,370 672,370 673,371 678,371 679,372 685,372 686,373 692,373 693,374 698,374 699,375 705,375 706,376 707,376 709,378 709,383 710,383 711,384 712,384 714,386 715,386 718,389 719,389 720,390 720,391 723,394 723,395 725,397 725,398 726,399 726,400 727,401 727,403 728,404 728,408 729,409 729,421 730,422 731,422 740,431 741,431 748,438 749,438 755,444 756,444 766,454 764,456 764,457 766,455 766,453 767,452 768,452 774,446 776,446 777,445 778,445 779,446 782,446 783,447 785,447 786,448 788,448 789,449 791,449 792,450 794,450 795,451 796,451 797,452 799,452 800,453 801,453 802,454 804,454 806,456 807,456 808,457 809,457 810,458 811,458 812,459 813,459 816,462 812,466 812,467 813,468 814,468 816,470 817,470 821,474 821,475 823,477 823,478 824,479 824,481 825,482 825,491 824,492 824,493 823,494 823,495 822,496 822,497 817,502 816,502 815,503 814,503 812,505 811,505 810,506 809,506 808,507 805,507 804,508 797,508 796,507 793,507 792,506 790,506 787,503 787,502 788,501 788,500 789,499 789,498 790,497 790,496 791,495 791,494 792,493 792,492 793,491 793,490 794,489 794,488 795,487 795,485 796,484 795,485 795,486 794,487 794,488 793,489 793,490 792,491 792,492 791,493 791,494 790,495 790,496 789,497 789,498 788,499 788,500 787,501 787,504 788,505 787,506 786,506 785,507 785,508 783,510 780,510 779,509 778,509 776,507 775,507 774,506 773,506 771,504 770,504 768,502 767,502 765,500 764,500 762,498 761,498 759,496 758,496 755,493 754,493 750,489 750,488 749,487 749,481 750,480 750,476 748,474 747,474 741,468 740,468 735,463 734,463 724,453 726,451 733,458 734,458 735,459 733,457 732,457 726,451 727,450 727,449 730,446 730,445 735,440 735,439 739,435 739,434 740,433 739,433 739,434 735,438 735,439 730,444 730,445 727,448 727,449 726,450 726,451 724,453 723,453 714,444 714,445 716,447 715,448 714,448 714,449 715,450 715,469 716,470 716,490 717,491 717,516 718,517 718,518 716,520 714,520 713,521 698,521 695,524 694,524 691,527 690,527 688,529 687,529 685,531 684,531 682,533 681,533 680,534 679,534 678,535 677,535 676,536 675,536 674,537 673,537 672,538 671,538 670,539 669,539 668,540 666,540 665,541 664,541 663,542 661,542 660,543 657,543 656,544 654,544 653,545 650,545 649,546 648,546 647,547 647,549 646,550 646,551 645,552 645,554 644,555 644,556 643,557 643,558 642,559 642,565 645,565 646,566 649,566 650,567 652,567 653,568 654,568 655,569 656,569 657,570 658,570 659,571 660,571 663,574 664,574 673,583 673,584 676,587 676,588 678,590 673,595 672,595 670,597 669,597 667,599 666,599 665,600 664,600 662,602 661,602 660,603 659,603 658,604 657,604 656,605 655,605 654,606 653,606 652,607 651,607 650,608 649,608 648,609 647,609 646,610 645,610 644,611 643,611 642,612 641,612 640,613 640,617 641,618 641,622 642,623 642,641 640,643 630,643 629,642 622,642 621,641 616,641 615,640 611,640 610,639 607,639 606,638 604,638 603,637 601,637 600,636 598,636 597,635 595,635 594,634 593,634 592,633 591,633 590,632 589,632 588,631 587,631 586,630 585,630 583,628 582,628 581,627 580,627 578,625 577,625 576,624 575,624 574,623 573,623 571,621 570,621 569,620 568,620 565,617 564,617 562,615 561,615 557,611 556,611 552,607 552,605 564,593 565,593 567,591 568,591 570,589 571,589 572,588 573,588 575,586 577,586 578,585 581,585 582,584 595,584 595,580 594,579 594,577 593,576 593,575 591,573 591,572 589,570 589,569 588,568 588,567 585,564 585,563 582,560 582,559 580,557 580,556 576,552 576,551 574,549 574,548 571,545 571,544 569,542 566,542 565,541 563,541 562,540 561,540 560,539 558,539 557,538 556,538 555,537 554,537 553,536 552,536 551,535 550,535 549,534 548,534 547,533 546,533 545,532 544,532 543,531 542,531 540,529 539,529 538,528 537,528 535,526 534,526 531,523 530,523 526,519 525,519 519,513 514,513 513,512 503,512 502,511 499,511 497,509 497,493 498,492 498,460 499,459 499,457 498,456 507,447 507,446 509,444 510,444 512,446 514,446 515,447 517,447 518,448 521,448 522,449 533,449 534,448 537,448 538,447 540,447 541,446 542,446 543,445 544,445 545,444 546,444 549,441 550,441 552,439 552,438 555,435 555,434 557,432 557,431 558,430 558,428 559,427 559,424 560,423 560,420 561,419 561,404 560,403 560,401 559,400 559,398 558,397 558,395 557,394 557,392 555,390 555,389 551,385 551,384 550,383 549,383 546,380 545,380 543,378 542,378 541,377 540,377 539,376 537,376 536,375 533,375 532,374 519,374 518,375 516,375 515,376 514,376 513,377 511,377 513,377 514,376 515,376 516,375 518,375 519,374 532,374 533,375 536,375 537,376 539,376 541,378 542,378 543,379 544,379 547,382 548,382 552,386 552,387 555,390 555,391 557,393 557,394 558,395 558,397 559,398 559,400 560,401 560,403 561,404 561,419 560,420 560,423 559,424 559,427 558,428 558,429 557,430 557,431 555,433 555,434 553,436 553,437 549,441 548,441 545,444 544,444 543,445 542,445 540,447 538,447 537,448 534,448 533,449 522,449 521,448 518,448 517,447 515,447 514,446 513,446 512,445 511,445 510,444 508,444 507,445 507,446 496,457 496,458 494,460 494,461 488,467 488,468 485,471 485,472 483,474 483,476 484,477 484,478 490,484 490,491 489,492 489,493 488,494 488,495 487,496 487,497 485,499 485,500 483,502 483,503 482,504 482,505 480,507 480,508 475,513 475,514 472,517 472,518 469,521 466,521 463,518 462,518 465,521 470,521 472,519 472,518 475,515 475,514 480,509 480,508 482,506 482,505 483,504 483,503 485,501 485,500 487,498 487,497 488,496 488,495 489,494 489,493 490,492 490,483 483,476 483,475 485,473 485,472 488,469 488,468 494,462 494,461 496,459 496,458 498,456 499,457 499,459 498,460 498,492 497,493 497,509 498,510 498,511 502,511 503,512 513,512 514,513 518,513 523,518 524,518 529,523 530,523 533,526 534,526 536,528 537,528 538,529 539,529 541,531 542,531 543,532 544,532 545,533 546,533 547,534 548,534 549,535 550,535 551,536 552,536 553,537 554,537 555,538 557,538 558,539 560,539 561,540 562,540 563,541 565,541 566,542 568,542 571,545 571,546 574,549 574,550 576,552 576,553 580,557 580,558 582,560 582,561 585,564 585,565 588,568 588,569 589,570 589,571 591,573 591,574 593,576 593,577 594,578 594,579 595,580 595,583 594,584 582,584 581,585 578,585 577,586 575,586 574,587 573,587 572,588 571,588 570,589 569,589 567,591 566,591 564,593 563,593 552,604 552,608 555,611 556,611 560,615 561,615 563,617 564,617 567,620 568,620 569,621 570,621 572,623 573,623 574,624 575,624 576,625 577,625 579,627 580,627 581,628 582,628 584,630 585,630 586,631 587,631 588,632 589,632 590,633 591,633 592,634 594,634 595,635 597,635 598,636 600,636 601,637 603,637 604,638 606,638 607,639 610,639 611,640 615,640 616,641 621,641 622,642 629,642 630,643 641,643 642,642 642,628 643,627 642,626 642,623 641,622 641,618 640,617 640,614 642,612 643,612 644,611 645,611 646,610 647,610 648,609 649,609 650,608 651,608 652,607 653,607 654,606 655,606 656,605 657,605 658,604 659,604 660,603 661,603 662,602 663,602 665,600 666,600 667,599 668,599 670,597 671,597 673,595 674,595 677,592 678,592 677,591 678,590 678,589 676,587 676,586 673,583 673,582 665,574 664,574 661,571 660,571 659,570 658,570 657,569 655,569 654,568 653,568 652,567 650,567 649,566 646,566 645,565 643,565 642,564 642,560 643,559 643,557 644,556 644,555 645,554 645,552 646,551 646,550 647,549 647,548 650,545 653,545 654,544 656,544 657,543 660,543 661,542 663,542 664,541 665,541 666,540 668,540 669,539 671,539 672,538 673,538 674,537 675,537 676,536 677,536 678,535 679,535 680,534 681,534 682,533 683,533 685,531 686,531 688,529 689,529 691,527 692,527 695,524 696,524 699,521 713,521 714,520 717,520 717,519 718,518 718,517 717,516 717,491 716,490 716,470 715,469 715,450 714,449 716,447 722,453 723,453 733,463 734,463 738,467 739,467 746,474 747,474 750,477 750,480 749,481 749,487 750,488 750,490 753,493 754,493 757,496 758,496 760,498 761,498 763,500 764,500 766,502 767,502 769,504 770,504 772,506 773,506 774,507 775,507 777,509 778,509 779,510 784,510 785,509 785,508 788,505 789,505 790,506 792,506 793,507 796,507 797,508 804,508 805,507 808,507 809,506 811,506 812,505 813,505 815,503 816,503 817,502 818,502 822,498 822,497 823,496 823,494 824,493 824,492 825,491 825,482 824,481 824,478 823,477 823,476 821,474 821,473 818,470 817,470 815,468 814,468 812,466 813,465 814,465 816,463 816,461 814,459 813,459 812,458 811,458 810,457 809,457 808,456 807,456 806,455 805,455 804,454 802,454 801,453 800,453 799,452 797,452 796,451 795,451 794,450 792,450 791,449 789,449 788,448 786,448 785,447 783,447 782,446 779,446 778,445 777,445 776,446 773,446 766,453 757,444 756,444 750,438 749,438 742,431 741,431 732,422 731,422 729,420 729,409 728,408 728,404 727,403 727,401 726,400 726,398 725,397 725,396 723,394 723,393 720,390 720,389 719,389 716,386 715,386 714,385 713,385 712,384 711,384 709,382 709,377 708,376 706,376 705,375 699,375 698,374 693,374 692,373 686,373 685,372 679,372 678,371 673,371 672,370 667,370 666,369 661,369 660,368 652,368 651,367 645,367 644,366 642,366 640,364 640,351 641,350 651,350 652,351 695,351 696,352 697,351 706,351 707,352 748,352 749,351 760,351 761,350 761,348 762,347 762,342 763,341 763,337 764,336 764,332 765,331 765,326 766,325 766,321 767,320 767,317 770,314 772,314 779,307 779,306 781,304 781,303 782,302 782,300 783,299 783,297 784,296 784,293 785,292 785,289 786,288 786,283 787,282 787,268 786,267 786,263 785,262 785,260 784,259 784,257 783,256 783,255 775,247 775,236 776,235 776,232 775,231 775,214 774,213 774,206 771,203 770,203 767,200 766,200 763,197 762,197 759,194 758,194 756,192 755,192 754,191 753,191 750,188 749,188 747,186 746,186 744,184 743,184 741,182 740,182 739,181 738,181 736,179 735,179 734,178 733,178 731,176 730,176 729,175 728,175 727,174 726,174 725,173 724,173 723,172 722,172 721,171 720,171 719,170 718,170 717,169 716,169 715,168 713,168 711,166 709,166 708,165 706,165 705,164 703,164 702,163 700,163 699,162 697,162 696,161 695,161 694,160 692,160 691,159 690,159 688,157 688,154 687,153 687,151 680,144 679,144 677,142 676,142 674,140 673,140 671,138 670,138 669,137 668,137 667,136 666,136 665,135 664,135 663,134 661,134 660,133 658,133 657,132 656,132 655,131 652,131 651,130 649,130 648,129 646,129 645,128 642,128 641,127 636,127 635,126 628,126 627,125 606,125 605,126 597,126 596,127 591,127 590,128 587,128 586,129 584,129 583,130 581,130 580,131 578,131 577,132 575,132 574,133 572,133 571,134 570,134 569,135 567,135 566,136 565,136 564,137 563,137 561,139 560,139 558,141 557,141 552,146 552,147 551,148 551,150 548,153 545,153 544,154 538,154 537,155 533,155 532,156 528,156 527,157 525,157 524,158 521,158 520,159 517,159 516,160 513,160 512,161 509,161 508,162 506,162 505,163 503,163 502,164 499,164 498,165 496,165 495,166 493,166 492,167 490,167 489,168 487,168 486,169 484,169 483,170 481,170 480,171 478,171 477,172 475,172 474,173 472,173 471,174 471,179 470,180 470,185 469,186 469,191 468,192 468,198 467,199 467,207 465,209 464,208 464,207 463,206 464,205 464,204 463,203 463,200 464,199 464,190 465,189 465,176 464,175 463,175 462,174 462,169 463,168 463,123 464,122 465,122 466,121 469,121 470,120 471,120 474,117 474,116 475,115 475,114 476,113 476,111 477,110 477,101 476,100 476,98 475,97 475,96 470,91 469,91 468,90 467,90 466,89 464,89 463,88" stroke="black" stroke-width="1" /></svg>