<?xml version="1.0" encoding="utf-8" ?>
<svg baseProfile="tiny" height="704" version="1.2" width="1248" xmlns="http://www.w3.org/2000/svg" xmlns:ev="http://www.w3.org/2001/xml-events" xmlns:xlink="http://www.w3.org/1999/xlink"><defs /><polyline fill="none" points="542,627 541,628 515,628 514,629 502,629 501,630 494,630 493,631 486,631 485,632 479,632 478,633 473,633 472,634 468,634 467,635 464,635 463,636 460,636 459,637 458,637 457,638 455,638 454,639 454,640 455,641 455,642 457,644 459,644 460,645 462,645 463,646 467,646 468,647 472,647 473,648 479,648 480,649 486,649 487,650 494,650 495,651 505,651 506,652 516,652 517,653 530,653 531,654 551,654 552,655 574,655 575,656 621,656 622,655 653,655 654,654 673,654 674,653 688,653 689,652 700,652 701,651 712,651 713,650 719,650 720,649 727,649 728,648 733,648 734,647 739,647 740,646 744,646 745,645 747,645 748,644 750,644 752,642 752,639 751,639 750,638 749,638 748,637 746,637 745,636 742,636 741,635 738,635 737,634 732,634 731,633 726,633 725,632 718,632 717,631 710,631 709,630 701,630 700,629 684,629 683,628 675,628 683,628 684,629 700,629 701,630 709,630 710,631 717,631 718,632 725,632 726,633 731,633 732,634 737,634 738,635 741,635 742,636 745,636 746,637 748,637 750,639 751,639 752,640 752,641 749,644 748,644 747,645 745,645 744,646 740,646 739,647 734,647 733,648 728,648 727,649 720,649 719,650 713,650 712,651 701,651 700,652 689,652 688,653 674,653 673,654 654,654 653,655 622,655 621,656 575,656 574,655 552,655 551,654 531,654 530,653 517,653 516,652 506,652 505,651 495,651 494,650 487,650 486,649 480,649 479,648 473,648 472,647 468,647 467,646 463,646 462,645 460,645 459,644 458,644 454,640 456,638 457,638 458,637 459,637 460,636 463,636 464,635 467,635 468,634 472,634 473,633 478,633 479,632 485,632 486,631 493,631 494,630 501,630 502,629 514,629 515,628 541,628 542,627 556,627" stroke="black" stroke-width="1" /><polyline fill="none" points="655,611 656,610 657,611 657,612 659,614 659,615 661,617 661,618 662,619 662,620 664,622 664,623 665,624 665,625 666,626 666,628 667,629 667,630 668,631 666,633 658,633 657,634 632,634 631,633 631,632 632,631 632,623 638,617 639,617 640,616 641,616 643,614 645,614 646,613 649,613 650,612 653,612 654,611" stroke="black" stroke-width="1" /><polyline fill="none" points="625,599 624,600 616,600 615,601 614,601 605,610 605,611 603,613 603,614 602,615 602,616 600,618 600,619 599,620 599,621 598,622 598,624 597,625 597,626 596,627 596,631 598,631 599,632 605,632 606,633 617,633 618,634 629,634 618,634 617,633 606,633 605,632 599,632 598,631 597,631 596,630 596,628 597,627 597,626 598,625 598,623 599,622 599,621 600,620 600,619 601,618 601,617 603,615 603,614 605,612 605,611 615,601 616,601 617,600 624,600 625,599 638,599 639,600 642,600 643,601 645,601 646,602 647,602 648,603 649,603 651,605 652,605 656,609 656,610 655,611 654,611 653,612 650,612 649,613 646,613 645,614 643,614 642,615 641,615 640,616 639,616 638,617 637,617 633,621 633,622 632,623 632,631 631,632 631,634 657,634 658,633 667,633 668,632 668,631 667,630 667,628 666,627 666,626 665,625 665,624 664,623 664,621 662,619 662,618 661,617 661,616 659,614 659,613 657,611 657,610 656,609 656,608 653,605 652,605 650,603 649,603 648,602 646,602 645,601 643,601 642,600 639,600 638,599" stroke="black" stroke-width="1" /><polyline fill="none" points="615,591 615,592 616,591 617,591 618,592 620,592 621,593 619,595 614,595 621,595 620,594 621,593 622,593 623,594 624,594 623,594 622,593 621,593 620,592 618,592 617,591" stroke="black" stroke-width="1" /><polyline fill="none" points="556,577 555,578 551,578 550,579 548,579 547,580 544,580 543,581 542,581 541,582 540,582 539,583 538,583 537,584 535,584 534,585 533,585 532,586 531,586 530,587 528,587 529,588 528,589 526,589 527,589 537,599 537,600 540,603 541,603 549,611 550,611 551,612 552,612 554,614 555,614 559,618 560,618 562,620 563,620 565,622 566,622 567,623 568,623 570,625 571,625 573,627 574,627 575,628 576,628 577,629 578,629 581,632 582,632 584,634 585,634 583,632 582,632 579,629 578,629 577,628 576,628 575,627 574,627 572,625 571,625 569,623 568,623 567,622 566,622 564,620 563,620 561,618 560,618 556,614 555,614 554,613 557,610 558,610 565,603 566,604 573,604 574,605 577,605 578,606 579,606 580,607 581,607 582,608 583,608 587,612 588,612 589,613 589,615 590,616 589,617 589,624 588,625 588,631 587,632 587,633 587,632 588,631 588,625 589,624 589,617 590,616 589,615 589,613 584,608 583,608 582,607 580,607 579,606 578,606 577,605 574,605 573,604 566,604 565,603 565,600 566,599 566,597 567,596 567,592 568,591 568,582 569,581 568,582 568,591 567,592 567,596 566,597 566,599 565,600 565,602 557,610 556,610 555,611 555,612 554,613 553,613 551,611 550,611 542,603 541,603 537,599 537,598 528,589 531,586 532,586 533,585 535,585 536,584 537,584 538,583 540,583 542,581 544,581 545,580 547,580 548,579 550,579 551,578 555,578 556,577 567,577 568,578 569,578 571,580 572,580 574,582 575,582 576,583 577,583 581,587 582,587 584,589 584,590 586,592 586,593 587,594 587,595 588,596 588,597 589,598 589,599 590,600 590,602 591,603 591,611 591,603 590,602 590,600 589,599 589,598 588,597 588,595 587,594 587,593 586,592 586,591 584,589 584,588 583,587 582,587 578,583 577,583 576,582 575,582 573,580 572,580 571,579 570,579 569,578 568,578 567,577" stroke="black" stroke-width="1" /><polyline fill="none" points="619,576 620,575 621,575 622,576 625,576 626,577 629,577 630,578 637,578 638,579 640,579 641,580 641,583 640,584 640,586 639,587 639,590 638,591 638,592 636,594 632,594 631,593 629,593 628,592 626,592 625,591 623,591 622,590 620,590 619,589 618,589 616,587 616,585 617,584 617,581 618,580 618,578 619,577" stroke="black" stroke-width="1" /><polyline fill="none" points="619,575 619,576 618,577 618,580 617,581 617,584 616,585 616,587 615,588 616,588 617,589 619,589 620,590 622,590 623,591 625,591 626,592 628,592 629,593 631,593 632,594 637,594 638,593 638,591 639,590 639,587 640,586 640,584 641,583 641,579 638,579 637,578 630,578 629,577 626,577 625,576 622,576 621,575" stroke="black" stroke-width="1" /><polyline fill="none" points="573,562 574,563 577,563 578,564 580,564 581,565 584,565 585,566 588,566 589,567 592,567 594,569 594,570 593,571 593,573 591,575 591,576 589,578 589,579 585,583 584,583 583,582 582,582 579,579 578,579 576,577 575,577 574,576 573,576 572,575 571,575 569,573 569,569 570,568 570,567 571,566 571,565 572,564 571,565 571,566 570,567 570,568 569,569 569,574 570,575 571,575 572,576 573,576 574,577 575,577 577,579 578,579 581,582 582,582 585,585 584,584 589,579 589,578 592,575 592,574 593,573 593,571 594,570 594,568 593,567 589,567 588,566 585,566 584,565 581,565 580,564 578,564 577,563 574,563" stroke="black" stroke-width="1" /><polyline fill="none" points="623,558 622,559 622,562 621,563 621,566 621,563 622,562 622,560 624,558 627,558 628,559 634,559 635,560 644,560 645,561 645,563 644,564 644,568 643,569 643,572 642,573 642,575 641,576 637,576 636,575 630,575 629,574 625,574 624,573 622,573 620,571 620,568 620,572 621,572 622,573 624,573 625,574 629,574 630,575 636,575 637,576 641,576 642,575 642,573 643,572 643,569 644,568 644,564 645,563 645,561 646,560 635,560 634,559 628,559 627,558" stroke="black" stroke-width="1" /><polyline fill="none" points="621,555 621,556 622,555 627,555 628,556 633,556 634,557 646,557 634,557 633,556 628,556 627,555" stroke="black" stroke-width="1" /><polyline fill="none" points="600,554 604,554 605,555 616,555 617,556 618,556 619,557 619,560 618,561 618,565 617,566 617,571 616,572 616,575 615,576 615,579 614,580 614,583 613,584 613,587 612,588 612,591 611,592 611,594 608,597 605,597 604,598 602,598 601,599 600,599 599,600 598,600 597,601 596,601 595,600 595,599 594,598 594,596 593,595 593,594 591,592 591,591 588,588 588,587 587,586 593,580 593,579 594,578 594,577 595,576 595,575 596,574 596,573 597,572 597,569 598,568 598,556" stroke="black" stroke-width="1" /><polyline fill="none" points="599,554 598,555 598,568 597,569 597,572 595,574 595,575 594,576 594,577 593,578 593,579 587,585 587,586 588,587 588,589 591,592 591,593 593,595 593,596 594,597 594,598 595,599 595,601 598,601 599,600 600,600 601,599 602,599 603,598 604,598 605,597 608,597 609,596 610,596 611,595 611,592 612,591 612,588 613,587 613,584 614,583 614,580 615,579 615,576 616,575 616,572 617,571 617,566 618,565 618,561 619,560 619,556 617,556 616,555 605,555 604,554" stroke="black" stroke-width="1" /><polyline fill="none" points="595,552 595,564 594,565 593,565 592,564 589,564 588,563 585,563 584,562 581,562 580,561 577,561 576,560 574,560 571,557 571,556 570,555 570,554 570,555 571,556 571,557 572,558 572,559 573,560 576,560 577,561 580,561 581,562 584,562 585,563 588,563 589,564 592,564 593,565 595,565 595,553 596,552 597,552" stroke="black" stroke-width="1" /><polyline fill="none" points="567,547 568,547 569,548 573,548 574,549 575,549 574,548 569,548 568,547" stroke="black" stroke-width="1" /><polyline fill="none" points="512,529 513,530 517,530 518,529 520,529 518,529 517,530 513,530" stroke="black" stroke-width="1" /><polyline fill="none" points="763,527 764,527 765,528 765,527" stroke="black" stroke-width="1" /><polyline fill="none" points="560,522 560,523 561,524 561,525 562,526 562,532 563,533 563,535 562,536 562,538 561,539 561,540 557,544 556,544 554,546 553,546 552,547 551,547 550,548 543,548 538,543 538,542 536,540 536,530 537,529 536,529 536,540 537,541 537,542 538,543 538,544 541,547 542,547 543,548 551,548 552,547 553,547 555,545 556,545 559,542 560,542 561,541 561,540 562,539 562,536 563,535 563,533 562,532 562,526 561,525 561,523" stroke="black" stroke-width="1" /><polyline fill="none" points="555,520 556,519 561,519 564,522 564,524 565,525 565,526 566,527 566,537 565,538 565,540 563,542 563,543 560,546 559,546 556,549 555,549 554,550 553,550 552,551 551,551 550,552 538,552 537,551 535,551 534,550 533,550 532,549 531,549 524,542 524,541 522,539 522,536 521,535 521,531 522,530 523,530 524,529 526,529 527,528 529,528 530,527 533,527 534,526 535,526 536,525 538,525 539,524 540,524 542,522 544,522 545,521 548,521 549,520" stroke="black" stroke-width="1" /><polyline fill="none" points="683,515 684,514 686,514 690,518 690,520 689,521 689,522 688,523 687,523 686,524 683,524 680,521 680,518 681,517 681,516 682,515" stroke="black" stroke-width="1" /><polyline fill="none" points="684,514 683,515 681,515 681,516 680,517 680,522 682,524 687,524 688,523 689,523 689,521 690,520 690,517 687,514" stroke="black" stroke-width="1" /><polyline fill="none" points="591,505 592,504 595,504 598,507 598,510 594,514 593,514 592,513 591,513 588,510 588,507 590,505" stroke="black" stroke-width="1" /><polyline fill="none" points="591,504 590,505 589,505 588,506 588,511 590,513 592,513 593,514 594,514 595,513 596,513 598,511 598,506 596,504" stroke="black" stroke-width="1" /><polyline fill="none" points="727,493 726,494 724,494 723,495 721,495 720,496 719,496 718,497 717,497 716,498 715,498 714,497 712,497 714,497 715,498 716,498 717,497 719,497 720,496 721,496 722,495 723,495 724,494 726,494" stroke="black" stroke-width="1" /><polyline fill="none" points="743,490 742,491 739,491 738,492 736,492 735,493 734,493 733,494 731,494 730,495 729,495 729,500 731,502 731,503 732,504 732,505 733,506 733,507 734,508 734,509 735,510 735,512 736,513 736,514 737,515 737,517 738,518 738,519 740,521 740,522 741,523 741,525 742,526 742,527 744,529 747,529 748,528 751,528 752,527 755,527 756,526 759,526 760,525 762,525 763,524 769,524 763,524 762,525 760,525 759,526 756,526 755,527 752,527 751,528 748,528 747,529 744,529 743,528 743,527 741,525 741,522 740,521 740,520 738,518 738,517 737,516 737,515 736,514 736,512 735,511 735,510 734,509 734,507 733,506 733,505 732,504 732,503 731,502 731,501 729,499 729,496 731,494 734,494 736,492 738,492 739,491 742,491 743,490 746,490 748,492 748,494 749,495 749,497 750,498 750,499 751,500 751,501 753,503 753,504 754,505 754,506 755,507 755,508 756,509 756,510 758,512 758,513 759,514 759,515 760,516 760,517 762,519 762,520 763,521 763,522 764,521 761,518 761,517 760,516 760,515 759,514 759,513 758,512 758,511 756,509 756,508 755,507 755,506 754,505 754,504 752,502 752,501 751,500 751,499 750,498 750,497 749,496 749,494 748,493 748,491 747,490" stroke="black" stroke-width="1" /><polyline fill="none" points="628,486 629,487 630,487 633,490 634,490 635,491 636,491 637,492 638,492 639,493 641,493 642,494 646,494 642,494 641,493 639,493 637,491 636,491 635,490 634,490 632,488 631,488 629,486" stroke="black" stroke-width="1" /><polyline fill="none" points="731,481 731,482 732,483 732,486 733,487 733,489 734,490 735,490 735,489 734,490 733,489 733,487 732,486 732,483 731,482" stroke="black" stroke-width="1" /><polyline fill="none" points="642,479 642,480 641,481 641,482 640,483 640,485 639,486 640,485 642,487 644,487 645,488 660,488 661,487 664,487 665,486 664,486 663,487 661,487 660,488 645,488 644,487 643,487 642,486 641,486 640,485 640,483 641,482 641,481 643,479" stroke="black" stroke-width="1" /><polyline fill="none" points="672,478 674,480 672,482 671,481 670,481 668,479 667,480 665,480 665,483 666,484 667,484 668,485 668,484 667,484 665,482 665,481 666,480 668,480 669,481 670,481 671,482 671,483 674,480 674,479 673,478" stroke="black" stroke-width="1" /><polyline fill="none" points="728,476 727,477 725,477 724,478 722,478 721,479 719,479 718,480 716,480 718,480 719,479 721,479 722,478 724,478 725,477 727,477 728,476 730,476" stroke="black" stroke-width="1" /><polyline fill="none" points="673,476 674,476 676,478 677,478 675,476" stroke="black" stroke-width="1" /><polyline fill="none" points="727,473 726,474 725,474 724,475 722,475 721,476 719,476 718,477 716,477 715,478 714,478 713,479 713,480 714,481 713,480 713,479 714,478 716,478 717,477 718,477 719,476 721,476 722,475 724,475 725,474 727,474 728,473" stroke="black" stroke-width="1" /><polyline fill="none" points="523,470 522,471 518,471 517,472 515,472 514,473 512,473 511,474 510,473 511,474 511,476 512,477 512,481 513,482 513,484 514,485 514,486 514,485 513,484 513,482 512,481 512,477 511,476 511,475 513,473 514,473 515,472 517,472 518,471 522,471 523,470 533,470 535,472 535,479 536,480 535,481 536,480 535,479 535,471 534,470" stroke="black" stroke-width="1" /><polyline fill="none" points="613,461 614,462 614,464 615,465 615,467 616,468 616,470 615,471 615,473 616,474 616,475 617,476 617,477 620,480 620,481 621,482 622,482 624,484 624,483 623,482 622,482 620,480 620,479 617,476 617,475 616,474 616,473 615,472 615,471 616,470 616,468 615,467 615,465 614,464 614,461" stroke="black" stroke-width="1" /><polyline fill="none" points="591,460 590,461 590,462 589,463 589,468 588,469 588,476 587,477 587,483 586,484 586,492 585,493 585,500 584,501 584,507 583,508 583,517 584,518 584,522 590,522 591,523 602,523 603,524 612,524 613,525 623,525 624,526 632,526 633,527 640,527 641,528 649,528 650,529 658,529 659,530 666,530 667,531 676,531 677,532 689,532 690,533 689,532 677,532 676,531 667,531 666,530 659,530 658,529 650,529 649,528 641,528 640,527 633,527 632,526 624,526 623,525 613,525 612,524 603,524 602,523 591,523 590,522 585,522 584,521 584,518 583,517 583,508 584,507 584,501 585,500 585,493 586,492 586,484 587,483 587,477 588,476 588,469 589,468 589,463 592,460 601,460 602,461 610,461 611,462 611,461 602,461 601,460" stroke="black" stroke-width="1" /><polyline fill="none" points="722,456 721,457 720,457 719,458 718,458 717,459 714,459 714,460 711,463 711,477 711,463 713,461 715,463 716,462 719,462 721,460 722,460 724,462 724,463 725,464 725,466 726,467 726,468 727,469 727,471 727,469 726,468 726,467 725,466 725,464 724,463 724,462 723,461 723,460 720,460 718,462 714,462 713,461 714,460 715,460 716,459 718,459 719,458 720,458 721,457 722,457" stroke="black" stroke-width="1" /><polyline fill="none" points="652,454 653,453 658,453 659,454 660,454 661,455 662,455 664,457 664,458 665,459 664,460 664,461 660,465 654,465 653,464 652,464 648,460 648,459 647,458 648,457 648,456 649,455 650,455 651,454" stroke="black" stroke-width="1" /><polyline fill="none" points="653,453 652,454 650,454 649,455 648,455 648,457 647,458 648,459 648,461 651,464 653,464 654,465 661,465 664,462 664,460 665,459 664,458 664,456 663,456 661,454 659,454 658,453" stroke="black" stroke-width="1" /><polyline fill="none" points="517,453 518,452 530,452 532,454 532,458 533,459 533,465 531,467 524,467 523,468 518,468 517,469 515,469 514,470 511,470 510,469 510,466 509,465 509,457 508,456 510,454 513,454 514,453" stroke="black" stroke-width="1" /><polyline fill="none" points="518,452 517,453 514,453 513,454 510,454 509,453 510,454 509,455 508,455 508,456 509,457 509,465 510,466 510,470 514,470 515,469 517,469 518,468 523,468 524,467 531,467 532,466 533,466 533,459 532,458 532,453 531,452" stroke="black" stroke-width="1" /><polyline fill="none" points="520,435 521,434 528,434 529,435 530,435 531,436 531,448 530,449 518,449 517,450 514,450 513,451 509,451 508,450 508,437 509,436 510,436 511,435 512,436 513,435" stroke="black" stroke-width="1" /><polyline fill="none" points="653,427 655,427 657,429 657,430 659,432 659,433 660,434 658,436 657,435 655,435 654,434 653,434 652,433 651,433 649,431" stroke="black" stroke-width="1" /><polyline fill="none" points="653,427 652,428 651,428 650,429 650,430 649,431 650,432 650,433 651,433 652,434 654,434 655,435 657,435 658,436 660,434 659,433 659,431 657,429 657,428 656,428 655,427" stroke="black" stroke-width="1" /><polyline fill="none" points="670,424 671,423 672,423 674,425 674,426 673,427" stroke="black" stroke-width="1" /><polyline fill="none" points="649,424 650,423 653,423 654,424 658,424 659,425 662,425 664,427 665,427 673,435 673,436 674,437 674,438 675,439 675,440 676,441 676,442 677,443 677,448 678,449 678,451 677,452 677,458 676,459 676,461 675,462 675,463 674,464 674,465 672,467 672,468 665,475 664,475 663,476 661,476 660,477 658,477 657,478 648,478 647,477 645,477 644,476 643,476 640,473 639,473 634,468 634,467 632,465 632,464 631,463 631,462 630,461 630,459 629,458 629,454 628,453 628,446 629,445 629,443 630,442 630,440 631,439 631,438 633,436 633,435 641,427 642,427 643,426 644,426 645,425 646,425 647,424" stroke="black" stroke-width="1" /><polyline fill="none" points="676,423 677,424 677,425 680,428 680,429 682,431 681,430 681,429 679,427 679,426" stroke="black" stroke-width="1" /><polyline fill="none" points="666,417 666,421 665,422 665,424 665,423 666,422 666,418 667,417 668,417 669,418 670,418 672,420 673,420 674,421 673,422 672,422 670,424 669,424 668,425 667,424 668,425 669,424 670,424 671,425 671,426 672,426 673,427 673,429 673,428 674,427 674,424 673,423 673,422 674,421 673,420 672,420 670,418 669,418 668,417" stroke="black" stroke-width="1" /><polyline fill="none" points="515,417 516,416 524,416 526,418 527,418 529,420 529,422 530,423 530,428 531,429 529,431 521,431 520,432 513,432 512,433 509,433 508,432 508,422 512,418 513,418 514,417" stroke="black" stroke-width="1" /><polyline fill="none" points="516,416 515,417 513,417 512,418 511,418 508,421 508,433 512,433 513,432 520,432 521,431 531,431 530,430 531,429 530,428 530,423 529,422 529,419 528,418 527,418 526,417 525,417 524,416" stroke="black" stroke-width="1" /><polyline fill="none" points="651,413 652,414 652,418 651,419 652,419 653,420 654,420 655,421 659,421 656,421 655,420 653,420 652,419 652,414 653,413 658,413 659,414 661,414 662,415 663,415 664,416 663,417 663,420 661,422 662,423 662,421 663,420 663,418 664,417 664,416 662,414 659,414 658,413 653,413 652,414" stroke="black" stroke-width="1" /><polyline fill="none" points="647,413 647,414 648,415 648,418 649,419 649,420 649,418 648,417 648,415 647,414" stroke="black" stroke-width="1" /><polyline fill="none" points="645,413 644,414 642,414 641,415 639,415 638,416 637,416 636,417 635,417 630,422 630,423 628,425 628,426 626,428 626,430 625,431 625,432 624,433 624,435 623,436 623,438 622,439 622,443 623,444 625,444 626,445 627,445 628,446 628,447 627,448 623,448 622,447 621,448 621,457 622,458 622,464 623,465 623,468 625,470 625,471 627,473 627,474 629,476 629,477 634,482 636,482 638,480 638,479 640,477 639,477 638,478 638,479 635,482 629,476 629,475 627,473 627,472 625,470 625,469 623,467 623,465 622,464 622,458 621,457 621,448 622,447 623,448 626,448 628,450 628,453 629,454 629,458 630,459 630,461 631,462 631,464 632,465 632,466 634,468 634,469 638,473 639,473 642,476 643,476 644,477 647,477 648,478 657,478 658,477 661,477 662,476 664,476 666,474 667,474 672,469 672,468 674,466 674,465 675,464 675,462 676,461 676,459 677,458 677,452 678,451 678,449 677,448 677,443 676,442 676,440 675,439 675,438 674,437 674,436 672,434 672,433 666,427 665,427 663,425 659,425 658,424 654,424 653,423 650,423 649,424 647,424 646,425 644,425 643,426 642,426 641,427 640,427 633,434 633,435 631,437 631,438 630,439 630,442 629,443 629,445 628,446 627,445 626,445 625,444 624,444 622,442 622,439 623,438 623,436 624,435 624,433 625,432 625,431 626,430 626,429 628,427 628,426 630,424 630,423 636,417 637,417 638,416 639,416 640,415 641,415 642,414 644,414" stroke="black" stroke-width="1" /><polyline fill="none" points="716,408 717,407 718,408 719,408 722,411 722,412 723,413 723,414 724,415 724,416 726,418 726,420 727,421 725,423 717,423 716,422" stroke="black" stroke-width="1" /><polyline fill="none" points="716,405 716,406 717,407 716,408 716,423 726,423 726,422 727,421 726,420 726,418 725,417 725,416 724,415 724,414 723,413 723,412 722,411 722,410 720,408 719,408" stroke="black" stroke-width="1" /><polyline fill="none" points="699,402 700,401 702,401 703,402 704,402 706,404 706,408 702,412 700,412 699,411 698,411 696,409 696,404 698,402" stroke="black" stroke-width="1" /><polyline fill="none" points="559,402 560,403 560,405 561,406 561,415 560,416 560,420 559,421 559,423 558,424 558,426 556,428 556,429 553,432 552,432 551,431 549,431 547,429 545,429 544,428 543,428 540,425 541,424 541,422 542,421 542,419 543,418 543,415 544,414 544,409 543,408 543,404 543,408 544,409 544,414 543,415 543,418 542,419 542,421 541,422 541,424 540,425 541,426 540,427 541,427 542,428 544,428 545,429 546,429 547,430 548,430 549,431 551,431 552,432 553,432 554,431 555,431 556,430 556,429 557,428 557,427 558,426 558,425 559,424 559,421 560,420 560,416 561,415 561,406 560,405 560,403" stroke="black" stroke-width="1" /><polyline fill="none" points="700,401 699,402 697,402 696,403 696,410 697,411 699,411 700,412 702,412 703,411 704,411 706,409 706,403 705,402 704,402 703,401" stroke="black" stroke-width="1" /><polyline fill="none" points="515,396 514,397 512,397 511,398 510,398 509,399 508,399 504,403 504,404 503,405 503,407 502,408 502,417 503,418 503,420 504,421 504,422 505,423 505,430 504,431 506,433 505,432 505,422 504,421 504,420 503,419 503,418 502,417 502,408 503,407 503,406 504,405 504,404 509,399 510,399 511,398 512,398 513,397 514,397 515,396 521,396 522,397 524,397 526,399 527,399 531,403 531,404 532,405 532,406 533,407 533,408 534,409 534,415 533,416 533,427 534,428 534,429 533,430 533,434 534,435 534,444 534,435 533,434 533,430 534,429 534,428 533,427 533,416 534,415 534,409 533,408 533,406 532,405 532,404 531,403 531,402 528,399 527,399 525,397 522,397 521,396" stroke="black" stroke-width="1" /><polyline fill="none" points="595,388 596,389 598,389 600,391 600,395 599,396 599,397 598,398 597,398 596,399 595,399 594,398 593,398 591,396 591,391 592,390 593,390" stroke="black" stroke-width="1" /><polyline fill="none" points="595,388 594,389 593,389 591,391 591,397 592,398 594,398 595,399 596,399 597,398 599,398 599,397 600,396 600,390 599,389 596,389" stroke="black" stroke-width="1" /><polyline fill="none" points="547,385 548,384 549,385 550,385 553,388 553,389 555,391 555,392 556,393 556,394 557,395 557,396 558,397 558,398 559,399 558,400 557,400 556,401 543,401 542,400 542,399 541,398 541,397 540,396 540,395 538,393 538,392 535,389 536,388 538,388 539,387 541,387 542,386 544,386 545,385" stroke="black" stroke-width="1" /><polyline fill="none" points="524,376 523,377 520,377 519,378 518,378 517,379 518,378 519,378 520,377 523,377 524,376 534,376 535,377 538,377 539,378 541,378 543,380 544,380 546,382 547,382 548,383 548,384 547,385 545,385 544,386 542,386 541,387 539,387 538,388 536,388 535,389 534,388 533,388 531,386 530,386 529,385 528,385 527,384 525,384 524,383 522,383 521,382 516,382 515,383 513,383 512,384 511,384 512,384 513,383 515,383 516,382 521,382 522,383 524,383 525,384 526,384 527,385 528,385 529,386 530,386 532,388 533,388 538,393 538,394 540,396 540,397 541,398 541,399 542,400 542,401 543,402 544,401 556,401 557,400 558,400 559,399 558,398 558,396 557,395 557,394 556,393 556,392 555,391 555,390 553,388 553,387 551,385 550,385 546,381 545,381 543,379 542,379 541,378 539,378 538,377 535,377 534,376" stroke="black" stroke-width="1" /><polyline fill="none" points="547,374 546,375 547,374 549,374 550,375 559,375 560,376 565,376 566,377 571,377 572,378 576,378 577,379 581,379 583,381 583,382 582,383 582,392 581,393 581,401 580,402 580,412 579,413 579,420 578,421 578,430 577,431 577,441 576,442 576,448 575,449 575,457 574,458 574,467 573,468 573,474 572,475 572,478 571,479 571,493 570,494 570,512 571,513 571,519 570,520 571,519 572,520 574,520 575,521 581,521 582,522 581,521 581,517 580,516 580,508 581,507 581,500 582,499 582,493 583,492 583,485 584,484 584,477 585,476 585,469 586,468 586,463 587,462 587,461 590,458 591,458 592,457 600,457 601,458 611,458 611,457 612,456 612,443 613,442 613,439 614,438 614,436 615,435 615,434 616,433 616,432 618,430 618,429 620,427 620,426 628,418 629,418 632,415 633,415 634,414 635,414 636,413 637,413 638,412 640,412 641,411 643,411 644,410 659,410 660,411 662,411 663,412 665,412 666,413 667,413 668,414 669,414 670,415 671,415 674,418 675,418 681,424 681,425 683,427 683,428 684,429 684,430 686,432 686,434 687,435 687,436 688,437 688,439 689,440 689,449 690,450 690,452 689,453 689,459 688,460 688,463 687,464 687,466 686,467 687,468 684,471 683,470 683,466 684,465 684,463 685,462 685,460 686,459 686,452 687,451 687,450 686,449 686,441 685,440 685,438 684,437 684,436 683,435 684,436 682,438 680,436 680,435 682,433 683,433 681,433 679,435 676,432 676,433 677,433 678,434 678,435 679,435 680,436 680,437 681,437 682,438 683,437 684,437 685,438 685,440 686,441 686,449 687,450 687,451 686,452 686,459 685,460 685,462 684,463 684,465 683,466 683,469 681,471 681,472 680,473 680,474 678,476 680,474 680,473 681,472 681,471 682,470 683,470 684,471 684,472 683,473 683,474 682,475 682,476 678,480 677,480 677,481 673,485 672,485 671,486 670,486 668,488 667,488 666,489 665,489 664,490 662,490 661,491 656,491 655,492 654,492 653,491 645,491 644,490 641,490 639,488 638,488 636,486 635,486 634,485 633,485 632,484 631,484 628,481 627,481 618,472 619,473 619,474 625,480 626,480 630,484 631,484 632,485 633,485 634,486 635,486 636,487 637,487 638,488 639,488 641,490 644,490 645,491 653,491 654,492 655,492 656,491 661,491 662,490 664,490 665,489 666,489 667,488 669,488 671,486 672,486 673,485 674,485 677,482 677,481 678,480 679,480 682,477 682,476 683,475 683,474 684,473 684,472 686,470 687,470 688,471 696,471 699,474 699,482 698,483 698,495 697,496 697,510 696,511 696,521 695,522 695,530 694,531 694,532 694,531 695,530 695,522 696,521 696,511 697,510 697,496 698,495 698,483 699,482 699,473 698,472 697,472 696,471 688,471 686,469 687,468 696,468 697,469 698,469 702,473 702,480 701,481 701,493 700,494 700,508 699,509 699,520 698,521 698,528 697,529 697,531 698,532 708,532 708,527 709,526 709,499 710,498 710,496 711,495 711,494 710,493 710,485 711,484 711,481 711,484 710,485 710,493 711,494 711,495 710,496 710,498 709,499 709,526 708,527 708,531 707,532 698,532 697,531 697,530 698,529 698,521 699,520 699,509 700,508 700,494 701,493 701,481 702,480 702,473 701,472 701,471 699,469 697,469 696,468 687,468 686,467 687,466 687,464 688,463 688,460 689,459 689,453 690,452 690,450 689,449 689,440 688,439 688,437 687,436 687,434 686,433 686,432 685,431 685,430 684,429 684,428 683,427 683,426 681,424 681,423 676,418 675,418 672,415 671,415 670,414 668,414 666,412 663,412 662,411 660,411 659,410 644,410 643,411 641,411 640,412 638,412 637,413 636,413 635,414 633,414 632,415 631,415 628,418 627,418 620,425 620,426 618,428 618,429 616,431 616,432 615,433 615,434 614,435 614,438 613,439 613,442 612,443 612,456 610,458 601,458 600,457 591,457 590,458 589,458 587,460 587,462 586,463 586,468 585,469 585,476 584,477 584,484 583,485 583,492 582,493 582,499 581,500 581,507 580,508 580,516 581,517 581,520 580,521 575,521 574,520 573,520 571,518 571,513 570,512 570,494 571,493 571,479 572,478 572,475 573,474 573,468 574,467 574,458 575,457 575,449 576,448 576,442 577,441 577,431 578,430 578,421 579,420 579,413 580,412 580,402 581,401 581,393 582,392 582,383 584,381 595,381 596,382 605,382 606,383 612,383 613,384 621,384 622,385 627,385 628,386 634,386 635,387 641,387 642,388 648,388 649,389 657,389 658,390 666,390 667,391 674,391 675,392 683,392 684,393 690,393 691,394 698,394 699,395 702,395 703,396 705,396 706,397 706,400 706,397 705,396 703,396 702,395 699,395 698,394 691,394 690,393 684,393 683,392 675,392 674,391 667,391 666,390 658,390 657,389 649,389 648,388 642,388 641,387 635,387 634,386 628,386 627,385 622,385 621,384 613,384 612,383 606,383 605,382 596,382 595,381 584,381 582,379 577,379 576,378 572,378 571,377 566,377 565,376 560,376 559,375 550,375 549,374" stroke="black" stroke-width="1" /><polyline fill="none" points="523,373 522,374 520,374 522,374 523,373 535,373 536,374 539,374 540,375 541,375 542,376 543,376 545,378 546,378 547,379 548,379 552,383 553,383 555,385 555,386 557,388 557,389 559,391 559,392 560,393 560,394 561,395 561,397 562,398 562,400 563,401 563,406 564,407 564,415 563,416 563,420 562,421 562,424 561,425 561,426 560,427 560,428 559,429 559,430 557,432 557,433 548,442 547,442 546,443 545,443 544,444 543,444 542,445 540,445 539,446 534,446 534,449 533,450 531,448 532,447 531,446 531,435 529,435 528,434 521,434 520,435 513,435 512,436 511,435 510,436 508,436 508,451 513,451 514,450 517,450 518,449 532,449 534,451 534,453 535,454 535,458 536,459 536,467 537,468 537,470 538,471 538,478 539,479 539,480 539,479 538,478 538,471 537,470 537,468 536,467 536,459 535,458 535,454 534,453 534,447 535,446 539,446 540,445 542,445 543,444 545,444 546,443 547,443 548,442 549,442 557,434 557,433 559,431 559,430 560,429 560,427 561,426 561,425 562,424 562,421 563,420 563,416 564,415 564,407 563,406 563,401 562,400 562,398 561,397 561,394 560,393 560,392 559,391 559,390 557,388 557,387 549,379 548,379 547,378 546,378 544,376 543,376 542,375 541,375 540,374 536,374 535,373" stroke="black" stroke-width="1" /><polyline fill="none" points="545,372 581,372 582,373 589,373 590,374 597,374 598,375 604,375 605,376 610,376 611,377 612,377 613,378 621,378 622,379 629,379 630,380 636,380 637,381 642,381 643,382 647,382 648,383 653,383 654,384 658,384 659,385 665,385 666,386 670,386 671,387 676,387 677,388 681,388 682,389 687,389 688,390 691,390 692,391 697,391 698,392 701,392 702,393 706,393 707,394 710,394 713,397 713,402 714,403 714,405 713,406 713,442 712,443 712,459 712,443 713,442 713,406 714,405 714,403 713,402 713,397 712,396 712,395 711,395 710,394 707,394 706,393 702,393 701,392 698,392 697,391 692,391 691,390 688,390 687,389 682,389 681,388 677,388 676,387 671,387 670,386 666,386 665,385 659,385 658,384 654,384 653,383 648,383 647,382 643,382 642,381 637,381 636,380 630,380 629,379 622,379 621,378 613,378 612,377 611,377 610,376 605,376 604,375 598,375 597,374 590,374 589,373 582,373 581,372" stroke="black" stroke-width="1" /><polyline fill="none" points="628,368 627,369 621,369 627,369 628,368 645,368 646,369 646,374 646,368" stroke="black" stroke-width="1" /><polyline fill="none" points="736,323 737,322 739,322 740,323 741,323 743,325 743,331 742,332 742,333 740,335 739,335 738,336 735,336 731,332 731,327 735,323" stroke="black" stroke-width="1" /><polyline fill="none" points="736,322 735,323 734,323 732,325 732,326 731,327 731,333 734,336 739,336 740,335 741,335 742,334 742,333 743,332 743,324 742,323 741,323 740,322" stroke="black" stroke-width="1" /><polyline fill="none" points="735,320 736,319 740,319 741,320 742,320 745,323 745,324 746,325 746,332 744,334 744,335 742,337 741,337 739,339 734,339 732,337 731,337 730,336 730,335 729,334 729,333 728,332 728,327 729,326 729,325 734,320" stroke="black" stroke-width="1" /><polyline fill="none" points="735,319 734,320 733,320 729,324 729,326 728,327 728,332 729,333 729,335 730,336 730,337 731,337 733,339 740,339 742,337 743,337 744,336 744,335 745,334 745,333 746,332 746,325 745,324 745,322 743,320 741,320 740,319" stroke="black" stroke-width="1" /><polyline fill="none" points="659,315 683,315 684,316 683,317 682,317 681,318 680,318 679,319 678,319 677,320 676,320 675,321 674,321 673,322 672,322 671,323 669,323 668,324 664,324 663,325 658,325 657,324 657,317" stroke="black" stroke-width="1" /><polyline fill="none" points="658,315 658,316 657,317 657,325 663,325 664,324 668,324 669,323 671,323 672,322 674,322 675,321 676,321 677,320 678,320 679,319 680,319 681,318 682,318 683,317 684,317 684,316 683,315" stroke="black" stroke-width="1" /><polyline fill="none" points="628,309 631,309 632,310 634,310 635,311 638,311 639,312 643,312 644,313 650,313 651,314 653,314 654,315 654,319 653,320 653,323 652,324 650,324 649,323 648,323 647,322 646,322 645,321 643,321 642,320 641,320 639,318 638,318 636,316 635,316 631,312 630,312 629,311 628,311 629,312 630,312 634,316 635,316 637,318 638,318 639,319 640,319 642,321 644,321 645,322 646,322 647,323 649,323 650,324 653,324 653,320 654,319 654,314 651,314 650,313 644,313 643,312 639,312 638,311 635,311 634,310 632,310 631,309" stroke="black" stroke-width="1" /><polyline fill="none" points="622,306 623,305 625,305 626,306 630,306 631,307 635,307 636,308 639,308 640,309 645,309 646,310 652,310 653,311 659,311 660,312 683,312 684,313 689,313 690,314 690,315 689,316 688,316 683,321 682,321 681,322 680,322 679,323 678,323 677,324 676,324 675,325 674,325 673,326 671,326 670,327 667,327 666,328 653,328 652,327 649,327 648,326 646,326 645,325 644,325 643,324 642,324 641,323 640,323 639,322 638,322 637,321 636,321 633,318 632,318 624,310 624,309 622,307" stroke="black" stroke-width="1" /><polyline fill="none" points="622,305 622,308 624,310 624,311 631,318 632,318 635,321 636,321 637,322 638,322 639,323 640,323 641,324 642,324 643,325 644,325 645,326 648,326 649,327 652,327 653,328 666,328 667,327 670,327 671,326 673,326 674,325 676,325 677,324 678,324 679,323 680,323 681,322 682,322 683,321 684,321 689,316 690,316 690,313 684,313 683,312 660,312 659,311 653,311 652,310 646,310 645,309 640,309 639,308 636,308 635,307 631,307 630,306 626,306 625,305" stroke="black" stroke-width="1" /><polyline fill="none" points="787,260 787,264 786,265 786,270 788,272 793,272 794,273 800,273 794,273 793,272 788,272 786,270 786,265 787,264" stroke="black" stroke-width="1" /><polyline fill="none" points="787,257 787,258 788,258 789,259 798,259 799,260 799,261 800,262 800,263 801,264 801,268 802,269 802,274 802,269 801,268 801,264 800,263 800,261 799,260 799,259 798,258 797,259 789,259" stroke="black" stroke-width="1" /><polyline fill="none" points="529,241 527,243 527,245 526,246 526,255 527,256 527,257 528,257 529,258 530,257 531,257 532,256 531,256 529,258 526,255 526,246 527,245 527,244 528,243 528,242 529,241 531,241 532,242 532,241" stroke="black" stroke-width="1" /><polyline fill="none" points="529,238 528,239 526,239 525,240 525,242 524,243 524,246 523,247 523,255 524,256 524,258 526,260 527,260 528,261 530,261 531,260 532,260 533,259 534,259 534,258 533,259 532,259 530,261 528,261 524,257 524,256 523,255 523,247 524,246 524,243 525,242 525,241 527,239 528,239 529,238 530,238 531,239 533,239 532,239 531,238" stroke="black" stroke-width="1" /><polyline fill="none" points="711,232 710,233 707,233 710,233 711,232 717,232 718,233 719,233 720,234 721,234 727,240 727,241 728,242 728,243 729,244 729,252 728,253 728,254 727,255 727,256 721,262 720,262 719,263 709,263 708,262 707,262 700,255 700,254 699,253 699,250 698,249 698,247 699,246 699,243 700,242 700,241 703,238 705,240 705,241 706,242 707,241 709,241 710,240 710,236 709,236 708,235 708,236 709,236 710,237 710,239 708,241 706,241 705,240 705,239 704,238 703,238 702,237 702,238 700,240 700,242 699,243 699,246 698,247 698,249 699,250 699,253 700,254 700,256 706,262 708,262 709,263 719,263 720,262 722,262 727,257 727,256 728,255 728,253 729,252 729,244 728,243 728,241 727,240 727,239 722,234 721,234 720,233 718,233 717,232" stroke="black" stroke-width="1" /><polyline fill="none" points="493,230 494,229 499,229 501,231 501,232 502,233 502,235 503,236 503,238 504,239 504,244 503,245 498,245 497,246 484,246 483,245 483,244 482,243 482,239 481,238 481,236 480,235 480,233 479,232 480,231 481,231 482,230" stroke="black" stroke-width="1" /><polyline fill="none" points="494,229 493,230 482,230 481,231 480,231 479,232 480,233 480,235 481,236 481,238 482,239 482,243 483,244 483,246 484,247 485,246 497,246 498,245 504,245 504,239 503,238 503,236 502,235 502,233 501,232 501,230 500,229" stroke="black" stroke-width="1" /><polyline fill="none" points="622,221 630,221 631,222 632,222 634,224 635,224 639,228 639,229 640,230 640,231 641,232 641,242 640,243 640,244 639,245 639,246 635,250 634,250 632,252 630,252 629,253 623,253 622,252 621,252 620,251 619,251 617,249 616,249 613,246 613,245 611,243 611,240 610,239 610,234 611,233 611,231 612,230 612,229 614,227 615,228 615,229 616,230 620,230 622,228 622,225 620,223" stroke="black" stroke-width="1" /><polyline fill="none" points="621,221 620,222 618,222 619,222 620,223 619,224 620,224 622,226 622,227 619,230 617,230 615,228 615,227 614,227 613,226 616,223 615,223 615,224 613,226 613,227 612,228 612,229 611,230 611,233 610,234 610,239 611,240 611,243 612,244 612,245 613,246 613,247 615,249 616,249 618,251 619,251 620,252 622,252 623,253 629,253 630,252 633,252 635,250 636,250 639,247 639,246 640,245 640,243 641,242 641,232 640,231 640,229 639,228 639,227 636,224 635,224 633,222 631,222 630,221" stroke="black" stroke-width="1" /><polyline fill="none" points="477,218 494,218 502,226 502,227 503,228 503,229 504,230 504,231 505,232 505,234 506,235 506,238 507,239 507,242 508,243 508,263 507,264 507,270 506,271 506,274 505,275 505,278 504,279 504,280 503,281 503,283 502,284 502,285 501,286 501,287 500,288 500,289 499,290 499,291 496,294 496,295 493,298 492,298 490,300 475,300 474,299 470,299 474,299 475,300 491,300 493,298 494,298 496,296 496,295 499,292 499,291 500,290 500,289 501,288 501,286 502,285 502,284 503,283 503,281 504,280 504,279 505,278 505,275 506,274 506,271 507,270 507,264 508,263 508,243 507,242 507,239 506,238 506,235 505,234 505,232 504,231 504,229 503,228 503,227 501,225 501,224 495,218" stroke="black" stroke-width="1" /><polyline fill="none" points="454,216 462,216 463,217 463,218 463,217 464,216" stroke="black" stroke-width="1" /><polyline fill="none" points="463,212 462,213 454,213 463,213" stroke="black" stroke-width="1" /><polyline fill="none" points="709,208 710,207 722,207 723,208 726,208 727,209 729,209 730,210 731,210 732,211 733,211 734,212 735,212 736,213 737,213 739,215 740,215 751,226 751,227 753,229 753,230 754,231 754,232 755,233 755,234 756,235 756,236 757,237 757,239 758,240 758,242 759,243 759,246 760,247 760,265 759,266 759,269 758,270 758,273 757,274 757,275 756,276 756,277 755,278 755,279 754,280 754,281 753,282 753,283 751,285 751,286 749,288 749,289 741,297 740,297 738,299 737,299 736,300 735,300 733,302 732,302 731,303 730,303 729,304 726,304 725,305 709,305 708,304 706,304 704,302 703,302 702,301 701,301 699,299 698,299 689,290 689,289 687,287 687,286 685,284 685,283 684,282 684,281 683,280 683,279 682,278 682,276 681,275 681,273 680,272 680,268 679,267 679,261 678,260 678,251 679,250 679,242 680,241 680,238 681,237 681,234 682,233 682,231 683,230 683,229 684,228 684,227 685,226 685,225 687,223 687,222 689,220 689,219 695,213 696,213 698,211 699,211 700,210 701,210 702,209 704,209 705,208" stroke="black" stroke-width="1" /><polyline fill="none" points="710,207 709,208 705,208 704,209 702,209 701,210 699,210 698,211 697,211 695,213 694,213 689,218 689,219 687,221 687,222 685,224 685,225 684,226 684,227 683,228 683,230 682,231 682,233 681,234 681,237 680,238 680,241 679,242 679,250 678,251 678,260 679,261 679,267 680,268 680,272 681,273 681,275 682,276 682,279 683,280 683,281 684,282 684,283 685,284 685,285 687,287 687,288 689,290 689,291 697,299 698,299 700,301 701,301 702,302 703,302 704,303 705,303 706,304 708,304 709,305 725,305 726,304 729,304 730,303 732,303 734,301 735,301 736,300 737,300 738,299 739,299 741,297 742,297 749,290 749,289 751,287 751,286 753,284 753,283 754,282 754,281 755,280 755,279 756,278 756,276 757,275 757,274 758,273 758,270 759,269 759,266 760,265 760,247 759,246 759,243 758,242 758,240 757,239 757,237 756,236 756,234 755,233 755,232 754,231 754,230 753,229 753,228 751,226 751,225 741,215 740,215 738,213 737,213 736,212 735,212 734,211 733,211 732,210 730,210 729,209 727,209 726,208 723,208 722,207" stroke="black" stroke-width="1" /><polyline fill="none" points="714,198 713,199 710,199 709,200 708,200 707,201 705,201 704,202 703,202 701,204 700,204 696,208 695,208 686,217 686,218 684,220 684,221 682,223 682,224 682,223 684,221 684,220 686,218 686,217 692,211 693,211 696,208 697,208 701,204 702,204 704,202 705,202 706,201 707,201 708,200 709,200 710,199 713,199 714,198 727,198 728,199 731,199 732,200 734,200 735,201 737,201 739,203 740,203 741,204 742,204 744,206 745,206 751,212 752,212 754,214 754,215 758,219 758,220 760,222 760,223 761,224 761,225 762,226 762,227 763,228 763,229 764,230 764,231 765,232 765,233 766,234 766,236 767,237 767,239 768,240 768,245 769,246 769,261 768,262 768,267 767,268 767,271 766,272 766,274 765,275 765,276 764,277 764,278 763,279 763,280 762,281 762,282 761,283 761,284 760,285 760,286 759,287 759,288 757,290 757,291 747,301 746,301 744,303 743,303 742,304 741,304 740,305 739,305 738,306 736,306 735,307 734,307 733,308 730,308 729,309 713,309 712,308 709,308 708,307 706,307 705,306 703,306 701,304 699,304 698,303 699,304 700,304 701,305 702,305 703,306 705,306 706,307 707,307 708,308 712,308 713,309 729,309 730,308 733,308 734,307 736,307 737,306 739,306 740,305 741,305 742,304 743,304 745,302 746,302 747,301 748,301 757,292 757,291 759,289 759,288 760,287 760,286 761,285 761,284 762,283 762,282 763,281 763,280 764,279 764,277 765,276 765,275 766,274 766,272 767,271 767,268 768,267 768,262 769,261 769,246 768,245 768,240 767,239 767,237 766,236 766,234 765,233 765,231 764,230 764,229 763,228 763,227 762,226 762,225 761,224 761,223 760,222 760,221 758,219 758,218 754,214 754,213 753,212 752,212 747,207 746,207 743,204 742,204 741,203 740,203 739,202 738,202 737,201 735,201 734,200 732,200 731,199 728,199 727,198" stroke="black" stroke-width="1" /><polyline fill="none" points="594,192 595,191 612,191 613,192 616,192 617,193 618,193 619,194 620,194 621,195 622,195 623,196 624,196 625,197 626,197 627,198 628,198 632,202 633,202 636,205 636,206 639,209 639,210 641,212 641,213 643,215 643,216 644,217 644,218 645,219 645,221 646,222 646,225 647,226 647,228 648,229 648,234 649,235 649,247 648,248 648,253 647,254 647,257 646,258 646,260 645,261 645,262 644,263 644,264 643,265 643,266 642,267 642,268 641,269 641,270 638,273 638,274 635,277 635,278 630,283 629,283 626,286 625,286 623,288 622,288 621,289 620,289 619,290 618,290 617,291 616,291 615,292 613,292 612,293 609,293 608,294 593,294 592,293 589,293 588,292 586,292 585,291 584,291 583,290 582,290 581,289 580,289 579,288 578,288 575,285 574,285 566,277 566,276 564,274 564,273 562,271 562,270 561,269 561,268 560,267 560,266 559,265 559,263 558,262 558,261 557,260 557,257 556,256 556,251 555,250 555,235 556,234 556,230 557,229 557,226 558,225 558,223 559,222 559,221 560,220 560,219 561,218 561,217 562,216 562,215 564,213 564,212 566,210 566,209 575,200 576,200 578,198 579,198 581,196 582,196 583,195 584,195 585,194 587,194 588,193 590,193 591,192" stroke="black" stroke-width="1" /><polyline fill="none" points="595,191 594,192 591,192 590,193 588,193 587,194 585,194 584,195 582,195 581,196 580,196 578,198 577,198 575,200 574,200 566,208 566,209 564,211 564,212 562,214 562,215 561,216 561,217 560,218 560,219 559,220 559,222 558,223 558,225 557,226 557,229 556,230 556,234 555,235 555,250 556,251 556,256 557,257 557,260 558,261 558,262 559,263 559,266 560,267 560,268 561,269 561,270 562,271 562,272 564,274 564,275 566,277 566,278 573,285 574,285 577,288 578,288 579,289 580,289 581,290 582,290 583,291 585,291 586,292 588,292 589,293 592,293 593,294 608,294 609,293 612,293 613,292 615,292 616,291 618,291 619,290 620,290 621,289 622,289 623,288 624,288 626,286 627,286 630,283 631,283 635,279 635,278 638,275 638,274 641,271 641,270 642,269 642,268 643,267 643,266 644,265 644,264 645,263 645,261 646,260 646,258 647,257 647,254 648,253 648,248 649,247 649,235 648,234 648,229 647,228 647,226 646,225 646,222 645,221 645,219 644,218 644,216 643,215 643,214 641,212 641,211 639,209 639,208 636,205 636,204 634,202 633,202 629,198 628,198 627,197 626,197 625,196 624,196 623,195 622,195 621,194 619,194 618,193 617,193 616,192 613,192 612,191" stroke="black" stroke-width="1" /><polyline fill="none" points="456,190 455,191 456,192 456,198 455,199 455,210 455,199 456,198 456,191 457,190 463,190 465,192 465,199 464,200 464,210 464,200 465,199 465,192 466,191 464,191 463,190" stroke="black" stroke-width="1" /><polyline fill="none" points="600,182 599,183 596,183 595,184 593,184 592,185 590,185 589,186 587,186 586,187 585,187 584,188 583,188 582,189 581,189 579,191 578,191 565,204 565,205 562,208 562,209 561,210 561,211 559,213 559,214 558,215 558,217 557,218 557,219 556,220 556,222 555,223 555,225 554,226 554,228 553,229 553,232 553,229 554,228 554,226 555,225 555,223 556,222 556,220 557,219 557,218 558,217 558,216 559,215 559,214 560,213 560,212 561,211 561,210 563,208 563,207 579,191 580,191 582,189 583,189 584,188 585,188 586,187 587,187 588,186 589,186 590,185 592,185 593,184 595,184 596,183 599,183 600,182 612,182 613,183 618,183 619,184 621,184 622,185 623,185 624,186 625,186 626,187 627,187 628,188 629,188 630,189 631,189 633,191 634,191 638,195 639,195 642,198 642,199 646,203 646,204 648,206 648,207 650,209 650,210 651,211 651,212 652,213 652,214 653,215 653,216 654,217 654,218 655,219 655,222 656,223 656,226 657,227 657,232 658,233 658,247 657,248 657,252 656,253 656,255 655,256 655,258 654,259 654,260 653,261 653,263 652,264 652,265 651,266 651,267 650,268 650,269 649,270 649,271 646,274 646,275 643,278 643,279 638,284 637,284 633,288 632,288 630,290 629,290 627,292 626,292 625,293 624,293 623,294 622,294 621,295 620,295 619,296 616,296 615,297 612,297 611,298 597,298 596,297 591,297 590,296 588,296 587,295 585,295 584,294 583,294 582,293 580,293 579,292 578,292 577,291 576,291 573,288 572,288 565,281 573,289 574,289 576,291 577,291 578,292 579,292 580,293 582,293 583,294 584,294 585,295 587,295 588,296 590,296 591,297 596,297 597,298 611,298 612,297 615,297 616,296 619,296 620,295 621,295 622,294 624,294 625,293 626,293 627,292 628,292 630,290 631,290 633,288 634,288 638,284 639,284 642,281 642,280 646,276 646,275 649,272 649,271 650,270 650,269 651,268 651,267 652,266 652,264 653,263 653,261 654,260 654,259 655,258 655,256 656,255 656,253 657,252 657,248 658,247 658,233 657,232 657,227 656,226 656,223 655,222 655,219 654,218 654,217 653,216 653,214 652,213 652,212 651,211 651,210 650,209 650,208 648,206 648,205 646,203 646,202 642,198 642,197 640,195 639,195 635,191 634,191 632,189 631,189 630,188 629,188 628,187 627,187 626,186 624,186 623,185 622,185 621,184 619,184 618,183 613,183 612,182" stroke="black" stroke-width="1" /><polyline fill="none" points="458,165 459,166 459,181 458,182 458,185 458,182 459,181 459,167 460,166 463,166 459,166" stroke="black" stroke-width="1" /><polyline fill="none" points="673,164 673,168 674,169 674,170 675,171 675,174 676,175 682,175 683,176 688,176 689,177 692,177 693,178 697,178 698,179 701,179 702,180 704,180 705,181 707,181 708,182 710,182 711,183 712,183 713,184 715,184 716,185 717,185 718,186 720,186 721,187 723,187 724,188 725,188 726,189 727,189 729,191 730,191 731,192 732,192 733,193 734,193 735,194 736,194 737,195 738,195 739,196 740,196 741,197 742,197 743,198 744,198 745,199 746,199 748,201 749,201 750,202 751,202 753,204 754,204 757,207 758,207 762,211 763,211 764,212 764,213 770,219 770,220 771,221 771,222 772,223 772,224 773,225 773,226 774,227 774,230 775,231 775,235 776,236 776,250 777,251 777,253 776,254 776,272 775,273 775,281 774,282 774,289 773,290 773,296 772,297 772,302 771,303 771,308 770,309 770,316 769,317 769,322 768,323 768,328 767,329 767,334 766,335 766,340 765,341 765,346 764,347 765,348 764,347 765,346 765,341 766,340 766,335 767,334 767,329 768,328 768,323 769,322 769,317 770,316 770,309 771,308 771,303 772,302 772,297 773,296 773,290 774,289 774,282 775,281 775,273 776,272 776,254 777,253 777,251 776,250 776,236 775,235 775,231 774,230 774,227 773,226 773,224 772,223 772,222 771,221 771,220 770,219 770,218 764,212 764,211 763,211 759,207 758,207 755,204 754,204 752,202 751,202 750,201 749,201 747,199 746,199 745,198 744,198 743,197 742,197 741,196 740,196 739,195 738,195 737,194 736,194 735,193 734,193 733,192 732,192 731,191 730,191 728,189 726,189 725,188 724,188 723,187 721,187 720,186 719,186 718,185 716,185 715,184 714,184 713,183 711,183 710,182 708,182 707,181 705,181 704,180 702,180 701,179 698,179 697,178 693,178 692,177 689,177 688,176 683,176 682,175 677,175 675,173 675,171 674,170 674,168 673,167 673,165 674,164 682,164 683,165 689,165 690,166 694,166 695,167 698,167 699,168 702,168 703,169 706,169 707,170 709,170 710,171 712,171 713,172 715,172 716,173 718,173 719,174 721,174 722,175 723,175 724,176 726,176 727,177 728,177 729,178 730,178 731,179 732,179 733,180 734,180 735,181 736,181 737,182 738,182 739,183 740,183 741,184 742,184 743,185 744,185 745,186 746,186 747,187 748,187 749,188 750,188 752,190 753,190 754,191 755,191 756,192 757,192 758,193 759,193 761,195 762,195 764,197 765,197 766,198 767,198 770,201 771,201 772,202 773,202 774,203 775,203 777,205 778,205 779,206 780,206 783,209 783,213 784,214 784,247 784,214 783,213 783,208 781,206 780,206 779,205 778,205 776,203 775,203 774,202 773,202 772,201 771,201 768,198 767,198 766,197 765,197 763,195 762,195 760,193 759,193 758,192 757,192 756,191 755,191 754,190 753,190 751,188 750,188 749,187 748,187 747,186 746,186 745,185 744,185 743,184 742,184 741,183 740,183 739,182 738,182 737,181 736,181 735,180 734,180 733,179 732,179 731,178 730,178 729,177 727,177 726,176 725,176 724,175 722,175 721,174 719,174 718,173 716,173 715,172 713,172 712,171 710,171 709,170 707,170 706,169 703,169 702,168 699,168 698,167 695,167 694,166 690,166 689,165 683,165 682,164" stroke="black" stroke-width="1" /><polyline fill="none" points="460,162 460,163 463,163 461,163" stroke="black" stroke-width="1" /><polyline fill="none" points="610,139 610,140 608,142 608,144 607,145 607,152 605,154 601,154 600,155 587,155 586,156 574,156 573,157 566,157 565,158 560,158 565,158 566,157 573,157 574,156 586,156 587,155 600,155 601,154 608,154 609,155 615,155 616,154 617,155 647,155 648,156 659,156 660,157 668,157 669,158 676,158 677,159 682,159 683,160 688,160 689,161 693,161 694,162 695,162 694,161 689,161 688,160 683,160 682,159 677,159 676,158 669,158 668,157 660,157 659,156 648,156 647,155 617,155 616,154 615,155 609,155 607,153 607,145 608,144 608,143 610,141" stroke="black" stroke-width="1" /><polyline fill="none" points="616,134 617,133 635,133 636,134 643,134 644,135 649,135 650,136 652,136 653,137 654,137 659,142 659,143 657,145 653,145 652,144 644,144 643,143 636,143 635,142 617,142 616,141 615,141 612,138 613,137 613,136 615,134" stroke="black" stroke-width="1" /><polyline fill="none" points="617,133 616,134 614,134 613,135 613,137 612,138 613,139 613,140 614,141 616,141 617,142 635,142 636,143 643,143 644,144 652,144 653,145 658,145 659,144 659,141 655,137 654,137 653,136 650,136 649,135 644,135 643,134 636,134 635,133" stroke="black" stroke-width="1" /><polyline fill="none" points="469,108 471,108 476,113 476,115 477,116 476,117 475,117 474,118 471,118 470,117 469,117 468,116 468,115 467,114 467,110" stroke="black" stroke-width="1" /><polyline fill="none" points="468,108 467,109 467,115 468,116 468,117 469,117 470,118 475,118 477,116 476,115 476,113 475,112 475,111 472,108" stroke="black" stroke-width="1" /><polyline fill="none" points="458,105 457,106 456,106 455,107 454,107 449,112 449,113 448,114 448,115 447,116 447,123 448,124 448,125 449,126 449,127 453,131 454,131 455,132 458,132 459,133 462,133 463,134 466,134 467,133 468,133 469,132 471,132 472,131 473,131 475,129 475,128 476,127 476,126 477,125 477,119 477,125 476,126 476,127 471,132 469,132 468,133 466,133 465,134 463,134 462,133 459,133 458,132 455,132 454,131 453,131 449,127 449,126 448,125 448,124 447,123 447,116 448,115 448,114 450,112 450,111 454,107 455,107 456,106 457,106 458,105 467,105" stroke="black" stroke-width="1" /><polyline fill="none" points="457,103 458,102 468,102 469,103 470,103 472,105 473,105 478,110 478,111 479,112 479,113 480,114 480,117 481,118 481,122 480,123 480,126 478,128 478,129 473,134 472,134 471,135 469,135 468,136 466,136 466,155 465,156 465,163 466,164 466,165 465,166 466,167 465,168 465,186 464,187 457,187 464,187 465,188 466,188 468,190 468,199 467,200 467,210 466,211 466,218 467,219 469,219 470,218 473,218 474,217 474,213 475,212 475,205 476,204 476,197 477,196 477,189 478,188 478,185 479,184 480,184 482,182 483,182 484,181 485,181 486,180 487,180 488,179 490,179 491,178 492,178 493,177 494,177 495,176 496,176 497,175 498,175 499,174 501,174 502,173 503,173 504,172 506,172 507,171 508,171 509,170 511,170 512,169 513,169 514,168 516,168 517,167 519,167 520,166 521,166 522,165 524,165 526,163 529,163 530,162 535,162 536,161 540,161 541,160 545,160 546,159 552,159 553,158 558,158 558,157 559,156 559,155 561,153 561,152 567,146 568,146 570,144 571,144 573,142 574,142 575,141 576,141 577,140 578,140 579,139 581,139 582,138 583,138 584,137 585,137 586,136 588,136 589,135 591,135 592,134 596,134 597,133 600,133 601,132 606,132 607,131 614,131 615,130 636,130 637,131 643,131 644,132 649,132 650,133 653,133 654,134 656,134 657,135 660,135 661,136 663,136 664,137 666,137 667,138 668,138 669,139 671,139 672,140 673,140 674,141 675,141 676,142 677,142 678,143 679,143 681,145 682,145 684,147 685,147 687,149 688,149 696,157 696,158 697,159 697,160 698,161 697,162 698,161 699,162 699,163 701,163 702,164 704,164 705,165 708,165 709,166 711,166 712,167 714,167 715,168 717,168 718,169 719,169 720,170 722,170 723,171 724,171 725,172 726,172 727,173 728,173 729,174 730,174 731,175 733,175 734,176 735,176 736,177 737,177 738,178 739,178 740,179 741,179 742,180 743,180 744,181 745,181 746,182 747,182 749,184 750,184 751,185 752,185 753,186 754,186 756,188 757,188 758,189 759,189 760,190 761,190 763,192 764,192 766,194 767,194 769,196 770,196 771,197 772,197 774,199 775,199 777,201 778,201 779,202 780,202 782,204 783,204 786,207 786,212 787,213 787,247 788,248 787,249 786,249 785,250 785,251 784,252 784,260 783,261 783,276 782,277 782,285 781,286 781,294 780,295 780,302 779,303 779,311 778,312 778,318 777,319 777,321 776,322 776,327 775,328 775,334 774,335 774,341 773,342 773,347 770,350 763,350 762,351 747,351 746,350 716,350 715,349 694,349 693,348 672,348 671,347 655,347 654,346 643,346 642,345 629,345 628,344 617,344 616,343 606,343 605,342 594,342 593,341 580,341 579,340 573,340 572,339 563,339 562,338 553,338 552,337 543,337 542,336 533,336 532,335 521,335 520,334 517,334 516,333 516,332 515,331 515,330 516,329 516,308 517,307 517,283 518,282 518,267 519,266 519,246 520,245 520,231 521,230 521,220 522,219 522,205 523,204 523,195 524,194 524,184 525,183 525,177 526,176 526,170 527,169 527,167 528,166 530,166 531,165 535,165 536,164 540,164 541,163 546,163 547,162 553,162 554,161 558,161 554,161 553,162 547,162 546,163 541,163 540,164 536,164 535,165 531,165 530,166 528,166 527,167 527,169 526,170 526,176 525,177 525,183 524,184 524,194 523,195 523,204 522,205 522,219 521,220 521,230 520,231 520,245 519,246 519,266 518,267 518,282 517,283 517,307 516,308 516,329 515,330 515,331 516,332 515,333 516,334 520,334 521,335 532,335 533,336 542,336 543,337 552,337 553,338 562,338 563,339 572,339 573,340 579,340 580,341 593,341 594,342 605,342 606,343 616,343 617,344 628,344 629,345 642,345 643,346 654,346 655,347 671,347 672,348 693,348 694,349 715,349 716,350 746,350 747,351 762,351 763,350 770,350 771,349 772,349 772,348 773,347 773,342 774,341 774,335 775,334 775,328 776,327 776,322 777,321 777,319 778,318 778,312 779,311 779,303 780,302 780,295 781,294 781,286 782,285 782,277 783,276 783,261 784,260 784,252 785,251 785,250 786,249 787,249 788,248 790,248 791,249 792,249 793,250 794,250 796,252 797,252 799,254 799,255 801,257 801,258 803,260 803,263 804,264 804,267 805,268 805,289 804,290 804,296 803,297 803,300 802,301 802,303 801,304 801,306 800,307 800,308 799,309 799,310 797,312 797,313 791,319 790,319 789,320 787,320 786,321 784,321 783,320 782,320 781,321 780,321 780,323 779,324 779,329 778,330 778,336 777,337 777,343 776,344 776,349 775,350 775,351 774,352 772,352 771,353 764,353 763,354 757,354 756,355 751,355 750,356 744,356 743,357 735,357 734,358 727,358 726,359 716,359 715,360 700,360 699,361 676,361 675,362 652,362 650,360 650,356 648,356 647,355 633,355 632,354 622,354 621,353 612,353 611,352 601,352 600,351 595,351 594,352 594,353 596,351 600,351 601,352 611,352 612,353 621,353 622,354 632,354 633,355 647,355 648,356 649,356 650,357 650,360 651,361 650,362 650,366 649,367 649,375 647,377 646,376 641,376 640,375 635,375 634,374 628,374 627,373 623,373 622,372 618,372 617,371 611,371 610,370 604,370 603,369 597,369 596,368 594,368 592,366 592,361 593,360 593,357 591,355 585,355 584,354 578,354 577,353 572,353 571,352 565,352 564,351 559,351 558,350 552,350 551,349 547,349 546,348 542,348 541,347 536,347 535,346 532,346 531,345 527,345 526,344 523,344 522,343 518,343 517,342 513,342 512,341 508,341 507,340 504,340 503,339 500,339 499,338 495,338 494,337 490,337 489,336 486,336 485,335 481,335 480,334 477,334 476,333 472,333 471,332 469,332 467,330 467,301 468,300 468,299 466,299 465,298 461,298 460,297 458,297 450,289 450,288 448,286 448,284 447,283 447,282 446,281 446,278 445,277 445,274 444,273 444,271 443,270 443,269 442,268 442,267 441,266 441,265 440,264 440,261 439,260 439,256 440,255 440,251 441,250 441,249 442,248 442,247 447,242 447,241 449,239 451,241 449,243 449,244 445,248 445,249 444,250 444,251 443,252 443,255 442,256 442,260 443,261 443,264 444,265 444,266 446,268 446,269 447,270 447,272 448,273 448,274 449,275 450,275 451,276 452,276 453,277 464,277 465,276 466,276 470,272 470,271 472,269 472,267 473,266 473,263 474,262 474,250 473,249 473,247 472,246 472,245 470,243 470,242 469,241 468,241 467,240 466,240 465,239 464,239 463,238 463,229 464,228 464,220 464,228 463,229 463,235 462,236 456,236 462,236 463,237 461,239 465,239 467,241 468,241 470,243 470,244 472,246 472,247 473,248 473,249 474,250 474,262 473,263 473,266 472,267 472,268 470,270 470,271 465,276 464,276 463,277 453,277 451,275 450,275 448,273 448,272 447,271 447,270 446,269 446,268 445,267 445,266 443,264 443,261 442,260 442,256 443,255 443,252 444,251 444,250 445,249 445,248 451,242 451,241 452,240 459,240 460,241 461,241 467,247 467,248 468,249 468,250 469,251 469,260 468,261 468,263 466,265 466,266 464,268 464,269 461,272 460,272 459,273 458,273 457,274 454,274 457,274 458,273 460,273 461,272 462,272 463,271 463,270 466,267 466,266 467,265 467,264 468,263 468,261 469,260 469,251 468,250 468,248 467,247 467,246 463,242 462,242 461,241 460,241 459,240 455,240 454,239 453,239 451,241 449,239 449,238 451,236 451,235 452,234 452,225 451,224 451,219 452,218 451,217 451,214 452,213 452,189 453,188 454,188 455,187 455,170 456,169 456,166 455,165 455,164 457,162 456,161 457,160 457,141 458,140 458,137 457,136 457,135 455,135 454,134 453,134 452,133 451,133 447,129 447,128 445,126 445,124 444,123 444,116 445,115 445,113 447,111 447,110 452,105 453,105 455,103" stroke="black" stroke-width="1" /><polyline fill="none" points="458,102 457,103 455,103 454,104 453,104 452,105 451,105 447,109 447,110 445,112 445,115 444,116 444,123 445,124 445,127 447,129 447,130 450,133 451,133 452,134 454,134 455,135 456,135 458,137 458,140 457,141 457,160 456,161 456,162 455,163 455,166 456,167 456,169 455,170 455,186 453,188 452,188 452,213 451,214 451,217 452,218 451,219 451,224 452,225 452,233 451,234 451,235 449,237 449,239 442,246 442,247 441,248 441,250 440,251 440,255 439,256 439,260 440,261 440,264 441,265 441,267 442,268 442,269 444,271 444,273 445,274 445,277 446,278 446,281 447,282 447,283 448,284 448,286 449,287 449,288 450,289 450,290 457,297 460,297 461,298 465,298 466,299 467,299 468,300 467,301 467,331 468,332 471,332 472,333 476,333 477,334 480,334 481,335 485,335 486,336 489,336 490,337 494,337 495,338 499,338 500,339 503,339 504,340 507,340 508,341 512,341 513,342 517,342 518,343 522,343 523,344 526,344 527,345 531,345 532,346 535,346 536,347 541,347 542,348 546,348 547,349 551,349 552,350 558,350 559,351 564,351 565,352 571,352 572,353 577,353 578,354 584,354 585,355 590,355 591,356 592,356 593,357 593,360 592,361 592,366 591,367 590,367 589,368 584,368 583,367 566,367 565,368 520,368 519,369 518,369 517,370 517,374 514,377 512,377 511,378 510,378 508,380 507,380 505,382 504,382 501,385 501,386 498,389 498,390 497,391 497,392 496,393 496,394 495,395 495,397 494,398 494,400 493,401 493,406 492,407 492,410 493,411 493,417 494,418 494,421 495,422 495,424 496,425 496,426 498,428 498,429 500,431 500,432 501,433 500,434 500,436 499,437 499,442 498,443 498,449 497,450 497,457 496,458 496,464 495,465 495,471 494,472 494,479 493,480 493,487 492,488 492,494 491,495 491,505 494,505 495,506 499,506 500,507 501,507 503,509 503,512 504,513 504,516 505,517 505,520 506,521 506,524 507,525 507,527 508,528 508,530 511,533 517,533 518,532 520,532 521,533 521,535 522,536 522,539 523,540 523,541 524,542 524,543 530,549 531,549 532,550 534,550 535,551 537,551 538,552 550,552 551,551 553,551 554,550 555,550 556,549 557,549 560,546 561,546 562,545 564,547 564,548 565,549 565,551 566,552 566,555 567,556 567,557 568,558 568,559 569,560 569,563 568,564 568,565 567,566 567,567 565,569 565,572 565,570 567,568 567,567 568,566 568,565 569,564 569,559 568,558 568,557 566,555 566,552 565,551 565,549 564,548 564,546 563,546 562,545 562,544 565,541 565,538 566,537 566,527 565,526 565,524 564,523 564,521 566,519 568,519 568,513 567,512 567,509 566,508 566,506 565,505 565,504 564,503 564,502 563,501 563,499 562,498 562,497 561,496 561,495 560,494 560,493 559,492 559,490 557,488 557,487 554,484 553,484 552,483 549,483 548,482 545,482 544,483 541,483 540,482 539,482 538,483 537,483 536,484 529,484 528,485 525,485 524,486 522,486 521,487 520,487 519,488 518,488 517,489 514,489 510,493 509,493 505,497 505,498 504,499 504,505 505,506 505,507 506,508 506,511 507,512 507,515 507,512 506,511 506,508 505,507 505,506 504,505 504,499 511,492 512,492 515,489 517,489 518,488 519,488 520,487 521,487 522,486 524,486 525,485 528,485 529,484 532,484 533,485 530,488 529,488 529,493 530,494 530,496 531,497 531,499 532,500 532,502 533,503 533,505 534,506 534,508 535,509 535,511 536,512 536,513 537,514 537,516 538,517 538,519 539,520 539,521 539,520 538,519 538,517 537,516 537,514 536,513 536,512 535,511 535,509 534,508 534,506 533,505 533,503 532,502 532,500 531,499 531,497 530,496 530,494 529,493 529,489 531,487 532,487 533,486 533,485 534,484 536,484 537,483 543,483 544,484 544,487 545,488 545,489 546,490 546,491 548,493 548,494 549,495 549,496 550,497 550,499 552,501 552,502 553,503 553,504 554,505 554,506 555,507 555,508 556,509 556,511 557,512 557,514 558,515 558,516 558,515 557,514 557,512 556,511 556,509 555,508 555,506 554,505 554,504 553,503 553,502 552,501 552,500 550,498 550,497 549,496 549,494 548,493 548,492 546,490 546,489 545,488 545,487 544,486 544,483 545,482 548,482 549,483 551,483 552,484 553,484 557,488 557,489 559,491 559,492 560,493 560,495 561,496 561,497 562,498 562,499 563,500 563,501 564,502 564,503 565,504 565,505 566,506 566,508 567,509 567,512 568,513 568,518 567,519 566,519 565,520 562,520 561,519 556,519 555,520 549,520 548,521 545,521 544,522 542,522 540,524 539,524 538,525 536,525 535,526 534,526 533,527 530,527 529,528 527,528 526,529 523,529 520,532 518,532 517,533 512,533 508,529 508,528 507,527 507,525 506,524 506,521 505,520 505,517 504,516 504,513 503,512 503,509 502,508 502,507 500,507 499,506 495,506 494,505 492,505 491,504 491,495 492,494 492,488 493,487 493,480 494,479 494,472 495,471 495,465 496,464 496,458 497,457 497,450 498,449 498,443 499,442 499,437 500,436 500,434 501,433 505,437 505,453 506,454 506,465 507,466 507,470 508,471 508,476 509,477 509,481 510,482 510,485 511,486 511,487 512,488 512,487 510,485 510,482 509,481 509,477 508,476 508,471 507,470 507,466 506,465 506,454 505,453 505,437 504,436 504,435 502,433 501,433 500,432 500,430 498,428 498,427 496,425 496,424 495,423 495,422 494,421 494,418 493,417 493,411 492,410 492,407 493,406 493,401 494,400 494,398 495,397 495,396 496,395 496,394 497,393 497,392 498,391 498,390 501,387 501,386 505,382 506,382 508,380 509,380 511,378 512,378 513,377 514,377 515,376 516,376 517,375 517,371 520,368 565,368 566,367 583,367 584,368 589,368 590,367 591,367 592,366 593,367 593,368 596,368 597,369 603,369 604,370 610,370 611,371 617,371 618,372 622,372 623,373 627,373 628,374 634,374 635,375 640,375 641,376 646,376 647,377 648,377 648,376 649,375 650,376 651,376 652,377 655,377 656,378 659,378 660,379 664,379 665,380 668,380 669,381 672,381 673,382 676,382 677,383 680,383 681,384 684,384 685,385 687,385 688,386 690,386 691,387 694,387 695,388 698,388 699,389 701,389 702,390 706,390 707,391 710,391 711,392 714,392 716,394 716,401 718,403 719,403 724,408 724,409 726,411 726,412 727,413 727,414 728,415 728,416 729,417 729,419 730,420 730,423 731,424 731,434 730,435 730,439 729,440 729,442 728,443 728,445 726,447 726,448 725,449 725,452 724,453 725,454 725,457 726,458 726,459 727,460 727,462 728,463 728,465 729,466 729,468 730,469 730,470 731,471 731,474 732,475 732,476 733,477 733,478 734,479 734,481 735,482 735,484 736,485 736,487 737,488 740,488 741,487 749,487 750,488 751,488 753,490 754,490 757,493 757,494 760,497 760,498 761,499 761,500 763,502 763,503 764,504 764,505 766,507 766,508 767,509 767,510 768,511 768,512 769,513 769,515 770,516 770,517 771,518 771,520 772,521 772,526 771,527 770,527 769,528 768,528 767,529 767,531 768,532 768,541 767,542 767,545 765,547 765,548 764,549 764,550 760,554 759,554 758,555 757,555 755,557 751,557 750,558 743,558 742,557 738,557 737,556 736,556 735,555 734,555 725,546 725,545 724,544 724,543 723,542 723,541 725,539 727,539 728,538 729,538 730,537 732,537 733,536 734,536 735,535 738,535 739,534 740,534 741,533 743,533 744,532 745,532 743,532 742,533 741,533 740,534 739,534 738,535 735,535 734,536 733,536 732,537 730,537 729,538 728,538 727,539 724,539 723,540 723,541 721,543 719,543 718,544 716,544 713,541 713,539 712,538 712,537 711,536 711,535 696,535 695,534 692,534 691,535 690,535 689,536 688,536 686,538 685,538 683,540 682,540 681,541 680,541 679,542 678,542 677,543 676,543 675,544 674,544 673,545 672,545 671,546 670,546 669,547 667,547 666,548 665,548 664,549 662,549 661,550 658,550 657,551 654,551 653,552 650,552 650,553 649,554 649,559 648,560 648,565 647,566 647,569 646,570 646,574 645,575 645,578 644,579 644,584 643,585 643,588 642,589 642,591 641,592 641,596 643,596 644,597 646,597 647,598 648,598 649,599 650,599 651,600 652,600 655,603 656,603 663,610 663,611 666,614 666,615 667,616 667,617 668,618 668,619 669,620 669,621 670,622 670,623 671,624 671,626 672,627 672,631 673,632 673,637 671,639 667,639 666,640 657,640 656,641 621,641 620,640 611,640 610,639 604,639 603,638 597,638 596,637 591,637 587,641 586,641 585,640 584,640 583,639 582,639 580,637 579,637 578,636 577,636 576,635 575,635 574,634 573,634 571,632 570,632 569,631 568,631 566,629 565,629 564,628 563,628 561,626 560,626 558,624 557,624 554,621 553,621 549,617 548,617 544,613 543,613 534,604 533,604 531,602 531,601 518,588 518,587 514,583 514,582 517,579 518,579 520,577 521,577 523,575 524,575 525,574 526,574 527,573 528,573 529,572 530,572 532,570 534,570 535,569 538,569 539,568 544,568 545,567 551,567 552,568 555,568 556,569 558,569 559,570 560,570 562,572 563,572 561,570 559,570 558,569 556,569 555,568 552,568 551,567 545,567 544,568 539,568 538,569 535,569 534,570 532,570 531,571 530,571 529,572 528,572 527,573 526,573 525,574 524,574 523,575 522,575 520,577 519,577 517,579 516,579 514,581 514,584 518,588 518,589 531,602 531,603 532,604 533,604 542,613 543,613 547,617 548,617 552,621 553,621 556,624 557,624 559,626 560,626 562,628 563,628 564,629 565,629 567,631 568,631 569,632 570,632 572,634 573,634 574,635 575,635 576,636 577,636 578,637 579,637 581,639 582,639 583,640 584,640 585,641 588,641 592,637 596,637 597,638 603,638 604,639 610,639 611,640 620,640 621,641 656,641 657,640 666,640 667,639 671,639 672,638 673,638 673,632 672,631 672,627 671,626 671,624 670,623 670,621 669,620 669,619 668,618 668,617 667,616 667,615 666,614 666,613 663,610 663,609 657,603 656,603 653,600 652,600 651,599 650,599 649,598 647,598 646,597 644,597 643,596 642,596 641,595 641,592 642,591 642,589 643,588 643,585 644,584 644,579 645,578 645,575 646,574 646,570 647,569 647,566 648,565 648,560 649,559 649,554 651,552 653,552 654,551 657,551 658,550 661,550 662,549 664,549 665,548 666,548 667,547 669,547 670,546 672,546 673,545 674,545 675,544 676,544 677,543 678,543 679,542 680,542 681,541 682,541 683,540 684,540 686,538 687,538 689,536 690,536 691,535 692,535 693,534 695,534 696,535 710,535 711,536 711,537 712,538 712,539 713,540 713,541 714,542 714,543 715,544 718,544 719,543 721,543 722,542 724,544 724,545 725,546 725,547 733,555 734,555 735,556 737,556 738,557 742,557 743,558 750,558 751,557 755,557 756,556 757,556 758,555 759,555 760,554 761,554 764,551 764,550 765,549 765,548 766,547 766,546 767,545 767,542 768,541 768,532 767,531 767,529 768,528 769,528 770,527 772,527 773,526 772,525 772,521 771,520 771,518 770,517 770,516 769,515 769,512 768,511 768,510 767,509 767,508 766,507 766,506 764,504 764,503 763,502 763,501 761,499 761,498 760,497 760,496 756,492 756,491 755,490 754,490 752,488 751,488 750,487 741,487 740,488 738,488 736,486 736,485 735,484 735,482 734,481 734,479 733,478 733,477 732,476 732,475 731,474 731,471 730,470 730,469 729,468 729,466 728,465 728,463 727,462 727,460 726,459 726,458 725,457 725,454 724,453 725,452 725,450 726,449 726,448 727,447 727,446 728,445 728,443 729,442 729,440 730,439 730,435 731,434 731,424 730,423 730,420 729,419 729,417 728,416 728,414 727,413 727,412 726,411 726,410 724,408 724,407 720,403 719,403 716,400 716,393 715,393 714,392 711,392 710,391 707,391 706,390 702,390 701,389 699,389 698,388 695,388 694,387 691,387 690,386 688,386 687,385 685,385 684,384 681,384 680,383 677,383 676,382 673,382 672,381 669,381 668,380 665,380 664,379 660,379 659,378 656,378 655,377 652,377 651,376 650,376 649,375 649,367 650,366 650,363 651,362 675,362 676,361 699,361 700,360 715,360 716,359 726,359 727,358 734,358 735,357 743,357 744,356 750,356 751,355 756,355 757,354 763,354 764,353 771,353 772,352 775,352 775,350 776,349 776,344 777,343 777,337 778,336 778,330 779,329 779,324 780,323 780,322 782,320 783,320 784,321 786,321 787,320 790,320 791,319 792,319 797,314 797,313 799,311 799,310 800,309 800,307 801,306 801,304 802,303 802,301 803,300 803,297 804,296 804,290 805,289 805,268 804,267 804,264 803,263 803,260 802,259 802,258 801,257 801,256 799,254 799,253 798,252 797,252 795,250 794,250 793,249 791,249 790,248 789,248 787,246 787,213 786,212 786,206 784,204 783,204 781,202 780,202 779,201 778,201 776,199 775,199 773,197 772,197 771,196 770,196 768,194 767,194 765,192 764,192 762,190 761,190 760,189 759,189 758,188 757,188 755,186 754,186 753,185 752,185 751,184 750,184 748,182 747,182 746,181 745,181 744,180 743,180 742,179 741,179 740,178 739,178 738,177 737,177 736,176 735,176 734,175 732,175 731,174 730,174 729,173 728,173 727,172 725,172 724,171 723,171 722,170 720,170 719,169 718,169 717,168 715,168 714,167 712,167 711,166 709,166 708,165 705,165 704,164 702,164 701,163 700,163 697,160 697,158 696,157 696,156 689,149 688,149 686,147 685,147 683,145 682,145 680,143 679,143 678,142 677,142 676,141 675,141 674,140 672,140 671,139 670,139 669,138 667,138 666,137 664,137 663,136 661,136 660,135 657,135 656,134 654,134 653,133 650,133 649,132 644,132 643,131 637,131 636,130 615,130 614,131 607,131 606,132 601,132 600,133 597,133 596,134 592,134 591,135 589,135 588,136 586,136 585,137 584,137 583,138 581,138 580,139 578,139 577,140 576,140 575,141 574,141 573,142 572,142 570,144 569,144 567,146 566,146 561,151 561,152 560,153 560,154 559,155 559,156 557,158 553,158 552,159 546,159 545,160 541,160 540,161 536,161 535,162 530,162 529,163 525,163 523,165 521,165 519,167 517,167 516,168 514,168 513,169 512,169 511,170 509,170 508,171 507,171 506,172 504,172 503,173 502,173 501,174 499,174 498,175 497,175 496,176 494,176 493,177 492,177 491,178 490,178 489,179 487,179 486,180 485,180 484,181 483,181 482,182 481,182 479,184 478,184 478,188 477,189 477,196 476,197 476,204 475,205 475,212 474,213 474,217 473,218 470,218 469,219 468,219 466,217 466,211 467,210 467,200 468,199 468,189 467,188 466,188 465,187 465,168 466,167 466,163 465,162 465,156 466,155 466,137 467,136 468,136 469,135 472,135 473,134 474,134 478,130 478,129 479,128 479,127 480,126 480,123 481,122 481,118 480,117 480,114 479,113 479,111 478,110 478,109 474,105 473,105 472,104 471,104 470,103 469,103 468,102" stroke="black" stroke-width="1" /></svg>