<?xml version="1.0" encoding="utf-8" ?>
<svg baseProfile="tiny" height="704" version="1.2" width="1248" xmlns="http://www.w3.org/2000/svg" xmlns:ev="http://www.w3.org/2001/xml-events" xmlns:xlink="http://www.w3.org/1999/xlink"><defs /><polyline fill="none" points="570,626 569,627 545,627 544,628 521,628 520,629 510,629 509,630 501,630 500,631 492,631 491,632 484,632 483,633 478,633 477,634 474,634 473,635 470,635 469,636 466,636 465,637 463,637 462,638 460,638 459,639 459,642 461,644 463,644 464,645 466,645 467,646 470,646 471,647 475,647 476,648 483,648 484,649 491,649 492,650 500,650 501,651 509,651 510,652 522,652 523,653 534,653 535,654 554,654 555,655 581,655 582,656 622,656 623,655 652,655 653,654 667,654 668,653 683,653 684,652 696,652 697,651 705,651 706,650 714,650 715,649 721,649 722,648 728,648 729,647 733,647 734,646 737,646 738,645 740,645 741,644 743,644 744,643 744,641 745,640 744,639 743,639 742,638 741,638 740,637 737,637 736,636 733,636 732,635 729,635 728,634 724,634 723,633 717,633 716,632 710,632 709,631 701,631 700,630 689,630 688,629 678,629 677,628 657,628 656,627 638,627 656,627 657,628 677,628 678,629 688,629 689,630 700,630 701,631 709,631 710,632 716,632 717,633 723,633 724,634 728,634 729,635 732,635 733,636 736,636 737,637 739,637 740,638 741,638 742,639 743,639 744,640 744,642 742,644 741,644 740,645 738,645 737,646 734,646 733,647 729,647 728,648 722,648 721,649 715,649 714,650 706,650 705,651 697,651 696,652 684,652 683,653 668,653 667,654 653,654 652,655 623,655 622,656 582,656 581,655 555,655 554,654 535,654 534,653 523,653 522,652 510,652 509,651 501,651 500,650 492,650 491,649 484,649 483,648 476,648 475,647 471,647 470,646 467,646 466,645 464,645 463,644 462,644 459,641 459,640 461,638 462,638 463,637 465,637 466,636 469,636 470,635 473,635 474,634 477,634 478,633 483,633 484,632 491,632 492,631 500,631 501,630 509,630 510,629 520,629 521,628 544,628 545,627 571,627" stroke="black" stroke-width="1" /><polyline fill="none" points="621,619 622,618 626,618 628,620 628,623 629,624 629,630 630,631 630,637 629,638 623,638 622,637 619,637 618,636 615,636 614,635 610,635 609,634 607,634 606,633 603,633 602,632 601,632 600,631 598,631 596,629 596,627 597,626 598,626 599,625 601,625 602,624 605,624 606,623 609,623 610,622 612,622 613,621 615,621 616,620 618,620 619,619" stroke="black" stroke-width="1" /><polyline fill="none" points="622,618 621,619 619,619 618,620 616,620 615,621 613,621 612,622 610,622 609,623 606,623 605,624 602,624 601,625 599,625 598,626 596,626 595,627 596,628 595,629 597,631 600,631 601,632 602,632 603,633 606,633 607,634 609,634 610,635 614,635 615,636 618,636 619,637 622,637 623,638 630,638 630,631 629,630 629,624 628,623 628,620 627,619 627,618" stroke="black" stroke-width="1" /><polyline fill="none" points="649,571 647,573 646,573 644,575 643,575 638,580 638,581 636,583 636,584 635,585 635,588 635,586 636,585 636,584 638,582 638,581 644,575 645,575 647,573 648,573 650,571 651,571" stroke="black" stroke-width="1" /><polyline fill="none" points="635,565 634,566 630,566 629,567 627,567 626,568 625,568 624,569 623,569 622,570 621,570 619,572 618,572 616,574 615,574 614,575 613,575 612,576 611,576 608,579 608,580 607,581 607,582 606,583 606,584 605,585 605,587 604,588 604,590 603,591 603,595 602,596 602,600 601,601 601,617 605,617 606,616 607,616 608,615 609,615 610,614 611,614 612,613 613,613 614,612 615,612 616,611 618,611 619,610 620,610 622,608 624,608 625,607 626,607 627,606 628,606 629,605 630,605 631,604 632,604 633,603 634,603 634,602 633,603 632,603 631,604 630,604 629,605 628,605 627,606 626,606 625,607 624,607 623,608 622,608 621,609 620,609 619,610 618,610 617,611 616,611 615,612 614,612 613,613 611,613 610,614 609,614 608,615 607,615 606,616 605,616 604,617 602,617 601,616 601,601 602,600 602,596 603,595 603,591 604,590 604,588 605,587 605,586 606,585 606,584 607,583 607,582 608,581 608,580 612,576 613,576 614,575 615,575 616,574 617,574 619,572 620,572 622,570 623,570 624,569 625,569 626,568 627,568 628,567 629,567 630,566 634,566 635,565 644,565 645,566 649,566 653,570 655,570 656,571 657,571 659,573 660,573 662,575 663,575 666,578 667,578 671,582 671,583 670,584 669,584 668,585 667,585 666,586 665,586 664,587 663,587 661,589 660,589 659,590 658,590 657,591 656,591 655,592 654,592 653,593 652,593 650,595 649,595 648,596 647,596 645,598 644,598 643,599 642,599 641,600 640,600 639,601 638,601 637,600 637,599 636,598 636,595 635,594 635,592 625,582 624,582 623,581 622,581 621,580 620,580 618,578 617,578 616,577 615,577 616,578 617,578 618,579 619,579 621,581 622,581 623,582 624,582 635,593 635,594 636,595 636,598 637,599 637,601 640,601 641,600 642,600 643,599 644,599 645,598 646,598 648,596 649,596 650,595 651,595 653,593 654,593 655,592 656,592 657,591 658,591 659,590 660,590 661,589 662,589 664,587 665,587 666,586 667,586 668,585 669,585 670,584 671,584 671,581 668,578 667,578 664,575 663,575 661,573 660,573 658,571 656,571 655,570 654,570 651,567 650,567 649,566 645,566 644,565" stroke="black" stroke-width="1" /><polyline fill="none" points="618,554 619,553 620,553 621,554 623,554 624,555 626,555 627,556 630,556 631,557 633,557 634,558 635,558 636,559 636,560 635,561 634,561 633,562 631,562 630,563 628,563 627,564 626,564 625,565 624,565 623,564 623,563 622,562 622,560 620,558 620,557 618,555" stroke="black" stroke-width="1" /><polyline fill="none" points="618,553 618,555 619,556 619,557 621,559 621,560 622,561 622,562 623,563 623,565 622,566 623,565 625,565 626,564 628,564 629,563 630,563 631,562 634,562 635,561 636,561 636,559 637,558 634,558 633,557 631,557 630,556 627,556 626,555 624,555 623,554 621,554 620,553" stroke="black" stroke-width="1" /><polyline fill="none" points="609,552 611,552 615,556 615,557 617,559 617,560 619,562 619,564 617,566 614,566 613,567 611,567 610,568 609,568 607,570 606,570 605,571 604,571 603,572 602,572 600,574 599,574 597,572 597,571 596,570 596,569 593,566 601,558 602,558 605,555 606,555" stroke="black" stroke-width="1" /><polyline fill="none" points="609,552 608,553 607,553 604,556 603,556 600,559 599,559 592,566 593,566 596,569 596,570 597,571 597,572 598,573 598,574 600,574 601,573 602,573 603,572 604,572 605,571 606,571 607,570 608,570 610,568 611,568 612,567 613,567 614,566 617,566 618,565 620,565 619,564 620,563 619,562 619,561 617,559 617,558 615,556 615,555 613,553 612,553 611,552" stroke="black" stroke-width="1" /><polyline fill="none" points="640,548 640,549 639,550 639,552 638,553 638,554 637,555 635,555 634,554 631,554 630,553 627,553 626,552 625,552 624,551 621,551 620,550 617,550 616,551 615,551 613,549 608,549 607,550 606,550 603,553 602,553 599,556 598,556 591,563 589,561 591,563 594,560 595,560 599,556 600,556 603,553 604,553 607,550 608,550 609,549 612,549 613,550 614,550 615,551 617,551 618,550 620,550 621,551 624,551 625,552 626,552 627,553 630,553 631,554 633,554 634,555 637,555 638,554 638,553 639,552 639,550 640,549" stroke="black" stroke-width="1" /><polyline fill="none" points="589,546 588,547 587,547 586,548 585,548 581,552 582,552 587,547 588,547 589,546 591,548 590,549 589,549 584,554 584,555 590,549 591,549 591,547 590,547" stroke="black" stroke-width="1" /><polyline fill="none" points="599,502 600,501 601,502 602,502 605,505 605,508 601,512 599,512 595,508 595,505 598,502" stroke="black" stroke-width="1" /><polyline fill="none" points="691,500 693,500 697,504 697,506 693,510 690,510 687,507 687,504" stroke="black" stroke-width="1" /><polyline fill="none" points="600,501 599,502 597,502 595,504 595,509 597,511 598,511 599,512 601,512 602,511 603,511 605,509 605,504 603,502 601,502" stroke="black" stroke-width="1" /><polyline fill="none" points="691,500 690,501 689,501 688,502 688,503 687,504 687,508 689,510 694,510 696,508 696,507 697,506 697,504 696,503 696,502 695,501 694,501 693,500" stroke="black" stroke-width="1" /><polyline fill="none" points="431,494 430,495 429,495 424,500 424,502 423,503 423,504 422,505 422,512 423,513 423,514 425,516 425,517 426,518 427,518 429,520 430,520 431,521 432,521 433,522 437,522 438,523 439,522 442,522 443,521 444,521 445,520 446,520 452,514 452,513 452,514 446,520 445,520 444,521 443,521 442,522 439,522 438,523 437,522 433,522 432,521 431,521 429,519 428,519 425,516 425,515 423,513 423,512 422,511 422,505 423,504 423,503 424,502 424,501 431,494 434,494" stroke="black" stroke-width="1" /><polyline fill="none" points="424,485 425,485 426,486 427,486 429,488 430,488 432,490 433,490 435,492 436,492 440,496 441,496 442,497 443,497 445,499 446,499 448,501 448,502 452,506 452,507 454,509 454,510 455,511 455,516 448,523 447,523 446,524 445,524 444,525 442,525 441,526 435,526 434,525 431,525 430,524 429,524 427,522 426,522 419,515 419,514 418,513 418,512 416,510 416,507 415,506 415,499 416,498 416,495 417,494 417,493 419,491 419,490" stroke="black" stroke-width="1" /><polyline fill="none" points="478,485 477,486 477,487 474,490 474,491 468,497 468,498 464,502 464,503 459,508 458,508 457,509 458,508 460,508 463,505 463,504 468,499 468,498 474,492 474,491 477,488 477,487 478,486" stroke="black" stroke-width="1" /><polyline fill="none" points="465,472 464,473 463,473 451,485 451,486 446,491 446,492 445,493 445,494 445,493 451,487 451,486 464,473 465,473 466,472" stroke="black" stroke-width="1" /><polyline fill="none" points="644,471 645,472 644,473 644,474 642,476 642,477 641,478 642,477 643,478 645,478 646,479 658,479 659,478 662,478 663,477 665,477 666,476 667,476 665,476 664,477 663,477 662,478 659,478 658,479 646,479 645,478 643,478 642,477 643,476 643,475 644,474 644,473 645,472" stroke="black" stroke-width="1" /><polyline fill="none" points="803,469 802,470 802,471 800,473 800,474 797,477 797,478 795,480 795,481 797,479 797,478 800,475 800,474 802,472 802,471 803,470" stroke="black" stroke-width="1" /><polyline fill="none" points="670,467 669,468 668,468 667,469 667,472 669,472 670,473 671,472 672,472 671,472 670,473 669,472 668,472 667,471 667,470 670,467 673,470 674,470 672,468 671,468" stroke="black" stroke-width="1" /><polyline fill="none" points="613,462 614,463 614,464 615,465 615,466 619,470 619,471 626,478 627,478 630,481 631,481 633,483 635,483 636,484 639,484 640,485 644,485 645,486 651,486 652,485 654,485 652,485 651,486 645,486 644,485 640,485 639,484 636,484 635,483 634,483 632,481 631,481 628,478 627,478 616,467 616,466 614,464 614,463" stroke="black" stroke-width="1" /><polyline fill="none" points="610,453 609,454 608,454 607,455 592,455 591,456 590,456 588,458 588,460 587,461 587,511 588,512 588,517 591,517 591,513 590,512 590,461 593,458 595,458 596,457 609,457 610,458 611,458 612,459 612,458 610,458 609,457 596,457 595,458 592,458 591,459 591,460 590,461 590,512 591,513 591,516 590,517 589,517 588,516 588,512 587,511 587,461 588,460 588,459 591,456 592,456 593,455 607,455 608,454 611,454" stroke="black" stroke-width="1" /><polyline fill="none" points="774,450 772,452 771,452 771,453 767,457 767,458 764,461 764,462 763,463 763,464 764,465 764,466 765,467 766,467 768,469 769,469 771,471 772,471 773,472 774,472 776,474 777,474 779,476 780,476 781,477 782,477 783,478 785,478 787,480 789,480 790,481 793,481 790,481 789,480 788,480 787,479 786,479 785,478 784,478 783,477 782,477 781,476 780,476 778,474 777,474 775,472 774,472 773,471 772,471 770,469 769,469 768,468 767,468 763,464 764,463 764,462 767,459 767,458 771,454 771,453" stroke="black" stroke-width="1" /><polyline fill="none" points="469,450 467,452 467,453 461,459 470,450 471,451 472,451 486,465 482,469 482,470 478,474 484,468 484,467 486,465 485,464 485,463 473,451 472,451 471,450" stroke="black" stroke-width="1" /><polyline fill="none" points="754,448 760,454 761,454 762,455 759,452 758,452" stroke="black" stroke-width="1" /><polyline fill="none" points="752,446 749,449 749,450 743,456 743,457 740,460 740,461 739,462 739,464 742,467 743,467 748,472 743,467 742,467 739,464 739,463 740,462 740,461 743,458 743,457 749,451 749,450 752,447" stroke="black" stroke-width="1" /><polyline fill="none" points="713,444 713,445 726,458 727,458 733,464 734,464 741,471 742,471 747,476 748,476 750,478 750,479 749,480 749,489 751,491 751,492 752,492 756,496 757,496 759,498 760,498 762,500 763,500 765,502 766,502 767,503 768,503 770,505 771,505 773,507 774,507 776,509 777,509 778,510 780,510 781,511 782,510 784,510 786,508 786,507 788,505 789,506 792,506 793,507 796,507 797,508 805,508 806,507 808,507 809,506 811,506 812,505 813,505 814,504 815,504 817,502 818,502 822,498 822,497 823,496 823,495 824,494 824,491 825,490 825,483 824,482 824,479 823,478 823,476 821,474 821,473 819,471 818,471 816,469 815,469 814,468 813,468 812,467 809,467 805,471 805,472 803,474 810,467 812,467 814,469 815,469 817,471 818,471 821,474 821,475 823,477 823,478 824,479 824,482 825,483 825,490 824,491 824,493 823,494 823,495 822,496 822,497 817,502 816,502 814,504 813,504 812,505 811,505 810,506 809,506 808,507 806,507 805,508 797,508 796,507 793,507 792,506 790,506 788,504 788,500 789,499 789,498 790,497 790,496 791,495 791,494 792,493 792,492 794,490 794,488 795,487 795,486 796,485 796,484 797,483 797,482 796,483 796,484 795,485 795,486 794,487 794,489 792,491 792,492 791,493 791,494 790,495 790,496 789,497 789,499 788,500 788,503 787,504 788,505 787,506 786,506 786,507 783,510 782,510 781,511 780,510 779,510 778,509 777,509 775,507 774,507 772,505 771,505 769,503 768,503 767,502 766,502 764,500 763,500 761,498 760,498 758,496 757,496 753,492 752,492 751,491 751,490 749,488 749,480 750,479 750,477 751,476 752,476 754,474 754,473 755,472 755,471 757,469 757,468 759,466 759,465 761,463 760,463 759,464 759,465 757,467 757,468 756,469 756,470 754,472 754,473 753,474 753,475 752,476 751,476 750,477 749,476 748,476 743,471 742,471 735,464 734,464 728,458 727,458 718,449 717,449 716,448 716,447" stroke="black" stroke-width="1" /><polyline fill="none" points="654,444 655,443 659,443 660,444 661,444 664,447 664,450 663,451 663,452 660,455 659,455 658,456 656,456 655,455 653,455 652,454 651,454 647,450 647,447 649,445 650,445 651,444" stroke="black" stroke-width="1" /><polyline fill="none" points="655,443 654,444 651,444 650,445 648,445 647,446 647,451 650,454 651,454 652,455 655,455 656,456 658,456 659,455 661,455 663,453 663,451 664,450 664,447 663,446 663,445 662,444 660,444 659,443" stroke="black" stroke-width="1" /><polyline fill="none" points="619,439 620,440 619,441 620,442 619,443 619,446 620,447 620,450 621,451 621,454 622,455 622,456 623,457 623,459 624,460 624,461 626,463 626,464 629,467 629,468 634,473 635,473 637,475 638,474 639,475 639,477 639,475 641,473 641,472 642,471 642,470 641,471 641,472 639,474 637,474 636,473 635,473 629,467 629,466 626,463 626,462 624,460 624,459 623,458 623,457 622,456 622,455 621,454 621,451 620,450 620,447 619,446 619,443 620,442 624,442 621,442 620,441 620,440" stroke="black" stroke-width="1" /><polyline fill="none" points="482,436 478,440 478,441 474,445 481,438 481,437 482,436 492,446 492,447 498,453 497,454 496,454 490,460 490,461 489,462 488,462 485,459 485,458 482,455 481,455 472,446 472,447 480,455 481,455 485,459 485,460 487,462 489,462 491,460 491,459 495,455 496,455 498,453 496,451 496,450 492,446 492,445 484,437 483,437" stroke="black" stroke-width="1" /><polyline fill="none" points="739,434 733,440 733,441 729,445 729,446 726,449 726,450 724,452 725,452 727,454 728,454 734,460 727,453 726,453 725,452 726,451 726,450 729,447 729,446 733,442 733,441 738,436 738,435" stroke="black" stroke-width="1" /><polyline fill="none" points="727,425 727,427 726,428 726,429 725,430 725,431 724,432 724,434 722,436 722,437 717,442 717,444 721,448 721,449 722,450 723,450 724,449 724,448 726,446 726,445 729,442 729,441 737,433 737,432 729,440 729,441 726,444 726,445 724,447 724,448 722,450 721,449 721,448 717,444 717,443 722,438 722,437 723,436 723,435 724,434 724,433 725,432 725,431 726,430 726,428 727,427 727,426 728,425 734,431 728,425" stroke="black" stroke-width="1" /><polyline fill="none" points="494,424 495,424 496,425 497,425 507,435 507,436 510,439 507,442 507,443 500,450 494,444 494,443 485,434 485,433" stroke="black" stroke-width="1" /><polyline fill="none" points="493,424 492,425 492,426 484,434 494,444 494,445 499,450 501,450 507,444 507,443 509,441 509,440 510,439 509,438 509,437 507,435 507,434 498,425 497,425 496,424" stroke="black" stroke-width="1" /><polyline fill="none" points="725,422 725,423 724,424 724,426 723,427 723,428 722,429 722,431 721,432 721,433 719,435 719,436 714,441 713,441 713,442 714,441 715,441 719,437 719,436 720,435 720,434 721,433 721,432 722,431 722,429 723,428 723,427 724,426 724,424 725,423" stroke="black" stroke-width="1" /><polyline fill="none" points="649,418 650,418 651,419 652,419 656,423 656,424 654,426 653,426 652,425 649,425 648,424 647,424 645,422" stroke="black" stroke-width="1" /><polyline fill="none" points="649,418 648,419 647,419 645,421 645,422 646,423 646,424 648,424 649,425 652,425 653,426 654,426 655,425 656,425 656,424 657,423 653,419 651,419 650,418" stroke="black" stroke-width="1" /><polyline fill="none" points="647,415 648,414 654,414 655,415 659,415 661,417 662,417 671,426 671,427 672,428 672,429 673,430 673,431 674,432 674,433 675,434 675,437 676,438 676,443 675,444 675,449 674,450 674,452 673,453 673,454 672,455 672,456 671,457 671,458 664,465 663,465 661,467 660,467 659,468 655,468 654,469 650,469 649,468 644,468 641,465 640,465 637,462 636,462 634,460 634,459 631,456 631,455 630,454 630,453 629,452 629,451 628,450 628,447 627,446 627,435 628,434 628,432 629,431 629,429 630,428 630,427 632,425 632,424 637,419 638,419 640,417 641,417 642,416 643,416 644,415" stroke="black" stroke-width="1" /><polyline fill="none" points="648,414 647,415 644,415 643,416 641,416 640,417 639,417 637,419 636,419 632,423 632,424 630,426 630,428 629,429 629,431 628,432 628,434 627,435 627,446 628,447 628,450 629,451 629,452 630,453 630,455 631,456 631,457 634,460 634,461 635,462 636,462 639,465 640,465 642,467 643,467 644,468 649,468 650,469 654,469 655,468 660,468 662,466 663,466 664,465 665,465 671,459 671,458 672,457 672,456 673,455 673,453 674,452 674,450 675,449 675,444 676,443 676,438 675,437 675,434 674,433 674,431 673,430 673,429 672,428 672,427 671,426 671,425 663,417 662,417 661,416 660,416 659,415 655,415 654,414" stroke="black" stroke-width="1" /><polyline fill="none" points="505,412 509,412 510,413 511,413 513,415 514,415 517,418 517,419 519,421 519,423 520,424 520,427 519,428 519,429 518,430 518,431 515,434 515,435 513,437 510,434 510,433 500,423 499,423 496,420 497,419 498,419" stroke="black" stroke-width="1" /><polyline fill="none" points="504,412 496,420 493,420 493,421 494,420 495,421 496,421 498,423 499,423 510,434 510,435 512,437 514,437 515,436 515,435 518,432 518,431 519,430 519,428 520,427 520,424 519,423 519,420 517,418 517,417 515,415 514,415 512,413 511,413 510,412" stroke="black" stroke-width="1" /><polyline fill="none" points="662,406 661,407 661,412 663,414 665,414 667,412 669,414 668,415 668,417 673,422 668,417 668,415 669,414 669,413 668,412 667,412 666,411 666,412 664,414 663,413 662,413 661,412 661,407 662,406 663,406 664,407 665,407 667,409 669,409 675,415 675,416 678,419 678,420 677,421 676,421 675,422 675,423 676,424 676,425 679,425 681,423 680,423 678,425 677,425 675,423 677,421 678,421 679,420 676,417 676,416 669,409 668,409 667,408 666,408 665,407 664,407 663,406" stroke="black" stroke-width="1" /><polyline fill="none" points="659,405 659,406 658,407 658,410 657,411 657,412 657,411 658,410 658,408 659,407" stroke="black" stroke-width="1" /><polyline fill="none" points="648,403 647,404 647,409 645,411 643,409 643,407 642,406 642,405 638,405 637,406 636,406 634,408 633,408 631,410 630,410 628,412 628,413 626,415 626,416 625,417 625,418 624,419 624,420 623,421 623,423 622,424 622,426 621,427 621,430 620,431 620,437 621,438 623,438 624,439 623,438 622,438 620,436 620,431 621,430 621,427 622,426 622,425 623,424 623,421 625,419 625,418 626,417 626,416 628,414 628,413 632,409 633,409 634,408 635,408 637,406 638,406 639,405 641,405 643,407 643,410 644,411 645,411 647,409 647,405 649,403 653,403 654,404 657,404 654,404 653,403" stroke="black" stroke-width="1" /><polyline fill="none" points="512,402 511,403 507,403 506,404 505,404 504,405 503,405 501,407 501,408 499,410 499,412 497,414 497,415 494,418 498,414 498,413 499,412 499,411 501,409 501,408 504,405 505,405 507,403 511,403 512,402 513,402 514,403 518,403 519,404 520,404 521,405 522,405 527,410 527,411 528,412 528,413 529,414 529,416 530,417 530,424 529,425 529,427 528,428 528,429 527,430 527,431 525,433 525,434 521,438 520,438 519,439 516,439 515,440 513,440 512,441 512,442 508,446 509,446 509,445 514,440 515,440 516,439 519,439 520,438 522,438 524,436 524,435 527,432 527,431 528,430 528,428 529,427 529,425 530,424 530,417 529,416 529,414 528,413 528,411 527,410 527,409 523,405 522,405 521,404 519,404 518,403 514,403 513,402" stroke="black" stroke-width="1" /><polyline fill="none" points="539,390 540,389 543,389 550,396 550,397 551,398 551,399 553,401 553,402 552,403 551,403 550,404 546,404 545,405 539,405 538,406 536,404 536,403 535,402 535,401 531,397 531,396 529,394 530,393 532,393 534,391 536,391 537,390" stroke="black" stroke-width="1" /><polyline fill="none" points="509,389 508,390 507,390 506,391 505,391 506,391 507,390 508,390 509,389 517,389 518,390 520,390 521,391 523,391 525,393 526,393 528,395 529,395 531,397 531,398 535,402 535,403 536,404 536,405 538,407 538,412 539,413 539,418 540,419 539,420 539,426 538,427 538,430 537,431 537,432 538,433 542,433 543,434 547,434 548,435 553,435 553,433 554,432 554,431 555,430 555,428 556,427 556,423 557,422 557,413 556,412 556,409 555,408 555,405 555,408 556,409 556,412 557,413 557,422 556,423 556,427 555,428 555,430 554,431 554,432 553,433 553,434 552,435 548,435 547,434 543,434 542,433 539,433 537,431 538,430 538,427 539,426 539,420 540,419 539,418 539,413 538,412 538,406 539,405 545,405 546,404 550,404 551,403 553,403 553,400 551,398 551,397 550,396 550,395 544,389 540,389 539,390 537,390 536,391 534,391 533,392 532,392 531,393 530,393 529,394 528,394 527,393 526,393 525,392 524,392 523,391 521,391 520,390 518,390 517,389" stroke="black" stroke-width="1" /><polyline fill="none" points="585,387 589,387 592,390 592,393 591,394 591,395 590,396 589,396 588,397 585,397 582,394 582,393 581,392 582,391 582,390" stroke="black" stroke-width="1" /><polyline fill="none" points="584,387 582,389 582,391 581,392 582,393 582,395 584,397 588,397 589,396 591,396 591,395 592,394 592,389 590,387" stroke="black" stroke-width="1" /><polyline fill="none" points="707,386 707,387 708,387 709,388 710,388 711,389 712,389 713,390 714,390 718,394 718,395 720,397 720,398 722,400 722,401 723,402 722,403 718,403 717,404 713,404 712,405 711,405 710,404 710,403 709,402 709,395 708,394 708,390 708,394 709,395 709,402 710,403 710,404 711,405 712,405 713,404 717,404 718,403 722,403 723,404 723,405 724,406 724,409 724,406 723,405 723,404 722,403 723,402 722,401 722,399 720,397 720,396 718,394 718,393 715,390 714,390 713,389 711,389 709,387 708,387" stroke="black" stroke-width="1" /><polyline fill="none" points="691,386 692,385 693,385 694,386 695,386 697,388 697,389 698,390 698,391 697,392 697,393 695,395 694,395 693,396 691,396 690,395 689,395 687,393 687,389 690,386" stroke="black" stroke-width="1" /><polyline fill="none" points="692,385 691,386 689,386 688,387 688,388 687,389 687,393 688,394 688,395 689,395 690,396 694,396 695,395 696,395 697,394 697,392 698,391 698,390 697,389 697,387 696,386 695,386 694,385" stroke="black" stroke-width="1" /><polyline fill="none" points="517,382 516,383 514,383 513,384 511,384 510,385 509,385 505,389 507,387 508,387 510,385 511,385 512,384 513,384 514,383 516,383 517,382 531,382 532,383 534,383 535,384 536,384 537,385 538,385 539,386 540,386 541,387 539,385 538,385 537,384 535,384 534,383 532,383 531,382" stroke="black" stroke-width="1" /><polyline fill="none" points="538,378 556,378 557,379 570,379 571,380 572,380 573,381 573,407 574,408 574,445 575,446 575,493 576,494 576,516 577,517 577,518 575,520 571,520 575,520 576,519 577,520 644,520 645,519 680,519 681,518 700,518 702,516 703,516 703,503 702,502 702,486 701,485 701,467 700,466 700,458 699,457 698,457 697,456 687,456 686,455 686,456 685,457 685,458 684,459 684,461 683,462 683,463 681,465 681,466 679,468 679,469 671,477 670,477 669,478 668,478 667,479 666,479 665,480 664,480 663,481 660,481 659,482 646,482 645,481 642,481 641,480 639,480 638,479 636,479 635,478 634,478 632,476 631,476 629,474 628,474 625,471 624,471 619,466 619,465 617,463 617,462 616,461 616,460 614,458 614,459 616,461 616,462 617,463 617,464 619,466 619,467 623,471 624,471 627,474 628,474 630,476 631,476 633,478 635,478 636,479 638,479 639,480 641,480 642,481 645,481 646,482 659,482 660,481 664,481 665,480 666,480 667,479 668,479 669,478 670,478 671,477 672,477 679,470 679,469 681,467 681,466 683,464 683,463 684,462 684,460 685,459 685,458 687,456 697,456 700,459 700,466 701,467 701,485 702,486 702,502 703,503 703,515 700,518 681,518 680,519 645,519 644,520 578,520 577,519 577,517 576,516 576,494 575,493 575,446 574,445 574,408 573,407 573,380 572,380 571,379 557,379 556,378" stroke="black" stroke-width="1" /><polyline fill="none" points="563,373 562,374 553,374 552,375 540,375 539,376 534,376 539,376 540,375 552,375 553,374 562,374 563,373 627,373 628,374 647,374 648,375 674,375 675,376 689,376 690,377 700,377 701,378 702,378 703,379 703,381 704,382 704,385 705,386 705,396 706,397 706,403 707,404 707,410 708,411 708,419 709,420 709,432 710,433 710,443 711,444 710,445 710,449 711,450 711,460 712,461 712,469 713,470 713,480 714,481 714,494 715,495 715,509 716,510 716,515 715,516 707,516 706,515 706,505 705,504 705,487 704,486 704,470 703,469 703,457 700,454 699,454 698,453 688,453 687,452 687,446 688,445 688,437 687,436 687,432 686,431 686,428 685,427 685,424 684,423 684,422 682,420 682,419 681,418 681,417 678,414 678,413 673,408 672,408 670,406 669,406 668,405 667,405 665,403 662,403 661,402 660,402 659,401 655,401 654,400 647,400 646,401 641,401 640,402 638,402 637,403 635,403 634,404 633,404 632,405 631,405 629,407 628,407 626,409 625,409 619,415 619,416 617,418 617,419 615,421 615,422 614,423 614,424 613,425 613,426 612,427 612,430 611,431 611,449 612,450 612,452 613,453 613,454 614,455 614,456 614,454 612,452 612,450 611,449 611,431 612,430 612,428 613,427 613,426 614,425 614,424 615,423 615,422 617,420 617,419 619,417 619,416 626,409 627,409 629,407 630,407 632,405 633,405 634,404 635,404 636,403 637,403 638,402 640,402 641,401 646,401 647,400 654,400 655,401 659,401 660,402 661,402 662,403 664,403 665,404 666,404 668,406 669,406 671,408 672,408 678,414 678,415 681,418 681,419 682,420 682,421 684,423 684,424 685,425 685,427 686,428 686,431 687,432 687,436 688,437 688,445 687,446 687,453 697,453 698,454 699,454 703,458 703,469 704,470 704,486 705,487 705,504 706,505 706,514 705,515 706,515 707,516 716,516 716,510 715,509 715,495 714,494 714,481 713,480 713,470 712,469 712,461 711,460 711,450 710,449 710,445 711,444 710,443 710,433 709,432 709,420 708,419 708,411 707,410 707,404 706,403 706,397 705,396 705,386 704,385 704,382 703,381 703,378 701,378 700,377 690,377 689,376 675,376 674,375 648,375 647,374 628,374 627,373" stroke="black" stroke-width="1" /><polyline fill="none" points="581,343 582,344 583,343 584,344 588,344 589,345 595,345 596,346 600,346 601,347 606,347 607,348 612,348 613,349 618,349 619,350 624,350 625,351 630,351 631,352 634,352 635,353 636,353 635,353 634,352 631,352 630,351 625,351 624,350 619,350 618,349 613,349 612,348 607,348 606,347 601,347 600,346 596,346 595,345 589,345 588,344 584,344 583,343 582,344" stroke="black" stroke-width="1" /><polyline fill="none" points="728,334 732,334 735,337 735,343 730,348 726,348 724,346 724,345 723,344 723,339" stroke="black" stroke-width="1" /><polyline fill="none" points="727,334 724,337 724,338 723,339 723,344 724,345 724,347 725,348 731,348 734,345 734,344 735,343 735,336 733,334" stroke="black" stroke-width="1" /><polyline fill="none" points="727,331 732,331 733,332 734,332 738,336 738,343 737,344 737,345 731,351 725,351 721,347 721,346 720,345 720,339 721,338 721,337" stroke="black" stroke-width="1" /><polyline fill="none" points="726,331 721,336 721,338 720,339 720,345 721,346 721,348 723,350 724,350 725,351 732,351 737,346 737,344 738,343 738,336 737,335 737,334 735,332 734,332 733,331" stroke="black" stroke-width="1" /><polyline fill="none" points="658,321 659,320 664,320 665,321 669,321 670,322 677,322 678,323 683,323 684,324 683,325 682,325 681,326 680,326 679,327 678,327 677,328 676,328 675,329 673,329 672,330 669,330 668,331 659,331 657,329 657,324 658,323" stroke="black" stroke-width="1" /><polyline fill="none" points="658,320 658,323 657,324 657,330 658,331 668,331 669,330 672,330 673,329 675,329 676,328 678,328 679,327 680,327 681,326 682,326 683,325 684,325 684,323 678,323 677,322 670,322 669,321 665,321 664,320" stroke="black" stroke-width="1" /><polyline fill="none" points="630,311 632,311 633,312 634,312 635,313 637,313 638,314 640,314 641,315 643,315 644,316 646,316 647,317 650,317 651,318 653,318 655,320 655,322 654,323 654,327 652,329 651,329 650,328 649,328 648,327 647,327 646,326 645,326 643,324 642,324 638,320 637,320 632,315 632,314 631,314 630,313 632,315 632,316 636,320 637,320 641,324 642,324 644,326 645,326 646,327 647,327 648,328 649,328 650,329 653,329 653,328 654,327 654,323 655,322 655,319 654,318 651,318 650,317 647,317 646,316 644,316 643,315 641,315 640,314 638,314 637,313 635,313 634,312 633,312 632,311" stroke="black" stroke-width="1" /><polyline fill="none" points="624,308 625,307 628,307 629,308 632,308 633,309 635,309 636,310 638,310 639,311 641,311 642,312 644,312 645,313 647,313 648,314 651,314 652,315 655,315 656,316 660,316 661,317 665,317 666,318 671,318 672,319 678,319 679,320 685,320 686,321 689,321 690,322 690,323 687,326 686,326 684,328 683,328 682,329 681,329 680,330 679,330 678,331 677,331 676,332 675,332 674,333 671,333 670,334 656,334 655,333 651,333 650,332 649,332 648,331 647,331 646,330 645,330 644,329 643,329 641,327 640,327 635,322 634,322 631,319 631,318 628,315 628,314 626,312 626,311 624,309" stroke="black" stroke-width="1" /><polyline fill="none" points="623,307 624,308 624,310 626,312 626,313 628,315 628,316 631,319 631,320 633,322 634,322 639,327 640,327 641,328 642,328 644,330 645,330 646,331 648,331 649,332 650,332 651,333 655,333 656,334 670,334 671,333 674,333 675,332 676,332 677,331 679,331 680,330 681,330 682,329 683,329 684,328 685,328 687,326 688,326 690,324 690,321 686,321 685,320 679,320 678,319 672,319 671,318 666,318 665,317 661,317 660,316 656,316 655,315 652,315 651,314 648,314 647,313 645,313 644,312 642,312 641,311 639,311 638,310 636,310 635,309 633,309 632,308 629,308 628,307" stroke="black" stroke-width="1" /><polyline fill="none" points="786,297 786,301 785,302 785,305 784,306 784,309 783,310 783,311 782,312 782,313 781,314 781,315 780,316 780,317 779,318 779,319 772,326 771,326 770,327 769,327 768,328 769,328 771,326 772,326 774,324 775,324 776,323 776,322 779,319 779,318 780,317 780,316 781,315 781,314 782,313 782,312 783,311 783,310 784,309 784,306 785,305 785,302 786,301" stroke="black" stroke-width="1" /><polyline fill="none" points="779,278 779,280 778,281 778,287 777,288 779,288 780,289 782,289 783,290 785,290 783,290 782,289 780,289 778,287 778,281 779,280" stroke="black" stroke-width="1" /><polyline fill="none" points="779,275 780,275 781,276 784,276 785,277 785,278 786,279 786,282 787,283 787,294 787,283 786,282 786,279 785,278 785,276 784,275 783,276 781,276 780,275" stroke="black" stroke-width="1" /><polyline fill="none" points="634,232 635,231 647,231 648,232 649,232 655,238 655,239 656,240 656,241 657,242 657,247 656,248 656,252 655,253 655,255 654,256 654,257 653,258 653,259 652,260 651,260 651,261 650,262 649,262 648,263 647,263 646,264 643,264 642,265 641,264 638,264 637,263 636,263 634,261 633,261 630,258 630,257 629,256 629,255 628,254 628,253 627,252 627,242 629,240 629,239 630,238 630,237 631,236 632,236 635,239 639,239 639,237 640,236 640,235 639,234 639,233 637,233 638,233 640,235 640,236 639,237 639,238 638,239 636,239 633,236 632,236 631,235 631,234 633,232" stroke="black" stroke-width="1" /><polyline fill="none" points="537,230 540,230 541,231 542,231 543,232 543,233 542,234 541,234 540,233 537,233 536,234 536,235 535,236 535,239 534,240 534,248 535,249 539,249 540,248 541,248 542,249 542,250 541,251 540,251 539,252 535,252 531,248 531,240 532,239 532,236 533,235 533,234" stroke="black" stroke-width="1" /><polyline fill="none" points="536,230 533,233 533,235 532,236 532,239 531,240 531,248 532,249 532,250 534,252 540,252 541,251 542,251 543,250 542,249 543,248 540,248 539,249 536,249 534,247 534,240 535,239 535,237 536,236 536,235 538,233 540,233 541,234 543,234 543,231 542,231 541,230" stroke="black" stroke-width="1" /><polyline fill="none" points="468,222 472,226 472,227 473,228 473,229 474,230 474,233 475,234 475,236 474,237 474,241 473,242 473,243 470,246 470,247 468,249 467,249 465,251 464,251 463,252 456,252 455,251 454,251 455,251 456,252 464,252 465,251 466,251 468,249 469,249 470,248 470,247 473,244 473,243 474,242 474,237 475,236 475,234 474,233 474,230 473,229 473,227 472,226 472,225 469,222" stroke="black" stroke-width="1" /><polyline fill="none" points="461,220 462,219 463,219 464,220 465,220 466,219 467,220 470,220 471,221 472,221 474,223 475,223 476,224 476,225 477,226 477,227 478,228 478,229 479,230 479,242 478,243 478,245 477,246 477,247 475,249 475,250 470,255 469,255 468,256 466,256 465,257 458,257 457,256 456,256 455,255 454,255 448,249 448,248 447,247 447,240 446,239 446,238 447,237 447,231 448,230 448,229 449,228 449,227 455,221 456,221 457,220" stroke="black" stroke-width="1" /><polyline fill="none" points="462,219 461,220 457,220 456,221 455,221 454,222 453,222 449,226 449,227 448,228 448,230 447,231 447,237 446,238 446,239 447,240 447,248 448,249 448,250 453,255 454,255 455,256 457,256 458,257 465,257 466,256 469,256 470,255 471,255 475,251 475,250 477,248 477,247 478,246 478,243 479,242 479,230 478,229 478,227 477,226 477,225 476,224 476,223 475,223 473,221 471,221 470,220 468,220 467,219 466,219 465,220 464,220 463,219" stroke="black" stroke-width="1" /><polyline fill="none" points="717,218 716,219 712,219 711,220 709,220 708,221 707,221 706,222 705,222 701,226 700,226 700,227 696,231 696,232 694,234 694,235 693,236 693,237 692,238 692,239 691,240 691,241 690,242 690,243 689,244 689,246 688,247 688,250 687,251 687,255 686,256 686,260 685,261 685,281 686,282 686,286 687,287 687,290 688,291 688,293 689,294 689,296 691,298 691,299 692,300 692,301 694,303 694,304 696,306 696,307 699,310 700,310 702,312 703,312 705,314 707,314 708,315 710,315 711,316 720,316 721,315 724,315 725,314 727,314 728,313 730,313 731,312 732,312 733,311 734,311 736,309 737,309 739,307 740,307 744,303 744,302 747,299 747,298 751,294 751,292 750,291 752,289 753,289 754,288 754,287 755,286 755,283 756,282 756,280 757,279 757,270 756,269 756,268 755,267 755,266 753,264 752,264 750,262 747,262 746,261 743,261 742,262 740,262 742,262 743,261 746,261 747,262 749,262 750,263 751,263 755,267 755,268 756,269 756,270 757,271 757,279 756,280 756,282 755,283 755,285 754,286 754,287 751,290 750,290 747,293 739,293 738,292 737,292 731,286 731,285 730,284 730,283 729,282 729,273 731,271 731,270 732,269 732,268 734,266 735,267 735,268 736,269 736,270 740,270 740,269 741,268 741,266 740,265 740,264 740,265 741,266 741,267 740,268 740,269 739,270 737,270 736,269 736,268 735,267 735,266 733,266 732,267 732,268 731,269 731,270 730,271 730,272 729,273 729,282 730,283 730,285 731,286 731,287 736,292 738,292 739,293 747,293 748,292 749,292 750,291 751,292 751,293 747,297 747,298 744,301 744,302 739,307 738,307 736,309 735,309 733,311 732,311 731,312 730,312 729,313 728,313 727,314 725,314 724,315 721,315 720,316 711,316 710,315 708,315 707,314 706,314 705,313 704,313 701,310 700,310 696,306 696,305 694,303 694,302 692,300 692,299 691,298 691,297 689,295 689,294 688,293 688,291 687,290 687,287 686,286 686,282 685,281 685,261 686,260 686,256 687,255 687,251 688,250 688,247 689,246 689,245 690,244 690,243 691,242 691,241 692,240 692,239 693,238 693,237 694,236 694,235 696,233 696,232 700,228 700,227 702,225 703,225 706,222 707,222 709,220 711,220 712,219 716,219 717,218 720,218 721,219 727,219 728,220 730,220 731,221 732,221 733,222 734,222 735,223 736,223 738,225 739,225 749,235 749,236 751,238 751,239 752,240 752,241 753,242 753,243 754,244 754,246 755,247 755,249 756,250 756,253 757,254 757,263 758,264 758,267 758,264 757,263 757,254 756,253 756,250 755,249 755,247 754,246 754,244 753,243 753,241 752,240 752,239 751,238 751,237 749,235 749,234 740,225 739,225 737,223 736,223 735,222 734,222 733,221 731,221 730,220 728,220 727,219 721,219 720,218" stroke="black" stroke-width="1" /><polyline fill="none" points="489,213 490,213 491,214 506,214 508,216 508,217 509,218 509,222 510,223 510,230 509,231 503,231 502,230 491,230 490,229 490,226 489,225 489,220 488,219 488,216 487,215" stroke="black" stroke-width="1" /><polyline fill="none" points="488,213 488,214 487,215 488,216 488,219 489,220 489,225 490,226 490,230 502,230 503,231 510,231 510,223 509,222 509,218 508,217 508,215 506,213 505,214 491,214 490,213" stroke="black" stroke-width="1" /><polyline fill="none" points="722,211 721,212 718,212 717,213 716,213 715,214 714,214 713,215 712,215 711,216 710,216 709,217 708,217 707,218 706,218 705,219 704,219 702,221 704,219 705,219 706,218 707,218 708,217 710,217 711,216 712,216 713,215 714,215 716,213 717,213 718,212 721,212 722,211 735,211 736,212 738,212 739,213 740,213 741,214 742,214 743,215 744,215 747,218 748,218 756,226 756,227 758,229 758,230 760,232 760,233 761,234 761,235 762,236 762,237 763,238 763,239 764,240 764,241 765,242 765,245 766,246 766,248 767,249 767,252 768,253 768,262 769,263 769,268 768,269 768,277 767,278 767,281 766,282 766,284 765,285 765,287 764,288 764,290 762,292 762,293 760,295 760,296 759,297 759,298 755,302 755,303 747,311 746,311 743,314 742,314 741,315 740,315 738,317 736,317 735,318 734,318 733,319 730,319 729,320 725,320 724,321 716,321 715,320 712,320 711,319 710,319 709,318 707,318 706,317 705,317 704,316 703,316 702,315 701,315 699,313 698,313 692,307 692,306 691,305 692,306 692,307 698,313 699,313 701,315 702,315 704,317 706,317 707,318 708,318 709,319 711,319 712,320 715,320 716,321 724,321 725,320 729,320 730,319 733,319 734,318 735,318 736,317 738,317 739,316 740,316 741,315 742,315 743,314 744,314 747,311 748,311 755,304 755,303 759,299 759,298 760,297 760,296 762,294 762,293 763,292 763,291 764,290 764,288 765,287 765,285 766,284 766,282 767,281 767,278 768,277 768,269 769,268 769,263 768,262 768,253 767,252 767,249 766,248 766,246 765,245 765,242 764,241 764,240 763,239 763,237 762,236 762,235 761,234 761,233 760,232 760,231 758,229 758,228 756,226 756,225 749,218 748,218 745,215 744,215 743,214 742,214 741,213 739,213 738,212 736,212 735,211" stroke="black" stroke-width="1" /><polyline fill="none" points="461,193 460,194 461,194 462,193 466,193 467,194 468,194 469,195 469,206 468,207 468,213 467,214 467,215 466,216 460,216 459,215 459,213 460,212 460,205 461,204 461,196 461,204 460,205 460,212 459,213 459,216 467,216 467,214 468,213 468,207 469,206 469,195 470,194 467,194 466,193" stroke="black" stroke-width="1" /><polyline fill="none" points="607,190 606,191 602,191 601,192 599,192 598,193 596,193 595,194 594,194 593,195 592,195 590,197 589,197 587,199 586,199 578,207 578,208 575,211 575,212 574,213 574,214 572,216 572,217 571,218 571,220 570,221 570,223 569,224 569,226 568,227 568,229 567,230 567,233 566,234 566,255 567,256 567,260 568,261 568,263 569,264 569,265 570,266 570,268 571,269 571,270 572,271 572,272 573,273 573,274 575,276 575,277 579,281 579,282 580,283 581,283 585,287 586,287 588,289 589,289 590,290 592,290 593,291 594,291 595,292 598,292 599,293 604,293 605,294 610,294 611,293 616,293 617,292 620,292 621,291 622,291 623,290 625,290 626,289 627,289 628,288 629,288 630,287 631,287 632,286 633,286 636,283 637,283 642,278 642,277 646,273 646,272 647,271 647,270 649,268 649,267 651,265 651,263 650,262 652,260 653,260 653,259 654,258 654,256 655,255 655,253 656,252 656,248 657,247 657,241 656,240 656,239 655,238 655,237 650,232 648,232 647,231 635,231 634,232 633,232 631,234 631,235 630,236 630,237 629,238 629,239 628,240 628,241 627,242 627,252 628,253 628,255 629,256 629,257 630,258 630,259 632,261 633,261 635,263 637,263 638,264 641,264 642,265 643,264 646,264 647,263 648,263 649,262 650,262 651,263 651,264 649,266 649,267 647,269 647,270 646,271 646,272 642,276 642,277 636,283 635,283 632,286 631,286 630,287 629,287 628,288 627,288 626,289 625,289 624,290 623,290 622,291 621,291 620,292 617,292 616,293 611,293 610,294 605,294 604,293 599,293 598,292 595,292 594,291 593,291 592,290 591,290 590,289 589,289 587,287 586,287 582,283 581,283 579,281 579,280 575,276 575,275 573,273 573,272 572,271 572,270 571,269 571,268 570,267 570,266 569,265 569,264 568,263 568,261 567,260 567,256 566,255 566,234 567,233 567,230 568,229 568,227 569,226 569,224 570,223 570,222 571,221 571,219 572,218 572,217 574,215 574,214 575,213 575,212 578,209 578,208 587,199 588,199 590,197 591,197 593,195 594,195 596,193 598,193 599,192 601,192 602,191 606,191 607,190 617,190 618,191 622,191 623,192 626,192 627,193 628,193 629,194 630,194 631,195 632,195 633,196 634,196 636,198 637,198 649,210 649,211 650,212 650,213 651,214 651,215 652,216 652,217 653,218 653,219 654,220 654,222 655,223 655,226 656,227 656,231 657,232 657,237 657,232 656,231 656,227 655,226 655,223 654,222 654,220 653,219 653,217 652,216 652,215 651,214 651,213 650,212 650,211 649,210 649,209 638,198 637,198 635,196 634,196 633,195 632,195 631,194 630,194 629,193 627,193 626,192 623,192 622,191 618,191 617,190" stroke="black" stroke-width="1" /><polyline fill="none" points="460,190 464,190 465,191 470,191 465,191 464,190" stroke="black" stroke-width="1" /><polyline fill="none" points="614,183 613,184 610,184 609,185 605,185 604,186 602,186 601,187 599,187 598,188 597,188 595,190 594,190 592,192 591,192 589,194 588,194 586,196 585,196 576,205 584,197 585,197 588,194 589,194 590,193 591,193 593,191 594,191 595,190 596,190 598,188 599,188 600,187 601,187 602,186 604,186 605,185 609,185 610,184 613,184 614,183 625,183 626,184 629,184 630,185 633,185 634,186 635,186 636,187 637,187 638,188 639,188 640,189 641,189 642,190 643,190 645,192 646,192 657,203 657,204 659,206 659,207 660,208 660,209 661,210 661,211 662,212 662,213 663,214 663,215 664,216 664,219 665,220 665,223 666,224 666,227 667,228 667,247 666,248 666,251 665,252 665,255 664,256 664,258 663,259 663,261 662,262 662,263 661,264 661,265 660,266 660,267 659,268 659,269 657,271 657,272 655,274 655,275 651,279 651,280 648,283 647,283 643,287 642,287 640,289 639,289 637,291 636,291 635,292 634,292 633,293 632,293 631,294 630,294 629,295 628,295 627,296 625,296 624,297 621,297 620,298 604,298 603,297 601,297 600,296 597,296 596,295 595,295 594,294 592,294 591,293 589,293 588,292 587,292 585,290 584,290 581,287 584,290 585,290 587,292 588,292 589,293 590,293 591,294 593,294 594,295 596,295 597,296 600,296 601,297 603,297 604,298 620,298 621,297 624,297 625,296 627,296 628,295 630,295 631,294 632,294 633,293 634,293 635,292 636,292 637,291 638,291 640,289 641,289 643,287 644,287 649,282 650,282 650,281 655,276 655,275 657,273 657,272 658,271 658,270 660,268 660,267 661,266 661,265 662,264 662,262 663,261 663,259 664,258 664,256 665,255 665,252 666,251 666,248 667,247 667,228 666,227 666,224 665,223 665,220 664,219 664,216 663,215 663,213 662,212 662,211 661,210 661,209 660,208 660,207 659,206 659,205 657,203 657,202 647,192 646,192 644,190 643,190 642,189 641,189 640,188 639,188 638,187 636,187 635,186 634,186 633,185 630,185 629,184 626,184 625,183" stroke="black" stroke-width="1" /><polyline fill="none" points="463,168 463,170 464,171 463,172 464,171 465,172 465,176 465,172 463,170 463,169 464,168 470,168 472,170 472,176 471,177 471,183 471,177 472,176 472,169 471,169 470,168" stroke="black" stroke-width="1" /><polyline fill="none" points="556,155 555,156 544,156 543,157 542,157 541,158 541,161 540,162 540,166 539,167 539,171 538,172 538,177 537,178 537,182 536,183 536,187 535,188 535,193 534,194 534,199 533,200 533,204 532,205 532,211 531,212 531,216 530,217 530,222 529,223 529,227 528,228 528,235 527,236 527,244 526,245 526,252 525,253 525,258 524,259 524,264 523,265 523,270 522,271 522,277 521,278 521,284 520,285 520,291 519,292 519,296 518,297 518,303 517,304 517,308 516,309 516,316 515,317 515,320 514,321 515,322 515,323 516,323 517,324 520,324 521,325 524,325 525,326 528,326 529,327 533,327 534,328 537,328 538,329 541,329 542,330 545,330 546,331 549,331 550,332 554,332 555,333 559,333 560,334 563,334 564,335 567,335 568,336 572,336 573,337 577,337 578,338 582,338 583,339 588,339 589,340 594,340 595,341 598,341 599,342 603,342 604,343 609,343 610,344 614,344 615,345 619,345 620,346 626,346 627,347 631,347 632,348 635,348 636,349 641,349 642,350 647,350 648,351 652,351 653,352 658,352 659,353 663,353 664,354 669,354 670,355 675,355 676,356 682,356 683,357 689,357 690,358 696,358 697,359 703,359 704,360 712,360 713,361 722,361 723,362 732,362 733,363 754,363 755,364 756,363 756,361 757,360 757,357 758,356 758,354 759,353 759,351 760,350 760,347 761,346 761,343 762,342 762,339 763,338 763,335 764,334 764,332 765,331 765,330 766,329 766,325 767,324 767,322 768,321 768,317 769,316 769,312 770,311 770,307 771,306 771,302 772,301 772,297 773,296 773,292 774,291 774,285 775,284 775,279 776,278 776,275 777,274 777,273 778,272 778,269 779,268 780,268 781,267 782,268 783,268 785,270 785,271 787,273 787,274 788,275 788,277 789,278 789,281 790,282 790,296 789,297 789,302 788,303 788,306 787,307 787,309 786,310 786,312 785,313 785,315 783,317 783,318 782,319 782,320 780,322 780,323 775,328 774,328 772,330 771,330 770,331 769,331 768,330 769,331 767,333 767,336 766,337 766,340 765,341 765,343 764,344 764,347 763,348 763,351 762,352 762,354 761,355 761,358 760,359 760,361 759,362 759,364 756,367 750,367 749,366 731,366 730,365 721,365 720,364 711,364 710,363 702,363 701,362 694,362 693,361 684,361 683,360 674,360 673,359 666,359 665,358 657,358 656,357 648,357 647,356 641,356 640,355 638,355 637,356 637,366 638,367 641,367 642,368 650,368 651,369 660,369 661,370 668,370 669,371 676,371 677,372 683,372 684,373 691,373 692,374 700,374 701,375 704,375 706,377 706,379 707,380 707,382 708,383 709,383 710,384 711,384 712,385 713,385 715,387 716,387 720,391 720,392 723,395 723,396 724,397 724,398 725,399 725,400 726,401 726,402 727,403 727,407 728,408 728,422 729,422 733,426 734,426 743,435 744,435 751,442 750,443 750,444 746,448 746,449 741,454 741,455 738,458 738,459 735,462 736,462 738,460 738,459 741,456 741,455 746,450 746,449 749,446 749,445 750,444 750,443 751,442 752,443 753,443 758,448 759,448 765,454 765,455 764,456 764,457 765,456 765,454 766,453 767,453 773,447 774,447 775,446 780,446 781,447 784,447 785,448 787,448 788,449 790,449 791,450 793,450 794,451 795,451 796,452 798,452 799,453 800,453 801,454 802,454 803,455 805,455 806,456 807,456 808,457 809,457 810,458 811,458 812,459 813,459 816,462 816,463 814,465 814,466 816,464 816,461 814,459 813,459 812,458 811,458 810,457 809,457 808,456 806,456 805,455 804,455 803,454 801,454 800,453 799,453 798,452 797,452 796,451 794,451 793,450 791,450 790,449 788,449 787,448 785,448 784,447 781,447 780,446 775,446 774,447 772,447 766,453 765,453 760,448 759,448 754,443 753,443 745,435 744,435 735,426 734,426 730,422 729,422 728,421 728,408 727,407 727,403 726,402 726,400 725,399 725,398 724,397 724,396 723,395 723,394 720,391 720,390 717,387 716,387 714,385 713,385 712,384 710,384 707,381 707,380 706,379 706,376 705,375 701,375 700,374 692,374 691,373 684,373 683,372 677,372 676,371 669,371 668,370 661,370 660,369 651,369 650,368 642,368 641,367 638,367 637,366 637,357 639,355 640,355 641,356 647,356 648,357 656,357 657,358 665,358 666,359 673,359 674,360 683,360 684,361 693,361 694,362 701,362 702,363 710,363 711,364 720,364 721,365 730,365 731,366 749,366 750,367 757,367 758,366 758,365 759,364 759,362 760,361 760,359 761,358 761,355 762,354 762,352 763,351 763,348 764,347 764,344 765,343 765,341 766,340 766,337 767,336 767,334 768,333 768,332 769,331 771,331 772,330 773,330 775,328 776,328 780,324 780,323 782,321 782,320 783,319 783,318 784,317 784,316 785,315 785,313 786,312 786,310 787,309 787,307 788,306 788,303 789,302 789,297 790,296 790,282 789,281 789,278 788,277 788,275 787,274 787,272 785,270 785,269 784,268 783,268 781,266 781,257 782,256 782,246 783,245 783,223 777,217 776,217 768,209 767,209 762,204 761,204 756,199 755,199 752,196 751,196 748,193 747,193 745,191 744,191 742,189 741,189 739,187 738,187 737,186 736,186 734,184 733,184 731,182 730,182 729,181 728,181 726,179 725,179 724,178 723,178 722,177 721,177 720,176 719,176 718,175 717,175 716,174 714,174 713,173 712,173 711,172 709,172 708,171 707,171 706,170 704,170 703,169 702,169 703,169 704,170 706,170 707,171 708,171 709,172 710,172 711,173 713,173 714,174 715,174 716,175 717,175 718,176 719,176 720,177 721,177 722,178 723,178 724,179 725,179 727,181 728,181 729,182 730,182 732,184 733,184 735,186 736,186 737,187 738,187 740,189 741,189 743,191 744,191 746,193 747,193 749,195 750,195 754,199 755,199 759,203 760,203 766,209 767,209 775,217 776,217 783,224 783,245 782,246 782,256 781,257 781,265 780,266 781,267 780,268 779,268 778,267 778,257 779,256 779,246 780,245 780,225 774,219 773,219 767,213 766,213 760,207 759,207 756,204 755,204 752,201 751,201 748,198 747,198 744,195 743,195 741,193 740,193 738,191 737,191 735,189 734,189 733,188 732,188 730,186 729,186 728,185 727,185 726,184 725,184 724,183 723,183 722,182 721,182 720,181 719,181 718,180 716,180 715,179 714,179 713,178 711,178 710,177 709,177 708,176 707,176 706,175 704,175 703,174 701,174 700,173 699,173 698,172 696,172 695,171 693,171 692,170 688,170 687,169 684,169 683,168 681,168 680,169 679,169 679,172 680,173 680,177 681,178 681,179 682,180 684,180 685,181 689,181 690,182 692,182 693,183 694,183 695,184 698,184 699,185 700,185 701,186 702,186 703,187 705,187 706,188 707,188 708,189 709,189 710,190 711,190 712,191 714,191 715,192 716,192 717,193 718,193 720,195 721,195 722,196 723,196 724,197 725,197 727,199 728,199 730,201 731,201 732,202 733,202 735,204 736,204 738,206 739,206 743,210 744,210 749,215 750,215 760,225 760,226 763,229 763,230 764,231 764,232 766,234 766,236 767,237 767,239 767,237 766,236 766,234 765,233 765,232 764,231 764,230 763,229 763,228 760,225 760,224 752,216 751,216 745,210 744,210 741,207 740,207 737,204 736,204 735,203 734,203 732,201 731,201 729,199 728,199 726,197 725,197 724,196 723,196 722,195 721,195 719,193 718,193 717,192 715,192 714,191 713,191 712,190 711,190 710,189 708,189 707,188 706,188 705,187 704,187 703,186 701,186 700,185 699,185 698,184 696,184 695,183 693,183 692,182 690,182 689,181 685,181 684,180 683,180 680,177 680,173 679,172 679,170 681,168 683,168 684,169 687,169 688,170 692,170 693,171 695,171 696,172 698,172 699,173 700,173 701,174 703,174 704,175 705,175 706,176 707,176 708,177 710,177 711,178 712,178 713,179 715,179 716,180 717,180 718,181 719,181 720,182 721,182 722,183 723,183 724,184 725,184 726,185 727,185 728,186 729,186 731,188 732,188 733,189 734,189 736,191 737,191 739,193 740,193 742,195 743,195 746,198 747,198 749,200 750,200 754,204 755,204 758,207 759,207 765,213 766,213 772,219 773,219 780,226 780,245 779,246 779,256 778,257 778,272 777,273 777,274 776,275 776,278 775,279 775,284 774,285 774,291 773,292 773,296 772,297 772,301 771,302 771,306 770,307 770,311 769,312 769,316 768,317 768,321 767,322 767,324 766,325 766,329 765,330 765,331 764,332 764,334 763,335 763,338 762,339 762,342 761,343 761,346 760,347 760,350 759,351 759,353 758,354 758,356 757,357 757,360 756,361 756,362 755,363 748,363 747,362 747,361 748,360 748,358 749,357 749,355 750,354 750,351 751,350 751,348 752,347 752,344 753,343 753,341 754,340 754,338 755,337 755,334 756,333 756,330 757,329 757,326 758,325 758,323 759,322 759,320 760,319 760,316 761,315 761,312 762,311 762,308 763,307 763,303 764,302 764,298 765,297 765,293 765,297 764,298 764,302 763,303 763,307 762,308 762,311 761,312 761,315 760,316 760,319 759,320 759,322 758,323 758,325 757,326 757,329 756,330 756,333 755,334 755,337 754,338 754,340 753,341 753,343 752,344 752,347 751,348 751,350 750,351 750,354 749,355 749,357 748,358 748,360 747,361 747,362 746,363 733,363 732,362 723,362 722,361 713,361 712,360 704,360 703,359 697,359 696,358 690,358 689,357 683,357 682,356 676,356 675,355 670,355 669,354 664,354 663,353 659,353 658,352 653,352 652,351 648,351 647,350 642,350 641,349 636,349 635,348 632,348 631,347 627,347 626,346 620,346 619,345 615,345 614,344 610,344 609,343 604,343 603,342 599,342 598,341 595,341 594,340 589,340 588,339 583,339 582,338 578,338 577,337 573,337 572,336 568,336 567,335 564,335 563,334 560,334 559,333 555,333 554,332 550,332 549,331 546,331 545,330 542,330 541,329 538,329 537,328 534,328 533,327 529,327 528,326 525,326 524,325 521,325 520,324 517,324 514,321 515,320 515,317 516,316 516,309 517,308 517,304 518,303 518,297 519,296 519,292 520,291 520,285 521,284 521,278 522,277 522,271 523,270 523,265 524,264 524,259 525,258 525,253 526,252 526,245 527,244 527,236 528,235 528,228 529,227 529,223 530,222 530,217 531,216 531,212 532,211 532,205 533,204 533,200 534,199 534,194 535,193 535,188 536,187 536,183 537,182 537,178 538,177 538,172 539,171 539,167 540,166 540,162 541,161 541,158 542,157 543,157 544,156 555,156 556,155 563,155" stroke="black" stroke-width="1" /><polyline fill="none" points="624,132 634,132 635,133 641,133 642,134 647,134 648,135 652,135 653,136 655,136 656,137 659,137 660,138 661,138 665,142 665,143 666,144 666,146 665,147 658,147 657,146 654,146 653,145 649,145 648,144 645,144 644,143 638,143 637,142 629,142 628,141 625,141 621,137 621,136 622,135 622,134" stroke="black" stroke-width="1" /><polyline fill="none" points="623,132 622,133 622,134 621,135 621,137 622,138 622,139 623,140 624,140 625,141 628,141 629,142 637,142 638,143 644,143 645,144 648,144 649,145 653,145 654,146 657,146 658,147 666,147 666,143 665,142 665,141 662,138 660,138 659,137 656,137 655,136 653,136 652,135 648,135 647,134 642,134 641,133 635,133 634,132" stroke="black" stroke-width="1" /><polyline fill="none" points="609,129 608,130 602,130 601,131 597,131 596,132 592,132 591,133 589,133 588,134 586,134 585,135 583,135 582,136 580,136 579,137 578,137 577,138 576,138 575,139 574,139 573,140 572,140 570,142 569,142 566,145 566,146 565,147 565,148 564,149 564,150 563,151 563,152 563,151 565,149 565,148 566,147 566,146 570,142 571,142 573,140 574,140 575,139 576,139 577,138 578,138 579,137 580,137 581,136 582,136 583,135 585,135 586,134 588,134 589,133 591,133 592,132 596,132 597,131 601,131 602,130 608,130 609,129 635,129 636,130 642,130 643,131 648,131 649,132 652,132 653,133 656,133 657,134 659,134 660,135 662,135 663,136 664,136 665,137 666,137 667,138 668,138 669,139 671,139 672,140 673,140 674,141 675,141 676,142 677,142 678,143 679,143 681,145 682,145 684,147 685,147 688,150 689,150 699,160 699,161 700,162 700,163 701,164 701,166 700,167 695,167 694,166 692,166 691,165 689,165 688,164 685,164 684,163 681,163 680,162 675,162 674,161 669,161 668,160 664,160 663,159 659,159 658,158 654,158 653,157 646,157 645,156 641,156 640,155 627,155 626,154 619,154 618,153 615,153 614,152 614,147 615,146 615,145 616,144 616,143 617,142 617,141 619,139 618,139 617,140 617,141 616,142 616,143 615,144 615,146 614,147 614,151 613,152 612,152 611,153 609,153 608,152 565,152 608,152 609,153 611,153 612,152 614,152 615,153 618,153 619,154 626,154 627,155 640,155 641,156 645,156 646,157 653,157 654,158 658,158 659,159 663,159 664,160 668,160 669,161 674,161 675,162 680,162 681,163 684,163 685,164 688,164 689,165 691,165 692,166 694,166 695,167 699,167 700,168 701,167 701,164 700,163 700,161 699,160 699,159 690,150 689,150 686,147 685,147 683,145 682,145 680,143 679,143 678,142 677,142 676,141 675,141 674,140 672,140 671,139 670,139 669,138 668,138 667,137 666,137 665,136 663,136 662,135 660,135 659,134 657,134 656,133 653,133 652,132 649,132 648,131 643,131 642,130 636,130 635,129" stroke="black" stroke-width="1" /><polyline fill="none" points="480,85 481,86 482,86 485,89 485,90 486,91 486,94 485,95 484,95 483,96 481,96 478,93 478,92 477,91 477,88" stroke="black" stroke-width="1" /><polyline fill="none" points="480,85 479,86 478,86 477,87 477,92 478,93 478,94 480,96 484,96 486,94 486,90 485,89 485,88 483,86 481,86" stroke="black" stroke-width="1" /><polyline fill="none" points="470,82 469,83 467,83 466,84 465,84 463,86 462,86 461,87 461,88 459,90 459,91 458,92 458,95 457,96 457,98 458,99 458,102 459,103 459,104 464,109 466,109 467,110 466,109 465,109 464,108 463,108 460,105 460,104 458,102 458,99 457,98 457,96 458,95 458,93 459,92 459,91 460,90 460,89 465,84 466,84 467,83 469,83 470,82 475,82 476,83 477,83 476,83 475,82" stroke="black" stroke-width="1" /><polyline fill="none" points="470,79 469,80 466,80 465,81 464,81 463,82 462,82 457,87 457,88 456,89 456,91 455,92 455,95 454,96 454,99 455,100 455,103 456,104 456,105 457,106 457,107 461,111 463,111 464,112 465,112 467,114 467,124 466,125 466,135 465,136 465,140 464,141 464,152 463,153 463,163 460,166 459,166 459,179 458,180 458,189 457,190 457,209 450,216 450,217 449,218 449,219 447,221 447,222 446,223 446,225 445,226 445,229 444,230 444,234 443,235 443,241 444,242 444,251 445,252 445,257 446,258 446,260 447,261 447,263 448,264 448,265 449,266 449,267 450,268 450,269 452,271 452,272 455,275 456,275 457,276 458,276 459,277 460,277 462,279 462,282 461,283 461,295 460,296 460,304 459,305 459,310 460,311 461,311 462,312 465,312 466,313 468,313 469,314 472,314 473,315 475,315 476,316 479,316 480,317 482,317 483,318 486,318 487,319 489,319 490,320 493,320 494,321 496,321 497,322 500,322 501,323 503,323 504,324 507,324 508,325 510,325 511,326 513,326 514,327 518,327 519,328 522,328 523,329 526,329 527,330 530,330 531,331 534,331 535,332 537,332 538,333 541,333 542,334 545,334 546,335 549,335 550,336 553,336 554,337 557,337 558,338 561,338 562,339 565,339 566,340 569,340 570,341 573,341 574,342 577,342 580,345 580,365 579,366 578,366 577,367 569,367 568,368 561,368 560,369 553,369 552,370 546,370 545,371 540,371 539,372 533,372 532,373 525,373 524,374 519,374 518,375 513,375 512,376 507,376 506,377 506,379 505,380 505,381 506,382 506,383 503,386 502,386 494,394 494,395 493,396 493,397 492,398 492,399 491,400 491,402 490,403 490,405 489,406 489,421 490,422 489,423 489,424 473,440 473,441 462,452 462,453 457,458 455,456 454,456 453,455 451,455 450,454 448,454 447,455 445,455 443,457 442,457 439,460 438,460 434,464 433,464 429,468 428,468 419,477 419,479 418,480 423,485 419,489 419,490 417,492 417,494 416,495 416,498 415,499 415,506 416,507 416,510 417,511 417,512 418,513 418,514 419,515 419,516 425,522 426,522 428,524 430,524 431,525 434,525 435,526 441,526 442,525 444,525 445,524 447,524 448,523 449,523 455,517 458,520 459,520 460,521 465,521 474,512 474,511 478,507 478,506 480,504 480,503 482,501 482,500 484,498 484,497 485,496 485,495 486,494 486,492 487,491 487,488 486,487 486,485 485,484 485,483 480,478 481,477 481,476 487,470 487,469 494,462 494,461 497,458 498,459 498,514 499,515 499,516 500,516 501,517 516,517 517,518 520,518 522,520 523,520 528,525 529,525 531,527 532,527 534,529 535,529 537,531 538,531 540,533 541,533 542,534 543,534 544,535 545,535 546,536 547,536 548,537 549,537 550,538 551,538 552,539 554,539 555,540 556,540 557,541 558,541 559,542 561,542 562,543 564,543 565,544 567,544 568,545 570,545 581,556 581,557 584,560 584,561 589,566 589,567 592,570 592,571 595,574 595,577 594,578 594,579 592,581 592,582 590,584 588,584 587,583 579,583 578,584 574,584 573,585 571,585 570,586 568,586 567,587 566,587 564,589 563,589 561,591 560,591 557,594 556,594 549,601 549,602 548,603 548,606 551,609 552,609 557,614 558,614 561,617 562,617 566,621 567,621 568,622 569,622 571,624 572,624 573,625 574,625 576,627 577,627 579,629 580,629 581,630 582,630 583,631 584,631 585,632 586,632 588,634 590,634 591,635 593,635 594,636 595,636 596,637 598,637 599,638 600,638 601,639 604,639 605,640 607,640 608,641 611,641 612,642 616,642 617,643 622,643 623,644 634,644 634,642 635,641 635,623 634,622 634,619 633,618 633,614 634,613 635,613 636,612 637,612 638,611 640,611 641,610 642,610 643,609 644,609 645,608 646,608 647,607 648,607 649,606 650,606 651,605 652,605 653,604 654,604 655,603 656,603 657,602 658,602 659,601 660,601 661,600 662,600 664,598 665,598 667,596 668,596 670,594 671,594 673,592 674,592 676,590 677,590 679,588 679,584 677,582 677,581 675,579 675,578 669,572 668,572 665,569 664,569 662,567 661,567 660,566 659,566 658,565 656,565 655,564 654,564 653,563 650,563 649,562 645,562 644,561 641,561 640,560 640,557 641,556 641,554 642,553 642,552 643,551 643,550 646,547 649,547 650,546 653,546 654,545 656,545 657,544 659,544 660,543 662,543 663,542 665,542 666,541 667,541 668,540 670,540 671,539 672,539 673,538 674,538 675,537 676,537 677,536 678,536 679,535 680,535 681,534 682,534 683,533 684,533 686,531 687,531 689,529 690,529 693,526 694,526 699,521 700,521 701,520 710,520 711,519 718,519 719,518 719,511 718,510 718,495 717,494 717,480 716,479 716,468 715,467 715,457 714,456 714,449 714,456 715,457 715,467 716,468 716,479 717,480 717,494 718,495 718,510 719,511 719,517 717,519 711,519 710,520 700,520 699,521 698,521 693,526 692,526 689,529 688,529 686,531 685,531 683,533 682,533 681,534 680,534 679,535 678,535 677,536 676,536 674,538 672,538 670,540 668,540 667,541 666,541 665,542 663,542 662,543 660,543 659,544 657,544 656,545 654,545 653,546 650,546 649,547 645,547 643,549 643,551 642,552 642,553 641,554 641,556 640,557 640,561 644,561 645,562 649,562 650,563 653,563 654,564 655,564 656,565 657,565 658,566 659,566 660,567 661,567 663,569 664,569 667,572 668,572 675,579 675,580 677,582 677,583 679,585 679,587 676,590 675,590 673,592 672,592 669,595 668,595 667,596 666,596 664,598 663,598 661,600 660,600 659,601 658,601 657,602 656,602 655,603 654,603 653,604 652,604 651,605 650,605 649,606 648,606 647,607 646,607 645,608 644,608 643,609 642,609 641,610 640,610 639,611 638,611 637,612 635,612 634,613 633,613 633,618 634,619 634,622 635,623 635,641 634,642 634,643 633,644 623,644 622,643 617,643 616,642 612,642 611,641 608,641 607,640 605,640 604,639 601,639 600,638 599,638 598,637 596,637 595,636 594,636 593,635 592,635 591,634 589,634 587,632 586,632 585,631 584,631 583,630 582,630 581,629 580,629 578,627 577,627 575,625 574,625 573,624 572,624 570,622 569,622 568,621 567,621 563,617 562,617 559,614 558,614 553,609 552,609 548,605 548,604 549,603 549,602 557,594 558,594 561,591 562,591 564,589 565,589 567,587 568,587 569,586 570,586 571,585 573,585 574,584 578,584 579,583 587,583 588,584 591,584 592,583 592,582 594,580 594,579 595,578 595,574 594,573 594,572 592,570 592,569 589,566 589,565 584,560 584,559 581,556 581,555 571,545 568,545 567,544 565,544 564,543 562,543 561,542 560,542 559,541 557,541 556,540 555,540 554,539 553,539 552,538 551,538 550,537 549,537 548,536 547,536 546,535 545,535 544,534 543,534 542,533 541,533 539,531 538,531 536,529 535,529 533,527 532,527 530,525 529,525 524,520 523,520 521,518 517,518 516,517 501,517 498,514 498,459 497,458 507,448 508,449 509,449 511,451 514,451 515,452 517,452 518,453 523,453 524,454 531,454 532,453 535,453 536,452 538,452 539,451 540,451 541,450 542,450 544,448 545,448 547,446 548,446 550,444 550,443 554,439 554,438 556,436 556,435 557,434 557,431 558,430 558,428 559,427 559,423 560,422 560,413 559,412 559,408 558,407 558,404 557,403 557,401 556,400 556,399 555,398 555,397 553,395 553,394 551,392 551,391 547,387 546,387 543,384 542,384 540,382 538,382 537,381 536,381 535,380 533,380 532,379 517,379 516,380 513,380 512,381 511,381 510,382 508,382 510,382 511,381 512,381 513,380 516,380 517,379 532,379 533,380 535,380 536,381 537,381 538,382 539,382 541,384 542,384 545,387 546,387 552,393 552,394 554,396 554,397 555,398 555,399 556,400 556,401 557,402 557,403 558,404 558,407 559,408 559,412 560,413 560,422 559,423 559,427 558,428 558,430 557,431 557,433 556,434 556,435 555,436 555,437 550,442 550,443 547,446 546,446 544,448 543,448 541,450 540,450 538,452 536,452 535,453 532,453 531,454 524,454 523,453 518,453 517,452 515,452 514,451 512,451 510,449 508,449 507,448 506,448 494,460 494,461 487,468 487,469 481,475 481,476 479,478 480,478 481,479 481,480 485,484 485,485 486,486 486,487 487,488 487,491 486,492 486,493 485,494 485,495 484,496 484,497 482,499 482,500 480,502 480,503 478,505 478,506 474,510 474,511 464,521 461,521 460,520 459,520 457,518 456,518 455,517 455,510 454,509 454,508 452,506 452,505 447,500 447,499 446,499 444,497 443,497 442,496 441,496 437,492 436,492 434,490 433,490 431,488 430,488 428,486 427,486 426,485 423,485 422,484 422,483 419,480 419,478 429,468 430,468 435,463 436,463 439,460 440,460 443,457 444,457 446,455 447,455 448,454 450,454 451,455 452,455 453,456 454,456 455,457 456,457 458,459 458,460 460,462 461,462 464,465 465,465 468,468 468,469 469,470 469,471 476,478 476,479 479,482 479,483 480,484 481,484 482,485 482,486 483,487 483,488 484,489 483,490 483,492 482,493 482,494 481,495 481,496 478,499 478,500 476,502 476,503 473,506 473,507 465,515 465,516 464,517 463,517 462,518 463,518 466,515 466,514 473,507 473,506 476,503 476,502 479,499 479,498 481,496 481,495 482,494 482,493 483,492 483,490 484,489 483,488 483,487 482,486 482,485 479,482 479,481 476,478 476,477 477,476 476,477 469,470 469,469 468,468 468,467 466,465 465,465 462,462 461,462 458,459 458,458 462,454 462,453 473,442 473,441 489,425 489,423 490,422 489,421 489,406 490,405 490,403 491,402 491,401 492,400 492,399 493,398 493,397 494,396 494,395 504,385 505,385 506,384 506,382 505,381 505,380 506,379 506,378 508,376 512,376 513,375 518,375 519,374 524,374 525,373 532,373 533,372 539,372 540,371 545,371 546,370 552,370 553,369 560,369 561,368 568,368 569,367 578,367 580,365 581,366 581,367 592,367 593,366 596,366 597,365 598,365 599,364 601,364 602,363 606,363 607,362 614,362 615,361 633,361 634,362 634,367 633,368 600,368 636,368 635,368 634,367 634,361 615,361 614,362 607,362 606,363 602,363 601,364 599,364 598,365 597,365 596,366 593,366 592,367 582,367 580,365 580,345 579,344 579,343 578,343 577,342 574,342 573,341 570,341 569,340 566,340 565,339 562,339 561,338 558,338 557,337 554,337 553,336 550,336 549,335 546,335 545,334 542,334 541,333 538,333 537,332 535,332 534,331 531,331 530,330 527,330 526,329 523,329 522,328 519,328 518,327 514,327 513,326 511,326 510,325 508,325 507,324 504,324 503,323 501,323 500,322 497,322 496,321 494,321 493,320 490,320 489,319 487,319 486,318 483,318 482,317 480,317 479,316 476,316 475,315 473,315 472,314 469,314 468,313 466,313 465,312 462,312 459,309 459,305 460,304 460,296 461,295 461,283 462,282 462,280 463,279 467,279 468,280 470,280 471,281 474,281 475,282 479,282 480,283 486,283 487,284 489,284 490,283 493,283 495,281 496,281 496,280 498,278 499,278 500,277 500,276 502,274 502,273 504,271 504,270 505,269 505,268 507,266 507,264 508,263 508,262 509,261 509,259 510,258 510,255 511,254 511,252 512,251 512,247 513,246 513,237 514,236 514,230 513,229 513,222 512,221 512,218 511,217 511,214 509,212 509,210 507,208 507,207 502,202 500,202 499,201 493,201 492,200 483,200 482,199 478,199 482,199 483,200 492,200 493,201 499,201 500,202 501,202 507,208 507,209 509,211 509,212 510,213 510,214 511,215 511,217 512,218 512,221 513,222 513,229 514,230 514,236 513,237 513,246 512,247 512,251 511,252 511,254 510,255 510,258 509,259 509,261 507,263 507,265 505,267 505,268 504,269 504,270 502,272 502,273 500,275 500,276 497,279 496,279 496,280 495,281 494,281 492,283 490,283 489,284 487,284 486,283 480,283 479,282 475,282 474,281 471,281 470,280 468,280 467,279 463,279 461,277 459,277 457,275 456,275 452,271 452,270 450,268 450,267 449,266 449,265 448,264 448,263 447,262 447,261 446,260 446,258 445,257 445,252 444,251 444,242 443,241 443,235 444,234 444,230 445,229 445,226 446,225 446,224 447,223 447,222 449,220 449,219 450,218 450,217 457,210 457,191 458,190 458,180 459,179 459,167 461,165 462,165 463,164 463,153 464,152 464,142 465,141 465,136 466,135 466,125 467,124 467,113 466,112 464,112 463,111 462,111 457,106 457,105 455,103 455,100 454,99 454,96 455,95 455,92 456,91 456,90 457,89 457,88 463,82 464,82 466,80 469,80 470,79 476,79 477,80 479,80 481,82 482,82 483,83 484,83 488,87 488,88 489,89 489,90 490,91 490,93 491,94 491,102 490,103 490,104 489,105 489,106 483,112 482,112 481,113 477,113 476,112 478,110 481,110 482,109 483,109 486,106 486,105 487,104 487,103 488,102 488,96 488,102 487,103 487,104 482,109 481,109 480,110 478,110 477,111 470,111 469,112 470,111 475,111 477,113 477,114 476,115 476,127 475,128 475,140 474,141 475,142 475,144 474,145 472,143 469,143 468,142 469,141 472,141 469,141 468,140 467,140 468,141 468,143 467,144 468,144 469,143 471,143 472,144 473,144 474,145 474,157 473,158 473,164 471,166 469,166 468,165 465,165 468,165 469,166 471,166 472,165 475,168 475,176 474,177 474,184 473,185 473,190 472,191 472,200 475,200 476,199 476,194 477,193 477,190 478,189 478,186 479,185 479,181 480,180 480,177 481,176 481,173 482,172 482,168 485,165 487,165 488,164 491,164 492,163 495,163 496,162 499,162 500,161 504,161 505,160 508,160 509,159 514,159 515,158 520,158 521,157 525,157 526,156 532,156 533,155 538,155 539,154 542,154 543,153 551,153 552,152 561,152 552,152 551,153 543,153 542,154 539,154 538,155 533,155 532,156 526,156 525,157 521,157 520,158 515,158 514,159 509,159 508,160 505,160 504,161 500,161 499,162 496,162 495,163 492,163 491,164 488,164 487,165 484,165 483,166 483,167 482,168 482,172 481,173 481,176 480,177 480,180 479,181 479,185 478,186 478,189 477,190 477,193 476,194 476,198 474,200 473,200 472,199 472,191 473,190 473,185 474,184 474,177 475,176 475,167 473,165 473,158 474,157 474,146 475,145 475,128 476,127 476,115 478,113 481,113 482,112 484,112 489,107 489,106 490,105 490,103 491,102 491,93 490,92 490,90 489,89 489,88 488,87 488,86 485,83 484,83 483,82 482,82 480,80 477,80 476,79" stroke="black" stroke-width="1" /></svg>