<?xml version="1.0" encoding="utf-8" ?>
<svg baseProfile="tiny" height="704" version="1.2" width="1248" xmlns="http://www.w3.org/2000/svg" xmlns:ev="http://www.w3.org/2001/xml-events" xmlns:xlink="http://www.w3.org/1999/xlink"><defs /><polyline fill="none" points="568,626 567,627 540,627 539,628 524,628 523,629 511,629 510,630 502,630 501,631 493,631 492,632 486,632 485,633 481,633 480,634 476,634 475,635 472,635 471,636 468,636 467,637 464,637 462,639 461,639 461,642 463,644 465,644 466,645 468,645 469,646 472,646 473,647 477,647 478,648 484,648 485,649 491,649 492,650 501,650 502,651 510,651 511,652 522,652 523,653 536,653 537,654 555,654 556,655 580,655 581,656 622,656 623,655 651,655 652,654 669,654 670,653 684,653 685,652 696,652 697,651 706,651 707,650 713,650 714,649 721,649 722,648 727,648 728,647 732,647 733,646 737,646 738,645 739,645 740,644 742,644 743,643 743,642 744,641 744,640 743,639 742,639 741,638 740,638 739,637 737,637 736,636 733,636 732,635 728,635 727,634 723,634 722,633 717,633 716,632 709,632 708,631 701,631 700,630 689,630 688,629 674,629 673,628 668,628 673,628 674,629 688,629 689,630 700,630 701,631 708,631 709,632 716,632 717,633 722,633 723,634 727,634 728,635 732,635 733,636 736,636 737,637 739,637 741,639 742,639 744,641 741,644 740,644 739,645 738,645 737,646 733,646 732,647 728,647 727,648 722,648 721,649 714,649 713,650 707,650 706,651 697,651 696,652 685,652 684,653 670,653 669,654 652,654 651,655 623,655 622,656 581,656 580,655 556,655 555,654 537,654 536,653 523,653 522,652 511,652 510,651 502,651 501,650 492,650 491,649 485,649 484,648 478,648 477,647 473,647 472,646 469,646 468,645 466,645 465,644 464,644 461,641 461,640 462,639 463,639 465,637 467,637 468,636 471,636 472,635 475,635 476,634 480,634 481,633 485,633 486,632 492,632 493,631 501,631 502,630 510,630 511,629 523,629 524,628 539,628 540,627 567,627 568,626 569,626" stroke="black" stroke-width="1" /><polyline fill="none" points="644,613 645,612 650,612 651,613 652,613 653,614 653,615 655,617 655,618 656,619 656,620 657,621 657,622 658,623 658,624 659,625 659,627 660,628 660,629 661,630 661,633 660,634 640,634 639,633 628,633 627,632 625,632 624,631 625,630 625,625 626,624 626,621 627,620 628,620 631,617 632,617 633,616 634,616 635,615 636,615 637,614 639,614 640,613" stroke="black" stroke-width="1" /><polyline fill="none" points="645,612 644,613 640,613 639,614 637,614 636,615 634,615 633,616 632,616 631,617 630,617 626,621 626,624 625,625 625,630 624,631 624,632 627,632 628,633 639,633 640,634 661,634 661,630 660,629 660,628 659,627 659,625 658,624 658,623 657,622 657,620 656,619 656,618 655,617 655,616 653,614 653,613 652,613 651,612" stroke="black" stroke-width="1" /><polyline fill="none" points="645,603 644,604 638,604 637,605 635,605 634,606 631,606 630,607 626,607 625,608 622,608 621,609 620,608 619,608 618,609 612,609 611,610 605,610 604,611 597,611 596,612 595,612 589,618 589,619 586,622 587,622 589,620 589,619 597,611 604,611 605,610 611,610 612,609 618,609 619,608 620,609 622,609 623,610 622,611 624,613 624,616 625,617 625,619 625,617 624,616 624,612 623,611 623,610 622,609 623,608 625,608 626,607 630,607 631,606 634,606 635,605 637,605 638,604 644,604 645,603 646,604 647,604 652,609 652,608 648,604 646,604" stroke="black" stroke-width="1" /><polyline fill="none" points="606,570 607,570 608,571 609,571 610,572 611,572 618,579 618,580 621,583 621,584 623,586 623,588 624,589 624,592 625,593 625,594 624,595 625,594 625,593 624,592 624,589 623,588 623,586 622,585 622,584 621,583 621,582 618,579 618,578 612,572 611,572 610,571 609,571 608,570" stroke="black" stroke-width="1" /><polyline fill="none" points="619,562 618,563 615,563 614,564 613,564 612,565 610,565 609,566 608,566 607,567 606,567 605,568 603,568 602,569 601,569 597,573 597,574 596,575 596,576 595,577 595,578 594,579 594,580 593,581 593,583 592,584 592,586 591,587 591,590 590,591 590,593 589,594 589,597 588,598 588,600 586,602 586,603 587,602 587,601 588,600 588,598 589,597 589,594 590,593 590,591 591,590 591,587 592,586 592,584 593,583 593,582 594,581 594,580 595,579 595,578 596,577 596,576 597,575 597,574 602,569 603,569 604,568 605,568 606,567 608,567 609,566 610,566 611,565 612,565 613,564 614,564 615,563 618,563 619,562 633,562 634,563 638,563 639,564 640,564 641,565 642,565 648,571 649,571 661,583 661,584 662,585 662,586 660,588 658,588 657,589 655,589 654,590 652,590 651,591 650,591 649,592 647,592 646,593 643,593 642,594 639,594 638,595 635,595 634,596 631,596 630,597 627,597 626,598 625,597 623,597 621,599 618,599 617,600 614,600 613,601 608,601 607,602 602,602 601,603 597,603 596,604 593,604 592,605 586,605 592,605 593,604 596,604 597,603 601,603 602,602 607,602 608,601 613,601 614,600 617,600 618,599 621,599 622,598 623,598 624,597 625,597 626,598 627,597 630,597 631,596 634,596 635,595 638,595 639,594 642,594 643,593 646,593 647,592 649,592 650,591 651,591 652,590 654,590 655,589 657,589 658,588 660,588 661,587 663,587 662,586 663,585 661,583 661,582 650,571 649,571 643,565 642,565 641,564 639,564 638,563 634,563 633,562" stroke="black" stroke-width="1" /><polyline fill="none" points="622,552 622,553 621,554 621,557 622,558 622,559 623,559 621,557 621,554 623,552 626,552 627,553 631,553 632,554 640,554 641,555 642,555 643,556 643,559 643,556 644,555 641,555 640,554 632,554 631,553 627,553 626,552" stroke="black" stroke-width="1" /><polyline fill="none" points="607,545 606,546 603,546 602,547 601,547 600,548 599,548 598,549 597,549 596,550 595,550 593,552 594,553 594,552 597,549 599,549 600,548 601,548 602,547 603,547 604,546 607,546 608,545 609,545" stroke="black" stroke-width="1" /><polyline fill="none" points="605,543 604,544 601,544 600,545 599,545 598,546 596,546 594,548 593,548 592,549 590,549 588,547 587,547 584,544 582,544 584,544 587,547 588,547 589,548 589,549 593,549 595,547 596,547 597,546 598,546 599,545 600,545 601,544 604,544 605,543 606,543" stroke="black" stroke-width="1" /><polyline fill="none" points="615,540 614,541 611,541 610,542 608,542 610,542 611,541 615,541 617,543 617,544 618,545 618,546 620,548 618,550 616,548 616,547 615,546 615,545 613,543 612,544 613,544 615,546 615,547 618,550 618,555 615,558 614,558 613,559 611,559 610,560 608,560 607,561 605,561 604,562 602,562 601,563 598,563 596,561 596,560 596,562 597,563 601,563 602,562 604,562 605,561 607,561 608,560 610,560 611,559 614,559 615,558 616,558 618,556 618,550 620,548 623,548 624,549 627,549 628,550 631,550 632,551 638,551 639,552 643,552 644,551 644,550 645,549 645,545 645,549 644,550 644,551 643,552 639,552 638,551 632,551 631,550 628,550 627,549 624,549 623,548 620,548 619,547 619,546 617,544 617,543 616,542 616,541" stroke="black" stroke-width="1" /><polyline fill="none" points="469,513 470,514 470,515 471,515 472,516 473,516 474,517 474,516 473,516 472,515 471,515" stroke="black" stroke-width="1" /><polyline fill="none" points="449,512 446,515 446,517 445,518 445,520 444,521 444,526 445,527 445,529 446,530 446,531 449,534 450,534 451,535 452,535 453,536 455,536 456,537 462,537 463,536 464,536 465,535 466,535 467,534 468,534 471,531 471,530 473,528 473,527 474,526 474,525 474,526 472,528 472,529 466,535 465,535 464,536 463,536 462,537 456,537 455,536 453,536 452,535 451,535 445,529 445,527 444,526 444,521 445,520 445,518 446,517 446,516 450,512 453,512" stroke="black" stroke-width="1" /><polyline fill="none" points="460,509 463,512 463,513 464,514 465,514 466,515 467,515 468,516 468,515 467,515 466,514 465,514 463,512 463,511 461,509" stroke="black" stroke-width="1" /><polyline fill="none" points="440,505 439,506 439,507 438,508 438,509 437,510 437,512 436,513 436,523 437,524 437,526 438,527 438,529 442,533 442,534 443,534 446,537 447,537 448,538 450,538 451,539 452,539 453,540 464,540 465,539 467,539 468,538 469,538 476,531 476,530 477,529 477,528 478,527 478,526 479,525 478,525 477,524 478,523 474,519 473,519 477,523 477,524 478,525 478,526 477,527 477,528 476,529 476,530 468,538 467,538 466,539 465,539 464,540 453,540 452,539 451,539 450,538 449,538 448,537 447,537 444,534 443,534 442,533 442,532 438,528 438,527 437,526 437,524 436,523 436,513 437,512 437,511 438,510 438,509 439,508 439,507 441,505 443,505 444,506 445,506 446,507 448,507 449,508 450,508 451,509 453,509 454,510 458,510 459,511 458,510 455,510 454,509 452,509 451,508 449,508 448,507 447,507 446,506 445,506 444,505" stroke="black" stroke-width="1" /><polyline fill="none" points="597,500 601,500 603,502 603,503 604,504 604,505 603,506 603,507 600,510 597,510 594,507 594,503" stroke="black" stroke-width="1" /><polyline fill="none" points="596,500 594,502 594,508 596,510 600,510 601,509 602,509 603,508 603,506 604,505 604,504 603,503 603,501 602,500" stroke="black" stroke-width="1" /><polyline fill="none" points="690,498 692,498 693,499 694,499 695,500 695,501 696,502 696,504 695,505 695,506 694,507 693,507 692,508 690,508 689,507 688,507 687,506 687,505 686,504 686,502" stroke="black" stroke-width="1" /><polyline fill="none" points="690,498 689,499 688,499 687,500 687,501 686,502 686,505 687,506 687,507 688,507 689,508 693,508 694,507 695,507 695,505 696,504 696,501 695,500 695,499 693,499 692,498" stroke="black" stroke-width="1" /><polyline fill="none" points="792,484 792,485 791,486 791,487 789,489 789,490 788,491 788,492 786,494 786,495 784,497 784,498 782,500 782,501 784,499 784,498 785,497 785,496 788,493 788,492 789,491 789,490 791,488 791,487 792,486" stroke="black" stroke-width="1" /><polyline fill="none" points="477,478 476,479 475,479 473,481 473,482 472,483 472,484 471,485 471,486 470,487 470,488 469,489 469,490 468,491 468,493 466,495 466,496 465,497 465,498 464,499 464,500 463,501 463,502 462,503 462,505 461,506 461,507 461,506 462,505 462,504 463,503 463,502 464,501 464,499 466,497 466,496 467,495 467,494 468,493 468,492 469,491 469,490 470,489 470,488 471,487 471,486 472,485 472,484 473,483 473,482 477,478 479,478 483,482 484,482 485,483 486,483 488,485 489,485 490,486 491,486 492,487 491,488 491,489 490,490 490,492 489,493 489,495 488,496 488,497 487,498 487,500 486,501 486,502 485,503 485,504 484,505 484,507 482,509 482,510 481,511 481,512 480,513 480,514 477,517 478,517 480,515 480,514 481,513 481,512 482,511 482,510 483,509 483,508 484,507 484,506 485,505 485,503 486,502 486,501 487,500 487,498 489,496 489,493 490,492 490,490 491,489 491,488 492,487 493,487 494,488 496,488 497,489 498,489 499,490 499,495 498,496 498,498 497,499 497,502 496,503 496,504 495,505 495,506 494,507 494,508 492,510 492,511 491,512 491,513 491,512 493,510 493,509 494,508 494,507 495,506 495,505 496,504 496,503 497,502 497,499 498,498 498,496 499,495 499,489 498,489 497,488 494,488 493,487 492,487 490,485 489,485 487,483 486,483 485,482 484,482 480,478" stroke="black" stroke-width="1" /><polyline fill="none" points="498,473 497,474 498,475 498,483 496,485 495,485 492,482 492,483 493,484 494,484 495,485 497,485 497,484 498,483" stroke="black" stroke-width="1" /><polyline fill="none" points="644,469 644,470 643,471 643,472 642,473 642,475 643,476 643,477 656,477 657,476 660,476 661,475 663,475 664,474 663,475 661,475 660,476 657,476 656,477 644,477 642,475 642,473 643,472 643,471 644,470" stroke="black" stroke-width="1" /><polyline fill="none" points="802,468 795,475 795,476 793,478 793,479 791,481 792,481 793,480 793,479 795,477 795,476 803,468" stroke="black" stroke-width="1" /><polyline fill="none" points="669,465 668,466 667,466 665,468 665,469 667,471 669,471 668,470 667,470 665,468 666,467 667,467 668,466 670,466 671,467 671,469 672,468 671,467 671,466 670,466" stroke="black" stroke-width="1" /><polyline fill="none" points="674,462 674,463 673,464 674,465 674,467 675,466 673,464 675,462 676,463 677,463 676,462" stroke="black" stroke-width="1" /><polyline fill="none" points="684,454 684,455 683,456 683,458 682,459 682,460 681,461 681,462 677,466 677,467 669,475 668,475 667,476 666,476 665,477 664,477 663,478 662,478 661,479 660,479 659,480 643,480 642,479 640,479 639,478 637,478 636,477 635,477 634,476 633,476 632,475 631,475 630,474 629,474 625,470 624,470 617,463 617,462 615,460 615,459 613,457 612,458 611,457 611,456 592,456 591,457 590,457 589,458 589,510 590,511 590,514 591,515 591,517 590,518 586,518 585,517 583,517 582,518 577,518 576,517 575,517 576,517 577,518 582,518 583,517 585,517 586,518 590,518 591,517 666,517 667,516 698,516 700,514 698,516 667,516 666,517 592,517 591,516 591,515 590,514 590,511 589,510 589,459 592,456 610,456 612,458 612,461 614,463 614,464 616,466 616,467 621,472 621,473 623,475 624,475 627,478 628,478 629,479 630,479 631,480 632,480 633,481 635,481 636,482 638,482 639,483 647,483 639,483 638,482 636,482 635,481 634,481 633,480 632,480 631,479 630,479 629,478 628,478 625,475 624,475 621,472 621,471 615,465 615,464 614,463 614,462 612,460 612,458 613,457 615,459 615,460 616,461 616,462 617,463 617,464 623,470 624,470 628,474 629,474 630,475 631,475 632,476 633,476 634,477 636,477 637,478 639,478 640,479 642,479 643,480 659,480 660,479 662,479 663,478 664,478 665,477 666,477 667,476 668,476 669,475 670,475 677,468 677,467 681,463 681,462 682,461 682,460 683,459 683,457 684,456 684,455 685,454 696,454 699,457 699,468 700,469 700,484 701,485 701,498 702,499 702,515 702,499 701,498 701,485 700,484 700,469 699,468 699,456 698,455 697,455 696,454" stroke="black" stroke-width="1" /><polyline fill="none" points="773,449 772,450 771,450 770,451 769,451 766,454 767,454 770,451 771,451 773,449 774,449 775,450 775,451 777,453 778,453 780,455 781,455 782,456 784,456 785,457 786,457 788,459 789,459 790,460 791,460 793,462 794,462 795,463 796,463 797,464 799,464 800,465 802,465 800,465 799,464 798,464 797,463 796,463 795,462 794,462 792,460 791,460 790,459 789,459 787,457 786,457 785,456 783,456 782,455 781,455 779,453 778,453 774,449" stroke="black" stroke-width="1" /><polyline fill="none" points="753,446 760,453 761,453 762,454 762,455 763,455 764,454 762,454 761,453 760,453" stroke="black" stroke-width="1" /><polyline fill="none" points="748,442 744,446 744,447 739,452 739,453 735,457 735,458 737,460 736,461 738,461 747,470 748,470 747,470 737,460 741,456 741,455 749,447 749,446 751,444 751,443 749,445 749,446 742,453 742,454 738,458 738,459 737,460 735,458 739,454 739,453 744,448 744,447 749,442" stroke="black" stroke-width="1" /><polyline fill="none" points="652,442 653,441 656,441 657,442 659,442 663,446 663,447 662,448 662,449 658,453 657,453 656,454 654,454 653,453 651,453 649,451 648,451 646,449 646,445 649,442" stroke="black" stroke-width="1" /><polyline fill="none" points="485,441 486,442 487,442 489,444 490,444 491,445 492,445 496,449 497,449 500,452 501,452 503,454 502,455 502,457 498,461 498,462 495,465 493,463 492,463 490,461 489,461 487,459 486,459 485,458 484,458 483,457 482,457 480,455 479,455 477,453 477,452 480,449 480,448 482,446 482,445 483,444 483,443" stroke="black" stroke-width="1" /><polyline fill="none" points="653,441 652,442 648,442 646,444 646,450 647,451 648,451 650,453 653,453 654,454 656,454 657,453 659,453 662,450 662,448 663,447 663,446 662,445 662,444 660,442 657,442 656,441" stroke="black" stroke-width="1" /><polyline fill="none" points="485,441 483,443 483,444 481,446 481,447 479,449 479,450 477,452 477,454 478,455 479,455 481,457 482,457 483,458 484,458 485,459 486,459 488,461 489,461 491,463 492,463 494,465 496,465 498,463 498,462 501,459 501,458 502,457 502,455 503,454 502,453 502,452 501,452 498,449 497,449 493,445 492,445 491,444 490,444 488,442 486,442" stroke="black" stroke-width="1" /><polyline fill="none" points="620,440 619,441 618,441 618,444 619,445 619,448 620,449 620,452 621,453 621,455 622,456 622,457 623,458 623,459 624,460 624,461 626,463 626,464 628,466 628,467 633,472 634,472 635,473 637,473 638,474 639,473 640,474 639,473 639,471 641,469 641,467 641,468 640,469 640,470 639,471 639,472 638,473 636,473 635,472 634,472 628,466 628,465 626,463 626,462 624,460 624,459 623,458 623,457 622,456 622,455 621,454 621,453 620,452 620,449 619,448 619,445 618,444 618,442 620,440 621,440 622,441 621,440" stroke="black" stroke-width="1" /><polyline fill="none" points="738,431 733,436 733,437 728,442 728,443 723,448 730,455 731,455 733,457 733,458 733,457 730,454 729,454 727,452 727,451 725,449 724,449 723,448 724,447 725,447 728,444 728,443 733,438 733,437 738,432" stroke="black" stroke-width="1" /><polyline fill="none" points="495,426 496,426 498,428 499,428 500,429 501,429 503,431 504,431 507,434 508,434 510,436 510,437 513,440 508,445 508,446 506,448 506,449 504,451 499,446 498,446 494,442 493,442 492,441 491,441 490,440 489,440 488,439 487,439 486,438 488,436 488,435 491,432 491,431 492,430 492,429" stroke="black" stroke-width="1" /><polyline fill="none" points="647,416 649,416 650,417 651,417 655,421 655,422 654,423 649,423 648,422 646,422 644,420 644,419" stroke="black" stroke-width="1" /><polyline fill="none" points="646,416 644,418 644,421 645,422 648,422 649,423 654,423 655,422 655,421 654,420 654,419 652,417 651,417 650,416" stroke="black" stroke-width="1" /><polyline fill="none" points="644,413 645,412 652,412 653,413 657,413 658,414 659,414 661,416 662,416 668,422 668,423 671,426 671,427 673,429 673,431 674,432 674,447 673,448 673,450 672,451 672,452 671,453 671,454 669,456 669,457 663,463 662,463 661,464 660,464 658,466 654,466 653,467 647,467 646,466 643,466 641,464 640,464 638,462 637,462 630,455 630,454 629,453 629,452 628,451 628,450 627,449 627,447 626,446 626,442 625,441 625,437 626,436 626,432 627,431 627,429 628,428 628,427 629,426 629,425 631,423 631,422 637,416 638,416 639,415 640,415 642,413" stroke="black" stroke-width="1" /><polyline fill="none" points="504,413 505,412 509,412 510,413 511,413 513,415 514,415 519,420 519,421 520,422 520,427 519,428 519,429 517,431 517,432 515,434 515,435 514,436 513,435 513,434 509,430 508,430 506,428 505,428 503,426 501,426 499,424 497,424 496,423 496,422 498,420 498,419 500,417 500,416 503,413" stroke="black" stroke-width="1" /><polyline fill="none" points="504,412 503,413 502,413 500,415 500,416 498,418 498,419 496,421 496,422 495,423 493,423 496,423 497,424 498,424 499,425 500,425 501,426 502,426 504,428 505,428 507,430 508,430 513,435 513,437 512,438 510,436 510,435 509,434 508,434 505,431 504,431 502,429 501,429 500,428 499,428 498,427 497,427 496,426 494,426 493,427 493,428 492,429 492,430 490,432 490,433 488,435 488,436 486,438 486,439 487,439 488,440 489,440 490,441 491,441 492,442 493,442 497,446 498,446 502,450 503,450 504,451 505,451 506,450 506,449 508,447 508,446 512,442 513,443 513,445 513,443 512,442 512,441 513,440 512,439 512,438 514,436 515,436 515,435 517,433 517,432 519,430 519,428 520,427 520,421 519,420 519,419 515,415 514,415 512,413 510,413 509,412" stroke="black" stroke-width="1" /><polyline fill="none" points="666,411 667,410 668,410 669,411 669,412 668,413 667,413 666,412" stroke="black" stroke-width="1" /><polyline fill="none" points="662,405 663,405 664,406 665,406 666,407 667,407 668,408 666,410 666,413 667,413 668,414 669,413 669,412 670,411 671,411 676,416 675,415 675,414 671,410 670,411 669,411 667,409 668,408 667,407 666,407 664,405" stroke="black" stroke-width="1" /><polyline fill="none" points="660,405 660,410 663,413 664,413 663,412 662,412 660,410" stroke="black" stroke-width="1" /><polyline fill="none" points="645,401 645,407 644,408 643,408 641,406 641,403 640,402 639,403 636,403 635,404 634,404 633,405 632,405 629,408 628,408 625,411 625,412 624,413 624,414 623,415 623,416 622,417 622,419 621,420 621,421 620,422 620,426 619,427 619,431 618,432 618,436 620,436 621,437 624,437 625,438 625,441 626,442 626,446 627,447 627,449 628,450 628,452 629,453 629,454 630,455 630,456 636,462 637,462 639,464 640,464 641,465 642,465 643,466 646,466 647,467 653,467 654,466 658,466 659,465 660,465 661,464 662,464 663,463 664,463 669,458 669,457 671,455 671,454 672,453 672,451 673,450 673,448 674,447 674,432 673,431 673,429 672,428 672,427 671,426 671,425 668,422 668,421 663,416 662,416 660,414 659,414 658,413 653,413 652,412 645,412 644,413 642,413 641,414 640,414 639,415 638,415 637,416 636,416 631,421 631,422 629,424 629,425 628,426 628,428 627,429 627,431 626,432 626,436 625,437 621,437 620,436 619,436 618,435 618,432 619,431 619,427 620,426 620,422 621,421 621,420 622,419 622,418 623,417 623,416 624,415 624,414 625,413 625,412 629,408 630,408 633,405 634,405 635,404 636,404 637,403 640,403 641,404 641,407 643,409 643,410 643,409 644,408 645,409 645,402 646,401 651,401 652,402 656,402 658,404 657,405 657,409 658,409 657,408 657,406 658,405 658,404 656,402 652,402 651,401" stroke="black" stroke-width="1" /><polyline fill="none" points="510,399 509,400 507,400 506,401 505,401 504,402 503,402 500,405 500,406 499,407 499,408 498,409 498,411 497,412 497,415 496,416 496,417 494,419 494,420 495,419 495,418 496,417 496,416 497,415 497,412 498,411 498,409 500,407 500,406 504,402 505,402 506,401 507,401 508,400 509,400 510,399 516,399 517,400 519,400 521,402 522,402 527,407 527,408 528,409 528,411 529,412 529,422 528,423 528,424 527,425 527,426 526,427 526,428 518,436 518,437 515,440 515,442 515,441 516,440 516,439 526,429 526,428 527,427 527,426 528,425 528,423 529,422 529,412 528,411 528,408 527,407 527,406 523,402 522,402 521,401 520,401 519,400 517,400 516,399" stroke="black" stroke-width="1" /><polyline fill="none" points="645,398 644,399 639,399 638,400 636,400 635,401 633,401 632,402 631,402 630,403 629,403 626,406 625,406 617,414 617,415 615,417 615,418 613,420 613,421 612,422 612,425 611,426 611,428 610,429 610,446 611,447 611,451 610,452 609,452 608,453 592,453 591,454 589,454 587,456 587,457 586,458 586,508 587,509 587,515 588,516 588,515 587,514 587,509 586,508 586,458 590,454 591,454 592,453 609,453 611,451 611,447 610,446 610,429 611,428 611,426 612,425 612,423 613,422 613,421 615,419 615,418 617,416 617,415 626,406 627,406 630,403 631,403 632,402 633,402 634,401 635,401 636,400 638,400 639,399 644,399 645,398 652,398 653,399 657,399 658,400 660,400 661,401 662,401 663,402 664,402 665,403 666,403 667,404 668,404 671,407 672,407 674,409 674,410 679,415 679,416 680,417 680,418 681,419 681,420 680,421 679,421 678,422 677,422 676,423 674,421 674,420 675,419 678,419 674,419 673,420 674,421 674,422 675,422 676,423 677,422 679,422 680,423 680,424 681,425 681,426 682,427 682,430 683,431 683,450 682,451 682,453 681,454 681,455 680,456 680,457 679,458 679,459 678,460 678,461 678,460 679,459 679,458 680,457 680,456 681,455 681,454 682,453 682,452 683,451 683,431 682,430 682,427 681,426 681,425 680,424 680,423 679,422 681,420 683,422 683,423 684,424 684,426 685,427 685,430 686,431 686,439 687,440 687,441 686,442 686,451 697,451 701,455 701,456 702,457 702,470 703,471 703,486 704,487 704,500 705,501 705,514 714,514 715,513 716,513 715,512 715,506 714,505 714,493 713,492 713,480 712,479 712,470 711,469 711,460 710,459 710,449 709,448 709,443 710,442 709,443 709,448 710,449 710,459 711,460 711,469 712,470 712,479 713,480 713,492 714,493 714,505 715,506 715,513 714,514 706,514 705,513 705,501 704,500 704,487 703,486 703,471 702,470 702,457 701,456 701,454 699,452 698,452 697,451 687,451 686,450 686,442 687,441 687,440 686,439 686,431 685,430 685,427 684,426 684,424 683,423 683,421 681,419 681,418 680,417 680,416 679,415 679,414 674,409 674,408 673,407 672,407 669,404 668,404 667,403 666,403 665,402 663,402 662,401 661,401 660,400 658,400 657,399 653,399 652,398" stroke="black" stroke-width="1" /><polyline fill="none" points="584,385 587,385 590,388 590,392 587,395 583,395 580,392 580,389" stroke="black" stroke-width="1" /><polyline fill="none" points="540,386 541,385 542,386 543,386 549,392 549,393 551,395 551,396 552,397 552,398 553,399 553,400 552,401 545,401 544,402 539,402 538,403 534,399 534,398 532,396 532,395 528,391 529,390 530,390 531,389 532,389 533,388 535,388 536,387 538,387 539,386" stroke="black" stroke-width="1" /><polyline fill="none" points="583,385 580,388 580,393 582,395 588,395 590,393 590,387 588,385" stroke="black" stroke-width="1" /><polyline fill="none" points="541,385 540,386 539,386 538,387 536,387 535,388 533,388 532,389 530,389 528,391 527,390 526,390 525,389 524,389 523,388 521,388 520,387 518,387 517,386 508,386 507,387 505,387 504,388 503,388 503,389 505,387 507,387 508,386 517,386 518,387 520,387 521,388 523,388 525,390 526,390 532,396 532,397 534,399 534,400 537,403 537,404 539,402 544,402 545,401 552,401 555,404 555,408 556,409 556,419 555,420 555,423 554,424 554,426 553,427 553,428 552,429 552,430 550,432 548,432 547,431 544,431 543,430 539,430 538,429 537,429 536,428 536,427 537,426 537,424 538,423 538,418 539,417 539,415 538,414 538,408 537,407 537,406 537,407 538,408 538,414 539,415 539,417 538,418 538,423 537,424 537,425 536,426 536,429 538,429 539,430 543,430 544,431 547,431 548,432 551,432 552,431 552,430 553,429 553,427 554,426 554,424 555,423 555,420 556,419 556,409 555,408 555,404 552,401 553,400 553,399 552,398 552,396 551,395 551,394 549,392 549,391 544,386 542,386" stroke="black" stroke-width="1" /><polyline fill="none" points="706,384 708,386 709,386 710,387 711,387 712,388 713,388 716,391 716,392 718,394 718,395 720,397 720,398 721,399 721,400 720,401 717,401 716,402 713,402 712,403 710,403 708,401 708,397 707,396 707,388 706,388 707,389 707,396 708,397 708,402 709,402 710,403 712,403 713,402 716,402 717,401 721,401 721,398 720,397 720,396 718,394 718,393 716,391 716,390 714,388 713,388 712,387 710,387 707,384" stroke="black" stroke-width="1" /><polyline fill="none" points="690,383 693,383 696,386 696,390 692,394 690,394 689,393 688,393 687,392 687,391 686,390 686,387" stroke="black" stroke-width="1" /><polyline fill="none" points="690,383 689,384 688,384 686,386 686,391 687,392 687,393 688,393 689,394 693,394 695,392 695,391 696,390 696,385 694,383" stroke="black" stroke-width="1" /><polyline fill="none" points="520,378 519,379 515,379 514,380 512,380 511,381 510,381 509,382 508,382 505,385 507,383 508,383 509,382 510,382 511,381 512,381 513,380 514,380 515,379 519,379 520,378 525,378 526,379 531,379 532,380 534,380 536,382 537,382 538,383 539,383 538,382 537,382 536,381 535,381 534,380 532,380 531,379 526,379 525,378" stroke="black" stroke-width="1" /><polyline fill="none" points="540,376 553,376 554,377 569,377 571,379 571,399 572,400 572,430 573,431 573,455 574,456 574,490 575,491 575,513 576,514 576,515 576,514 575,513 575,491 574,490 574,456 573,455 573,431 572,430 572,400 571,399 571,381 574,378 645,378 646,377 693,377 696,380 696,381 696,380 695,379 695,378 694,378 693,377 646,377 645,378 574,378 573,379 572,379 570,377 554,377 553,376" stroke="black" stroke-width="1" /><polyline fill="none" points="569,370 568,371 559,371 558,372 552,372 551,373 542,373 541,374 536,374 541,374 542,373 551,373 552,372 558,372 559,371 568,371 569,370 580,370 581,371 634,371 635,372 652,372 653,373 674,373 675,374 691,374 692,375 699,375 702,378 702,381 703,382 703,389 704,390 704,397 705,398 705,404 706,405 706,411 707,412 707,421 708,422 708,431 709,432 709,440 709,432 708,431 708,422 707,421 707,412 706,411 706,405 705,404 705,398 704,397 704,390 703,389 703,382 702,381 702,378 701,377 701,376 700,376 699,375 692,375 691,374 675,374 674,373 653,373 652,372 635,372 634,371 581,371 580,370" stroke="black" stroke-width="1" /><polyline fill="none" points="579,344 587,344 588,345 601,345 602,346 613,346 614,347 624,347 625,348 632,348 633,349 633,348 625,348 624,347 614,347 613,346 602,346 601,345 588,345 587,344" stroke="black" stroke-width="1" /><polyline fill="none" points="721,319 724,319 727,322 727,323 728,324 728,327 727,328 727,329 726,330 726,331 725,332 724,332 723,333 719,333 716,330 716,324" stroke="black" stroke-width="1" /><polyline fill="none" points="721,319 720,320 719,320 717,322 717,323 716,324 716,331 718,333 724,333 727,330 727,328 728,327 728,324 727,323 727,321 725,319" stroke="black" stroke-width="1" /><polyline fill="none" points="720,317 721,316 725,316 730,321 730,323 731,324 731,327 730,328 730,330 728,332 728,333 726,335 725,335 724,336 718,336 714,332 714,331 713,330 713,324 714,323 714,322 719,317" stroke="black" stroke-width="1" /><polyline fill="none" points="721,316 720,317 718,317 714,321 714,323 713,324 713,330 714,331 714,333 717,336 725,336 727,334 728,334 728,333 730,331 730,328 731,327 731,324 730,323 730,320 727,317 726,317 725,316" stroke="black" stroke-width="1" /><polyline fill="none" points="650,312 649,313 649,321 648,322 648,325 649,326 655,326 656,325 659,325 660,324 662,324 663,323 665,323 666,322 667,322 669,320 670,320 673,317 674,317 676,315 675,315 673,317 672,317 669,320 668,320 666,322 665,322 664,323 663,323 662,324 660,324 659,325 656,325 655,326 650,326 648,324 648,322 649,321 649,314 651,312 653,312 654,313 676,313 654,313 653,312" stroke="black" stroke-width="1" /><polyline fill="none" points="619,308 620,307 623,307 624,308 627,308 628,309 631,309 632,310 636,310 637,311 644,311 646,313 646,317 645,318 645,324 644,325 642,325 641,324 639,324 638,323 637,323 636,322 635,322 634,321 633,321 630,318 629,318" stroke="black" stroke-width="1" /><polyline fill="none" points="620,307 619,308 619,309 628,318 629,318 632,321 633,321 634,322 635,322 636,323 638,323 639,324 641,324 642,325 645,325 645,318 646,317 646,312 645,312 644,311 637,311 636,310 632,310 631,309 628,309 627,308 624,308 623,307" stroke="black" stroke-width="1" /><polyline fill="none" points="614,304 615,303 618,303 619,304 619,305 619,304 620,303 621,304 624,304 625,305 628,305 629,306 632,306 633,307 638,307 639,308 645,308 646,309 654,309 655,310 679,310 680,311 681,311 682,312 680,314 680,315 675,320 674,320 671,323 670,323 668,325 667,325 666,326 665,326 664,327 662,327 661,328 658,328 657,329 644,329 643,328 640,328 639,327 637,327 635,325 634,325 633,324 632,324 631,323 630,323 627,320 626,320 619,313 619,312 616,309 616,308 615,307 615,306 614,305" stroke="black" stroke-width="1" /><polyline fill="none" points="767,303 763,307 762,307 761,308 760,308 761,308 762,307 764,307 764,306" stroke="black" stroke-width="1" /><polyline fill="none" points="614,303 614,306 615,307 615,308 616,309 616,310 619,313 619,314 625,320 626,320 629,323 630,323 631,324 632,324 633,325 634,325 635,326 636,326 637,327 639,327 640,328 643,328 644,329 657,329 658,328 661,328 662,327 664,327 665,326 667,326 668,325 669,325 671,323 672,323 675,320 676,320 680,316 680,315 682,313 682,311 680,311 679,310 655,310 654,309 646,309 645,308 639,308 638,307 633,307 632,306 629,306 628,305 625,305 624,304 621,304 620,303" stroke="black" stroke-width="1" /><polyline fill="none" points="766,256 767,255 770,255 772,257 772,258 773,259 773,261 774,262 774,265 775,266 775,268 774,269 769,269 768,268 766,268 765,267 765,258 766,257" stroke="black" stroke-width="1" /><polyline fill="none" points="767,255 765,257 765,268 768,268 769,269 773,269 775,271 775,279 775,271 774,270 775,269 776,269 775,268 775,266 774,265 774,262 773,261 773,258 772,257 772,256 771,255" stroke="black" stroke-width="1" /><polyline fill="none" points="522,235 521,236 519,236 518,237 518,238 517,239 517,241 516,242 516,254 517,255 517,256 519,258 524,258 525,257 526,257 528,255 527,254 527,253 525,253 523,255 521,255 519,253 519,250 518,249 518,248 519,247 519,242 520,241 520,240 521,239 526,239 520,239 520,241 519,242 519,247 518,248 518,249 519,250 519,254 520,255 523,255 524,254 525,254 526,253 527,254 527,255 525,257 524,257 523,258 520,258 516,254 516,242 517,241 517,239 520,236 521,236 522,235 523,236 525,236 526,237 527,237 526,236 523,236" stroke="black" stroke-width="1" /><polyline fill="none" points="617,227 616,228 615,228 615,229 616,228 617,228" stroke="black" stroke-width="1" /><polyline fill="none" points="485,224 486,223 488,223 490,225 490,226 491,227 491,228 492,229 492,231 493,232 493,234 494,235 494,239 493,240 487,240 486,241 475,241 473,239 473,236 472,235 472,232 471,231 471,229 470,228 470,227 472,225 479,225 480,224" stroke="black" stroke-width="1" /><polyline fill="none" points="480,215 481,215 488,222 487,223 486,223 485,224 480,224 479,225 472,225 471,226 470,226 470,228 471,229 471,231 472,232 472,235 473,236 473,239 474,240 474,241 486,241 487,240 494,240 494,235 493,234 493,232 492,231 492,229 491,228 491,226 490,225 490,224 487,221 487,220 483,216 482,216 481,215" stroke="black" stroke-width="1" /><polyline fill="none" points="459,211 460,212 461,212 462,211 464,211 465,212 482,212 492,222 492,223 493,224 493,225 494,226 494,227 495,228 495,230 496,231 496,233 497,234 497,238 498,239 498,259 497,260 497,265 496,266 496,268 495,269 495,272 494,273 494,275 493,276 493,277 492,278 492,279 491,280 491,281 490,282 490,283 489,284 489,285 480,294 463,294 462,293 454,293 453,292 454,293 462,293 463,294 481,294 489,286 489,285 490,284 490,283 491,282 491,281 492,280 492,279 493,278 493,276 494,275 494,273 495,272 495,269 496,268 496,266 497,265 497,260 498,259 498,239 497,238 497,234 496,233 496,231 495,230 495,228 494,227 494,226 493,225 493,224 492,223 492,221 483,212 465,212 464,211 462,211 461,212 460,212" stroke="black" stroke-width="1" /><polyline fill="none" points="441,207 442,208 447,208 448,207 450,209 450,212 451,213 451,227 449,229 448,229 447,230 443,230 441,228 441,227 442,226 442,223 443,222 443,220 442,219 442,210 442,219 443,220 443,222 442,223 442,226 441,227 441,228 442,229 442,230 447,230 448,229 450,229 451,230 450,231 450,232 449,233 444,233 443,234 441,234 440,235 438,235 434,239 434,240 433,241 433,243 432,244 432,246 431,247 431,254 432,255 432,260 433,261 433,262 434,263 435,263 437,265 438,265 436,263 435,263 433,261 433,260 432,259 432,255 431,254 431,247 432,246 432,244 433,243 433,242 434,241 434,240 439,235 440,235 441,234 443,234 444,233 449,233 455,239 455,240 457,242 457,243 458,244 458,246 459,247 459,252 458,253 458,255 457,256 457,257 456,258 456,259 449,266 448,266 447,267 443,267 442,266 440,266 442,266 443,267 448,267 449,266 450,266 456,260 456,259 457,258 457,256 458,255 458,253 459,252 459,247 458,246 458,243 457,242 457,241 455,239 455,238 452,235 451,235 449,233 450,232 453,232 454,233 455,233 457,235 458,235 461,238 461,239 462,240 462,241 463,242 463,243 464,244 464,256 463,257 463,258 462,259 462,261 460,263 460,264 456,268 455,268 453,270 451,270 450,271 444,271 443,270 441,270 439,268 438,268 437,267 436,267 434,265 437,268 438,268 439,269 440,269 441,270 443,270 444,271 450,271 451,270 454,270 456,268 457,268 460,265 460,264 462,262 462,260 463,259 463,257 464,256 464,244 463,243 463,241 462,240 462,239 461,238 461,237 459,235 458,235 456,233 454,233 453,232 452,232 451,231 451,230 450,229 450,228 451,227 451,215 452,214 450,212 450,208 451,207 450,208 449,208 448,207 447,208 442,208" stroke="black" stroke-width="1" /><polyline fill="none" points="701,205 700,206 695,206 694,207 692,207 691,208 690,208 689,209 688,209 681,216 681,217 679,219 679,220 678,221 678,222 677,223 677,224 676,225 676,227 675,228 675,230 674,231 674,233 673,234 673,236 672,237 672,241 671,242 671,265 672,266 672,270 673,271 673,274 674,275 674,276 675,277 675,279 676,280 676,282 677,283 677,284 678,285 678,286 680,288 680,289 683,292 683,293 688,298 689,298 691,300 692,300 693,301 695,301 696,302 699,302 700,303 707,303 708,302 711,302 712,301 713,301 714,300 716,300 717,299 718,299 719,298 720,298 721,297 722,297 725,294 726,294 729,291 729,290 733,286 733,285 735,283 735,282 736,281 736,280 738,278 738,277 736,279 736,280 735,281 735,282 733,284 733,285 729,289 729,290 725,294 724,294 721,297 720,297 719,298 718,298 717,299 716,299 715,300 714,300 713,301 712,301 711,302 708,302 707,303 700,303 699,302 696,302 695,301 694,301 693,300 692,300 690,298 689,298 683,292 683,291 680,288 680,287 678,285 678,284 677,283 677,282 676,281 676,280 675,279 675,277 674,276 674,275 673,274 673,271 672,270 672,266 671,265 671,242 672,241 672,237 673,236 673,234 674,233 674,232 675,231 675,229 676,228 676,226 677,225 677,224 678,223 678,222 679,221 679,220 681,218 681,217 689,209 690,209 691,208 692,208 693,207 694,207 695,206 700,206 701,205 704,205 705,206 710,206 711,207 714,207 715,208 716,208 717,209 718,209 719,210 720,210 722,212 723,212 725,214 726,214 732,220 732,221 734,223 734,224 735,225 735,226 737,228 737,229 738,230 738,231 739,232 739,234 740,235 740,237 741,238 741,241 742,242 742,250 741,251 737,247 735,247 734,246 731,246 730,245 729,246 725,246 724,247 723,247 724,248 724,249 726,251 726,252 723,255 722,255 720,253 720,252 719,252 720,253 720,254 721,255 724,255 726,253 726,250 724,248 726,246 729,246 730,245 731,246 734,246 735,247 736,247 741,252 741,253 743,255 743,260 742,261 742,267 741,268 741,270 736,275 735,275 733,277 732,277 731,278 728,278 727,277 724,277 722,275 721,275 717,271 717,270 716,269 716,268 715,267 715,264 714,263 714,260 715,259 715,256 716,255 716,254 717,253 717,252 716,253 716,255 715,256 715,259 714,260 714,263 715,264 715,267 716,268 716,270 717,271 717,272 720,275 721,275 723,277 727,277 728,278 731,278 732,277 734,277 737,274 738,274 740,272 740,271 741,270 741,268 742,267 742,261 743,260 743,254 741,252 741,251 742,250 742,242 741,241 741,238 740,237 740,235 739,234 739,232 738,231 738,229 737,228 737,227 735,225 735,224 734,223 734,222 731,219 731,218 727,214 726,214 724,212 723,212 721,210 720,210 719,209 717,209 716,208 715,208 714,207 711,207 710,206 705,206 704,205" stroke="black" stroke-width="1" /><polyline fill="none" points="450,204 449,205 441,205 449,205" stroke="black" stroke-width="1" /><polyline fill="none" points="705,197 704,198 701,198 700,199 699,199 698,200 697,200 696,201 695,201 694,202 693,202 691,204 690,204 687,207 686,207 678,215 686,207 687,207 688,206 689,206 691,204 692,204 694,202 695,202 696,201 697,201 698,200 699,200 701,198 704,198 705,197 716,197 717,198 719,198 720,199 722,199 723,200 724,200 725,201 726,201 727,202 728,202 730,204 731,204 741,214 741,215 743,217 743,218 745,220 745,221 746,222 746,223 747,224 747,225 748,226 748,227 749,228 749,229 750,230 750,231 751,232 751,234 752,235 752,237 753,238 753,244 754,245 754,260 753,261 753,266 752,267 752,269 751,270 751,272 750,273 750,274 749,275 749,276 748,277 748,278 747,279 747,280 746,281 746,282 744,284 744,285 743,286 743,287 740,290 740,291 733,298 732,298 730,300 729,300 727,302 726,302 725,303 724,303 723,304 722,304 721,305 719,305 718,306 715,306 714,307 704,307 703,306 698,306 697,305 695,305 694,304 692,304 691,303 690,303 688,301 687,301 679,293 687,301 688,301 690,303 691,303 692,304 694,304 695,305 697,305 698,306 703,306 704,307 714,307 715,306 718,306 719,305 721,305 722,304 723,304 724,303 726,303 727,302 728,302 730,300 731,300 733,298 734,298 740,292 740,291 743,288 743,287 744,286 744,285 746,283 746,282 747,281 747,280 748,279 748,277 749,276 749,275 750,274 750,273 751,272 751,270 752,269 752,267 753,266 753,261 754,260 754,245 753,244 753,238 752,237 752,235 751,234 751,232 750,231 750,230 749,229 749,228 748,227 748,226 747,225 747,223 746,222 746,221 745,220 745,219 743,217 743,216 741,214 741,213 732,204 731,204 729,202 728,202 727,201 726,201 725,200 723,200 722,199 720,199 719,198 717,198 716,197" stroke="black" stroke-width="1" /><polyline fill="none" points="590,188 589,189 585,189 584,190 582,190 581,191 579,191 578,192 577,192 576,193 575,193 574,194 573,194 572,195 571,195 567,199 566,199 564,201 564,202 561,205 561,206 559,208 559,209 558,210 558,211 556,213 556,214 555,215 555,217 554,218 554,219 553,220 553,222 552,223 552,226 551,227 551,232 550,233 550,250 551,251 551,255 552,256 552,259 553,260 553,262 554,263 554,265 555,266 555,267 556,268 556,269 558,271 558,272 560,274 560,275 563,278 563,279 564,280 565,280 570,285 571,285 572,286 573,286 575,288 577,288 578,289 579,289 580,290 583,290 584,291 588,291 589,292 596,292 597,291 602,291 603,290 605,290 606,289 608,289 609,288 611,288 612,287 613,287 615,285 616,285 617,284 618,284 628,274 628,273 631,270 631,269 632,268 632,267 633,266 633,265 634,264 634,263 635,262 635,260 636,259 636,258 637,257 636,258 636,259 635,260 635,261 634,262 634,263 633,264 633,265 632,266 632,267 631,268 631,269 628,272 628,273 617,284 616,284 615,285 614,285 612,287 611,287 610,288 609,288 608,289 606,289 605,290 603,290 602,291 597,291 596,292 589,292 588,291 584,291 583,290 580,290 579,289 578,289 577,288 576,288 574,286 573,286 572,285 571,285 566,280 565,280 563,278 563,277 560,274 560,273 558,271 558,270 556,268 556,267 555,266 555,265 554,264 554,263 553,262 553,260 552,259 552,256 551,255 551,251 550,250 550,233 551,232 551,227 552,226 552,223 553,222 553,220 555,218 555,216 556,215 556,214 558,212 558,211 559,210 559,209 561,207 561,206 564,203 564,202 567,199 568,199 572,195 573,195 574,194 575,194 576,193 577,193 579,191 581,191 582,190 584,190 585,189 589,189 590,188 601,188 602,189 606,189 607,190 609,190 610,191 611,191 612,192 613,192 614,193 615,193 616,194 617,194 619,196 620,196 630,206 630,207 632,209 632,210 633,211 633,212 635,214 635,215 636,216 636,218 637,219 637,221 638,222 638,224 639,225 639,228 640,229 640,232 639,233 637,231 637,230 636,229 635,229 633,227 630,227 629,226 620,226 629,226 630,227 632,227 634,229 635,229 637,231 637,232 639,234 639,235 640,236 640,244 639,245 639,250 638,251 638,252 634,256 633,256 631,258 630,258 629,259 622,259 621,258 620,258 618,256 617,256 614,253 614,252 612,250 612,249 611,248 611,246 610,245 610,240 611,239 611,236 613,234 613,233 614,232 615,232 616,233 616,234 617,235 621,235 622,234 622,229 621,228 620,229 621,229 622,230 622,233 620,235 618,235 616,233 616,232 613,232 613,233 612,234 612,235 611,236 611,239 610,240 610,245 611,246 611,248 612,249 612,251 614,253 614,254 616,256 617,256 619,258 621,258 622,259 629,259 630,258 632,258 634,256 635,256 638,253 638,251 639,250 639,245 640,244 640,235 639,234 639,233 640,232 640,229 639,228 639,225 638,224 638,222 637,221 637,219 636,218 636,215 635,214 635,213 633,211 633,210 632,209 632,208 630,206 630,205 621,196 620,196 618,194 617,194 616,193 615,193 614,192 613,192 612,191 610,191 609,190 607,190 606,189 602,189 601,188" stroke="black" stroke-width="1" /><polyline fill="none" points="443,182 442,183 441,183 443,185 443,195 442,196 442,201 442,196 443,195 443,185 442,184 442,183 443,182 450,182 451,183 451,202 451,183 452,182" stroke="black" stroke-width="1" /><polyline fill="none" points="599,180 598,181 592,181 591,182 588,182 587,183 585,183 583,185 581,185 579,187 578,187 577,188 576,188 575,189 574,189 572,191 571,191 567,195 566,195 561,200 561,201 558,204 558,205 556,207 556,208 555,209 555,210 554,211 554,212 553,213 553,214 553,213 554,212 554,211 555,210 555,209 556,208 556,207 558,205 558,204 561,201 561,200 564,197 565,197 569,193 570,193 572,191 573,191 575,189 576,189 577,188 578,188 579,187 580,187 582,185 583,185 584,184 585,184 586,183 587,183 588,182 591,182 592,181 598,181 599,180 604,180 605,181 611,181 612,182 615,182 616,183 617,183 618,184 619,184 620,185 621,185 622,186 623,186 624,187 625,187 627,189 628,189 637,198 637,199 640,202 640,203 642,205 642,206 643,207 643,208 644,209 644,210 645,211 645,212 646,213 646,214 647,215 647,217 648,218 648,222 649,223 649,227 650,228 650,244 649,245 649,250 648,251 648,254 647,255 647,256 646,257 646,259 645,260 645,261 644,262 644,263 643,264 643,265 642,266 642,267 641,268 641,269 639,271 639,272 635,276 635,277 626,286 625,286 623,288 622,288 621,289 620,289 618,291 617,291 616,292 615,292 614,293 612,293 611,294 609,294 608,295 604,295 603,296 593,296 592,295 587,295 586,294 583,294 582,293 580,293 579,292 577,292 579,292 580,293 582,293 583,294 586,294 587,295 592,295 593,296 603,296 604,295 608,295 609,294 611,294 612,293 614,293 615,292 617,292 618,291 619,291 621,289 622,289 623,288 624,288 626,286 627,286 635,278 635,277 638,274 638,273 640,271 640,270 642,268 642,267 643,266 643,265 644,264 644,263 645,262 645,260 646,259 646,257 647,256 647,255 648,254 648,251 649,250 649,245 650,244 650,228 649,227 649,223 648,222 648,218 647,217 647,215 646,214 646,213 645,212 645,211 644,210 644,208 643,207 643,206 642,205 642,204 640,202 640,201 637,198 637,197 629,189 628,189 626,187 625,187 624,186 623,186 622,185 621,185 620,184 619,184 618,183 616,183 615,182 612,182 611,181 605,181 604,180" stroke="black" stroke-width="1" /><polyline fill="none" points="444,156 445,157 445,177 445,157 446,156 449,156" stroke="black" stroke-width="1" /><polyline fill="none" points="598,130 599,129 617,129 618,130 625,130 626,131 631,131 632,132 634,132 635,133 636,133 640,137 640,139 638,141 633,141 632,140 624,140 623,139 614,139 613,138 599,138 598,137 597,137 595,135 595,132 597,130" stroke="black" stroke-width="1" /><polyline fill="none" points="599,129 598,130 596,130 595,131 595,135 596,136 596,137 597,137 598,138 613,138 614,139 623,139 624,140 632,140 633,141 638,141 639,140 641,140 640,139 640,136 637,133 636,133 635,132 632,132 631,131 626,131 625,130 618,130 617,129" stroke="black" stroke-width="1" /><polyline fill="none" points="461,110 461,114 460,115 460,116 459,117 459,118 456,121 455,121 454,122 452,122 455,122 459,118 459,117 460,116 460,115 461,114" stroke="black" stroke-width="1" /><polyline fill="none" points="453,97 454,97 460,103 460,106 458,108 455,108 450,103 450,100" stroke="black" stroke-width="1" /><polyline fill="none" points="453,97 452,98 451,98 451,99 450,100 450,103 451,104 451,105 454,108 459,108 459,107 460,106 460,103 459,102 459,101 456,98 455,98 454,97" stroke="black" stroke-width="1" /><polyline fill="none" points="444,94 443,95 441,95 440,96 439,96 437,98 436,98 434,100 434,101 432,103 432,105 431,106 431,114 432,115 432,116 433,117 433,118 435,120 436,120 437,121 438,121 439,122 441,122 443,124 444,123 445,124 450,124 445,124 444,123 443,124 441,122 439,122 438,121 437,121 433,117 433,116 431,114 431,106 432,105 432,103 439,96 440,96 441,95 443,95 444,94 448,94" stroke="black" stroke-width="1" /><polyline fill="none" points="444,91 443,92 440,92 439,93 437,93 435,95 434,95 432,97 432,98 430,100 430,101 429,102 429,104 428,105 428,114 429,115 429,117 430,118 430,119 435,124 438,124 439,125 440,125 442,127 442,154 441,155 441,157 442,158 442,165 441,166 441,178 439,180 439,181 438,182 438,183 439,184 439,224 433,230 433,231 432,232 432,233 431,234 431,236 430,237 430,239 429,240 429,243 428,244 428,254 429,255 429,260 430,261 430,267 431,268 431,271 432,272 432,274 433,275 433,277 434,278 434,279 436,281 436,282 439,285 439,286 442,289 443,289 444,290 446,290 447,291 448,291 449,292 450,292 451,293 451,294 450,295 450,297 451,298 451,324 452,325 455,325 456,326 461,326 462,327 467,327 468,328 474,328 475,329 480,329 481,330 485,330 486,331 492,331 493,332 497,332 498,333 503,333 504,334 509,334 510,335 516,335 517,336 523,336 524,337 530,337 531,338 538,338 539,339 545,339 546,340 552,340 553,341 560,341 561,342 568,342 569,343 575,343 577,345 577,363 575,365 570,365 569,366 561,366 560,367 553,367 552,368 545,368 544,369 538,369 537,370 532,370 531,371 524,371 523,372 517,372 516,373 511,373 510,374 505,374 504,375 504,380 499,385 498,385 496,387 496,388 493,391 493,392 492,393 492,394 491,395 491,396 490,397 490,399 489,400 489,403 488,404 488,418 489,419 489,421 490,422 490,426 489,427 489,428 487,430 487,431 485,433 485,434 483,436 483,437 482,438 482,439 480,441 480,442 478,444 478,445 476,447 476,448 475,449 475,450 474,451 474,452 473,453 473,454 471,456 471,457 470,458 470,459 469,460 469,461 467,463 467,464 466,465 466,466 465,467 465,468 464,469 461,469 460,468 452,468 449,471 449,472 447,474 447,475 444,478 444,479 442,481 442,482 440,484 440,485 439,486 439,487 437,489 437,490 435,492 435,493 434,494 434,495 433,496 433,498 432,499 432,501 433,502 435,502 437,504 438,504 437,503 436,503 435,502 434,502 432,500 432,499 433,498 433,497 434,496 434,495 435,494 435,493 437,491 437,490 439,488 439,487 440,486 440,485 442,483 442,482 444,480 444,479 447,476 447,475 449,473 449,472 453,468 460,468 461,469 465,469 466,470 466,471 467,471 468,472 470,472 471,473 474,473 475,474 477,474 478,475 479,475 478,474 475,474 474,473 471,473 470,472 468,472 465,469 465,468 466,467 466,466 467,465 467,464 469,462 469,461 470,460 470,459 471,458 471,457 473,455 473,454 474,453 474,452 475,451 475,450 476,449 476,448 478,446 478,445 480,443 480,442 482,440 482,439 483,438 483,437 485,435 485,434 487,432 487,431 489,429 489,428 490,427 490,422 489,421 489,419 488,418 488,404 489,403 489,400 490,399 490,398 491,397 491,396 492,395 492,394 493,393 493,392 496,389 496,388 499,385 500,385 506,379 509,379 510,378 511,378 512,377 514,377 515,376 518,376 519,375 524,375 525,376 531,376 532,377 535,377 537,379 538,379 539,380 540,380 542,382 543,382 544,383 545,383 551,389 551,390 553,392 553,393 554,394 554,395 555,396 555,397 556,398 556,399 557,400 557,403 558,404 558,407 559,408 559,419 558,420 558,424 557,425 557,427 556,428 556,429 555,430 555,431 554,432 554,433 551,436 551,437 544,444 543,444 541,446 540,446 538,448 536,448 535,449 533,449 532,450 519,450 518,449 516,449 515,448 514,448 513,447 511,447 509,449 509,450 507,452 507,453 506,454 506,455 505,456 505,457 503,459 503,460 501,462 501,463 499,465 499,466 498,467 498,468 496,470 496,471 495,472 495,473 494,474 494,475 492,477 492,478 490,480 489,480 488,479 488,478 489,477 489,476 491,474 491,473 493,471 493,467 492,466 491,466 488,463 487,463 486,462 485,462 483,460 482,460 481,459 480,459 478,457 475,457 474,458 474,459 473,460 473,461 472,462 472,463 470,465 470,466 469,467 469,468 468,469 469,468 469,467 471,465 471,464 472,463 472,462 473,461 473,460 476,457 477,457 479,459 480,459 481,460 482,460 484,462 485,462 486,463 487,463 490,466 491,466 493,468 493,470 492,471 492,472 491,473 491,474 488,477 488,478 487,479 485,479 487,479 488,480 489,480 490,481 492,479 492,478 494,476 494,475 495,474 495,473 496,472 496,471 498,469 498,468 499,467 499,466 500,465 500,464 503,461 503,460 505,458 505,457 506,456 506,455 507,454 507,453 509,451 509,450 512,447 513,447 515,449 518,449 519,450 532,450 533,449 535,449 536,448 539,448 541,446 542,446 544,444 545,444 551,438 551,437 554,434 554,433 555,432 555,431 556,430 556,428 557,427 557,425 558,424 558,420 559,419 559,408 558,407 558,404 557,403 557,400 556,399 556,397 555,396 555,395 554,394 554,393 553,392 553,391 547,385 547,384 546,384 544,382 543,382 541,380 540,380 539,379 538,379 537,378 536,378 535,377 532,377 531,376 525,376 524,375 519,375 518,376 515,376 514,377 511,377 509,379 506,379 505,380 504,379 504,376 506,374 510,374 511,373 516,373 517,372 523,372 524,371 531,371 532,370 537,370 538,369 544,369 545,368 552,368 553,367 560,367 561,366 569,366 570,365 576,365 576,364 577,363 578,364 579,364 580,365 590,365 591,364 595,364 596,363 597,363 598,362 599,362 600,361 603,361 604,360 609,360 610,359 615,359 616,358 621,358 622,357 627,357 628,356 630,356 632,358 632,365 633,366 634,366 634,365 635,364 636,365 638,365 639,366 649,366 650,367 658,367 659,368 667,368 668,369 674,369 675,370 682,370 683,371 691,371 692,372 700,372 701,373 703,373 704,374 704,375 705,376 705,380 706,380 707,381 708,381 709,382 710,382 712,384 713,384 721,392 721,393 722,394 722,395 723,396 723,397 724,398 724,399 725,400 725,402 726,403 726,409 727,410 727,414 726,415 727,416 726,417 734,425 735,425 742,432 743,432 757,446 758,446 764,452 766,450 767,450 771,446 772,446 773,445 780,445 781,446 783,446 784,447 786,447 787,448 789,448 790,449 791,449 792,450 793,450 794,451 795,451 796,452 797,452 798,453 799,453 800,454 801,454 802,455 803,455 805,457 806,457 807,458 808,458 810,460 811,460 813,462 813,464 811,466 811,467 810,468 808,468 807,467 805,469 806,469 807,468 809,468 810,469 811,469 818,476 818,477 819,478 819,479 820,480 820,482 821,483 821,490 820,491 820,493 819,494 819,495 818,496 818,497 812,503 811,503 810,504 809,504 808,505 807,505 806,506 805,506 804,507 801,507 800,508 793,508 792,507 790,507 789,506 788,506 787,505 786,505 785,504 784,504 783,503 782,503 781,504 781,505 777,509 775,509 774,508 773,508 771,506 770,506 768,504 767,504 764,501 763,501 760,498 759,498 756,495 755,495 747,487 747,486 745,484 745,479 746,478 746,476 748,474 749,474 750,473 750,472 752,470 752,469 753,468 753,467 756,464 756,463 758,461 759,461 761,463 761,464 762,465 763,465 765,467 766,467 767,468 768,468 770,470 771,470 773,472 774,472 777,475 778,475 780,477 781,477 782,478 783,478 784,479 785,479 787,481 789,481 788,481 787,480 786,480 784,478 783,478 782,477 781,477 779,475 778,475 776,473 775,473 772,470 771,470 769,468 768,468 767,467 766,467 764,465 763,465 760,462 761,461 761,460 762,459 763,459 764,458 764,457 760,461 757,461 756,462 756,463 753,466 753,467 752,468 752,469 750,471 750,472 748,474 747,474 744,471 743,471 732,460 731,460 719,448 721,446 722,446 726,442 726,441 730,437 730,436 736,430 736,429 734,429 727,422 726,422 726,423 725,424 725,426 724,427 724,428 723,429 723,430 722,431 722,432 720,434 720,435 716,439 716,440 715,441 720,436 720,435 722,433 722,432 723,431 723,430 724,429 724,428 725,427 725,424 727,422 735,430 730,435 730,436 726,440 726,441 721,446 717,442 720,445 720,447 719,448 712,441 712,440 717,435 717,434 719,432 719,431 720,430 720,429 721,428 721,426 722,425 722,424 723,423 723,420 724,419 723,420 723,423 722,424 722,425 721,426 721,427 720,428 720,429 719,430 719,431 717,433 717,434 712,439 712,442 713,443 712,444 712,447 713,448 713,456 714,457 714,468 715,469 715,478 716,479 716,490 717,491 717,504 718,505 718,515 717,516 716,516 715,517 700,517 699,518 698,518 692,524 691,524 688,527 687,527 686,528 685,528 683,530 682,530 680,532 679,532 678,533 677,533 676,534 675,534 674,535 673,535 672,536 671,536 670,537 668,537 667,538 666,538 665,539 664,539 663,540 661,540 660,541 658,541 657,542 655,542 654,543 652,543 651,544 649,544 649,546 648,547 648,550 647,551 647,555 646,556 646,563 647,564 648,564 649,565 650,565 653,568 654,568 661,575 661,576 664,579 664,580 665,581 665,582 666,583 666,584 668,586 668,587 669,588 669,589 670,590 670,591 667,594 665,594 663,596 661,596 660,597 659,597 658,598 656,598 655,599 653,599 652,600 650,600 651,601 650,602 651,602 655,606 655,607 658,610 658,611 659,612 659,613 661,615 661,616 662,617 662,618 663,619 663,621 664,622 664,625 665,626 665,628 666,629 666,639 665,640 663,640 662,641 661,640 660,640 659,641 639,641 638,640 625,640 624,639 619,639 618,638 614,638 613,637 609,637 608,636 605,636 604,635 602,635 601,634 598,634 597,633 594,633 593,632 591,632 590,631 587,631 586,630 584,630 583,629 581,629 580,628 577,628 576,627 574,627 573,626 572,626 571,625 571,622 573,620 573,619 574,618 574,617 575,616 575,611 573,609 573,605 574,604 574,595 575,594 575,591 576,590 576,588 577,587 577,586 578,585 578,584 579,583 579,582 580,581 580,580 583,577 583,576 588,571 589,571 591,569 592,569 593,568 593,567 594,566 594,565 593,564 593,560 592,559 592,556 591,555 591,553 590,552 589,552 588,551 587,551 585,549 584,549 581,546 580,546 578,544 572,544 571,543 567,543 566,542 563,542 562,541 560,541 559,540 557,540 556,539 555,539 554,538 553,538 552,537 551,537 550,536 548,536 547,535 546,535 545,534 544,534 542,532 541,532 540,531 539,531 537,529 536,529 534,527 533,527 531,525 530,525 526,521 525,521 521,517 520,517 519,516 502,516 501,515 499,515 497,513 498,512 498,509 499,508 499,506 498,505 498,504 498,506 496,508 496,509 495,510 495,512 494,513 494,514 493,515 493,517 492,518 492,520 491,521 491,522 490,523 490,524 489,525 489,526 487,528 483,528 481,526 480,527 481,527 482,528 488,528 489,527 489,526 490,525 490,524 491,523 491,521 492,520 492,518 493,517 493,516 494,515 494,514 495,513 495,511 496,510 496,508 497,507 498,507 499,508 498,509 498,512 497,513 497,514 498,515 501,515 502,516 518,516 519,517 520,517 524,521 525,521 529,525 530,525 532,527 533,527 535,529 536,529 538,531 539,531 540,532 541,532 542,533 543,533 545,535 546,535 547,536 549,536 550,537 552,537 553,538 554,538 555,539 556,539 557,540 559,540 560,541 562,541 563,542 566,542 567,543 571,543 572,544 577,544 579,546 580,546 583,549 584,549 586,551 587,551 588,552 589,552 591,554 591,555 592,556 592,559 593,560 593,564 594,565 594,566 591,569 590,569 588,571 587,571 583,575 583,576 580,579 580,580 579,581 579,582 578,583 578,584 577,585 577,587 576,588 576,590 575,591 575,594 574,595 574,604 573,605 573,609 574,610 574,611 575,612 575,615 574,616 574,617 573,618 573,619 572,620 572,621 571,622 571,625 573,627 576,627 577,628 580,628 581,629 583,629 584,630 586,630 587,631 590,631 591,632 593,632 594,633 597,633 598,634 601,634 602,635 604,635 605,636 608,636 609,637 613,637 614,638 618,638 619,639 624,639 625,640 638,640 639,641 659,641 660,640 661,640 662,641 663,640 666,640 666,628 665,627 665,626 664,625 664,622 663,621 663,619 662,618 662,616 661,615 661,614 659,612 659,611 658,610 658,609 655,606 655,605 651,601 653,599 655,599 656,598 658,598 659,597 660,597 661,596 663,596 664,595 665,595 666,594 668,594 670,592 670,590 669,589 669,587 668,586 668,585 666,583 666,582 665,581 665,580 664,579 664,578 661,575 661,574 655,568 654,568 651,565 650,565 649,564 648,564 646,562 646,556 647,555 647,551 648,550 648,547 649,546 649,545 650,544 651,544 652,543 654,543 655,542 657,542 658,541 660,541 661,540 663,540 664,539 665,539 666,538 668,538 669,537 670,537 671,536 673,536 674,535 675,535 676,534 677,534 678,533 679,533 680,532 681,532 683,530 684,530 686,528 687,528 688,527 689,527 692,524 693,524 699,518 700,518 701,517 715,517 716,516 718,516 718,505 717,504 717,491 716,490 716,479 715,478 715,469 714,468 714,457 713,456 713,448 712,447 712,444 713,443 730,460 731,460 742,471 743,471 746,474 746,478 745,479 745,484 746,485 746,486 747,487 747,488 754,495 755,495 758,498 759,498 762,501 763,501 766,504 767,504 769,506 770,506 772,508 773,508 774,509 778,509 781,506 781,504 782,503 783,504 784,504 785,505 786,505 787,506 789,506 790,507 792,507 793,508 800,508 801,507 804,507 805,506 807,506 808,505 809,505 810,504 811,504 812,503 813,503 818,498 818,497 819,496 819,494 820,493 820,491 821,490 821,483 820,482 820,480 819,479 819,477 818,476 818,475 812,469 811,469 810,468 814,464 813,463 814,462 812,460 811,460 809,458 808,458 807,457 806,457 804,455 803,455 802,454 801,454 800,453 799,453 798,452 797,452 796,451 795,451 794,450 793,450 792,449 790,449 789,448 787,448 786,447 784,447 783,446 781,446 780,445 772,445 771,446 770,446 765,451 764,451 760,447 759,447 744,432 743,432 736,425 735,425 727,417 727,416 726,415 727,414 727,410 726,409 726,403 725,402 725,400 724,399 724,397 723,396 723,395 722,394 722,393 721,392 721,391 714,384 713,384 711,382 709,382 708,381 707,381 705,379 705,376 704,375 704,373 701,373 700,372 692,372 691,371 683,371 682,370 675,370 674,369 668,369 667,368 659,368 658,367 650,367 649,366 639,366 638,365 636,365 635,364 635,351 637,349 638,350 734,350 735,349 750,349 751,348 753,348 754,347 754,342 755,341 755,336 756,335 756,330 757,329 757,324 758,323 758,318 759,317 759,314 762,311 764,311 767,308 768,308 768,307 771,304 771,303 772,302 772,301 773,300 773,298 774,297 774,296 775,295 775,293 776,292 776,288 777,287 777,282 778,281 778,266 777,265 777,261 776,260 776,257 775,256 775,255 774,254 774,253 773,252 773,251 769,247 768,247 766,245 766,244 765,243 765,242 766,241 766,229 765,228 765,214 764,213 764,205 763,204 763,203 760,200 759,200 757,198 756,198 752,194 751,194 749,192 748,192 746,190 745,190 744,189 743,189 741,187 740,187 738,185 737,185 735,183 734,183 733,182 732,182 730,180 729,180 728,179 727,179 725,177 724,177 723,176 722,176 720,174 718,174 717,173 716,173 715,172 714,172 712,170 711,170 710,169 708,169 707,168 706,168 705,167 704,167 703,166 701,166 700,165 699,165 698,164 696,164 695,163 693,163 692,162 690,162 689,161 687,161 686,160 683,160 682,159 680,159 679,158 678,158 679,158 680,159 682,159 683,160 686,160 687,161 689,161 690,162 692,162 693,163 695,163 696,164 698,164 700,166 702,166 703,167 704,167 705,168 707,168 708,169 709,169 710,170 711,170 712,171 713,171 715,173 717,173 718,174 719,174 721,176 722,176 723,177 724,177 726,179 727,179 728,180 729,180 731,182 732,182 733,183 734,183 736,185 737,185 739,187 740,187 742,189 743,189 744,190 745,190 747,192 748,192 750,194 751,194 755,198 756,198 758,200 759,200 764,205 764,213 765,214 765,228 766,229 766,241 765,242 765,243 766,244 765,245 766,246 765,247 766,246 767,247 768,247 773,252 773,253 774,254 774,255 776,257 776,260 777,261 777,265 778,266 778,281 777,282 777,287 776,288 776,292 775,293 775,295 774,296 774,297 773,298 773,299 772,300 772,301 771,302 771,303 768,306 768,307 767,308 766,308 763,311 762,311 761,312 760,312 758,310 758,302 759,301 759,292 760,291 760,284 761,283 761,273 762,272 762,255 763,254 763,244 762,243 763,242 763,230 762,229 762,215 761,214 761,207 760,206 760,204 759,204 757,202 756,202 754,200 753,200 750,197 749,197 748,196 747,196 745,194 744,194 742,192 741,192 738,189 737,189 736,188 735,188 734,187 733,187 731,185 730,185 729,184 728,184 726,182 725,182 724,181 723,181 721,179 720,179 719,178 718,178 717,177 716,177 715,176 714,176 713,175 712,175 711,174 710,174 709,173 707,173 706,172 705,172 704,171 702,171 701,170 700,170 699,169 697,169 696,168 694,168 693,167 691,167 690,166 688,166 687,165 685,165 684,164 681,164 680,163 678,163 677,162 672,162 671,161 667,161 666,160 661,160 660,159 658,159 657,160 655,160 655,162 656,163 656,165 657,166 657,168 658,169 658,170 659,171 661,171 662,172 668,172 669,173 673,173 674,174 677,174 678,175 681,175 682,176 685,176 686,177 687,177 688,178 690,178 691,179 693,179 694,180 696,180 697,181 698,181 699,182 701,182 703,184 705,184 706,185 707,185 708,186 709,186 710,187 711,187 713,189 714,189 716,191 717,191 718,192 719,192 721,194 722,194 723,195 724,195 726,197 727,197 729,199 730,199 732,201 733,201 739,207 740,207 744,211 744,212 746,214 746,215 747,216 747,217 749,219 749,221 750,222 750,223 750,221 749,220 749,219 748,218 748,217 747,216 747,215 746,214 746,213 744,211 744,210 741,207 740,207 735,202 734,202 731,199 730,199 728,197 727,197 725,195 724,195 723,194 722,194 720,192 719,192 718,191 717,191 715,189 714,189 712,187 711,187 710,186 709,186 708,185 707,185 706,184 704,184 703,183 702,183 701,182 699,182 698,181 697,181 696,180 694,180 693,179 691,179 690,178 689,178 688,177 686,177 685,176 682,176 681,175 678,175 677,174 674,174 673,173 669,173 668,172 662,172 661,171 660,171 657,168 657,166 656,165 656,163 655,162 655,161 656,160 657,160 658,159 660,159 661,160 666,160 667,161 671,161 672,162 677,162 678,163 680,163 681,164 684,164 685,165 687,165 688,166 690,166 691,167 693,167 694,168 696,168 697,169 698,169 699,170 701,170 702,171 704,171 705,172 706,172 707,173 708,173 709,174 710,174 711,175 712,175 713,176 714,176 715,177 716,177 717,178 718,178 719,179 720,179 722,181 723,181 724,182 725,182 727,184 728,184 729,185 730,185 732,187 733,187 734,188 735,188 736,189 737,189 740,192 741,192 743,194 744,194 746,196 747,196 748,197 749,197 752,200 753,200 755,202 756,202 758,204 759,204 760,205 760,206 761,207 761,214 762,215 762,229 763,230 763,242 762,243 763,244 763,254 762,255 762,272 761,273 761,283 760,284 760,291 759,292 759,301 758,302 758,310 756,312 756,315 755,316 755,321 754,322 754,328 753,329 753,334 752,335 752,340 751,341 751,344 749,346 744,346 743,345 743,340 744,339 744,333 745,332 745,328 746,327 746,322 747,321 747,317 748,316 748,311 749,310 749,305 750,304 750,297 751,296 751,288 752,287 752,281 753,280 753,276 753,280 752,281 752,287 751,288 751,296 750,297 750,304 749,305 749,310 748,311 748,316 747,317 747,321 746,322 746,327 745,328 745,332 744,333 744,339 743,340 743,345 742,346 735,346 734,347 680,347 679,346 667,346 666,345 653,345 652,344 636,344 635,343 623,343 622,342 610,342 609,341 599,341 598,340 588,340 587,339 576,339 575,338 566,338 565,337 555,337 554,336 546,336 545,335 537,335 536,334 528,334 527,333 521,333 520,332 513,332 512,331 509,331 508,330 508,305 509,304 509,291 510,290 509,289 509,287 510,286 510,270 511,269 511,242 512,241 512,224 513,223 513,209 514,208 514,198 515,197 515,185 516,184 516,175 517,174 517,165 518,164 518,162 518,164 517,165 517,174 516,175 516,184 515,185 515,197 514,198 514,208 513,209 513,223 512,224 512,241 511,242 511,269 510,270 510,286 509,287 509,289 510,290 509,291 509,304 508,305 508,331 512,331 513,332 520,332 521,333 527,333 528,334 536,334 537,335 545,335 546,336 554,336 555,337 565,337 566,338 575,338 576,339 587,339 588,340 598,340 599,341 609,341 610,342 622,342 623,343 635,343 636,344 652,344 653,345 666,345 667,346 679,346 680,347 734,347 735,346 750,346 751,345 751,341 752,340 752,335 753,334 753,329 754,328 754,322 755,321 755,316 756,315 756,312 758,310 760,312 759,313 759,317 758,318 758,323 757,324 757,329 756,330 756,335 755,336 755,341 754,342 754,346 752,348 751,348 750,349 735,349 734,350 638,350 637,349 636,349 635,350 635,364 633,366 632,365 632,358 631,357 631,356 628,356 627,357 622,357 621,358 616,358 615,359 610,359 609,360 604,360 603,361 600,361 599,362 598,362 597,363 596,363 595,364 591,364 590,365 580,365 579,364 578,364 577,363 577,344 576,343 569,343 568,342 561,342 560,341 553,341 552,340 546,340 545,339 539,339 538,338 531,338 530,337 524,337 523,336 517,336 516,335 510,335 509,334 504,334 503,333 498,333 497,332 493,332 492,331 486,331 485,330 481,330 480,329 475,329 474,328 468,328 467,327 462,327 461,326 456,326 455,325 453,325 451,323 451,298 450,297 450,295 451,294 451,292 450,292 449,291 447,291 446,290 445,290 444,289 443,289 439,285 439,284 436,281 436,280 434,278 434,277 433,276 433,275 432,274 432,272 431,271 431,268 430,267 430,261 429,260 429,255 428,254 428,244 429,243 429,240 430,239 430,237 431,236 431,234 433,232 433,231 439,225 439,183 438,182 441,179 441,166 442,165 442,158 441,157 441,155 442,154 442,126 441,125 439,125 438,124 436,124 430,118 430,117 429,116 429,115 428,114 428,105 429,104 429,103 430,102 430,101 432,99 432,98 435,95 436,95 438,93 439,93 440,92 443,92 444,91 450,91 451,92 453,92 455,94 456,94 462,100 462,101 463,102 463,103 464,104 464,108 465,109 464,110 464,115 463,116 463,117 461,119 461,120 457,124 456,124 455,125 452,125 451,126 451,153 452,154 452,155 451,156 451,164 452,165 452,167 451,168 451,178 454,181 454,203 453,204 453,212 456,212 457,211 457,204 458,203 458,195 459,194 459,187 460,186 460,180 461,179 461,178 462,177 463,177 464,176 466,176 467,175 469,175 470,174 471,174 472,173 474,173 475,172 477,172 478,171 480,171 481,170 483,170 484,169 486,169 487,168 490,168 491,167 493,167 494,166 496,166 497,165 499,165 500,164 503,164 504,163 506,163 507,162 509,162 510,161 513,161 514,160 516,160 517,159 519,159 520,158 526,158 527,157 532,157 533,156 538,156 538,155 539,154 540,155 540,156 541,155 551,155 552,154 561,154 562,153 567,153 568,152 581,152 582,151 588,151 589,150 589,149 590,148 590,142 591,141 591,140 592,139 592,136 592,138 591,139 591,141 590,142 590,147 589,148 589,150 588,151 582,151 581,152 568,152 567,153 562,153 561,154 552,154 551,155 540,155 539,154 539,152 540,151 540,150 548,142 549,142 551,140 552,140 554,138 555,138 556,137 557,137 558,136 559,136 560,135 561,135 562,134 564,134 565,133 567,133 568,132 570,132 571,131 573,131 574,130 577,130 578,129 582,129 583,128 587,128 588,127 595,127 596,126 617,126 618,127 625,127 626,128 631,128 632,129 635,129 636,130 639,130 640,131 642,131 643,132 645,132 646,133 648,133 649,134 651,134 652,135 653,135 654,136 655,136 656,137 657,137 659,139 660,139 661,140 662,140 664,142 665,142 667,144 668,144 676,152 676,153 677,154 677,156 676,157 674,157 673,156 673,153 668,148 667,148 665,146 667,148 668,148 672,152 672,153 673,154 673,156 672,157 670,157 669,156 665,156 664,155 658,155 657,154 649,154 648,153 635,153 634,152 612,152 611,151 610,152 590,152 610,152 611,151 612,152 634,152 635,153 648,153 649,154 657,154 658,155 664,155 665,156 669,156 670,157 673,157 674,158 675,157 676,158 676,157 677,156 677,154 676,153 676,151 669,144 668,144 666,142 665,142 663,140 662,140 661,139 660,139 658,137 657,137 656,136 655,136 654,135 652,135 651,134 649,134 648,133 646,133 645,132 643,132 642,131 640,131 639,130 636,130 635,129 632,129 631,128 626,128 625,127 618,127 617,126 596,126 595,127 588,127 587,128 583,128 582,129 578,129 577,130 574,130 573,131 571,131 570,132 568,132 567,133 565,133 564,134 562,134 561,135 560,135 559,136 557,136 556,137 555,137 554,138 553,138 551,140 550,140 548,142 547,142 540,149 540,151 539,152 539,154 537,156 533,156 532,157 527,157 526,158 520,158 519,159 517,159 516,160 514,160 513,161 510,161 509,162 507,162 506,163 504,163 503,164 500,164 499,165 497,165 496,166 494,166 493,167 491,167 490,168 487,168 486,169 484,169 483,170 481,170 480,171 478,171 477,172 475,172 474,173 472,173 471,174 470,174 469,175 467,175 466,176 464,176 463,177 461,177 461,179 460,180 460,186 459,187 459,194 458,195 458,203 457,204 457,210 455,212 454,212 453,211 453,204 454,203 454,180 451,177 451,168 452,167 452,165 451,164 451,156 452,155 452,153 451,152 451,127 453,125 455,125 456,124 458,124 461,121 461,120 463,118 463,116 464,115 464,110 465,109 464,108 464,104 463,103 463,101 462,100 462,99 457,94 456,94 455,93 454,93 453,92 451,92 450,91" stroke="black" stroke-width="1" /></svg>