<?xml version="1.0" encoding="utf-8" ?>
<svg baseProfile="tiny" height="704" version="1.2" width="1248" xmlns="http://www.w3.org/2000/svg" xmlns:ev="http://www.w3.org/2001/xml-events" xmlns:xlink="http://www.w3.org/1999/xlink"><defs /><polyline fill="none" points="721,632 724,632 725,633 733,633 734,634 739,634 740,635 743,635 744,636 748,636 749,637 751,637 752,638 753,638 756,641 753,644 752,644 751,645 749,645 748,646 744,646 743,647 738,647 737,648 731,648 730,649 723,649 722,650 715,650 714,651 703,651 702,652 692,652 691,653 675,653 674,654 653,654 652,655 622,655 621,656 578,656 577,655 551,655 550,654 534,654 533,653 527,653 533,653 534,654 550,654 551,655 577,655 578,656 621,656 622,655 652,655 653,654 674,654 675,653 691,653 692,652 702,652 703,651 714,651 715,650 722,650 723,649 730,649 731,648 737,648 738,647 743,647 744,646 748,646 749,645 751,645 752,644 754,644 756,642 756,640 754,638 752,638 751,637 749,637 748,636 744,636 743,635 740,635 739,634 734,634 733,633 725,633 724,632" stroke="black" stroke-width="1" /><polyline fill="none" points="490,630 489,631 483,631 482,632 476,632 475,633 469,633 468,634 464,634 463,635 460,635 459,636 456,636 455,637 453,637 452,638 451,638 450,639 450,642 452,644 454,644 455,645 458,645 459,646 463,646 464,647 469,647 470,648 476,648 477,649 483,649 484,650 492,650 493,651 502,651 503,652 514,652 515,653 518,653 515,653 514,652 503,652 502,651 493,651 492,650 484,650 483,649 477,649 476,648 470,648 469,647 464,647 463,646 459,646 458,645 455,645 454,644 453,644 450,641 450,640 453,637 455,637 456,636 459,636 460,635 463,635 464,634 468,634 469,633 475,633 476,632 482,632 483,631 489,631 490,630 499,630" stroke="black" stroke-width="1" /><polyline fill="none" points="558,626 557,627 543,627 557,627 558,626 632,626 633,627 640,627 633,627 632,626" stroke="black" stroke-width="1" /><polyline fill="none" points="711,602 710,603 708,603 707,604 705,604 704,605 703,605 702,606 701,606 699,608 698,608 693,613 693,614 699,608 700,608 702,606 703,606 704,605 705,605 706,604 707,604 708,603 710,603 711,602 712,602" stroke="black" stroke-width="1" /><polyline fill="none" points="688,592 687,593 684,593 683,594 681,594 680,595 678,595 677,596 675,596 674,597 672,597 671,598 670,598 667,601 667,602 666,603 666,604 664,606 664,607 663,608 663,609 662,610 662,612 661,613 661,614 660,615 660,616 659,617 659,619 658,620 658,622 657,623 657,624 656,625 656,627 655,628 655,633 663,633 664,632 670,632 671,631 679,631 680,630 685,630 686,629 690,629 686,629 685,630 680,630 679,631 671,631 670,632 664,632 663,633 656,633 655,632 655,628 656,627 656,626 657,625 657,624 658,623 658,620 659,619 659,618 660,617 660,615 661,614 661,613 662,612 662,611 663,610 663,609 664,608 664,607 666,605 666,604 667,603 667,602 671,598 672,598 673,597 675,597 676,596 677,596 678,595 680,595 681,594 683,594 684,593 687,593 688,592 698,592 699,593 702,593 703,594 705,594 707,596 708,596 709,597 710,597 723,610 723,611 725,613 725,614 727,616 727,617 728,618 728,619 727,620 726,620 725,621 723,621 722,622 719,622 718,623 715,623 714,624 711,624 710,625 707,625 706,626 703,626 702,627 699,627 698,628 694,628 693,627 693,622 692,621 692,617 691,616 691,615 690,614 690,613 688,611 688,610 686,608 686,607 685,607 677,599 674,599 676,599 684,607 685,607 686,608 686,609 688,611 688,612 691,615 691,616 692,617 692,621 693,622 693,628 698,628 699,627 702,627 703,626 706,626 707,625 710,625 711,624 714,624 715,623 718,623 719,622 722,622 723,621 725,621 726,620 728,620 728,617 727,616 727,615 725,613 725,612 723,610 723,609 711,597 710,597 709,596 708,596 707,595 706,595 705,594 703,594 702,593 699,593 698,592" stroke="black" stroke-width="1" /><polyline fill="none" points="676,589 675,590 671,590 670,591 667,591 666,592 661,592 666,592 667,591 670,591 671,590 675,590 676,589 681,589" stroke="black" stroke-width="1" /><polyline fill="none" points="492,582 491,583 487,583 486,584 486,586 487,587 487,588 488,589 488,591 489,592 489,594 490,595 490,597 491,598 491,600 492,601 492,602 493,603 493,605 494,606 494,607 495,608 495,609 496,610 496,611 497,612 497,613 497,612 496,611 496,609 495,608 495,607 494,606 494,605 493,604 493,603 492,602 492,600 491,599 491,598 490,597 490,594 489,593 489,592 488,591 488,589 487,588 487,586 486,585 486,584 487,583 491,583 492,582 515,582 516,583 519,583 520,584 522,584 523,585 524,585 526,587 526,588 529,591 529,592 532,595 532,596 535,599 535,600 536,601 536,602 537,603 537,606 538,607 538,616 537,617 537,620 536,621 536,624 533,627 533,629 532,630 532,631 531,632 531,633 530,634 530,635 528,637 528,638 526,640 526,641 524,643 523,643 522,644 517,639 517,638 510,631 510,630 507,627 507,626 503,622 503,621 500,618 500,617 499,616 500,615 501,615 502,614 504,614 505,613 506,613 507,612 508,612 509,611 510,611 511,610 514,610 515,611 517,611 519,613 520,613 522,615 523,615 529,621 529,622 531,624 531,625 531,623 529,621 529,620 524,615 523,615 521,613 520,613 518,611 515,611 514,610 510,610 509,611 508,611 507,612 506,612 505,613 504,613 503,614 501,614 499,616 499,617 500,618 500,619 504,623 504,624 507,627 507,628 510,631 510,632 517,639 517,640 521,644 522,644 523,643 524,644 526,642 526,641 528,639 528,638 530,636 530,635 531,634 531,633 532,632 532,630 533,629 533,627 536,624 536,621 537,620 537,617 538,616 538,607 537,606 537,603 536,602 536,600 534,598 534,597 532,595 532,594 528,590 528,589 526,587 526,586 525,586 523,584 520,584 519,583 516,583 515,582" stroke="black" stroke-width="1" /><polyline fill="none" points="536,575 532,579 531,579 529,581 529,583 531,585 531,586 534,589 534,590 536,592 536,593 538,595 538,596 540,598 540,599 542,599 543,598 544,598 548,594 549,594 553,590 550,593 549,593 544,598 543,598 542,599 541,599 540,598 540,597 538,595 538,594 536,592 536,591 534,589 534,588 531,585 531,584 529,582 529,581 531,579 532,579" stroke="black" stroke-width="1" /><polyline fill="none" points="537,573 539,575 539,576 549,586 550,586 551,587 552,587 553,588 555,588 553,588 551,586 550,586 539,575 539,574 538,573" stroke="black" stroke-width="1" /><polyline fill="none" points="539,571 542,574 542,575 551,584 552,584 553,585 554,585 555,586 556,586 557,587 557,586 556,586 555,585 554,585 553,584 552,584 541,573 541,572 540,571" stroke="black" stroke-width="1" /><polyline fill="none" points="678,567 677,568 676,568 674,570 672,570 671,571 670,571 669,572 668,572 667,573 666,573 665,574 663,574 662,575 661,575 660,576 658,576 660,576 661,575 663,575 664,574 665,574 666,573 667,573 668,572 670,572 671,571 672,571 673,570 674,570 675,569 676,569 677,568 678,568 679,567 680,568 680,569 681,570 681,572 682,573 682,576 683,577 683,580 684,581 684,585 683,586 678,586 677,587 673,587 672,588 668,588 667,589 662,589 667,589 668,588 672,588 673,587 677,587 678,586 684,586 684,581 683,580 683,577 682,576 682,573 681,572 681,570 680,569 680,568 679,567" stroke="black" stroke-width="1" /><polyline fill="none" points="678,564 677,565 676,565 675,566 674,566 673,567 671,567 669,569 667,569 666,570 665,570 664,571 663,571 662,572 661,572 660,573 658,573 657,572 657,571 656,570 656,568 655,567 655,568 656,569 656,570 657,571 657,573 660,573 661,572 662,572 663,571 665,571 666,570 667,570 668,569 669,569 670,568 671,568 672,567 674,567 676,565 678,565 679,564" stroke="black" stroke-width="1" /><polyline fill="none" points="545,559 546,560 544,562 544,564 542,566 542,567 540,569 541,569 541,568 542,567 542,566 544,564 544,562 546,560 547,561 548,561 550,563 551,563 552,564 553,564 554,565 555,565 556,566 557,566 558,567 559,567 560,568 562,568 564,570 566,570 565,570 564,569 563,569 562,568 561,568 560,567 558,567 556,565 555,565 554,564 553,564 552,563 551,563 549,561 548,561 547,560 546,560" stroke="black" stroke-width="1" /><polyline fill="none" points="671,548 670,549 669,549 668,550 667,550 666,551 665,551 663,553 662,553 661,554 660,554 658,556 657,556 656,557 655,557 653,559 652,559 652,560 653,559 654,559 656,557 657,557 658,556 659,556 661,554 662,554 663,553 664,553 666,551 667,551 668,550 669,550 670,549 671,549 672,548 673,548 675,550 675,554 676,555 676,556 677,557 677,559 678,560 678,562 678,560 677,559 677,557 676,556 676,555 675,554 675,551 676,550 674,548" stroke="black" stroke-width="1" /><polyline fill="none" points="549,547 549,549 548,550 548,552 547,553 547,557 549,559 550,559 551,560 552,560 554,562 555,562 556,563 557,563 558,564 560,564 561,565 562,565 563,566 564,566 565,567 567,567 567,566 568,565 568,564 568,565 566,567 565,566 564,566 563,565 561,565 560,564 559,564 558,563 557,563 556,562 555,562 553,560 552,560 551,559 550,559 547,556 547,553 548,552 548,550 549,549" stroke="black" stroke-width="1" /><polyline fill="none" points="684,529 682,531 680,531 676,535 675,535 673,537 672,537 671,538 671,543 672,544 670,546 669,546 668,547 667,547 666,548 665,548 664,549 663,549 662,550 661,550 659,552 658,552 656,554 655,554 654,555 653,555 651,557 650,557 651,557 652,556 653,556 654,555 655,555 657,553 658,553 659,552 660,552 662,550 663,550 664,549 665,549 666,548 667,548 669,546 670,546 671,545 675,545 677,547 684,547 678,547 675,544 674,545 673,545 671,543 671,539 673,537 674,537 677,534 678,534 681,531 682,531" stroke="black" stroke-width="1" /><polyline fill="none" points="682,504 684,504 685,505 686,505 687,506 687,507 688,508 688,511 685,514 684,514 683,515 682,514 681,514 679,512 679,511 678,510 678,509 679,508 679,507" stroke="black" stroke-width="1" /><polyline fill="none" points="682,504 681,505 680,505 679,506 679,508 678,509 678,510 679,511 679,513 680,514 682,514 683,515 684,514 686,514 688,512 688,507 687,506 687,505 685,505 684,504" stroke="black" stroke-width="1" /><polyline fill="none" points="562,482 561,483 562,484 562,486 563,487 564,487 566,489 567,489 569,491 570,491 572,493 573,493 575,495 576,495 579,498 580,498 582,500 583,500 585,502 586,502 589,505 591,505 590,505 587,502 586,502 584,500 583,500 581,498 580,498 577,495 576,495 574,493 573,493 571,491 570,491 568,489 567,489 566,488 565,488 562,485" stroke="black" stroke-width="1" /><polyline fill="none" points="636,474 636,478 635,479 635,480 634,481 634,482 633,483 632,482 630,482 629,483 630,482 632,482 633,483 635,481 635,479 636,478" stroke="black" stroke-width="1" /><polyline fill="none" points="660,471 660,474 662,476 664,476 663,476 660,473 660,472 661,471 664,471 665,472 666,472 667,473 668,473 667,472 666,472 665,471" stroke="black" stroke-width="1" /><polyline fill="none" points="547,466 539,474 539,475 533,481 533,482 540,489 541,489 545,493 546,493 547,494 548,494 549,495 549,501 548,502 548,506 549,507 549,509 560,520 561,520 562,521 562,522 564,524 565,524 567,526 568,526 569,527 570,527 573,530 575,530 574,530 571,527 570,527 569,526 568,526 566,524 565,524 549,508 549,507 548,506 548,502 549,501 549,495 550,494 550,493 551,492 551,491 553,489 553,488 555,486 555,485 564,476 566,476 571,471 570,471 565,476 563,476 555,484 555,485 553,487 553,488 551,490 551,491 550,492 550,494 549,495 548,494 547,494 544,491 543,491 537,485 536,485 533,482 539,476 539,475 548,466 549,466 559,476 558,477 557,477 553,481 553,482 550,485 550,486 549,487 549,488 548,489 548,491 548,489 550,487 550,486 552,484 552,483 559,476 560,476 551,467 550,467 549,466" stroke="black" stroke-width="1" /><polyline fill="none" points="536,454 537,453 538,453 539,454 539,455 545,461 545,462 546,463 535,474 535,475 530,480 529,479 529,478 527,476 527,475 521,469 521,468 520,468 519,467 526,460 527,460 530,457 531,457 532,456 533,456 535,454" stroke="black" stroke-width="1" /><polyline fill="none" points="644,448 645,447 652,447 656,451 656,454 652,458 651,458 650,459 646,459 645,458 644,458 643,457 642,457 640,455 640,454 639,453 639,451 642,448" stroke="black" stroke-width="1" /><polyline fill="none" points="611,448 612,449 612,456 613,457 613,459 614,460 614,461 615,462 615,463 617,465 617,466 619,468 619,469 620,470 620,471 621,472 621,473 625,477 626,477 627,478 629,478 631,480 631,478 632,477 632,476 633,475 633,474 634,473 633,473 631,471 630,471 629,470 631,472 632,472 633,473 633,474 632,475 632,476 631,477 631,478 630,479 629,478 627,478 621,472 621,471 620,470 620,469 619,468 619,467 617,465 617,464 615,462 615,461 614,460 614,459 613,458 613,457 612,456 612,449" stroke="black" stroke-width="1" /><polyline fill="none" points="645,447 644,448 641,448 640,449 640,450 639,451 639,453 640,454 640,456 641,457 642,457 643,458 645,458 646,459 651,459 652,458 653,458 656,455 656,451 655,450 655,449 654,448 653,448 652,447" stroke="black" stroke-width="1" /><polyline fill="none" points="493,445 494,445 499,450 501,450 502,451 503,451 504,452 505,452 509,456 509,457 511,459 511,460 512,461 512,462 513,463 513,464 517,468 517,469 519,471 519,472 525,478 525,479 528,482 529,482 531,484 531,485 534,488 535,488 541,494 542,494 544,496 545,496 546,497 546,499 546,498 547,497 546,496 545,496 543,494 542,494 536,488 535,488 531,484 531,483 530,482 529,482 525,478 525,477 519,471 519,470 517,468 517,467 513,463 513,462 512,461 512,460 510,458 510,457 509,456 509,455 506,452 504,452 503,451 502,451 501,450 500,450 496,446 495,446 494,445" stroke="black" stroke-width="1" /><polyline fill="none" points="526,439 525,440 524,440 523,441 522,441 521,442 520,442 519,443 518,443 515,446 514,446 512,448 511,448 510,449 510,450 509,451 510,452 510,453 512,455 512,456 514,458 514,459 515,460 515,461 516,462 515,461 515,460 514,459 514,458 513,457 513,456 512,455 512,454 509,451 512,448 513,448 515,446 516,446 519,443 520,443 521,442 522,442 523,441 524,441 525,440 526,440 527,439 529,439 532,442 532,443 534,445 534,446 535,447 535,448 536,449 534,451 533,451 531,453 530,453 528,455 527,455 525,457 524,457 517,464 518,464 525,457 526,457 528,455 529,455 531,453 532,453 534,451 535,451 536,450 536,448 537,447 536,448 535,447 535,446 534,445 534,444 532,442 532,441 530,439" stroke="black" stroke-width="1" /><polyline fill="none" points="513,426 514,425 519,425 520,426 521,426 523,428 523,429 525,431 525,432 527,434 527,435 525,437 523,437 522,438 521,438 520,439 519,439 517,441 516,441 514,443 513,443 511,445 510,445 509,446 508,446 507,445 507,444 506,443 506,442 505,441 505,440 504,439 504,438 503,437 503,433 506,430 507,430 510,427 511,427 512,426" stroke="black" stroke-width="1" /><polyline fill="none" points="514,425 513,426 511,426 510,427 509,427 506,430 505,430 503,432 503,437 504,438 504,439 505,440 505,442 507,444 507,446 510,446 511,445 512,445 514,443 515,443 517,441 518,441 520,439 521,439 522,438 523,438 524,437 525,437 526,436 528,436 527,435 527,433 525,431 525,430 523,428 523,427 522,426 521,426 520,425" stroke="black" stroke-width="1" /><polyline fill="none" points="640,422 644,422 650,428 649,429 644,429 643,428 641,428 638,425 638,424" stroke="black" stroke-width="1" /><polyline fill="none" points="639,422 638,423 638,426 640,428 643,428 644,429 649,429 650,428 649,427 649,426 645,422" stroke="black" stroke-width="1" /><polyline fill="none" points="661,421 661,422 665,426 667,426 668,427 668,428 672,428 673,427 672,427 671,428 669,428 668,427 668,426 669,425 670,425 671,424 672,425 671,424 670,425 668,425 667,426 665,426 662,423 662,422" stroke="black" stroke-width="1" /><polyline fill="none" points="636,419 637,418 649,418 650,419 651,419 652,420 653,420 655,422 656,422 662,428 662,429 665,432 665,433 666,434 666,436 667,437 667,440 668,441 668,449 667,450 667,454 666,455 666,457 665,458 665,459 664,460 664,461 657,468 656,468 654,470 653,470 652,471 650,471 649,472 639,472 638,471 637,471 636,470 635,470 633,468 632,468 630,466 629,466 625,462 625,461 623,459 623,458 621,456 621,454 620,453 620,450 619,449 619,446 618,445 618,443 619,442 619,439 620,438 620,435 621,434 621,432 623,430 623,429 631,421 632,421 634,419" stroke="black" stroke-width="1" /><polyline fill="none" points="637,418 636,419 634,419 633,420 632,420 631,421 630,421 623,428 623,429 621,431 621,434 620,435 620,438 619,439 619,442 618,443 618,444 617,445 614,445 613,446 611,446 613,446 614,445 618,445 619,446 619,449 620,450 620,453 621,454 621,456 622,457 622,458 623,459 623,460 625,462 625,463 628,466 629,466 631,468 632,468 634,470 635,470 636,471 638,471 639,472 649,472 650,471 652,471 653,470 655,470 657,468 658,468 664,462 664,461 665,460 665,458 666,457 666,455 667,454 667,450 668,449 668,441 667,440 667,437 666,436 666,434 665,433 665,431 662,428 662,427 657,422 656,422 654,420 653,420 652,419 651,419 650,418" stroke="black" stroke-width="1" /><polyline fill="none" points="661,415 663,417 662,418 660,418 659,417" stroke="black" stroke-width="1" /><polyline fill="none" points="656,410 656,411 655,412 654,411 655,412 655,413 654,414 654,415 655,416 655,417 656,418 656,417 654,415 654,414 655,413 655,412 656,411 658,411 660,413 660,415 659,416 658,416 659,417 659,418 661,418 662,419 663,418 663,417 660,414 661,413 659,411 657,411" stroke="black" stroke-width="1" /><polyline fill="none" points="640,407 640,408 639,409 640,410 640,412 639,413 637,413 636,412 636,411 635,410 635,408 632,408 631,409 629,409 628,410 627,410 626,411 625,411 618,418 618,419 617,420 617,421 616,422 616,423 615,424 615,426 614,427 614,429 613,430 613,433 612,434 612,440 613,440 614,441 615,441 616,440 617,441 616,440 616,438 617,437 617,434 618,433 618,431 619,430 619,429 620,428 620,427 623,424 623,423 625,421 623,423 623,424 620,427 620,428 619,429 619,430 618,431 618,433 617,434 617,437 616,438 616,440 615,441 614,441 612,439 612,434 613,433 613,430 614,429 614,427 615,426 615,425 616,424 616,423 617,422 617,421 618,420 618,419 626,411 627,411 628,410 629,410 630,409 631,409 632,408 634,408 635,409 635,410 636,411 636,414 634,416 633,416 632,417 631,417 630,418 629,418 627,420 629,418 630,418 631,417 632,417 633,416 635,416 635,415 636,414 637,414 638,413 639,414 639,415 639,413 640,412 640,410 639,409 641,407 647,407 648,408 650,408 652,410 652,411 651,412 651,414 650,415 650,416 650,415 651,414 651,413 652,412 652,409 651,408 648,408 647,407" stroke="black" stroke-width="1" /><polyline fill="none" points="505,404 504,405 500,405 499,406 498,406 493,411 493,412 492,413 492,414 491,415 491,417 490,418 490,425 491,426 491,429 492,430 492,431 494,433 494,434 496,436 497,436 499,438 500,438 501,439 501,440 503,442 503,444 504,445 504,446 505,447 505,448 506,449 506,450 506,449 507,448 506,449 505,448 505,447 504,446 504,445 503,444 503,442 502,441 502,440 501,439 501,438 500,438 498,436 497,436 493,432 493,431 492,430 492,429 491,428 491,426 490,425 490,418 491,417 491,415 493,413 493,412 499,406 500,406 501,405 504,405 505,404 507,404 508,405 511,405 512,406 513,406 515,408 516,408 519,411 519,412 521,414 521,415 522,416 522,420 523,421 523,424 527,428 527,429 529,431 529,432 530,433 530,434 532,436 532,437 535,440 535,441 536,442 536,443 537,444 536,443 536,442 535,441 535,440 534,439 534,438 532,436 533,435 536,435 537,436 540,436 541,437 544,437 546,435 546,434 547,433 547,431 548,430 548,427 549,426 549,413 548,412 548,408 547,407 547,406 547,407 548,408 548,412 549,413 549,426 548,427 548,430 547,431 547,433 545,435 545,436 544,437 541,437 540,436 537,436 536,435 532,435 529,432 529,431 530,430 530,429 531,428 531,424 532,423 532,418 531,417 531,412 530,411 530,410 530,411 531,412 531,417 532,418 532,423 531,424 531,428 530,429 530,430 529,431 528,430 528,429 526,427 526,426 523,423 523,421 522,420 522,415 521,414 521,413 519,411 519,410 517,408 516,408 514,406 513,406 512,405 508,405 507,404" stroke="black" stroke-width="1" /><polyline fill="none" points="701,393 702,394 704,394 705,395 706,395 711,400 711,401 713,403 713,404 714,405 714,406 715,407 715,408 716,409 715,410 711,410 710,411 705,411 704,412 703,412 703,413 705,411 710,411 711,410 715,410 716,409 715,408 715,406 714,405 714,404 713,403 713,402 711,400 711,399 707,395 705,395 704,394 703,394 702,393" stroke="black" stroke-width="1" /><polyline fill="none" points="684,390 687,390 691,394 691,397 688,400 687,400 686,401 685,401 684,400 683,400 681,398 681,397 680,396 680,395 681,394 681,393" stroke="black" stroke-width="1" /><polyline fill="none" points="533,391 534,390 535,391 536,391 541,396 541,397 544,400 544,401 545,402 545,403 546,404 545,405 541,405 540,406 536,406 535,407 530,407 528,405 528,404 526,402 526,401 521,396 522,395 523,395 524,394 526,394 527,393 528,393 529,392 530,392 531,391" stroke="black" stroke-width="1" /><polyline fill="none" points="683,390 681,392 681,394 680,395 680,396 681,397 681,399 682,400 684,400 685,401 686,401 687,400 689,400 690,399 690,398 691,397 691,393 688,390" stroke="black" stroke-width="1" /><polyline fill="none" points="578,389 581,389 584,392 584,396 581,399 578,399 575,396 575,395 574,394 575,393 575,392" stroke="black" stroke-width="1" /><polyline fill="none" points="577,389 575,391 575,393 574,394 575,395 575,397 577,399 582,399 584,397 584,391 582,389" stroke="black" stroke-width="1" /><polyline fill="none" points="534,389 534,390 533,391 531,391 530,392 528,392 527,393 526,393 525,394 524,394 523,395 522,395 521,396 520,396 519,395 518,395 517,394 515,394 514,393 513,393 512,392 511,392 510,391 501,391 500,392 499,392 498,393 497,393 496,394 495,394 496,394 497,393 498,393 499,392 500,392 501,391 510,391 512,393 514,393 515,394 516,394 517,395 518,395 520,397 521,397 527,403 527,404 528,405 528,406 530,408 531,407 535,407 536,406 540,406 541,405 545,405 546,404 545,403 545,401 544,400 544,399 541,396 541,395 537,391 536,391" stroke="black" stroke-width="1" /><polyline fill="none" points="510,384 509,385 506,385 505,386 504,386 503,387 502,387 500,389 501,388 502,388 504,386 505,386 506,385 509,385 510,384 523,384 524,385 526,385 527,386 528,386 529,387 530,387 531,388 532,388 531,387 530,387 529,386 527,386 526,385 524,385 523,384" stroke="black" stroke-width="1" /><polyline fill="none" points="509,381 508,382 506,382 505,383 503,383 502,384 503,383 505,383 506,382 508,382 509,381 523,381 524,382 526,382 527,383 528,383 529,384 531,384 533,386 534,386 535,387 536,387 538,389 539,389 543,393 543,394 546,397 546,398 547,399 547,400 548,401 548,402 549,403 549,404 550,405 550,407 551,408 551,411 552,412 552,426 551,427 551,430 550,431 550,433 549,434 549,436 546,439 546,440 539,447 539,450 541,452 541,453 547,459 547,460 548,461 548,462 547,463 546,463 545,462 545,461 544,460 544,459 538,453 536,453 535,454 534,454 532,456 531,456 530,457 529,457 526,460 525,460 519,466 519,467 522,470 522,471 528,477 528,478 530,480 531,480 535,476 535,475 548,462 550,464 551,464 558,471 559,471 562,474 563,474 560,471 559,471 552,464 551,464 548,461 548,460 547,459 547,458 541,452 541,451 539,449 539,448 546,441 546,440 548,438 548,437 549,436 549,434 550,433 550,431 551,430 551,427 552,426 552,412 551,411 551,408 550,407 550,405 549,404 549,403 548,402 548,400 547,399 547,398 545,396 545,395 537,387 536,387 535,386 534,386 532,384 530,384 529,383 527,383 526,382 524,382 523,381" stroke="black" stroke-width="1" /><polyline fill="none" points="529,380 553,380 554,381 564,381 566,383 566,428 567,429 567,430 566,431 567,432 567,447 566,448 567,449 567,470 567,449 566,448 567,447 567,432 566,431 567,430 567,429 566,428 566,384 568,382 608,382 609,383 612,383 613,382 614,383 673,383 674,384 684,384 674,384 673,383 614,383 613,382 612,383 609,383 608,382 568,382 567,383 565,381 554,381 553,380" stroke="black" stroke-width="1" /><polyline fill="none" points="552,375 551,376 542,376 541,377 526,377 541,377 542,376 551,376 552,375 589,375 590,376 591,376 592,375 593,375 594,376 598,376 599,375 600,376 625,376 626,377 634,377 635,378 649,378 650,379 665,379 666,380 675,380 676,381 685,381 686,382 692,382 693,383 695,383 696,384 696,385 697,386 697,390 698,391 698,404 699,405 699,412 700,413 700,420 701,421 701,432 702,433 702,443 703,444 703,462 704,463 704,475 705,476 705,487 706,488 706,502 707,503 707,520 706,521 698,521 697,520 697,497 696,496 696,476 695,475 695,463 694,462 694,460 693,459 692,459 691,458 680,458 679,457 679,452 680,451 680,439 679,438 679,434 678,433 678,431 677,430 677,428 676,427 676,426 675,425 675,424 674,423 674,422 673,421 673,420 670,417 670,416 667,413 666,413 662,409 661,409 660,408 659,408 658,407 656,407 655,406 653,406 652,405 649,405 648,404 637,404 636,405 632,405 631,406 629,406 628,407 626,407 625,408 624,408 623,409 622,409 620,411 619,411 616,414 615,414 612,417 612,418 609,421 609,422 607,424 607,425 606,426 606,427 605,428 605,430 604,431 604,434 603,435 603,443 602,444 602,450 603,451 603,455 601,457 585,457 584,458 582,458 580,460 580,461 579,462 579,464 577,466 573,466 572,467 570,467 570,468 571,467 572,467 573,466 578,466 580,468 582,466 582,463 584,461 585,461 586,460 602,460 603,461 604,461 605,462 605,463 607,465 607,467 611,471 611,472 612,473 612,474 616,478 616,479 617,480 618,480 620,482 622,482 623,483 625,483 628,486 629,486 630,487 635,487 636,486 650,486 651,485 654,485 655,484 656,484 657,483 659,483 660,482 661,482 662,481 663,481 669,475 670,475 671,474 671,473 673,471 673,470 675,468 675,467 676,466 676,464 677,463 677,462 678,461 690,461 692,463 692,473 693,474 693,493 694,494 694,518 695,519 693,521 692,521 691,522 635,522 634,523 630,523 629,522 622,522 621,521 621,520 622,519 622,518 623,517 623,514 624,513 624,508 623,507 623,504 622,503 622,502 621,501 621,500 619,498 619,497 618,496 617,496 616,495 615,495 613,493 615,491 615,490 617,488 616,487 616,485 612,481 611,481 610,480 609,480 607,478 606,478 605,477 604,477 603,476 602,476 600,474 599,474 598,473 597,473 596,472 595,472 594,471 593,471 592,470 591,470 590,469 588,469 586,467 584,467 585,467 586,468 587,468 588,469 589,469 590,470 592,470 594,472 595,472 596,473 597,473 598,474 599,474 601,476 603,476 605,478 606,478 607,479 608,479 610,481 611,481 616,486 616,488 615,489 615,490 614,491 614,492 613,493 611,493 610,492 610,491 613,488 613,486 610,483 609,483 608,482 607,482 606,481 605,481 603,479 602,479 601,478 600,478 599,477 598,477 597,476 596,476 595,475 594,475 592,473 591,473 590,472 589,472 588,471 586,471 585,470 584,470 583,469 584,470 585,470 586,471 587,471 588,472 589,472 590,473 591,473 592,474 593,474 595,476 596,476 597,477 598,477 599,478 600,478 601,479 602,479 603,480 604,480 606,482 607,482 608,483 609,483 611,485 612,485 613,486 613,487 610,490 610,491 608,493 607,493 606,494 603,494 599,498 599,499 597,501 597,502 595,504 595,505 594,506 594,507 593,508 593,509 592,510 592,511 589,514 589,515 586,518 586,519 578,527 578,528 577,529 577,530 578,529 578,528 586,520 586,519 589,516 589,515 592,512 592,511 593,510 593,509 594,508 594,507 595,506 595,505 597,503 597,502 599,500 599,499 604,494 607,494 608,493 609,493 610,492 611,493 612,493 614,495 615,495 616,496 617,496 619,498 619,499 622,502 622,503 623,504 623,507 624,508 624,513 623,514 623,517 622,518 622,519 621,520 621,521 619,523 619,524 614,529 613,529 611,531 609,531 608,532 604,532 603,533 602,533 601,532 595,532 594,531 593,531 591,529 589,529 587,527 586,527 584,525 584,526 585,527 586,527 587,528 588,528 589,529 590,529 592,531 594,531 595,532 601,532 602,533 603,533 604,532 608,532 609,531 612,531 614,529 615,529 619,525 619,524 620,523 620,522 621,521 622,522 629,522 630,523 634,523 635,522 689,522 691,524 690,525 690,527 692,527 693,528 698,528 699,529 701,529 699,529 698,528 693,528 692,527 691,527 690,526 692,524 706,524 707,525 707,527 706,528 703,528 705,528 706,529 707,528 707,524 691,524 690,523 692,521 694,521 694,520 695,519 694,518 694,494 693,493 693,474 692,473 692,463 691,462 691,461 679,461 678,460 677,461 677,462 676,463 676,465 675,466 675,467 673,469 673,470 671,472 671,473 669,475 668,475 662,481 661,481 660,482 659,482 658,483 656,483 655,484 654,484 653,485 651,485 650,486 636,486 635,485 636,486 635,487 630,487 627,484 626,484 625,483 623,483 622,482 621,482 620,481 619,481 616,478 616,477 612,473 612,472 611,471 611,470 607,466 607,465 606,464 606,463 605,462 605,461 604,461 603,460 585,460 584,461 583,461 583,462 582,463 582,466 580,468 578,466 579,465 579,463 580,462 580,461 583,458 584,458 585,457 602,457 602,456 603,455 603,451 602,450 602,444 603,443 603,435 604,434 604,431 605,430 605,429 606,428 606,427 607,426 607,425 609,423 609,422 612,419 612,418 617,413 618,413 621,410 622,410 623,409 624,409 625,408 626,408 627,407 628,407 629,406 631,406 632,405 636,405 637,404 648,404 649,405 652,405 653,406 655,406 656,407 657,407 658,408 659,408 660,409 661,409 665,413 666,413 670,417 670,418 673,421 673,422 674,423 674,424 676,426 676,427 677,428 677,430 678,431 678,433 679,434 679,438 680,439 680,451 679,452 679,458 690,458 691,459 692,459 694,461 694,462 695,463 695,475 696,476 696,496 697,497 697,520 698,521 707,521 707,503 706,502 706,488 705,487 705,476 704,475 704,463 703,462 703,444 702,443 702,433 701,432 701,421 700,420 700,413 699,412 699,405 698,404 698,391 697,390 697,386 696,385 696,383 693,383 692,382 686,382 685,381 676,381 675,380 666,380 665,379 650,379 649,378 635,378 634,377 626,377 625,376 600,376 599,375 598,376 594,376 593,375 592,375 591,376 590,376 589,375" stroke="black" stroke-width="1" /><polyline fill="none" points="712,313 713,312 716,312 719,315 719,316 720,317 720,320 719,321 719,322 715,326 712,326 708,322 708,317 709,316 709,315 711,313" stroke="black" stroke-width="1" /><polyline fill="none" points="712,312 711,313 710,313 709,314 709,315 708,316 708,323 711,326 716,326 719,323 719,321 720,320 720,317 719,316 719,314 717,312" stroke="black" stroke-width="1" /><polyline fill="none" points="755,310 754,311 754,322 753,323 753,334 752,335 752,338 750,340 746,340 745,341 740,341 739,342 735,342 734,343 729,343 728,344 724,344 723,345 719,345 718,346 713,346 712,347 706,347 705,348 700,348 699,349 693,349 692,350 684,350 683,351 675,351 674,352 666,352 665,353 653,353 652,354 633,354 632,355 629,352 629,351 627,351 626,350 583,350 582,349 574,349 573,350 573,351 575,349 582,349 583,350 626,350 627,351 628,351 631,354 630,355 630,368 631,369 631,370 632,371 638,371 639,372 646,372 647,373 654,373 655,374 661,374 662,375 667,375 668,376 673,376 674,377 679,377 680,378 685,378 686,379 692,379 693,380 697,380 699,382 699,384 700,385 700,388 701,389 702,389 703,390 704,390 705,391 706,391 708,393 709,393 714,398 714,399 716,401 716,402 717,403 717,404 718,405 718,406 719,407 719,410 720,411 720,427 719,428 719,431 718,432 718,433 717,434 717,436 715,438 715,439 714,440 714,441 707,448 706,448 706,461 707,462 707,473 708,474 708,486 709,487 709,494 710,495 710,529 707,532 703,532 702,531 701,532 701,533 700,534 700,537 699,538 699,539 698,540 698,541 691,548 690,548 689,549 688,549 687,550 684,550 683,551 678,551 678,553 679,554 679,555 680,556 680,558 681,559 681,561 682,562 682,565 683,566 683,568 684,569 684,571 685,572 685,575 686,576 686,579 687,580 687,584 688,585 688,587 689,588 700,588 701,589 704,589 705,590 706,590 707,591 708,591 709,592 710,592 711,593 712,593 713,594 714,594 716,596 717,596 722,601 722,602 725,605 725,606 728,609 728,610 729,611 729,612 730,613 730,614 731,615 731,616 732,617 732,618 733,619 733,621 734,622 734,623 731,626 730,626 729,627 727,627 726,628 724,628 723,629 721,629 720,630 717,630 716,631 714,631 713,632 710,632 709,633 706,633 705,634 702,634 701,635 698,635 697,636 692,636 691,637 685,637 684,638 675,638 674,639 657,639 656,640 648,640 647,639 643,639 642,638 642,626 643,625 643,621 644,620 644,618 645,617 645,615 646,614 646,613 647,612 647,611 648,610 648,609 650,607 650,606 657,599 658,599 659,598 659,591 658,590 658,586 657,585 657,582 656,581 656,578 655,577 655,575 654,574 654,572 653,571 653,569 651,567 651,565 650,564 650,561 649,560 649,559 647,557 647,555 646,554 646,553 645,552 645,551 644,550 640,550 639,551 635,551 634,552 629,552 628,553 615,553 614,554 599,554 598,553 586,553 585,552 575,552 575,553 574,554 574,557 573,558 573,560 572,561 572,564 571,565 571,567 570,568 570,569 569,570 569,571 568,572 568,574 567,575 567,576 566,577 566,578 564,580 564,581 563,582 563,583 561,585 561,586 549,598 548,598 545,601 544,601 543,602 542,602 541,603 541,604 542,605 542,608 543,609 543,621 542,622 542,625 541,626 541,628 540,629 540,630 539,631 539,632 538,633 538,634 537,635 537,636 534,639 534,640 525,649 525,650 524,651 522,651 504,633 504,632 501,629 501,628 497,624 497,623 495,621 495,620 493,618 493,617 492,616 492,615 491,614 491,613 490,612 490,611 489,610 489,609 488,608 488,607 487,606 487,605 486,604 486,603 485,602 485,600 484,599 484,597 483,596 483,594 482,593 482,590 481,589 481,586 480,585 480,582 479,581 479,578 478,577 478,575 477,574 477,571 478,570 479,570 480,569 486,569 487,568 505,568 506,569 508,569 509,570 511,570 512,571 513,571 514,572 515,572 516,573 517,573 519,575 520,575 524,579 527,579 532,574 533,574 536,571 536,570 538,568 538,567 539,566 539,565 540,564 540,563 541,562 541,561 542,560 542,558 543,557 543,556 544,555 544,552 545,551 545,548 546,547 546,543 545,542 544,542 543,541 541,541 540,540 539,540 538,539 537,539 535,537 534,537 533,536 532,536 530,534 529,534 527,532 526,532 523,529 522,529 518,525 517,525 511,519 500,519 499,518 491,518 489,516 489,476 490,475 490,445 491,444 491,442 488,439 488,438 486,436 486,435 485,434 485,433 483,431 483,429 482,428 482,426 481,425 481,420 480,419 480,414 481,413 481,408 482,407 482,405 483,404 483,403 484,402 484,401 485,400 485,399 487,397 487,396 495,388 496,388 498,386 499,386 499,385 500,384 499,383 499,379 501,377 504,377 505,376 512,376 513,375 520,375 521,374 528,374 529,373 536,373 537,372 544,372 545,371 553,371 554,370 560,370 561,369 569,369 570,368 571,368 570,368 569,369 561,369 560,370 554,370 553,371 545,371 544,372 537,372 536,373 529,373 528,374 521,374 520,375 513,375 512,376 505,376 504,377 500,377 499,378 499,385 498,386 497,386 495,388 494,388 487,395 487,396 485,398 485,399 484,400 484,401 483,402 483,404 482,405 482,407 481,408 481,413 480,414 480,419 481,420 481,425 482,426 482,428 483,429 483,431 484,432 484,433 485,434 485,435 486,436 486,437 488,439 488,440 491,443 491,444 490,445 490,475 489,476 489,517 490,517 491,518 499,518 500,519 510,519 516,525 517,525 521,529 522,529 525,532 526,532 528,534 529,534 531,536 532,536 533,537 534,537 536,539 537,539 538,540 540,540 541,541 542,541 543,542 544,542 546,544 546,547 545,548 545,551 544,552 544,555 543,556 543,557 542,558 542,559 541,560 541,561 540,562 540,563 539,564 539,565 538,566 538,567 536,569 536,570 532,574 531,574 526,579 525,579 521,575 520,575 518,573 517,573 516,572 515,572 514,571 512,571 511,570 509,570 508,569 506,569 505,568 487,568 486,569 480,569 479,570 477,570 477,574 478,575 478,577 479,578 479,581 480,582 480,585 481,586 481,589 482,590 482,593 483,594 483,596 484,597 484,599 485,600 485,602 486,603 486,604 487,605 487,607 488,608 488,609 489,610 489,611 490,612 490,613 491,614 491,615 492,616 492,617 493,618 493,619 495,621 495,622 497,624 497,625 501,629 501,630 504,633 504,634 521,651 525,651 525,650 534,641 534,640 537,637 537,636 538,635 538,634 539,633 539,632 540,631 540,629 541,628 541,626 542,625 542,622 543,621 543,609 542,608 542,605 541,604 543,602 544,602 545,601 546,601 549,598 550,598 561,587 561,586 563,584 563,583 564,582 564,581 566,579 566,578 567,577 567,576 568,575 568,573 569,572 569,570 570,569 570,568 571,567 571,565 572,564 572,561 573,560 573,558 574,557 574,554 576,552 585,552 586,553 598,553 599,554 614,554 615,553 628,553 629,552 634,552 635,551 639,551 640,550 643,550 645,552 645,553 646,554 646,555 647,556 647,557 648,558 648,559 649,560 649,561 650,562 650,564 651,565 651,567 652,568 652,569 653,570 653,571 654,572 654,574 655,575 655,577 656,578 656,581 657,582 657,585 658,586 658,590 659,591 659,597 657,599 656,599 650,605 650,606 648,608 648,609 647,610 647,611 646,612 646,614 645,615 645,617 644,618 644,620 643,621 643,625 642,626 642,639 647,639 648,640 656,640 657,639 674,639 675,638 684,638 685,637 691,637 692,636 697,636 698,635 701,635 702,634 705,634 706,633 709,633 710,632 713,632 714,631 717,631 718,630 720,630 721,629 723,629 724,628 726,628 727,627 729,627 730,626 732,626 734,624 734,622 733,621 733,619 732,618 732,616 731,615 731,614 730,613 730,612 729,611 729,610 728,609 728,608 725,605 725,604 722,601 722,600 718,596 717,596 715,594 714,594 713,593 712,593 711,592 710,592 709,591 708,591 707,590 705,590 704,589 701,589 700,588 690,588 688,586 688,585 687,584 687,580 686,579 686,576 685,575 685,572 684,571 684,569 683,568 683,566 682,565 682,562 681,561 681,559 680,558 680,556 679,555 679,554 678,553 678,552 679,551 683,551 684,550 687,550 688,549 690,549 691,548 692,548 698,542 698,541 699,540 699,538 700,537 700,534 702,532 707,532 708,531 709,531 710,530 710,495 709,494 709,487 708,486 708,474 707,473 707,462 706,461 706,449 707,448 708,448 714,442 714,441 715,440 715,439 716,438 716,437 717,436 717,434 718,433 718,432 719,431 719,428 720,427 720,411 719,410 719,407 718,406 718,405 717,404 717,402 716,401 716,400 714,398 714,397 710,393 709,393 707,391 706,391 705,390 703,390 700,387 700,385 699,384 699,381 698,381 697,380 693,380 692,379 686,379 685,378 680,378 679,377 674,377 673,376 668,376 667,375 662,375 661,374 655,374 654,373 647,373 646,372 639,372 638,371 633,371 630,368 630,356 631,355 632,355 633,354 652,354 653,353 665,353 666,352 674,352 675,351 683,351 684,350 692,350 693,349 699,349 700,348 705,348 706,347 712,347 713,346 718,346 719,345 723,345 724,344 728,344 729,343 734,343 735,342 739,342 740,341 745,341 746,340 751,340 752,339 752,335 753,334 753,323 754,322 754,311" stroke="black" stroke-width="1" /><polyline fill="none" points="711,310 712,309 717,309 722,314 722,315 723,316 723,320 722,321 722,322 721,323 721,324 717,328 716,328 715,329 711,329 709,327 708,327 707,326 707,325 705,323 705,316 706,315 706,314 710,310" stroke="black" stroke-width="1" /><polyline fill="none" points="651,310 652,309 657,309 658,310 657,311 656,311 655,312 654,312 653,313 652,313 651,314 650,314 649,315 647,315 646,316 644,316 643,317 640,317 639,318 636,318 634,316 634,311 635,310" stroke="black" stroke-width="1" /><polyline fill="none" points="712,309 711,310 709,310 706,313 706,314 705,315 705,323 706,324 706,325 707,326 707,327 708,327 710,329 715,329 716,328 718,328 721,325 721,324 722,323 722,321 723,320 723,316 722,315 722,314 721,313 721,312 719,310 718,310 717,309" stroke="black" stroke-width="1" /><polyline fill="none" points="608,308 609,307 612,307 613,308 620,308 621,309 629,309 631,311 631,316 630,317 625,317 624,316 622,316 621,315 620,315 619,314 618,314 617,313 616,313 615,312 614,312 613,311 612,311 611,310 610,310" stroke="black" stroke-width="1" /><polyline fill="none" points="608,307 607,308 609,310 610,310 611,311 612,311 613,312 614,312 615,313 616,313 617,314 619,314 620,315 621,315 622,316 624,316 625,317 629,317 630,318 630,317 631,316 631,310 630,309 621,309 620,308 613,308 612,307" stroke="black" stroke-width="1" /><polyline fill="none" points="599,304 600,303 607,303 608,304 613,304 614,305 621,305 622,306 632,306 635,309 634,310 634,317 635,318 639,318 640,317 643,317 644,316 646,316 647,315 649,315 650,314 652,314 653,313 654,313 655,312 656,312 657,311 658,311 659,310 658,310 657,309 652,309 651,310 636,310 634,308 636,306 637,307 651,307 652,306 659,306 660,307 660,308 660,307 661,306 665,306 666,307 666,308 665,309 664,309 661,312 660,312 658,314 657,314 656,315 655,315 654,316 653,316 652,317 651,317 650,318 649,318 648,319 646,319 645,320 642,320 641,321 628,321 627,320 624,320 623,319 621,319 620,318 618,318 616,316 614,316 612,314 611,314 610,313 609,313 603,307 602,307" stroke="black" stroke-width="1" /><polyline fill="none" points="599,303 599,305 601,307 602,307 608,313 609,313 610,314 611,314 612,315 613,315 614,316 615,316 616,317 617,317 618,318 620,318 621,319 623,319 624,320 627,320 628,321 641,321 642,320 645,320 646,319 648,319 649,318 651,318 652,317 653,317 654,316 655,316 656,315 657,315 658,314 659,314 661,312 662,312 665,309 666,309 666,306 652,306 651,307 637,307 636,306 635,307 633,307 632,306 622,306 621,305 614,305 613,304 608,304 607,303" stroke="black" stroke-width="1" /><polyline fill="none" points="474,252 475,251 478,254 478,256 479,257 479,272 478,273 478,279 477,280 477,283 476,284 476,287 475,288 475,290 474,291 474,293 471,296 468,296 467,295 454,295 453,294 451,294 450,293 450,292 451,291 451,289 452,288 452,287 453,286 453,284 454,283 454,281 455,280 455,278 456,277 456,273 457,272 457,257 456,256 456,255 458,253 465,253 466,252" stroke="black" stroke-width="1" /><polyline fill="none" points="758,247 759,246 767,246 770,249 770,250 771,251 771,254 772,255 772,259 771,260 766,260 765,259 759,259 758,258" stroke="black" stroke-width="1" /><polyline fill="none" points="501,243 505,243 506,244 505,245 504,245 503,246 501,246 501,248 500,249 500,259 501,260 501,261 502,261 503,262 504,262 505,261 506,261 507,260 508,261 508,262 506,264 505,264 504,265 502,265 498,261 498,260 497,259 497,248 498,247 498,246" stroke="black" stroke-width="1" /><polyline fill="none" points="500,243 498,245 498,247 497,248 497,259 498,260 498,262 501,265 504,265 505,264 507,264 508,263 508,260 506,260 504,262 503,262 500,259 500,249 501,248 501,247 502,246 503,246 504,245 506,245 506,243" stroke="black" stroke-width="1" /><polyline fill="none" points="758,239 759,240 762,240 764,242 765,242 767,244 767,245 766,246 759,246 758,247 758,259 765,259 766,260 772,260 772,255 771,254 771,251 770,250 770,248 768,246 768,245 765,242 764,242 762,240 761,240 760,239" stroke="black" stroke-width="1" /><polyline fill="none" points="467,236 468,235 471,235 474,238 474,239 475,240 475,242 476,243 476,246 477,247 477,250 476,251 475,251 474,252 466,252 465,253 457,253 456,252 456,251 455,250 455,247 454,246 454,244 453,243 453,241 451,239 452,238 453,238 454,237 461,237 462,236" stroke="black" stroke-width="1" /><polyline fill="none" points="468,235 467,236 462,236 461,237 454,237 453,238 452,238 451,239 451,240 453,242 453,243 454,244 454,246 455,247 455,250 456,251 456,253 457,254 456,255 456,256 457,257 457,272 456,273 456,277 455,278 455,280 454,281 454,283 453,284 453,285 452,286 452,288 451,289 451,290 450,291 450,294 453,294 454,295 467,295 468,296 472,296 473,295 473,294 474,293 474,291 475,290 475,288 476,287 476,284 477,283 477,280 478,279 478,273 479,272 479,257 478,256 478,254 476,252 477,251 477,247 476,246 476,243 475,242 475,240 474,239 474,237 472,235" stroke="black" stroke-width="1" /><polyline fill="none" points="434,227 435,228 435,242 434,243 434,244 435,245 435,246 436,246 437,247 439,247 445,253 445,254 446,255 446,256 447,257 447,258 448,259 448,272 447,273 447,274 446,275 446,276 445,277 445,278 440,283 439,283 438,284 437,284 436,285 428,285 427,284 426,284 422,280 422,279 421,278 421,277 419,275 419,274 417,272 417,269 416,268 416,263 417,262 417,259 419,257 419,256 420,255 420,254 423,251 423,250 424,249 425,249 426,248 434,248 441,255 441,256 442,257 442,258 443,259 443,269 442,270 442,271 441,272 441,273 439,275 439,276 437,278 436,278 434,280 433,280 432,281 427,281 426,280 425,280 426,280 427,281 432,281 433,280 435,280 437,278 438,278 439,277 439,276 441,274 441,272 442,271 442,270 443,269 443,259 442,258 442,256 441,255 441,254 436,249 435,249 434,248 425,248 424,249 423,249 423,250 421,252 421,253 419,255 419,256 418,257 418,258 417,259 417,262 416,263 416,268 417,269 417,272 418,273 418,274 420,276 420,277 421,278 421,279 422,280 422,281 425,284 426,284 427,285 436,285 437,284 439,284 440,283 441,283 445,279 445,278 446,277 446,276 447,275 447,273 448,272 448,259 447,258 447,256 446,255 446,254 445,253 445,252 441,248 440,248 439,247 437,247 434,244 434,243 435,242 435,228" stroke="black" stroke-width="1" /><polyline fill="none" points="681,224 689,224 690,225 691,225 692,226 693,226 698,231 698,232 699,233 699,234 700,235 700,243 699,244 699,245 698,246 698,247 693,252 692,252 690,254 681,254 680,253 679,253 678,252 677,252 673,248 673,247 671,245 671,244 670,243 670,236 671,235 671,234 672,233 672,232 673,231 674,231 676,233 679,233 680,232 680,231 681,230 681,229 680,228 680,227 679,226" stroke="black" stroke-width="1" /><polyline fill="none" points="680,224 679,225 678,225 679,226 679,227 681,229 681,230 678,233 677,233 675,231 674,231 673,230 672,231 672,232 671,233 671,235 670,236 670,243 671,244 671,246 673,248 673,249 676,252 677,252 678,253 680,253 681,254 690,254 691,253 692,253 693,252 694,252 698,248 698,247 699,246 699,244 700,243 700,235 699,234 699,232 698,231 698,230 694,226 693,226 692,225 690,225 689,224" stroke="black" stroke-width="1" /><polyline fill="none" points="447,224 465,224 466,225 467,225 472,230 472,231 476,235 476,236 477,237 477,239 478,240 478,242 479,243 479,245 480,246 480,250 481,251 481,256 482,257 482,271 481,272 481,279 480,280 480,283 479,284 479,287 478,288 478,291 477,292 477,293 476,294 476,295 474,297 474,298 471,301 471,302 470,303 469,303 466,306 445,306 466,306 467,305 468,305 470,303 471,303 471,302 474,299 474,298 476,296 476,295 477,294 477,292 478,291 478,288 479,287 479,284 480,283 480,280 481,279 481,272 482,271 482,257 481,256 481,251 480,250 480,246 479,245 479,243 478,242 478,239 477,238 477,237 476,236 476,234 472,230 472,229 469,226 468,226 466,224" stroke="black" stroke-width="1" /><polyline fill="none" points="428,223 427,224 424,224 425,225 425,226 426,227 426,238 427,239 427,241 426,242 426,244 432,244 427,244 426,243 426,242 427,241 427,239 426,238 426,227 425,226 425,225 426,224 427,224 428,223 434,223" stroke="black" stroke-width="1" /><polyline fill="none" points="588,221 590,221 592,223 592,224 591,225 591,226 590,227 588,227 585,224" stroke="black" stroke-width="1" /><polyline fill="none" points="588,221 585,224 585,225 587,227 591,227 591,226 592,225 592,222 591,221" stroke="black" stroke-width="1" /><polyline fill="none" points="593,217 592,218 589,218 588,219 586,219 584,221 584,222 587,219 589,219 590,218 592,218 593,217 597,217 598,218 601,218 602,219 603,219 610,226 610,227 611,228 611,230 612,231 612,236 611,237 611,239 610,240 610,241 608,243 608,244 606,246 605,246 603,248 602,248 601,249 598,249 597,250 595,250 594,249 591,249 589,247 588,247 583,242 583,241 582,240 582,239 581,238 581,234 580,233 581,232 581,228 583,226 583,224 583,225 582,226 582,227 581,228 581,232 580,233 581,234 581,238 582,239 582,241 583,242 583,243 587,247 588,247 589,248 590,248 591,249 594,249 595,250 597,250 598,249 601,249 602,248 604,248 606,246 607,246 608,245 608,244 610,242 610,240 611,239 611,237 612,236 612,231 611,230 611,227 610,226 610,225 604,219 602,219 601,218 598,218 597,217" stroke="black" stroke-width="1" /><polyline fill="none" points="684,207 683,208 679,208 678,209 676,209 675,210 674,210 673,211 672,211 670,213 669,213 667,215 666,215 663,218 663,219 658,224 658,226 657,227 658,226 658,225 663,220 663,219 667,215 668,215 670,213 671,213 673,211 674,211 675,210 676,210 677,209 678,209 679,208 683,208 684,207 694,207 695,208 699,208 700,209 701,209 702,210 703,210 704,211 705,211 706,212 707,212 709,214 710,214 717,221 717,222 720,225 720,226 721,227 721,228 722,229 722,231 724,233 724,235 725,236 725,238 726,239 726,241 727,242 727,254 726,255 726,261 725,262 725,263 724,264 724,265 723,266 723,267 722,268 722,269 720,271 720,272 718,274 718,275 708,285 707,285 706,286 705,286 704,287 703,287 702,288 700,288 699,289 697,289 696,290 686,290 685,289 681,289 680,288 679,288 678,287 677,287 676,286 675,286 673,284 672,284 671,283 670,283 666,279 666,280 669,283 670,283 671,284 672,284 674,286 675,286 676,287 677,287 678,288 680,288 681,289 685,289 686,290 696,290 697,289 699,289 700,288 702,288 703,287 705,287 706,286 707,286 708,285 709,285 718,276 718,275 720,273 720,272 722,270 722,269 723,268 723,267 724,266 724,265 725,264 725,263 726,262 726,255 727,254 727,242 726,241 726,239 725,238 725,235 724,234 724,232 722,230 722,228 720,226 720,224 717,221 717,220 711,214 710,214 708,212 707,212 706,211 705,211 704,210 703,210 702,209 700,209 699,208 695,208 694,207" stroke="black" stroke-width="1" /><polyline fill="none" points="680,201 681,200 694,200 695,201 698,201 699,202 701,202 702,203 703,203 704,204 705,204 706,205 707,205 709,207 710,207 712,209 713,209 722,218 722,219 724,221 724,222 725,223 725,224 726,225 726,226 728,228 728,230 729,231 729,233 730,234 730,237 731,238 731,244 732,245 732,251 731,252 731,258 730,259 730,263 729,264 729,266 728,267 728,269 727,270 727,271 726,272 726,273 725,274 725,275 723,277 723,278 719,282 719,283 713,289 712,289 709,292 708,292 707,293 706,293 705,294 704,294 703,295 702,295 701,296 698,296 697,297 684,297 683,296 681,296 680,295 679,295 678,294 677,294 676,293 675,293 673,291 672,291 663,282 663,281 660,278 660,277 659,276 659,275 658,274 658,273 657,272 657,271 656,270 656,269 655,268 655,267 654,266 654,264 653,263 653,259 652,258 652,253 651,252 651,237 652,236 652,231 653,230 653,227 654,226 654,223 655,222 655,221 656,220 656,218 658,216 658,215 659,214 659,213 666,206 667,206 669,204 670,204 671,203 672,203 673,202 675,202 676,201" stroke="black" stroke-width="1" /><polyline fill="none" points="681,200 680,201 676,201 675,202 673,202 672,203 671,203 670,204 668,204 666,206 665,206 659,212 659,213 658,214 658,215 657,216 657,217 656,218 656,219 655,220 655,222 654,223 654,226 653,227 653,230 652,231 652,236 651,237 651,252 652,253 652,258 653,259 653,263 654,264 654,266 655,267 655,269 656,270 656,271 657,272 657,273 658,274 658,275 659,276 659,277 661,279 661,280 663,282 663,283 671,291 672,291 674,293 675,293 676,294 677,294 678,295 680,295 681,296 683,296 684,297 697,297 698,296 701,296 702,295 704,295 705,294 706,294 707,293 708,293 709,292 710,292 713,289 714,289 719,284 719,283 723,279 723,278 725,276 725,275 726,274 726,273 727,272 727,270 728,269 728,267 729,266 729,264 730,263 730,259 731,258 731,252 732,251 732,245 731,244 731,238 730,237 730,234 729,233 729,231 728,230 728,228 727,227 727,226 726,225 726,224 725,223 725,222 724,221 724,220 721,217 721,216 714,209 713,209 711,207 710,207 708,205 707,205 706,204 705,204 704,203 702,203 701,202 699,202 698,201 695,201 694,200" stroke="black" stroke-width="1" /><polyline fill="none" points="426,198 433,198 434,199 434,213 433,214 433,219 432,220 426,220 425,219 425,202 424,201 424,200" stroke="black" stroke-width="1" /><polyline fill="none" points="426,198 425,199 423,199 424,200 424,201 425,202 425,219 426,220 425,221 424,221 425,221 426,220 434,220 433,219 433,214 434,213 434,198" stroke="black" stroke-width="1" /><polyline fill="none" points="566,192 567,191 585,191 586,192 588,192 589,193 591,193 592,194 593,194 594,195 595,195 596,196 597,196 599,198 600,198 603,201 604,201 610,207 610,208 613,211 613,212 614,213 614,215 615,216 615,217 616,218 616,219 617,220 617,221 618,222 618,224 619,225 619,228 620,229 620,236 621,237 621,245 620,246 620,252 619,253 619,256 618,257 618,259 617,260 617,262 616,263 616,264 615,265 615,266 613,268 613,269 612,270 612,271 611,272 611,273 608,276 608,277 603,282 602,282 598,286 597,286 595,288 594,288 593,289 592,289 591,290 590,290 589,291 587,291 586,292 584,292 583,293 578,293 577,294 572,294 571,293 564,293 563,292 561,292 560,291 559,291 558,290 557,290 556,289 555,289 554,288 553,288 551,286 550,286 547,283 546,283 543,280 543,279 538,274 538,273 536,271 536,270 535,269 535,268 534,267 534,266 533,265 533,264 532,263 532,261 531,260 531,258 530,257 530,254 529,253 529,247 528,246 528,238 529,237 529,230 530,229 530,226 531,225 531,222 532,221 532,220 533,219 533,217 534,216 534,215 536,213 536,212 539,209 539,208 543,204 544,204 549,199 550,199 551,198 552,198 553,197 554,197 555,196 556,196 557,195 558,195 559,194 560,194 561,193 562,193 563,192" stroke="black" stroke-width="1" /><polyline fill="none" points="567,191 566,192 563,192 562,193 561,193 560,194 558,194 557,195 556,195 555,196 554,196 553,197 552,197 551,198 550,198 549,199 548,199 542,205 541,205 539,207 539,208 536,211 536,212 534,214 534,216 533,217 533,219 532,220 532,221 531,222 531,225 530,226 530,229 529,230 529,237 528,238 528,246 529,247 529,253 530,254 530,257 531,258 531,260 532,261 532,263 533,264 533,266 534,267 534,268 535,269 535,270 536,271 536,272 538,274 538,275 543,280 543,281 544,282 545,282 549,286 550,286 552,288 553,288 554,289 555,289 556,290 557,290 558,291 560,291 561,292 563,292 564,293 571,293 572,294 577,294 578,293 583,293 584,292 586,292 587,291 589,291 590,290 592,290 593,289 594,289 595,288 596,288 598,286 599,286 603,282 604,282 608,278 608,277 611,274 611,273 612,272 612,271 613,270 613,269 615,267 615,266 616,265 616,263 617,262 617,260 618,259 618,257 619,256 619,253 620,252 620,246 621,245 621,237 620,236 620,229 619,228 619,225 618,224 618,222 617,221 617,219 616,218 616,217 615,216 615,215 614,214 614,212 613,211 613,210 610,207 610,206 605,201 604,201 601,198 600,198 598,196 597,196 596,195 595,195 594,194 592,194 591,193 589,193 588,192 586,192 585,191" stroke="black" stroke-width="1" /><polyline fill="none" points="686,190 685,191 682,191 681,192 679,192 678,193 677,193 676,194 675,194 674,195 673,195 671,197 670,197 666,201 665,201 659,207 659,208 656,211 656,213 655,214 656,213 656,212 657,211 657,210 666,201 667,201 671,197 672,197 674,195 675,195 676,194 677,194 679,192 681,192 682,191 685,191 686,190 695,190 696,191 701,191 702,192 704,192 705,193 707,193 708,194 709,194 710,195 711,195 713,197 714,197 715,198 716,198 720,202 721,202 725,206 725,207 729,211 729,212 731,214 731,215 732,216 732,217 734,219 734,220 735,221 735,223 737,225 737,227 738,228 738,231 739,232 739,235 740,236 740,244 741,245 741,249 740,250 740,258 739,259 739,263 738,264 738,266 737,267 737,268 736,269 736,270 735,271 735,272 734,273 734,274 733,275 733,276 732,277 732,278 730,280 730,281 728,283 728,284 723,289 722,289 718,293 717,293 715,295 714,295 713,296 712,296 711,297 709,297 708,298 707,298 706,299 704,299 703,300 698,300 697,301 690,301 689,300 684,300 683,299 679,299 678,298 677,298 676,297 675,297 673,295 672,295 671,294 670,294 659,283 659,282 658,281 659,282 659,283 670,294 671,294 673,296 674,296 675,297 676,297 677,298 678,298 679,299 683,299 684,300 689,300 690,301 697,301 698,300 703,300 704,299 706,299 707,298 709,298 710,297 711,297 712,296 714,296 715,295 716,295 718,293 719,293 723,289 724,289 728,285 728,284 730,282 730,281 732,279 732,278 733,277 733,276 734,275 734,274 735,273 735,272 736,271 736,270 737,269 737,267 738,266 738,264 739,263 739,259 740,258 740,250 741,249 741,245 740,244 740,236 739,235 739,232 738,231 738,228 737,227 737,225 736,224 736,223 735,222 735,220 734,219 734,218 732,216 732,215 731,214 731,213 729,211 729,210 725,206 725,205 722,202 721,202 717,198 716,198 715,197 714,197 712,195 711,195 710,194 708,194 707,193 705,193 704,192 702,192 701,191 696,191 695,190" stroke="black" stroke-width="1" /><polyline fill="none" points="576,181 575,182 569,182 568,183 565,183 564,184 562,184 561,185 559,185 558,186 557,186 556,187 555,187 553,189 552,189 550,191 549,191 541,199 541,200 537,204 537,205 534,208 534,209 533,210 533,211 532,212 532,213 531,214 531,216 530,217 530,218 529,219 529,221 528,222 528,223 527,224 527,228 527,225 528,224 528,222 529,221 529,219 530,218 530,217 531,216 531,214 532,213 532,212 533,211 533,210 537,206 537,205 541,201 541,200 550,191 551,191 553,189 554,189 556,187 557,187 558,186 559,186 560,185 561,185 562,184 564,184 565,183 568,183 569,182 575,182 576,181 579,181 580,182 587,182 588,183 591,183 592,184 594,184 595,185 596,185 597,186 598,186 599,187 600,187 601,188 602,188 604,190 605,190 609,194 610,194 615,199 615,200 618,203 618,204 620,206 620,207 622,209 622,210 623,211 623,212 624,213 624,215 625,216 625,217 626,218 626,220 627,221 627,224 628,225 628,229 629,230 629,249 628,250 628,253 627,254 627,256 626,257 626,259 625,260 625,261 624,262 624,264 622,266 622,267 621,268 621,269 620,270 620,271 619,272 619,273 617,275 617,276 606,287 605,287 603,289 602,289 600,291 599,291 598,292 597,292 596,293 595,293 594,294 593,294 592,295 590,295 589,296 586,296 585,297 569,297 568,296 563,296 562,295 560,295 559,294 557,294 556,293 555,293 554,292 553,292 552,291 551,291 549,289 548,289 549,289 551,291 552,291 553,292 554,292 555,293 556,293 557,294 559,294 560,295 562,295 563,296 568,296 569,297 585,297 586,296 589,296 590,295 592,295 593,294 595,294 596,293 597,293 598,292 599,292 600,291 601,291 603,289 604,289 606,287 607,287 617,277 617,276 619,274 619,273 620,272 620,271 621,270 621,269 622,268 622,267 623,266 623,265 624,264 624,262 625,261 625,260 626,259 626,257 627,256 627,254 628,253 628,250 629,249 629,230 628,229 628,225 627,224 627,221 626,220 626,217 624,215 624,213 623,212 623,210 622,209 622,208 620,206 620,205 618,203 618,202 614,198 614,197 611,194 610,194 606,190 605,190 603,188 602,188 601,187 600,187 599,186 598,186 597,185 595,185 594,184 592,184 591,183 588,183 587,182 580,182 579,181" stroke="black" stroke-width="1" /><polyline fill="none" points="429,172 428,173 425,173 428,173 429,172 430,173" stroke="black" stroke-width="1" /><polyline fill="none" points="639,159 639,163 640,164 640,166 641,167 641,168 642,169 646,169 647,170 654,170 655,171 661,171 662,172 666,172 667,173 671,173 672,174 675,174 676,175 678,175 679,176 681,176 682,177 685,177 686,178 687,178 688,179 690,179 691,180 692,180 693,181 695,181 696,182 697,182 698,183 700,183 701,184 702,184 703,185 704,185 705,186 706,186 707,187 708,187 709,188 710,188 711,189 712,189 713,190 714,190 715,191 716,191 718,193 719,193 720,194 721,194 722,195 723,195 725,197 726,197 728,199 729,199 740,210 740,211 741,212 741,213 742,214 742,215 743,216 743,218 744,219 744,221 745,222 745,227 746,228 746,235 747,236 747,278 746,279 746,292 745,293 745,305 744,306 744,314 743,315 743,324 742,325 742,332 741,333 741,335 741,333 742,332 742,325 743,324 743,315 744,314 744,306 745,305 745,293 746,292 746,279 747,278 747,236 746,235 746,228 745,227 745,222 744,221 744,219 743,218 743,216 742,215 742,213 741,212 741,211 740,210 740,209 730,199 729,199 727,197 726,197 724,195 723,195 722,194 721,194 720,193 719,193 717,191 716,191 715,190 714,190 713,189 712,189 711,188 710,188 709,187 708,187 707,186 706,186 705,185 704,185 703,184 701,184 700,183 699,183 698,182 697,182 696,181 694,181 693,180 691,180 690,179 688,179 687,178 686,178 685,177 682,177 681,176 679,176 678,175 676,175 675,174 672,174 671,173 667,173 666,172 662,172 661,171 655,171 654,170 647,170 646,169 643,169 641,167 641,166 640,165 640,163 639,162 639,160 640,159 654,159 655,160 662,160 663,161 667,161 668,162 673,162 674,163 677,163 678,164 681,164 682,165 684,165 685,166 688,166 689,167 691,167 692,168 694,168 695,169 696,169 697,170 699,170 700,171 701,171 702,172 704,172 706,174 708,174 709,175 710,175 711,176 712,176 713,177 714,177 715,178 716,178 717,179 718,179 719,180 720,180 721,181 722,181 723,182 724,182 725,183 726,183 727,184 728,184 730,186 731,186 732,187 733,187 734,188 735,188 736,189 737,189 739,191 740,191 741,192 742,192 743,193 744,193 746,195 747,195 748,196 749,196 750,197 750,198 751,199 751,203 752,204 752,212 753,213 753,224 754,225 754,236 755,237 755,247 754,248 754,252 755,253 755,275 754,276 754,285 753,286 753,304 752,305 752,307 751,308 751,317 750,318 750,330 749,331 749,335 747,337 745,337 744,338 742,338 741,337 740,338 739,338 738,339 732,339 731,340 712,340 711,341 614,341 613,342 599,342 598,341 551,341 550,340 525,340 524,339 506,339 505,338 496,338 494,336 494,280 493,279 493,278 494,277 494,267 493,266 493,196 494,195 494,193 493,192 494,191 494,172 495,171 494,172 494,191 493,192 494,193 494,195 493,196 493,266 494,267 494,277 493,278 493,279 494,280 494,337 495,338 505,338 506,339 524,339 525,340 550,340 551,341 598,341 599,342 613,342 614,341 711,341 712,340 731,340 732,339 738,339 739,338 744,338 745,337 748,337 749,336 749,331 750,330 750,318 751,317 751,308 752,307 752,305 753,304 753,286 754,285 754,276 755,275 755,253 754,252 754,248 755,247 755,237 754,236 754,225 753,224 753,213 752,212 752,204 751,203 751,199 750,198 750,196 749,196 748,195 747,195 745,193 744,193 743,192 742,192 741,191 740,191 738,189 737,189 736,188 735,188 734,187 733,187 732,186 731,186 729,184 728,184 727,183 726,183 725,182 724,182 723,181 722,181 721,180 720,180 719,179 718,179 717,178 716,178 715,177 714,177 713,176 712,176 711,175 710,175 709,174 707,174 706,173 705,173 704,172 702,172 701,171 700,171 699,170 697,170 696,169 695,169 694,168 692,168 691,167 689,167 688,166 685,166 684,165 682,165 681,164 678,164 677,163 674,163 673,162 668,162 667,161 663,161 662,160 655,160 654,159" stroke="black" stroke-width="1" /><polyline fill="none" points="663,156 664,156 665,157 670,157 671,158 675,158 676,159 678,159 679,160 682,160 683,161 685,161 686,162 688,162 689,163 691,163 692,164 694,164 695,165 697,165 698,166 699,166 700,167 701,167 702,168 704,168 705,169 706,169 707,170 708,170 709,171 710,171 711,172 713,172 715,174 717,174 718,175 719,175 721,177 722,177 723,178 724,178 725,179 726,179 727,180 728,180 729,181 730,181 731,182 732,182 734,184 735,184 736,185 737,185 738,186 739,186 740,187 741,187 743,189 744,189 745,190 746,190 748,192 749,192 750,193 751,193 753,195 753,197 754,198 754,203 755,204 755,210 756,211 756,223 757,224 757,235 758,235 759,236 758,237 757,237 758,237 759,236 761,236 762,237 763,237 765,239 766,239 771,244 771,245 772,246 772,247 773,248 773,250 774,251 774,253 775,254 775,258 776,259 776,282 775,283 775,287 774,288 774,291 773,292 773,294 772,295 772,296 770,298 770,299 768,301 768,302 764,306 763,306 762,307 761,307 760,308 756,308 755,307 755,306 754,307 755,307 756,308 760,308 761,307 763,307 764,306 765,306 768,303 768,302 770,300 770,299 772,297 772,295 773,294 773,292 774,291 774,288 775,287 775,283 776,282 776,259 775,258 775,254 774,253 774,251 773,250 773,248 772,247 772,245 771,244 771,243 767,239 766,239 764,237 762,237 761,236 759,236 757,234 757,224 756,223 756,211 755,210 755,204 754,203 754,198 753,197 753,194 752,193 751,193 750,192 749,192 747,190 746,190 745,189 744,189 742,187 741,187 740,186 739,186 738,185 737,185 736,184 735,184 733,182 732,182 731,181 730,181 729,180 728,180 727,179 726,179 725,178 724,178 723,177 722,177 720,175 719,175 718,174 716,174 715,173 714,173 713,172 712,172 711,171 710,171 709,170 708,170 707,169 706,169 705,168 703,168 702,167 700,167 699,166 698,166 697,165 695,165 694,164 692,164 691,163 689,163 688,162 686,162 685,161 683,161 682,160 679,160 678,159 676,159 675,158 671,158 670,157 665,157 664,156" stroke="black" stroke-width="1" /><polyline fill="none" points="426,143 426,169 425,170 429,170 430,169 429,170 427,170 426,169" stroke="black" stroke-width="1" /><polyline fill="none" points="585,132 586,131 605,131 606,132 614,132 615,133 617,133 619,135 620,135 622,137 622,140 621,141 604,141 603,140 588,140 587,141 586,141 585,140 580,140 579,139 578,139 577,138 577,136 581,132" stroke="black" stroke-width="1" /><polyline fill="none" points="586,131 585,132 580,132 577,135 577,139 578,139 579,140 585,140 586,141 587,141 588,140 603,140 604,141 621,141 622,140 623,140 622,139 622,136 621,135 620,135 618,133 615,133 614,132 606,132 605,131" stroke="black" stroke-width="1" /><polyline fill="none" points="423,112 422,113 420,113 419,114 418,114 413,119 413,120 412,121 412,122 411,123 411,131 412,132 412,133 413,134 413,135 416,138 417,138 418,139 420,139 421,140 422,140 423,141 429,141 430,140 432,140 433,139 435,139 440,134 440,133 441,132 441,129 442,128 441,127 441,125 441,127 442,128 441,129 441,132 439,134 439,135 436,138 435,138 434,139 433,139 432,140 430,140 429,141 423,141 422,140 421,140 420,139 418,139 412,133 412,132 411,131 411,123 412,122 412,121 414,119 414,118 417,115 418,115 420,113 422,113 423,112 429,112 430,113 431,113 433,115 434,115 440,121 440,122 438,124 437,124 436,125 434,125 430,121 430,117 431,116 430,116 430,122 433,125 436,125 437,124 439,124 439,123 440,122 440,121 439,120 439,119 435,115 433,115 431,113 430,113 429,112" stroke="black" stroke-width="1" /><polyline fill="none" points="423,109 422,110 419,110 418,111 417,111 416,112 415,112 411,116 411,117 410,118 410,119 409,120 409,122 408,123 408,131 409,132 409,134 410,135 410,136 412,138 412,139 413,140 414,140 415,141 416,141 417,142 420,142 422,144 422,150 423,151 423,171 422,172 422,173 423,174 423,191 424,192 424,193 423,194 423,195 422,196 421,196 420,197 420,198 421,199 421,215 422,216 422,234 423,235 423,242 421,244 421,246 420,247 420,248 419,249 419,250 418,251 418,252 416,254 416,255 415,256 415,258 414,259 414,262 413,263 413,267 414,268 414,272 415,273 415,275 416,276 416,277 418,279 418,280 419,281 419,283 420,284 420,287 421,288 421,289 422,290 422,292 423,293 423,294 425,296 425,297 432,304 434,304 435,305 439,305 440,306 442,306 443,307 443,318 444,319 444,334 445,335 445,338 446,338 447,339 452,339 453,340 460,340 461,341 468,341 469,342 476,342 477,343 484,343 485,344 491,344 492,345 499,345 500,346 506,346 507,347 517,347 518,348 524,348 525,349 534,349 535,350 545,350 546,351 555,351 556,352 567,352 568,353 571,353 573,355 573,368 574,369 590,369 591,368 594,368 595,367 597,367 598,366 601,366 602,365 605,365 606,364 611,364 612,363 617,363 618,362 623,362 624,361 625,361 627,363 627,370 626,371 618,371 617,370 599,370 617,370 618,371 626,371 627,370 628,371 629,371 628,371 627,370 627,362 626,362 625,361 624,361 623,362 618,362 617,363 612,363 611,364 606,364 605,365 602,365 601,366 598,366 597,367 595,367 594,368 591,368 590,369 575,369 573,367 573,355 572,354 572,353 571,352 570,353 568,353 567,352 556,352 555,351 546,351 545,350 535,350 534,349 525,349 524,348 518,348 517,347 507,347 506,346 500,346 499,345 492,345 491,344 485,344 484,343 477,343 476,342 469,342 468,341 461,341 460,340 453,340 452,339 447,339 445,337 445,335 444,334 444,319 443,318 443,306 440,306 439,305 435,305 434,304 433,304 425,296 425,295 423,293 423,292 422,291 422,290 421,289 421,288 420,287 420,284 419,283 419,281 418,280 418,278 416,276 416,275 415,274 415,273 414,272 414,268 413,267 413,263 414,262 414,259 415,258 415,257 416,256 416,255 418,253 418,251 419,250 419,249 420,248 420,247 421,246 421,245 423,243 423,235 422,234 422,216 421,215 421,199 420,198 422,196 423,196 424,195 423,194 424,193 424,192 423,191 423,174 422,173 422,172 423,171 423,151 422,150 422,143 421,143 420,142 417,142 415,140 414,140 412,138 412,137 410,135 410,134 409,133 409,132 408,131 408,123 409,122 409,121 410,120 410,119 411,118 411,117 416,112 417,112 419,110 422,110 423,109 430,109 431,110 433,110 435,112 436,112 442,118 442,119 443,120 443,121 444,122 444,132 443,133 443,134 442,135 442,136 437,141 436,141 435,142 433,142 432,143 432,170 433,171 433,172 432,173 433,174 433,192 434,193 432,195 426,195 432,195 433,194 434,195 435,195 437,197 437,214 436,215 436,224 437,225 436,226 437,226 438,227 439,227 440,226 442,226 443,225 444,225 444,216 445,215 445,200 446,199 446,192 448,190 449,190 450,189 451,189 452,188 453,188 455,186 456,186 457,185 458,185 459,184 460,184 461,183 462,183 463,182 464,182 465,181 466,181 467,180 468,180 469,179 470,179 471,178 473,178 475,176 477,176 478,175 479,175 480,174 481,174 482,173 483,173 484,172 486,172 487,171 489,171 490,170 491,170 493,168 494,168 495,167 498,167 499,166 502,166 503,165 506,165 507,164 510,164 511,163 514,163 515,162 519,162 520,161 523,161 524,160 524,159 525,158 525,157 526,156 526,155 535,146 536,146 538,144 539,144 541,142 542,142 543,141 544,141 545,140 546,140 547,139 548,139 549,138 550,138 551,137 552,137 553,136 555,136 556,135 557,135 558,134 560,134 561,133 564,133 565,132 567,132 568,131 572,131 573,130 577,130 578,129 585,129 586,128 605,128 606,129 615,129 616,130 619,130 620,131 624,131 625,132 628,132 629,133 631,133 632,134 634,134 635,135 637,135 638,136 639,136 640,137 641,137 642,138 643,138 644,139 645,139 646,140 647,140 648,141 649,141 651,143 652,143 654,145 655,145 660,150 660,151 661,152 661,153 662,154 661,155 659,155 658,154 658,152 658,154 657,155 654,155 653,154 645,154 644,153 640,153 639,154 638,154 637,153 624,153 623,152 592,152 591,153 579,153 578,154 574,154 573,153 572,153 571,154 566,154 565,155 556,155 555,156 551,156 550,157 544,157 543,158 538,158 537,159 532,159 531,160 526,160 531,160 532,159 537,159 538,158 543,158 544,157 550,157 551,156 555,156 556,155 565,155 566,154 578,154 579,153 591,153 592,152 623,152 624,153 637,153 638,154 639,154 640,153 644,153 645,154 653,154 654,155 661,155 662,154 661,153 661,151 660,150 660,149 656,145 655,145 653,143 652,143 650,141 649,141 648,140 647,140 646,139 645,139 644,138 643,138 642,137 640,137 639,136 638,136 637,135 635,135 634,134 632,134 631,133 629,133 628,132 625,132 624,131 620,131 619,130 616,130 615,129 606,129 605,128 586,128 585,129 578,129 577,130 573,130 572,131 568,131 567,132 565,132 564,133 561,133 560,134 558,134 557,135 556,135 555,136 553,136 552,137 551,137 550,138 548,138 547,139 546,139 545,140 544,140 543,141 542,141 541,142 540,142 538,144 537,144 535,146 534,146 526,154 526,156 525,157 525,158 522,161 520,161 519,162 515,162 514,163 511,163 510,164 507,164 506,165 503,165 502,166 499,166 498,167 495,167 494,168 493,168 492,169 491,169 490,170 489,170 488,171 486,171 485,172 484,172 483,173 481,173 480,174 479,174 478,175 477,175 476,176 475,176 474,177 473,177 472,178 470,178 469,179 468,179 467,180 466,180 465,181 464,181 463,182 462,182 461,183 460,183 459,184 458,184 457,185 456,185 455,186 454,186 452,188 451,188 450,189 449,189 448,190 447,190 446,191 446,199 445,200 445,215 444,216 444,224 443,225 442,225 441,226 440,226 439,227 438,227 437,226 437,225 436,224 436,215 437,214 437,196 436,195 435,195 434,194 434,193 433,192 433,170 432,169 432,144 434,142 435,142 436,141 438,141 442,137 442,136 443,135 443,133 444,132 444,122 443,121 443,119 442,118 442,117 437,112 436,112 435,111 434,111 433,110 431,110 430,109" stroke="black" stroke-width="1" /></svg>